  0
SECTION
  2
HEADER
  9
$ACADVER
  1
AC1009
  9
$DWGCODEPAGE
  3
ansi_1252
  9
$INSBASE
 10
0.0
 20
0.0
 30
0.0
  9
$EXTMIN
 10
1.000000000000000E+20
 20
1.000000000000000E+20
 30
1.000000000000000E+20
  9
$EXTMAX
 10
-1.000000000000000E+20
 20
-1.000000000000000E+20
 30
-1.000000000000000E+20
  9
$LIMMIN
 10
0.0
 20
0.0
  9
$LIMMAX
 10
12.0
 20
9.0
  9
$ORTHOMODE
 70
     0
  9
$REGENMODE
 70
     1
  9
$FILLMODE
 70
     1
  9
$QTEXTMODE
 70
     0
  9
$MIRRTEXT
 70
     1
  9
$DRAGMODE
 70
     2
  9
$LTSCALE
 40
1.0
  9
$OSMODE
 70
    37
  9
$ATTMODE
 70
     1
  9
$TEXTSIZE
 40
0.2
  9
$TRACEWID
 40
0.05
  9
$TEXTSTYLE
  7
STANDARD
  9
$CLAYER
  8
0
  9
$CELTYPE
  6
BYLAYER
  9
$CECOLOR
 62
   256
  9
$DIMSCALE
 40
1.0
  9
$DIMASZ
 40
2.5
  9
$DIMEXO
 40
0.625
  9
$DIMDLI
 40
0.38
  9
$DIMRND
 40
0.0
  9
$DIMDLE
 40
0.0
  9
$DIMEXE
 40
1.25
  9
$DIMTP
 40
0.0
  9
$DIMTM
 40
0.0
  9
$DIMTXT
 40
2.5
  9
$DIMCEN
 40
0.09
  9
$DIMTSZ
 40
0.0
  9
$DIMTOL
 70
     0
  9
$DIMLIM
 70
     0
  9
$DIMTIH
 70
     1
  9
$DIMTOH
 70
     1
  9
$DIMSE1
 70
     0
  9
$DIMSE2
 70
     0
  9
$DIMTAD
 70
     0
  9
$DIMZIN
 70
     8
  9
$DIMBLK
  1

  9
$DIMASO
 70
     1
  9
$DIMSHO
 70
     1
  9
$DIMPOST
  1

  9
$DIMAPOST
  1

  9
$DIMALT
 70
     0
  9
$DIMALTD
 70
     2
  9
$DIMALTF
 40
25.4
  9
$DIMLFAC
 40
1.0
  9
$DIMTOFL
 70
     0
  9
$DIMTVP
 40
0.0
  9
$DIMTIX
 70
     0
  9
$DIMSOXD
 70
     0
  9
$DIMSAH
 70
     0
  9
$DIMBLK1
  1

  9
$DIMBLK2
  1

  9
$DIMSTYLE
  2
STANDARD
  9
$DIMCLRD
 70
     0
  9
$DIMCLRE
 70
     0
  9
$DIMCLRT
 70
     0
  9
$DIMTFAC
 40
1.0
  9
$DIMGAP
 40
0.625
  9
$LUNITS
 70
     2
  9
$LUPREC
 70
     4
  9
$SKETCHINC
 40
0.1
  9
$FILLETRAD
 40
0.5
  9
$AUNITS
 70
     0
  9
$AUPREC
 70
     0
  9
$MENU
  1
.
  9
$ELEVATION
 40
0.0
  9
$PELEVATION
 40
0.0
  9
$THICKNESS
 40
0.0
  9
$LIMCHECK
 70
     0
  9
$CHAMFERA
 40
0.0
  9
$CHAMFERB
 40
0.0
  9
$SKPOLY
 70
     0
  9
$TDCREATE
 40
2457698.756621134
  9
$TDUPDATE
 40
2457698.756621181
  9
$TDINDWG
 40
0.0000000116
  9
$TDUSRTIMER
 40
0.0000000116
  9
$USRTIMER
 70
     1
  9
$ANGBASE
 50
0.0
  9
$ANGDIR
 70
     0
  9
$PDMODE
 70
     0
  9
$PDSIZE
 40
0.0
  9
$PLINEWID
 40
0.0
  9
$COORDS
 70
     1
  9
$SPLFRAME
 70
     0
  9
$SPLINETYPE
 70
     6
  9
$SPLINESEGS
 70
     8
  9
$ATTDIA
 70
     0
  9
$ATTREQ
 70
     1
  9
$HANDLING
 70
     1
  9
$HANDSEED
  5
1D5
  9
$SURFTAB1
 70
     6
  9
$SURFTAB2
 70
     6
  9
$SURFTYPE
 70
     6
  9
$SURFU
 70
     6
  9
$SURFV
 70
     6
  9
$UCSNAME
  2

  9
$UCSORG
 10
0.0
 20
0.0
 30
0.0
  9
$UCSXDIR
 10
1.0
 20
0.0
 30
0.0
  9
$UCSYDIR
 10
0.0
 20
1.0
 30
0.0
  9
$PUCSNAME
  2

  9
$PUCSORG
 10
0.0
 20
0.0
 30
0.0
  9
$PUCSXDIR
 10
1.0
 20
0.0
 30
0.0
  9
$PUCSYDIR
 10
0.0
 20
1.0
 30
0.0
  9
$USERI1
 70
     0
  9
$USERI2
 70
     0
  9
$USERI3
 70
     0
  9
$USERI4
 70
     0
  9
$USERI5
 70
     0
  9
$USERR1
 40
0.0
  9
$USERR2
 40
0.0
  9
$USERR3
 40
0.0
  9
$USERR4
 40
0.0
  9
$USERR5
 40
0.0
  9
$WORLDVIEW
 70
     1
  9
$SHADEDGE
 70
     3
  9
$SHADEDIF
 70
    70
  9
$TILEMODE
 70
     1
  9
$MAXACTVP
 70
    64
  9
$PLIMCHECK
 70
     0
  9
$PEXTMIN
 10
0.0
 20
0.0
 30
0.0
  9
$PEXTMAX
 10
0.0
 20
0.0
 30
0.0
  9
$PLIMMIN
 10
-20.0
 20
-7.5
  9
$PLIMMAX
 10
277.0
 20
202.5
  9
$UNITMODE
 70
     0
  9
$VISRETAIN
 70
     1
  9
$PLINEGEN
 70
     0
  9
$PSLTSCALE
 70
     1
  0
ENDSEC
  0
SECTION
  2
TABLES
  0
TABLE
  2
VPORT
 70
     1
  0
VPORT
  2
*ACTIVE
 70
     0
 10
0.0
 20
0.0
 11
1.0
 21
1.0
 12
175.570405405489
 22
98.87689504495316
 13
0.0
 23
0.0
 14
0.5
 24
0.5
 15
0.5
 25
0.5
 16
0.0
 26
0.0
 36
1.0
 17
0.0
 27
0.0
 37
0.0
 40
310.2059947622398
 41
1.217564870259481
 42
50.0
 43
0.0
 44
0.0
 50
0.0
 51
0.0
 71
     0
 72
   100
 73
     1
 74
     3
 75
     0
 76
     0
 77
     0
 78
     0
  0
ENDTAB
  0
TABLE
  2
LTYPE
 70
    52
  0
LTYPE
  2
CONTINUOUS
 70
     0
  3
Solid line
 72
    65
 73
     0
 40
0.0
  0
LTYPE
  2
GAS_LINE
 70
     0
  3
Gas line ----GAS----GAS----GAS----GAS----GAS----GAS--
 72
    65
 73
     3
 40
24.13
 49
12.7
 49
-5.08
 49
-6.35
  0
LTYPE
  2
HIDDEN
 70
     0
  3
Hidden __ __ __ __ __ __ __ __ __ __ __ __ __ __
 72
    65
 73
     2
 40
9.524999999999999
 49
6.35
 49
-3.175
  0
LTYPE
  2
HIDDEN2
 70
     0
  3
Hidden (.5x) _ _ _ _ _ _ _ _ _ _ _ _ _ _ _ _ _ 
 72
    65
 73
     2
 40
4.762499999999999
 49
3.175
 49
-1.5875
  0
LTYPE
  2
HIDDENX2
 70
     0
  3
Hidden (2x) ____ ____ ____ ____ ____ ____ ____ 
 72
    65
 73
     2
 40
19.05
 49
12.7
 49
-6.35
  0
LTYPE
  2
HOT_WATER_SUPPLY
 70
     0
  3
Hot water supply ---- HW ---- HW ---- HW ----
 72
    65
 73
     3
 40
22.86
 49
12.7
 49
-5.08
 49
-5.08
  0
LTYPE
  2
PHANTOM
 70
     0
  3
Phantom ______  __  __  ______  __  __  ______ 
 72
    65
 73
     6
 40
63.50000000000001
 49
31.75
 49
-6.35
 49
6.35
 49
-6.35
 49
6.35
 49
-6.35
  0
LTYPE
  2
PHANTOM2
 70
     0
  3
Phantom (.5x) ___ _ _ ___ _ _ ___ _ _ ___ _ _
 72
    65
 73
     6
 40
31.75
 49
15.875
 49
-3.175
 49
3.175
 49
-3.175
 49
3.175
 49
-3.175
  0
LTYPE
  2
PHANTOMX2
 70
     0
  3
Phantom (2x) ____________    ____    ____   _
 72
    65
 73
     6
 40
127.0
 49
63.5
 49
-12.7
 49
12.7
 49
-12.7
 49
12.7
 49
-12.7
  0
LTYPE
  2
TRACKS
 70
     0
  3
Tracks -|-|-|-|-|-|-|-|-|-|-|-|-|-|-|-|-|-|-|-|-|-|-|-|-
 72
    65
 73
     2
 40
7.62
 49
3.81
 49
3.81
  0
LTYPE
  2
ZIGZAG
 70
     0
  3
Zig zag /\/\/\/\/\/\/\/\/\/\/\/\/\/\/\/\/\/\/\/\/\/\/\/
 72
    65
 73
     4
 40
20.32254
 49
0.00254
 49
-5.08
 49
-10.16
 49
-5.08
  0
LTYPE
  2
CUTRIGHT2
 70
     0
  3
G42 reversed----\----\----\----
 72
    65
 73
     2
 40
10.16
 49
5.08
 49
5.08
  0
LTYPE
  2
DASHDOT
 70
     0
  3
Dash dot __ . __ . __ . __ . __ . __ . __ . __
 72
    65
 73
     4
 40
25.4
 49
12.7
 49
-6.35
 49
0.0
 49
-6.35
  0
LTYPE
  2
DASHDOT2
 70
     0
  3
Dash dot (.5x) _._._._._._._._._._._._._._._.
 72
    65
 73
     4
 40
12.7
 49
6.35
 49
-3.175
 49
0.0
 49
-3.175
  0
LTYPE
  2
DASHDOTX2
 70
     0
  3
Dash dot (2x) ____  .  ____  .  ____  .  ___
 72
    65
 73
     4
 40
50.8
 49
25.4
 49
-12.7
 49
0.0
 49
-12.7
  0
LTYPE
  2
DASHED
 70
     0
  3
Dashed __ __ __ __ __ __ __ __ __ __ __ __ __ _
 72
    65
 73
     2
 40
19.05
 49
12.7
 49
-6.35
  0
LTYPE
  2
DASHED2
 70
     0
  3
Dashed (.5x) _ _ _ _ _ _ _ _ _ _ _ _ _ _ _ _ _ 
 72
    65
 73
     2
 40
9.524999999999999
 49
6.35
 49
-3.175
  0
LTYPE
  2
DASHEDX2
 70
     0
  3
Dashed (2x) ____  ____  ____  ____  ____  ___
 72
    65
 73
     2
 40
38.09999999999999
 49
25.4
 49
-12.7
  0
LTYPE
  2
DIVIDE
 70
     0
  3
Divide ____ . . ____ . . ____ . . ____ . . ____
 72
    65
 73
     6
 40
31.75
 49
12.7
 49
-6.35
 49
0.0
 49
-6.35
 49
0.0
 49
-6.35
  0
LTYPE
  2
DIVIDE2
 70
     0
  3
Divide (.5x) __..__..__..__..__..__..__..__.._
 72
    65
 73
     6
 40
15.875
 49
6.35
 49
-3.175
 49
0.0
 49
-3.175
 49
0.0
 49
-3.175
  0
LTYPE
  2
DIVIDEX2
 70
     0
  3
Divide (2x) ________  .  .  ________  .  .  _
 72
    65
 73
     6
 40
63.5
 49
25.4
 49
-12.7
 49
0.0
 49
-12.7
 49
0.0
 49
-12.7
  0
LTYPE
  2
DOT
 70
     0
  3
Dot . . . . . . . . . . . . . . . . . . . . . . . .
 72
    65
 73
     2
 40
6.35
 49
0.0
 49
-6.35
  0
LTYPE
  2
DOT2
 70
     0
  3
Dot (.5x) ........................................
 72
    65
 73
     2
 40
3.175
 49
0.0
 49
-3.175
  0
LTYPE
  2
DOTX2
 70
     0
  3
Dot (2x) .  .  .  .  .  .  .  .  .  .  .  .  .  .
 72
    65
 73
     2
 40
12.7
 49
0.0
 49
-12.7
  0
LTYPE
  2
DRAINAGE
 70
     0
  3
Drainage ---->---->---->----
 72
    65
 73
     2
 40
10.16
 49
5.08
 49
5.08
  0
LTYPE
  2
DRAINAGE2
 70
     0
  3
Drainage reversed----<----<----<----
 72
    65
 73
     2
 40
10.16
 49
5.08
 49
5.08
  0
LTYPE
  2
FENCELINE1
 70
     0
  3
Fenceline circle ----0-----0----0-----0----0-----0--
 72
    65
 73
     4
 40
36.83
 49
6.35
 49
-2.54
 49
-2.54
 49
25.4
  0
LTYPE
  2
ACAD_ISO10W100
 70
     0
  3
ISO dash dot __ . __ . __ . __ . __ . __ . __ . 
 72
    65
 73
     4
 40
18.0
 49
12.0
 49
-3.0
 49
0.0
 49
-3.0
  0
LTYPE
  2
ACAD_ISO11W100
 70
     0
  3
ISO double-dash dot __ __ . __ __ . __ __ . __ _
 72
    65
 73
     6
 40
33.0
 49
12.0
 49
-3.0
 49
12.0
 49
-3.0
 49
0.0
 49
-3.0
  0
LTYPE
  2
ACAD_ISO12W100
 70
     0
  3
ISO dash double-dot __ . . __ . . __ . . __ . . 
 72
    65
 73
     6
 40
21.0
 49
12.0
 49
-3.0
 49
0.0
 49
-3.0
 49
0.0
 49
-3.0
  0
LTYPE
  2
ACAD_ISO13W100
 70
     0
  3
ISO double-dash double-dot __ __ . . __ __ . . _
 72
    65
 73
     8
 40
36.0
 49
12.0
 49
-3.0
 49
12.0
 49
-3.0
 49
0.0
 49
-3.0
 49
0.0
 49
-3.0
  0
LTYPE
  2
ACAD_ISO14W100
 70
     0
  3
ISO dash triple-dot __ . . . __ . . . __ . . . _
 72
    65
 73
     8
 40
24.0
 49
12.0
 49
-3.0
 49
0.0
 49
-3.0
 49
0.0
 49
-3.0
 49
0.0
 49
-3.0
  0
LTYPE
  2
ACAD_ISO15W100
 70
     0
  3
ISO double-dash triple-dot __ __ . . . __ __ . .
 72
    65
 73
    10
 40
39.0
 49
12.0
 49
-3.0
 49
12.0
 49
-3.0
 49
0.0
 49
-3.0
 49
0.0
 49
-3.0
 49
0.0
 49
-3.0
  0
LTYPE
  2
BATTING
 70
     0
  3
Batting SSSSSSSSSSSSSSSSSSSSSSSSSSSSSSSSSSSSSSSSSSSSSSS
 72
    65
 73
     4
 40
10.16254
 49
0.00254
 49
-2.54
 49
-5.08
 49
-2.54
  0
LTYPE
  2
BORDER
 70
     0
  3
Border __ __ . __ __ . __ __ . __ __ . __ __ .
 72
    65
 73
     6
 40
44.45
 49
12.7
 49
-6.35
 49
12.7
 49
-6.35
 49
0.0
 49
-6.35
  0
LTYPE
  2
BORDER2
 70
     0
  3
Border (.5x) __.__.__.__.__.__.__.__.__.__.__.
 72
    65
 73
     6
 40
22.225
 49
6.35
 49
-3.175
 49
6.35
 49
-3.175
 49
0.0
 49
-3.175
  0
LTYPE
  2
BORDERX2
 70
     0
  3
Border (2x) ____  ____  .  ____  ____  .  ___
 72
    65
 73
     6
 40
88.89999999999999
 49
25.4
 49
-12.7
 49
25.4
 49
-12.7
 49
0.0
 49
-12.7
  0
LTYPE
  2
CENTER
 70
     0
  3
Center ____ _ ____ _ ____ _ ____ _ ____ _ ____
 72
    65
 73
     4
 40
50.8
 49
31.75
 49
-6.35
 49
6.35
 49
-6.35
  0
LTYPE
  2
CENTER2
 70
     0
  3
Center (.5x) ___ _ ___ _ ___ _ ___ _ ___ _ ___
 72
    65
 73
     4
 40
28.575
 49
19.05
 49
-3.175
 49
3.175
 49
-3.175
  0
LTYPE
  2
CENTERX2
 70
     0
  3
Center (2x) ________  __  ________  __  _____
 72
    65
 73
     4
 40
101.6
 49
63.5
 49
-12.7
 49
12.7
 49
-12.7
  0
LTYPE
  2
CUTLEFT
 70
     0
  3
G41 ----\----\----\----
 72
    65
 73
     2
 40
10.16
 49
5.08
 49
5.08
  0
LTYPE
  2
CUTLEFT2
 70
     0
  3
G41 reversed----/----/----/----
 72
    65
 73
     2
 40
10.16
 49
5.08
 49
5.08
  0
LTYPE
  2
CUTRIGHT
 70
     0
  3
G42 ----/----/-----/---
 72
    65
 73
     2
 40
10.16
 49
5.08
 49
5.08
  0
LTYPE
  2
ACAD_ISO02W100
 70
     0
  3
ISO dash __ __ __ __ __ __ __ __ __ __ __ __ __
 72
    65
 73
     2
 40
15.0
 49
12.0
 49
-3.0
  0
LTYPE
  2
ACAD_ISO03W100
 70
     0
  3
ISO dash space __    __    __    __    __    __
 72
    65
 73
     2
 40
30.0
 49
12.0
 49
-18.0
  0
LTYPE
  2
ACAD_ISO04W100
 70
     0
  3
ISO long-dash dot ____ . ____ . ____ . ____ . _
 72
    65
 73
     4
 40
30.0
 49
24.0
 49
-3.0
 49
0.0
 49
-3.0
  0
LTYPE
  2
ACAD_ISO05W100
 70
     0
  3
ISO long-dash double-dot ____ .. ____ .. ____ . 
 72
    65
 73
     6
 40
33.0
 49
24.0
 49
-3.0
 49
0.0
 49
-3.0
 49
0.0
 49
-3.0
  0
LTYPE
  2
ACAD_ISO06W100
 70
     0
  3
ISO long-dash triple-dot ____ ... ____ ... ____
 72
    65
 73
     8
 40
36.0
 49
24.0
 49
-3.0
 49
0.0
 49
-3.0
 49
0.0
 49
-3.0
 49
0.0
 49
-3.0
  0
LTYPE
  2
ACAD_ISO07W100
 70
     0
  3
ISO dot . . . . . . . . . . . . . . . . . . . . 
 72
    65
 73
     2
 40
3.0
 49
0.0
 49
-3.0
  0
LTYPE
  2
ACAD_ISO08W100
 70
     0
  3
ISO long-dash short-dash ____ __ ____ __ ____ _
 72
    65
 73
     4
 40
36.0
 49
24.0
 49
-3.0
 49
6.0
 49
-3.0
  0
LTYPE
  2
ACAD_ISO09W100
 70
     0
  3
ISO long-dash double-short-dash ____ __ __ ____
 72
    65
 73
     6
 40
45.0
 49
24.0
 49
-3.0
 49
6.0
 49
-3.0
 49
6.0
 49
-3.0
  0
LTYPE
  2
FENCELINE2
 70
     0
  3
Fenceline square ----[]-----[]----[]-----[]----[]---
 72
    65
 73
     4
 40
36.83
 49
6.35
 49
-2.54
 49
-2.54
 49
25.4
  0
ENDTAB
  0
TABLE
  2
LAYER
 70
     2
  0
LAYER
  2
0
 70
     0
 62
     7
  6
CONTINUOUS
  0
LAYER
  2
レイヤー_1
 70
     0
 62
   160
  6
CONTINUOUS
  0
ENDTAB
  0
TABLE
  2
STYLE
 70
    16
  0
STYLE
  2
STANDARD
 70
     0
 40
0.0
 41
1.0
 50
0.0
 71
     0
 42
0.2
  3
txt
  4

  0
STYLE
  2
TEXTSTYLE0
 70
     0
 40
0.0
 41
1.0
 50
0.0
 71
     0
 42
0.2
  3
STANDARD
  4

  0
STYLE
  2
TEXTSTYLE1
 70
     0
 40
0.0
 41
1.0
 50
0.0
 71
     0
 42
0.2
  3
STANDARD
  4

  0
STYLE
  2
TEXTSTYLE2
 70
     0
 40
0.0
 41
1.0
 50
0.0
 71
     0
 42
0.2
  3
ltypeshp.shx
  4

  0
STYLE
  2
TEXTSTYLE3
 70
     0
 40
0.0
 41
1.0
 50
0.0
 71
     0
 42
0.2
  3
ltypeshp.shx
  4

  0
STYLE
  2
TEXTSTYLE4
 70
     0
 40
0.0
 41
1.0
 50
0.0
 71
     0
 42
0.2
  3
ltypeshp.shx
  4

  0
STYLE
  2
TEXTSTYLE5
 70
     0
 40
0.0
 41
1.0
 50
0.0
 71
     0
 42
0.2
  3
qcadshp.shx
  4

  0
STYLE
  2
TEXTSTYLE6
 70
     0
 40
0.0
 41
1.0
 50
0.0
 71
     0
 42
0.2
  3
qcadshp.shx
  4

  0
STYLE
  2
TEXTSTYLE7
 70
     0
 40
0.0
 41
1.0
 50
0.0
 71
     0
 42
0.2
  3
qcadshp.shx
  4

  0
STYLE
  2
TEXTSTYLE8
 70
     0
 40
0.0
 41
1.0
 50
0.0
 71
     0
 42
0.2
  3
ltypeshp.shx
  4

  0
STYLE
  2
TEXTSTYLE9
 70
     0
 40
0.0
 41
1.0
 50
0.0
 71
     0
 42
0.2
  3
ltypeshp.shx
  4

  0
STYLE
  2
TEXTSTYLE10
 70
     0
 40
0.0
 41
1.0
 50
0.0
 71
     0
 42
0.2
  3
ltypeshp.shx
  4

  0
STYLE
  2
TEXTSTYLE11
 70
     0
 40
0.0
 41
1.0
 50
0.0
 71
     0
 42
0.2
  3
qcadshp.shx
  4

  0
STYLE
  2
TEXTSTYLE12
 70
     0
 40
0.0
 41
1.0
 50
0.0
 71
     0
 42
0.2
  3
qcadshp.shx
  4

  0
STYLE
  2
TEXTSTYLE13
 70
     0
 40
0.0
 41
1.0
 50
0.0
 71
     0
 42
0.2
  3
qcadshp.shx
  4

  0
STYLE
  2
TEXTSTYLE14
 70
     0
 40
0.0
 41
1.0
 50
0.0
 71
     0
 42
0.2
  3
ltypeshp.shx
  4

  0
ENDTAB
  0
TABLE
  2
VIEW
 70
     0
  0
ENDTAB
  0
TABLE
  2
UCS
 70
     0
  0
ENDTAB
  0
TABLE
  2
APPID
 70
     2
  0
APPID
  2
ACAD
 70
     0
  0
APPID
  2
QCAD
 70
     0
  0
ENDTAB
  0
TABLE
  2
DIMSTYLE
 70
     2
  0
DIMSTYLE
  2
STANDARD
 70
     0
  3

  4

  5

  6

  7

 40
1.0
 41
0.18
 42
0.0625
 43
0.38
 44
0.18
 45
0.0
 46
0.0
 47
0.0
 48
0.0
140
0.18
141
0.09
142
0.0
143
25.4
144
1.0
145
0.0
146
1.0
147
0.09
 71
     0
 72
     0
 73
     1
 74
     1
 75
     0
 76
     0
 77
     0
 78
     0
170
     0
171
     2
172
     0
173
     0
174
     0
175
     0
176
     0
177
     0
178
     0
  0
DIMSTYLE
  2
QCADDIMSTYLE
 70
     0
  3

  4

  5

  6

  7

 40
1.0
 41
2.5
 42
0.625
 43
0.38
 44
1.25
 45
0.0
 46
0.0
 47
0.0
 48
0.0
140
2.5
141
0.09
142
0.0
143
25.4
144
1.0
145
0.0
146
1.0
147
0.625
 71
     0
 72
     0
 73
     0
 74
     1
 75
     0
 76
     0
 77
     1
 78
     0
170
     0
171
     2
172
     0
173
     0
174
     0
175
     0
176
     0
177
     0
178
     0
  0
ENDTAB
  0
ENDSEC
  0
SECTION
  2
BLOCKS
  0
BLOCK
  8
0
  2
$MODEL_SPACE
 70
     0
 10
0.0
 20
0.0
 30
0.0
  3
$MODEL_SPACE
  1

  0
ENDBLK
  5
106
  8
0
  0
BLOCK
 67
     1
  8
0
  2
$PAPER_SPACE
 70
     0
 10
0.0
 20
0.0
 30
0.0
  3
$PAPER_SPACE
  1

  0
ENDBLK
  5
102
 67
     1
  8
0
  0
ENDSEC
  0
SECTION
  2
ENTITIES
  0
LINE
  5
74
  8
レイヤー_1
 62
     7
 10
62.75604927228741
 20
9.154265927306
 30
0.0
 11
56.58181051033455
 21
12.00629443084168
 31
0.0
  0
LINE
  5
73
  8
レイヤー_1
 62
     7
 10
69.13848439521686
 20
6.698099529810975
 30
0.0
 11
62.75604927228741
 21
9.154265927306
 31
0.0
  0
LINE
  5
72
  8
レイヤー_1
 62
     7
 10
75.71347755299607
 20
4.653435882147534
 30
0.0
 11
69.13848439521686
 21
6.698099529810975
 31
0.0
  0
LINE
  5
71
  8
レイヤー_1
 62
     7
 10
82.46539041949816
 20
3.035915628106579
 30
0.0
 11
75.71347755299607
 21
4.653435882147534
 31
0.0
  0
LINE
  5
70
  8
レイヤー_1
 62
     7
 10
89.37858466859635
 20
1.861179411479071
 30
0.0
 11
82.46539041949816
 21
3.035915628106579
 31
0.0
  0
LINE
  5
4F
  8
レイヤー_1
 62
     7
 10
204.4897436402261
 20
135.1840216096234
 30
0.0
 11
205.5670969958457
 21
131.1688117282567
 31
0.0
  0
LINE
  5
4E
  8
レイヤー_1
 62
     7
 10
203.2593441605366
 20
139.1342007531247
 30
0.0
 11
204.4897436402261
 21
135.1840216096234
 31
0.0
  0
LINE
  5
4D
  8
レイヤー_1
 62
     7
 10
201.879291168387
 20
143.0159564723881
 30
0.0
 11
203.2593441605366
 21
139.1342007531247
 31
0.0
  0
LINE
  5
4C
  8
レイヤー_1
 62
     7
 10
200.3529772753867
 20
146.8258960810405
 30
0.0
 11
201.879291168387
 21
143.0159564723881
 31
0.0
  0
LINE
  5
4B
  8
レイヤー_1
 62
     7
 10
198.6837950931453
 20
150.560626892709
 30
0.0
 11
200.3529772753867
 21
146.8258960810405
 31
0.0
  0
LINE
  5
4A
  8
レイヤー_1
 62
     7
 10
196.8751372332724
 20
154.2167562210207
 30
0.0
 11
198.6837950931453
 21
150.560626892709
 31
0.0
  0
LINE
  5
49
  8
レイヤー_1
 62
     7
 10
194.9303963073775
 20
157.7908913796027
 30
0.0
 11
196.8751372332724
 21
154.2167562210207
 31
0.0
  0
LINE
  5
48
  8
レイヤー_1
 62
     7
 10
192.8529649270704
 20
161.279639682082
 30
0.0
 11
194.9303963073775
 21
157.7908913796027
 31
0.0
  0
LINE
  5
47
  8
レイヤー_1
 62
     7
 10
190.6462357039602
 20
164.6796084420858
 30
0.0
 11
192.8529649270704
 21
161.279639682082
 31
0.0
  0
LINE
  5
46
  8
レイヤー_1
 62
     7
 10
188.313601249657
 20
167.9874049732411
 30
0.0
 11
190.6462357039602
 21
164.6796084420858
 31
0.0
  0
LINE
  5
45
  8
レイヤー_1
 62
     7
 10
185.8584541757699
 20
171.1996365891749
 30
0.0
 11
188.313601249657
 21
167.9874049732411
 31
0.0
  0
LINE
  5
44
  8
レイヤー_1
 62
     7
 10
183.2841870939089
 20
174.3129106035145
 30
0.0
 11
185.8584541757699
 21
171.1996365891749
 31
0.0
  0
LINE
  5
43
  8
レイヤー_1
 62
     7
 10
180.5941926156831
 20
177.3238343298867
 30
0.0
 11
183.2841870939089
 21
174.3129106035145
 31
0.0
  0
LINE
  5
42
  8
レイヤー_1
 62
     7
 10
177.7918633527024
 20
180.2290150819188
 30
0.0
 11
180.5941926156831
 21
177.3238343298867
 31
0.0
  0
LINE
  5
41
  8
レイヤー_1
 62
     7
 10
174.8805919165762
 20
183.0250601732378
 30
0.0
 11
177.7918633527024
 21
180.2290150819188
 31
0.0
  0
LINE
  5
40
  8
レイヤー_1
 62
     7
 10
171.8637709189142
 20
185.7085769174708
 30
0.0
 11
174.8805919165762
 21
183.0250601732378
 31
0.0
  0
LINE
  5
5F
  8
レイヤー_1
 62
     7
 10
190.6944179212403
 20
47.19668102168154
 30
0.0
 11
186.7486131942119
 21
41.74081884629345
 31
0.0
  0
LINE
  5
5E
  8
レイヤー_1
 62
     7
 10
194.2912757448987
 20
52.9076395089921
 30
0.0
 11
190.6944179212403
 21
47.19668102168154
 31
0.0
  0
LINE
  5
5D
  8
レイヤー_1
 62
     7
 10
197.5235467690298
 20
58.85805366443415
 30
0.0
 11
194.2912757448987
 21
52.9076395089921
 31
0.0
  0
LINE
  5
5C
  8
レイヤー_1
 62
     7
 10
200.375591097476
 20
65.03228284421675
 30
0.0
 11
197.5235467690298
 21
58.85805366443415
 31
0.0
  0
LINE
  5
5B
  8
レイヤー_1
 62
     7
 10
202.8317688340802
 20
71.41468640454909
 30
0.0
 11
200.375591097476
 21
65.03228284421675
 31
0.0
  0
LINE
  5
5A
  8
レイヤー_1
 62
     7
 10
204.8764400826849
 20
77.98962370164014
 30
0.0
 11
202.8317688340802
 21
71.41468640454909
 31
0.0
  0
LINE
  5
59
  8
レイヤー_1
 62
     7
 10
206.4939649471329
 20
84.7414540916991
 30
0.0
 11
204.8764400826849
 21
77.98962370164014
 31
0.0
  0
LINE
  5
58
  8
レイヤー_1
 62
     7
 10
207.6687035312667
 20
91.65453693093494
 30
0.0
 11
206.4939649471329
 21
84.7414540916991
 31
0.0
  0
LINE
  5
57
  8
レイヤー_1
 62
     7
 10
208.385015938929
 20
98.71323157555685
 30
0.0
 11
207.6687035312667
 21
91.65453693093494
 31
0.0
  0
LINE
  5
56
  8
レイヤー_1
 62
     7
 10
208.6272622739625
 20
105.9018973817738
 30
0.0
 11
208.385015938929
 21
98.71323157555685
 31
0.0
  0
LINE
  5
55
  8
レイヤー_1
 62
     7
 10
208.5394305065624
 20
110.2360452764996
 30
0.0
 11
208.6272622739625
 21
105.9018973817738
 31
0.0
  0
LINE
  5
54
  8
レイヤー_1
 62
     7
 10
208.2781969454352
 20
114.5255185515979
 30
0.0
 11
208.5394305065624
 21
110.2360452764996
 31
0.0
  0
LINE
  5
53
  8
レイヤー_1
 62
     7
 10
207.8469542021903
 20
118.7669245206957
 30
0.0
 11
208.2781969454352
 21
114.5255185515979
 31
0.0
  0
LINE
  5
52
  8
レイヤー_1
 62
     7
 10
207.2490948884373
 20
122.9568704974201
 30
0.0
 11
207.8469542021903
 21
118.7669245206957
 31
0.0
  0
LINE
  5
51
  8
レイヤー_1
 62
     7
 10
206.488011615786
 20
127.091963795398
 30
0.0
 11
207.2490948884373
 21
122.9568704974201
 31
0.0
  0
LINE
  5
50
  8
レイヤー_1
 62
     7
 10
205.5670969958457
 20
131.1688117282567
 30
0.0
 11
206.488011615786
 21
127.091963795398
 31
0.0
  0
LINE
  5
AF
  8
レイヤー_1
 62
     7
 10
42.07061624127593
 20
190.8442481702434
 30
0.0
 11
42.08423019998793
 21
190.8460072772679
 31
0.0
  0
LINE
  5
AE
  8
レイヤー_1
 62
     7
 10
42.05580457358639
 20
190.84233430307
 30
0.0
 11
42.07061624127593
 21
190.8442481702434
 31
0.0
  0
LINE
  5
AD
  8
レイヤー_1
 62
     7
 10
42.04003473871475
 20
190.8402966277776
 30
0.0
 11
42.05580457358639
 21
190.84233430307
 31
0.0
  0
LINE
  5
AC
  8
レイヤー_1
 62
     7
 10
42.02354627845656
 20
190.8381660963959
 30
0.0
 11
42.04003473871475
 21
190.8402966277776
 31
0.0
  0
LINE
  5
AB
  8
レイヤー_1
 62
     7
 10
42.00657873460727
 20
190.8359736609547
 30
0.0
 11
42.02354627845656
 21
190.8381660963959
 31
0.0
  0
LINE
  5
AA
  8
レイヤー_1
 62
     7
 10
41.98937164896256
 20
190.8337502734838
 30
0.0
 11
42.00657873460727
 21
190.8359736609547
 31
0.0
  0
LINE
  5
A9
  8
レイヤー_1
 62
     7
 10
41.97216456331779
 20
190.8315268860129
 30
0.0
 11
41.98937164896256
 21
190.8337502734838
 31
0.0
  0
LINE
  5
A8
  8
レイヤー_1
 62
     7
 10
41.95519701946856
 20
190.8293344505717
 30
0.0
 11
41.97216456331779
 21
190.8315268860129
 31
0.0
  0
LINE
  5
A7
  8
レイヤー_1
 62
     7
 10
41.93870855921037
 20
190.82720391919
 30
0.0
 11
41.95519701946856
 21
190.8293344505717
 31
0.0
  0
LINE
  5
A6
  8
レイヤー_1
 62
     7
 10
41.92293872433871
 20
190.8251662438976
 30
0.0
 11
41.93870855921037
 21
190.82720391919
 31
0.0
  0
LINE
  5
A5
  8
レイヤー_1
 62
     7
 10
41.90812705664911
 20
190.8232523767242
 30
0.0
 11
41.92293872433871
 21
190.8251662438976
 31
0.0
  0
LINE
  5
A4
  8
レイヤー_1
 62
     7
 10
41.89451309793716
 20
190.8214932696996
 30
0.0
 11
41.90812705664911
 21
190.8232523767242
 31
0.0
  0
LINE
  5
A3
  8
レイヤー_1
 62
     7
 10
41.88233638999827
 20
190.8199198748535
 30
0.0
 11
41.89451309793716
 21
190.8214932696996
 31
0.0
  0
LINE
  5
A2
  8
レイヤー_1
 62
     7
 10
41.87183647462805
 20
190.8185631442158
 30
0.0
 11
41.88233638999827
 21
190.8199198748535
 31
0.0
  0
LINE
  5
A1
  8
レイヤー_1
 62
     7
 10
41.86325289362193
 20
190.8174540298162
 30
0.0
 11
41.87183647462805
 21
190.8185631442158
 31
0.0
  0
LINE
  5
A0
  8
レイヤー_1
 62
     7
 10
41.85682518877559
 20
190.8166234836844
 30
0.0
 11
41.86325289362193
 21
190.8174540298162
 31
0.0
  0
LINE
  5
BF
  8
レイヤー_1
 62
     7
 10
81.04533921831435
 20
190.8515786426244
 30
0.0
 11
88.39473587468834
 21
190.8515786426244
 31
0.0
  0
LINE
  5
BE
  8
レイヤー_1
 62
     7
 10
74.01625524914311
 20
190.8515786426245
 30
0.0
 11
81.04533921831435
 21
190.8515786426244
 31
0.0
  0
LINE
  5
BD
  8
レイヤー_1
 62
     7
 10
67.41425486290888
 20
190.8515786426244
 30
0.0
 11
74.01625524914311
 21
190.8515786426245
 31
0.0
  0
LINE
  5
BC
  8
レイヤー_1
 62
     7
 10
61.34610895534584
 20
190.8515786426244
 30
0.0
 11
67.41425486290888
 21
190.8515786426244
 31
0.0
  0
LINE
  5
BB
  8
レイヤー_1
 62
     7
 10
55.91858842218829
 20
190.8515786426245
 30
0.0
 11
61.34610895534584
 21
190.8515786426244
 31
0.0
  0
LINE
  5
BA
  8
レイヤー_1
 62
     7
 10
51.23846415917046
 20
190.8515786426244
 30
0.0
 11
55.91858842218829
 21
190.8515786426245
 31
0.0
  0
LINE
  5
B9
  8
レイヤー_1
 62
     7
 10
47.41250706202658
 20
190.8515786426244
 30
0.0
 11
51.23846415917046
 21
190.8515786426244
 31
0.0
  0
LINE
  5
B8
  8
レイヤー_1
 62
     7
 10
44.54748802649092
 20
190.8515786426244
 30
0.0
 11
47.41250706202658
 21
190.8515786426244
 31
0.0
  0
LINE
  5
B7
  8
レイヤー_1
 62
     7
 10
42.75017794829773
 20
190.8515786426244
 30
0.0
 11
44.54748802649092
 21
190.8515786426244
 31
0.0
  0
LINE
  5
B6
  8
レイヤー_1
 62
     7
 10
42.12734772318129
 20
190.8515786426244
 30
0.0
 11
42.75017794829773
 21
190.8515786426244
 31
0.0
  0
LINE
  5
B5
  8
レイヤー_1
 62
     7
 10
42.12595039604076
 20
190.8513980891175
 30
0.0
 11
42.12734772318129
 21
190.8515786426244
 31
0.0
  0
LINE
  5
B4
  8
レイヤー_1
 62
     7
 10
42.12191810914956
 20
190.8508770632832
 30
0.0
 11
42.12595039604076
 21
190.8513980891175
 31
0.0
  0
LINE
  5
B3
  8
レイヤー_1
 62
     7
 10
42.11549040430313
 20
190.8500465171514
 30
0.0
 11
42.12191810914956
 21
190.8508770632832
 31
0.0
  0
LINE
  5
B2
  8
レイヤー_1
 62
     7
 10
42.10690682329701
 20
190.8489374027517
 30
0.0
 11
42.11549040430313
 21
190.8500465171514
 31
0.0
  0
LINE
  5
B1
  8
レイヤー_1
 62
     7
 10
42.09640690792679
 20
190.847580672114
 30
0.0
 11
42.10690682329701
 21
190.8489374027517
 31
0.0
  0
LINE
  5
B0
  8
レイヤー_1
 62
     7
 10
42.08423019998793
 20
190.8460072772679
 30
0.0
 11
42.09640690792679
 21
190.847580672114
 31
0.0
  0
LINE
  5
8F
  8
レイヤー_1
 62
     7
 10
5.395960351694072
 20
143.0712098827271
 30
0.0
 11
6.926852927118972
 21
146.8861134792245
 31
0.0
  0
LINE
  5
8E
  8
レイヤー_1
 62
     7
 10
4.011742716590391
 20
139.1842120559311
 30
0.0
 11
5.395960351694072
 21
143.0712098827271
 31
0.0
  0
LINE
  5
8D
  8
レイヤー_1
 62
     7
 10
2.777608632775809
 20
135.2285288340944
 30
0.0
 11
4.011742716590391
 21
139.1842120559311
 31
0.0
  0
LINE
  5
8C
  8
レイヤー_1
 62
     7
 10
1.696966711218352
 20
131.2075690524752
 30
0.0
 11
2.777608632775809
 21
135.2285288340944
 31
0.0
  0
LINE
  5
8B
  8
レイヤー_1
 62
     7
 10
0.7732255628858695
 20
127.1247415463314
 30
0.0
 11
1.696966711218352
 21
131.2075690524752
 31
0.0
  0
LINE
  5
8A
  8
レイヤー_1
 62
     7
 10
0.0097937987462728
 20
122.9834551509209
 30
0.0
 11
0.7732255628858695
 21
127.1247415463314
 31
0.0
  0
LINE
  5
89
  8
レイヤー_1
 62
     7
 10
-0.5899199702323585
 20
118.7871187015019
 30
0.0
 11
0.0097937987462728
 21
122.9834551509209
 31
0.0
  0
LINE
  5
88
  8
レイヤー_1
 62
     7
 10
-1.0225071330822
 20
114.5391410333323
 30
0.0
 11
-0.5899199702323585
 21
118.7871187015019
 31
0.0
  0
LINE
  5
87
  8
レイヤー_1
 62
     7
 10
-1.28455907883523
 20
110.2429309816702
 30
0.0
 11
-1.0225071330822
 21
114.5391410333323
 31
0.0
  0
LINE
  5
86
  8
レイヤー_1
 62
     7
 10
-1.372667196523565
 20
105.9018973817733
 30
0.0
 11
-1.28455907883523
 21
110.2429309816702
 31
0.0
  0
LINE
  5
85
  8
レイヤー_1
 62
     7
 10
-1.13043046858138
 20
98.71323157555642
 30
0.0
 11
-1.372667196523565
 21
105.9018973817733
 31
0.0
  0
LINE
  5
84
  8
レイヤー_1
 62
     7
 10
-0.4141458355061047
 20
91.6545369309346
 30
0.0
 11
-1.13043046858138
 21
98.71323157555642
 31
0.0
  0
LINE
  5
83
  8
レイヤー_1
 62
     7
 10
0.7605483765754286
 20
84.74145409169876
 30
0.0
 11
-0.4141458355061047
 21
91.6545369309346
 31
0.0
  0
LINE
  5
82
  8
レイヤー_1
 62
     7
 10
2.37801384153633
 20
77.98962370163989
 30
0.0
 11
0.7605483765754286
 21
84.74145409169876
 31
0.0
  0
LINE
  5
81
  8
レイヤー_1
 62
     7
 10
4.422612233249737
 20
71.41468640454883
 30
0.0
 11
2.37801384153633
 21
77.98962370163989
 31
0.0
  0
LINE
  5
80
  8
レイヤー_1
 62
     7
 10
6.878705225588874
 20
65.03228284421658
 30
0.0
 11
4.422612233249737
 21
71.41468640454883
 31
0.0
  0
LINE
  5
9F
  8
レイヤー_1
 62
     7
 10
41.8527929018843
 20
190.8161024578501
 30
0.0
 11
41.85682518877559
 21
190.8166234836844
 31
0.0
  0
LINE
  5
9E
  8
レイヤー_1
 62
     7
 10
41.85139557474335
 20
190.8159219043428
 30
0.0
 11
41.8527929018843
 21
190.8161024578501
 31
0.0
  0
LINE
  5
9D
  8
レイヤー_1
 62
     7
 10
38.62495798645588
 20
188.3682652341178
 30
0.0
 11
41.85139557474335
 21
190.8159219043428
 31
0.0
  0
LINE
  5
9C
  8
レイヤー_1
 62
     7
 10
35.49747478493842
 20
185.8007906399819
 30
0.0
 11
38.62495798645588
 21
188.3682652341178
 31
0.0
  0
LINE
  5
9B
  8
レイヤー_1
 62
     7
 10
32.4723545811589
 20
183.1169069571934
 30
0.0
 11
35.49747478493842
 21
185.8007906399819
 31
0.0
  0
LINE
  5
9A
  8
レイヤー_1
 62
     7
 10
29.5530059860852
 20
180.3200230210098
 30
0.0
 11
32.4723545811589
 21
183.1169069571934
 31
0.0
  0
LINE
  5
99
  8
レイヤー_1
 62
     7
 10
26.74283761068537
 20
177.4135476666897
 30
0.0
 11
29.5530059860852
 21
180.3200230210098
 31
0.0
  0
LINE
  5
98
  8
レイヤー_1
 62
     7
 10
24.0452580659273
 20
174.4008897294906
 30
0.0
 11
26.74283761068537
 21
177.4135476666897
 31
0.0
  0
LINE
  5
97
  8
レイヤー_1
 62
     7
 10
21.46367596277892
 20
171.2854580446709
 30
0.0
 11
24.0452580659273
 21
174.4008897294906
 31
0.0
  0
LINE
  5
96
  8
レイヤー_1
 62
     7
 10
19.00149991220817
 20
168.0706614474884
 30
0.0
 11
21.46367596277892
 21
171.2854580446709
 31
0.0
  0
LINE
  5
95
  8
レイヤー_1
 62
     7
 10
16.662138525183
 20
164.7599087732011
 30
0.0
 11
19.00149991220817
 21
168.0706614474884
 31
0.0
  0
LINE
  5
94
  8
レイヤー_1
 62
     7
 10
14.44900041267138
 20
161.3566088570672
 30
0.0
 11
16.662138525183
 21
164.7599087732011
 31
0.0
  0
LINE
  5
93
  8
レイヤー_1
 62
     7
 10
12.36549418564121
 20
157.8641705343446
 30
0.0
 11
14.44900041267138
 21
161.3566088570672
 31
0.0
  0
LINE
  5
92
  8
レイヤー_1
 62
     7
 10
10.41502845506045
 20
154.2860026402912
 30
0.0
 11
12.36549418564121
 21
157.8641705343446
 31
0.0
  0
LINE
  5
91
  8
レイヤー_1
 62
     7
 10
8.60101183189704
 20
150.6255140101651
 30
0.0
 11
10.41502845506045
 21
154.2860026402912
 31
0.0
  0
LINE
  5
90
  8
レイヤー_1
 62
     7
 10
6.926852927118972
 20
146.8861134792245
 30
0.0
 11
8.60101183189704
 21
150.6255140101651
 31
0.0
  0
LINE
  5
E5
  8
レイヤー_1
 62
     7
 10
165.5250270905607
 20
190.7250983316898
 30
0.0
 11
165.5270506854208
 21
190.7244546191869
 31
0.0
  0
LINE
  5
E4
  8
レイヤー_1
 62
     7
 10
165.5191875739641
 20
190.7269559020555
 30
0.0
 11
165.5250270905607
 21
190.7250983316898
 31
0.0
  0
LINE
  5
E3
  8
レイヤー_1
 62
     7
 10
165.5098790376072
 20
190.729916979569
 30
0.0
 11
165.5191875739641
 21
190.7269559020555
 31
0.0
  0
LINE
  5
E2
  8
レイヤー_1
 62
     7
 10
165.4974483834661
 20
190.7338712135157
 30
0.0
 11
165.5098790376072
 21
190.729916979569
 31
0.0
  0
LINE
  5
E1
  8
レイヤー_1
 62
     7
 10
165.4822425135167
 20
190.7387082531806
 30
0.0
 11
165.4974483834661
 21
190.7338712135157
 31
0.0
  0
LINE
  5
E0
  8
レイヤー_1
 62
     7
 10
165.4646083297351
 20
190.744317747849
 30
0.0
 11
165.4822425135167
 21
190.7387082531806
 31
0.0
  0
LINE
  5
CF
  8
レイヤー_1
 62
     7
 10
165.1294432038922
 20
190.8509349301215
 30
0.0
 11
165.1352827204887
 21
190.8490773597558
 31
0.0
  0
LINE
  5
CE
  8
レイヤー_1
 62
     7
 10
165.127419609032
 20
190.8515786426244
 30
0.0
 11
165.1294432038922
 21
190.8509349301215
 31
0.0
  0
LINE
  5
CD
  8
レイヤー_1
 62
     7
 10
164.5045893839158
 20
190.8515786426244
 30
0.0
 11
165.127419609032
 21
190.8515786426244
 31
0.0
  0
LINE
  5
CC
  8
レイヤー_1
 62
     7
 10
162.7072793057228
 20
190.8515786426245
 30
0.0
 11
164.5045893839158
 21
190.8515786426244
 31
0.0
  0
LINE
  5
CB
  8
レイヤー_1
 62
     7
 10
159.8422602701874
 20
190.8515786426244
 30
0.0
 11
162.7072793057228
 21
190.8515786426245
 31
0.0
  0
LINE
  5
CA
  8
レイヤー_1
 62
     7
 10
156.0163031730437
 20
190.8515786426244
 30
0.0
 11
159.8422602701874
 21
190.8515786426244
 31
0.0
  0
LINE
  5
C9
  8
レイヤー_1
 62
     7
 10
151.3361789100261
 20
190.8515786426244
 30
0.0
 11
156.0163031730437
 21
190.8515786426244
 31
0.0
  0
LINE
  5
C8
  8
レイヤー_1
 62
     7
 10
145.9086583768687
 20
190.8515786426245
 30
0.0
 11
151.3361789100261
 21
190.8515786426244
 31
0.0
  0
LINE
  5
C7
  8
レイヤー_1
 62
     7
 10
139.8405124693058
 20
190.8515786426244
 30
0.0
 11
145.9086583768687
 21
190.8515786426245
 31
0.0
  0
LINE
  5
C6
  8
レイヤー_1
 62
     7
 10
133.2385120830716
 20
190.8515786426244
 30
0.0
 11
139.8405124693058
 21
190.8515786426244
 31
0.0
  0
LINE
  5
C5
  8
レイヤー_1
 62
     7
 10
126.2094281139005
 20
190.8515786426244
 30
0.0
 11
133.2385120830716
 21
190.8515786426244
 31
0.0
  0
LINE
  5
C4
  8
レイヤー_1
 62
     7
 10
118.8600314575266
 20
190.8515786426244
 30
0.0
 11
126.2094281139005
 21
190.8515786426244
 31
0.0
  0
LINE
  5
C3
  8
レイヤー_1
 62
     7
 10
111.2970930096841
 20
190.8515786426244
 30
0.0
 11
118.8600314575266
 21
190.8515786426244
 31
0.0
  0
LINE
  5
C2
  8
レイヤー_1
 62
     7
 10
103.6273836661074
 20
190.8515786426244
 30
0.0
 11
111.2970930096841
 21
190.8515786426244
 31
0.0
  0
LINE
  5
C1
  8
レイヤー_1
 62
     7
 10
95.95767432253075
 20
190.8515786426244
 30
0.0
 11
103.6273836661074
 21
190.8515786426244
 31
0.0
  0
LINE
  5
C0
  8
レイヤー_1
 62
     7
 10
88.39473587468834
 20
190.8515786426244
 30
0.0
 11
95.95767432253075
 21
190.8515786426244
 31
0.0
  0
LINE
  5
DF
  8
レイヤー_1
 62
     7
 10
165.4448927340973
 20
190.7505893468063
 30
0.0
 11
165.4646083297351
 21
190.744317747849
 31
0.0
  0
LINE
  5
DE
  8
レイヤー_1
 62
     7
 10
165.4234426285792
 20
190.7574126993374
 30
0.0
 11
165.4448927340973
 21
190.7505893468063
 31
0.0
  0
LINE
  5
DD
  8
レイヤー_1
 62
     7
 10
165.4006049151572
 20
190.7646774547277
 30
0.0
 11
165.4234426285792
 21
190.7574126993374
 31
0.0
  0
LINE
  5
DC
  8
レイヤー_1
 62
     7
 10
165.376726495807
 20
190.7722732622623
 30
0.0
 11
165.4006049151572
 21
190.7646774547277
 31
0.0
  0
LINE
  5
DB
  8
レイヤー_1
 62
     7
 10
165.3521542725047
 20
190.7800897712266
 30
0.0
 11
165.376726495807
 21
190.7722732622623
 31
0.0
  0
LINE
  5
DA
  8
レイヤー_1
 62
     7
 10
165.3272351472264
 20
190.7880166309057
 30
0.0
 11
165.3521542725047
 21
190.7800897712266
 31
0.0
  0
LINE
  5
D9
  8
レイヤー_1
 62
     7
 10
165.3023160219481
 20
190.7959434905847
 30
0.0
 11
165.3272351472264
 21
190.7880166309057
 31
0.0
  0
LINE
  5
D8
  8
レイヤー_1
 62
     7
 10
165.2777437986458
 20
190.803759999549
 30
0.0
 11
165.3023160219481
 21
190.7959434905847
 31
0.0
  0
LINE
  5
D7
  8
レイヤー_1
 62
     7
 10
165.2538653792956
 20
190.8113558070837
 30
0.0
 11
165.2777437986458
 21
190.803759999549
 31
0.0
  0
LINE
  5
D6
  8
レイヤー_1
 62
     7
 10
165.2310276658736
 20
190.8186205624739
 30
0.0
 11
165.2538653792956
 21
190.8113558070837
 31
0.0
  0
LINE
  5
D5
  8
レイヤー_1
 62
     7
 10
165.2095775603556
 20
190.8254439150052
 30
0.0
 11
165.2310276658736
 21
190.8186205624739
 31
0.0
  0
LINE
  5
D4
  8
レイヤー_1
 62
     7
 10
165.1898619647178
 20
190.8317155139623
 30
0.0
 11
165.2095775603556
 21
190.8254439150052
 31
0.0
  0
LINE
  5
D3
  8
レイヤー_1
 62
     7
 10
165.172227780936
 20
190.8373250086307
 30
0.0
 11
165.1898619647178
 21
190.8317155139623
 31
0.0
  0
LINE
  5
D2
  8
レイヤー_1
 62
     7
 10
165.1570219109867
 20
190.8421620482957
 30
0.0
 11
165.172227780936
 21
190.8373250086307
 31
0.0
  0
LINE
  5
D1
  8
レイヤー_1
 62
     7
 10
165.1445912568455
 20
190.8461162822423
 30
0.0
 11
165.1570219109867
 21
190.8421620482957
 31
0.0
  0
LINE
  5
D0
  8
レイヤー_1
 62
     7
 10
165.1352827204887
 20
190.8490773597558
 30
0.0
 11
165.1445912568455
 21
190.8461162822423
 31
0.0
  0
LINE
  5
3F
  8
レイヤー_1
 62
     7
 10
168.7447929713259
 20
188.2761726282448
 30
0.0
 11
171.8637709189142
 21
185.7085769174708
 31
0.0
  0
LINE
  5
3E
  8
レイヤー_1
 62
     7
 10
165.5270506854208
 20
190.7244546191869
 30
0.0
 11
168.7447929713259
 21
188.2761726282448
 31
0.0
  0
LINE
  5
6F
  8
レイヤー_1
 62
     7
 10
96.43742197416367
 20
1.144867876055827
 30
0.0
 11
89.37858466859635
 21
1.861179411479071
 31
0.0
  0
LINE
  5
6E
  8
レイヤー_1
 62
     7
 10
103.6262640100734
 20
0.9026216656279189
 30
0.0
 11
96.43742197416367
 21
1.144867876055827
 31
0.0
  0
LINE
  5
6D
  8
レイヤー_1
 62
     7
 10
110.815136287761
 20
1.144867876055855
 30
0.0
 11
103.6262640100734
 21
0.9026216656279189
 31
0.0
  0
LINE
  5
6C
  8
レイヤー_1
 62
     7
 10
117.8740202082815
 20
1.861179411478986
 30
0.0
 11
110.815136287761
 21
1.144867876055855
 31
0.0
  0
LINE
  5
6B
  8
レイヤー_1
 62
     7
 10
124.7872758754774
 20
3.035915628106522
 30
0.0
 11
117.8740202082815
 21
1.861179411478986
 31
0.0
  0
LINE
  5
6A
  8
レイヤー_1
 62
     7
 10
131.5392633931914
 20
4.653435882147448
 30
0.0
 11
124.7872758754774
 21
3.035915628106522
 31
0.0
  0
LINE
  5
69
  8
レイヤー_1
 62
     7
 10
138.1143428652662
 20
6.698099529810889
 30
0.0
 11
131.5392633931914
 21
4.653435882147448
 31
0.0
  0
LINE
  5
68
  8
レイヤー_1
 62
     7
 10
144.4968743955444
 20
9.154265927305914
 30
0.0
 11
138.1143428652662
 21
6.698099529810889
 31
0.0
  0
LINE
  5
67
  8
レイヤー_1
 62
     7
 10
150.6712180878688
 20
12.00629443084162
 30
0.0
 11
144.4968743955444
 21
9.154265927305914
 31
0.0
  0
LINE
  5
66
  8
レイヤー_1
 62
     7
 10
156.6217340460818
 20
15.23854439662708
 30
0.0
 11
150.6712180878688
 21
12.00629443084162
 31
0.0
  0
LINE
  5
65
  8
レイヤー_1
 62
     7
 10
162.3327823740262
 20
18.83537518087138
 30
0.0
 11
156.6217340460818
 21
15.23854439662708
 31
0.0
  0
LINE
  5
64
  8
レイヤー_1
 62
     7
 10
167.7887231755447
 20
22.7811461397836
 30
0.0
 11
162.3327823740262
 21
18.83537518087138
 31
0.0
  0
LINE
  5
63
  8
レイヤー_1
 62
     7
 10
172.9739165544798
 20
27.06021662957284
 30
0.0
 11
167.7887231755447
 21
22.7811461397836
 31
0.0
  0
LINE
  5
62
  8
レイヤー_1
 62
     7
 10
177.8727226146742
 20
31.65694600644818
 30
0.0
 11
172.9739165544798
 21
27.06021662957284
 31
0.0
  0
LINE
  5
61
  8
レイヤー_1
 62
     7
 10
182.4695014599708
 20
36.55569362661868
 30
0.0
 11
177.8727226146742
 21
31.65694600644818
 31
0.0
  0
LINE
  5
60
  8
レイヤー_1
 62
     7
 10
186.7486131942119
 20
41.74081884629345
 30
0.0
 11
182.4695014599708
 21
36.55569362661868
 31
0.0
  0
LINE
  5
7F
  8
レイヤー_1
 62
     7
 10
9.730654492426822
 20
58.85805366443395
 30
0.0
 11
6.878705225588874
 21
65.03228284421658
 31
0.0
  0
LINE
  5
7E
  8
レイヤー_1
 62
     7
 10
12.96282170763675
 20
52.90763950899196
 30
0.0
 11
9.730654492426822
 21
58.85805366443395
 31
0.0
  0
LINE
  5
7D
  8
レイヤー_1
 62
     7
 10
16.55956854509182
 20
47.19668102168146
 30
0.0
 11
12.96282170763675
 21
52.90763950899196
 31
0.0
  0
LINE
  5
7C
  8
レイヤー_1
 62
     7
 10
20.50525667866512
 20
41.74081884629339
 30
0.0
 11
16.55956854509182
 21
47.19668102168146
 31
0.0
  0
LINE
  5
7B
  8
レイヤー_1
 62
     7
 10
24.7842477822299
 20
36.55569362661862
 30
0.0
 11
20.50525667866512
 21
41.74081884629339
 31
0.0
  0
LINE
  5
7A
  8
レイヤー_1
 62
     7
 10
29.38090352965921
 20
31.65694600644815
 30
0.0
 11
24.7842477822299
 21
36.55569362661862
 31
0.0
  0
LINE
  5
79
  8
レイヤー_1
 62
     7
 10
34.27958559482627
 20
27.06021662957286
 30
0.0
 11
29.38090352965921
 21
31.65694600644815
 31
0.0
  0
LINE
  5
78
  8
レイヤー_1
 62
     7
 10
39.46465565160415
 20
22.78114613978366
 30
0.0
 11
34.27958559482627
 21
27.06021662957286
 31
0.0
  0
LINE
  5
77
  8
レイヤー_1
 62
     7
 10
44.92047537386608
 20
18.83537518087147
 30
0.0
 11
39.46465565160415
 21
22.78114613978366
 31
0.0
  0
LINE
  5
76
  8
レイヤー_1
 62
     7
 10
50.63140643548513
 20
15.23854439662716
 30
0.0
 11
44.92047537386608
 21
18.83537518087147
 31
0.0
  0
LINE
  5
75
  8
レイヤー_1
 62
     7
 10
56.58181051033455
 20
12.00629443084168
 30
0.0
 11
50.63140643548513
 21
15.23854439662716
 31
0.0
  0
VIEWPORT
  5
1CA
 67
     1
  8
0
 10
128.5
 20
97.5
 30
0.0
 40
314.226
 41
222.18
 68
     1
 69
     1
1001
ACAD
1000
MVIEW
1002
{
1070
    16
1010
0.0
1020
0.0
1030
0.0
1010
0.0
1020
0.0
1030
1.0
1040
0.0
1040
222.18
1040
128.5
1040
97.5
1040
50.0
1040
0.0
1040
0.0
1070
     0
1070
   100
1070
     0
1070
     3
1070
     0
1070
     0
1070
     0
1070
     0
1040
0.0
1040
0.0
1040
0.0
1040
10.0
1040
10.0
1040
10.0
1040
10.0
1070
     0
1002
{
1002
}
1002
}
  0
ENDSEC
  0
EOF
