M48
;DRILL file {KiCad 4.0.1-stable} date 2016/11/09 23:28:03
;FORMAT={3:3/ absolute / metric / suppress trailing zeros}
FMAT,2
METRIC,LZ
T1C0.400
T2C0.762
T3C0.800
T4C1.000
T5C1.001
T6C1.016
T7C1.270
T8C1.700
T9C2.300
%
G90
G05
M71
T1
X159Y-1479
X15916Y-1395
X1648Y-1336
X1648Y-1363
X1655Y-1479
X1668Y-1346
X1692Y-1343
X1692Y-1439
X1696Y-1387
X1702Y-1366
X1717Y-1411
X1721Y-1385
X1723Y-1353
X1726Y-1424
X1889Y-1001
X1893Y-0894
X1914Y-1026
X1989Y-1036
X2054Y-1036
X2129Y-1001
X2209Y-0971
X2209Y-1001
X2244Y-1006
X2269Y-0991
X2324Y-0996
T2
X12Y-144
X12Y-14654
X132Y-144
X132Y-14654
X144Y-144
X144Y-14654
X156Y-144
X156Y-14654
X16046Y-096
X16046Y-108
X16046Y-12
X16046Y-132
X16046Y-151
X16046Y-163
X16046Y-175
X16046Y-187
X163Y-096
X163Y-108
X163Y-12
X163Y-132
X163Y-151
X163Y-163
X163Y-175
X163Y-187
X175Y-144
X175Y-14654
X187Y-144
X187Y-14654
X19736Y-0886
X19736Y-09114
X199Y-144
X199Y-14654
X20498Y-0886
X20498Y-09114
X211Y-144
X211Y-14654
T3
X2324Y-0921
X2324Y-0996
T4
X2189Y-08806
X2189Y-0906
X2189Y-09314
T5
X12Y-13646
X12Y-139
X126Y-13638
X126Y-144
X132Y-13646
X132Y-139
X138Y-13888
X138Y-1465
X144Y-13646
X144Y-139
X1505Y-13638
X1505Y-144
X156Y-13646
X156Y-139
X1605Y-1691
X1606Y-114
X163Y-1255
X163Y-1805
X1631Y-1018
X1631Y-1567
X168Y-096
X168Y-108
X168Y-12
X168Y-132
X168Y-151
X168Y-163
X168Y-175
X168Y-187
X16812Y-1691
X17054Y-096
X17054Y-108
X17054Y-12
X17054Y-132
X17054Y-151
X17054Y-163
X17054Y-175
X17054Y-187
X17062Y-1255
X17062Y-1805
X17072Y-1018
X17072Y-1567
X17076Y-114
X175Y-13646
X175Y-139
X181Y-13638
X181Y-144
X187Y-13646
X187Y-139
X193Y-13638
X193Y-144
X1974Y-0851
X199Y-13646
X199Y-139
X205Y-13888
X205Y-1465
X20502Y-0851
X2079Y-0886
X2079Y-0946
X211Y-13646
X211Y-139
X21552Y-0886
X21552Y-0946
X222403Y-0801
T6
X1095Y-1055
X1095Y-10804
X1095Y-11058
X1095Y-11312
X1095Y-11566
X10966Y-1224
X11204Y-1055
X11204Y-10804
X11204Y-11058
X11204Y-11312
X11204Y-11566
X1122Y-1224
X118Y-1005
X118Y-10304
X118Y-10558
X118Y-10812
X118Y-11066
X118Y-1132
X118Y-11574
X16446Y-139
X16446Y-14154
X16446Y-14408
X167Y-139
X167Y-14154
X167Y-14408
X1774Y-0841
X1774Y-08664
X1774Y-08918
X1774Y-09172
X17994Y-0841
X17994Y-08664
X17994Y-08918
X17994Y-09172
X1844Y-0836
X1844Y-08614
X1844Y-08868
X18694Y-0836
X18694Y-08614
X18694Y-08868
X1914Y-0836
X1914Y-08614
X1914Y-08868
T7
X222403Y-09026
T8
X2109Y-10662
X2109Y-11058
X2214Y-10662
X2214Y-11058
X2299Y-08012
X2299Y-08408
T9
X18759Y-09352
X18759Y-13011
X19267Y-09352
X19267Y-13011
T0
M30
