G04 #@! TF.FileFunction,Copper,L2,Bot,Signal*
%FSLAX46Y46*%
G04 Gerber Fmt 4.6, Leading zero omitted, Abs format (unit mm)*
G04 Created by KiCad (PCBNEW 4.0.1-stable) date 2016/11/09 23:27:56*
%MOMM*%
G01*
G04 APERTURE LIST*
%ADD10C,0.100000*%
%ADD11R,2.000000X2.000000*%
%ADD12C,2.000000*%
%ADD13R,1.727200X1.727200*%
%ADD14O,1.727200X1.727200*%
%ADD15C,1.524000*%
%ADD16C,1.998980*%
%ADD17C,4.000000*%
%ADD18R,1.300000X1.300000*%
%ADD19C,1.300000*%
%ADD20R,1.998980X1.998980*%
%ADD21R,2.032000X1.727200*%
%ADD22O,2.032000X1.727200*%
%ADD23R,2.550000X2.550000*%
%ADD24C,2.550000*%
%ADD25C,1.600000*%
%ADD26R,2.032000X2.032000*%
%ADD27O,2.032000X2.032000*%
%ADD28C,0.600000*%
%ADD29C,1.000000*%
%ADD30C,1.500000*%
%ADD31C,0.152400*%
%ADD32C,0.254000*%
G04 APERTURE END LIST*
D10*
D11*
X168000000Y-96000000D03*
D12*
X170540000Y-96000000D03*
D11*
X168000000Y-108000000D03*
D12*
X170540000Y-108000000D03*
D11*
X168000000Y-120000000D03*
D12*
X170540000Y-120000000D03*
D11*
X168000000Y-132000000D03*
D12*
X170540000Y-132000000D03*
D11*
X120000000Y-139000000D03*
D12*
X120000000Y-136460000D03*
D11*
X132000000Y-139000000D03*
D12*
X132000000Y-136460000D03*
D11*
X144000000Y-139000000D03*
D12*
X144000000Y-136460000D03*
D11*
X156000000Y-139000000D03*
D12*
X156000000Y-136460000D03*
D11*
X175000000Y-139000000D03*
D12*
X175000000Y-136460000D03*
D11*
X187000000Y-139000000D03*
D12*
X187000000Y-136460000D03*
D11*
X199000000Y-139000000D03*
D12*
X199000000Y-136460000D03*
D11*
X211000000Y-139000000D03*
D12*
X211000000Y-136460000D03*
D11*
X168000000Y-151000000D03*
D12*
X170540000Y-151000000D03*
D11*
X168000000Y-163000000D03*
D12*
X170540000Y-163000000D03*
D11*
X168000000Y-175000000D03*
D12*
X170540000Y-175000000D03*
D11*
X168000000Y-187000000D03*
D12*
X170540000Y-187000000D03*
D13*
X167000000Y-139000000D03*
D14*
X164460000Y-139000000D03*
X167000000Y-141540000D03*
X164460000Y-141540000D03*
X167000000Y-144080000D03*
X164460000Y-144080000D03*
D15*
X160460000Y-96000000D03*
X163000000Y-96000000D03*
X160460000Y-108000000D03*
X163000000Y-108000000D03*
X160460000Y-120000000D03*
X163000000Y-120000000D03*
X160460000Y-132000000D03*
X163000000Y-132000000D03*
X120000000Y-146540000D03*
X120000000Y-144000000D03*
X132000000Y-146540000D03*
X132000000Y-144000000D03*
X144000000Y-146540000D03*
X144000000Y-144000000D03*
X156000000Y-146540000D03*
X156000000Y-144000000D03*
X175000000Y-146540000D03*
X175000000Y-144000000D03*
X187000000Y-146540000D03*
X187000000Y-144000000D03*
X199000000Y-146540000D03*
X199000000Y-144000000D03*
X211000000Y-146540000D03*
X211000000Y-144000000D03*
X160460000Y-151000000D03*
X163000000Y-151000000D03*
X160460000Y-163000000D03*
X163000000Y-163000000D03*
X160460000Y-175000000D03*
X163000000Y-175000000D03*
X160460000Y-187000000D03*
X163000000Y-187000000D03*
D16*
X160600000Y-114000000D03*
X170760000Y-114000000D03*
X163100000Y-101800000D03*
X170720000Y-101800000D03*
X163000000Y-125500000D03*
X170620000Y-125500000D03*
X138000000Y-146500000D03*
X138000000Y-138880000D03*
X126000000Y-144000000D03*
X126000000Y-136380000D03*
X150500000Y-144000000D03*
X150500000Y-136380000D03*
X205000000Y-146500000D03*
X205000000Y-138880000D03*
X181000000Y-144000000D03*
X181000000Y-136380000D03*
X193000000Y-144000000D03*
X193000000Y-136380000D03*
X160500000Y-169100000D03*
X168120000Y-169100000D03*
X163100000Y-156700000D03*
X170720000Y-156700000D03*
X163000000Y-180500000D03*
X170620000Y-180500000D03*
D17*
X192670000Y-93520000D03*
X187590000Y-93520000D03*
X192670000Y-130110000D03*
X187590000Y-130110000D03*
D18*
X232400000Y-92100000D03*
D19*
X232400000Y-99600000D03*
D16*
X222402540Y-90260000D03*
D20*
X222402540Y-80100000D03*
D13*
X177400000Y-84100000D03*
D14*
X179940000Y-84100000D03*
X177400000Y-86640000D03*
X179940000Y-86640000D03*
X177400000Y-89180000D03*
X179940000Y-89180000D03*
X177400000Y-91720000D03*
X179940000Y-91720000D03*
D13*
X184400000Y-83600000D03*
D14*
X186940000Y-83600000D03*
X184400000Y-86140000D03*
X186940000Y-86140000D03*
X184400000Y-88680000D03*
X186940000Y-88680000D03*
D21*
X191400000Y-83600000D03*
D22*
X191400000Y-86140000D03*
X191400000Y-88680000D03*
D23*
X229900000Y-80120000D03*
D24*
X229900000Y-84080000D03*
D23*
X210900000Y-110580000D03*
D24*
X210900000Y-106620000D03*
D23*
X221400000Y-110580000D03*
D24*
X221400000Y-106620000D03*
D25*
X218900000Y-93140000D03*
X218900000Y-88060000D03*
X218900000Y-90600000D03*
D16*
X197400000Y-85100000D03*
X205020000Y-85100000D03*
X207900000Y-88600000D03*
X215520000Y-88600000D03*
X207900000Y-94600000D03*
X215520000Y-94600000D03*
D15*
X197360000Y-88600000D03*
X197360000Y-91140000D03*
X204980000Y-88600000D03*
X204980000Y-91140000D03*
D13*
X109500000Y-105500000D03*
D14*
X112040000Y-105500000D03*
X109500000Y-108040000D03*
X112040000Y-108040000D03*
X109500000Y-110580000D03*
X112040000Y-110580000D03*
X109500000Y-113120000D03*
X112040000Y-113120000D03*
X109500000Y-115660000D03*
X112040000Y-115660000D03*
D26*
X112200000Y-122400000D03*
D27*
X109660000Y-122400000D03*
D21*
X118000000Y-100500000D03*
D22*
X118000000Y-103040000D03*
X118000000Y-105580000D03*
X118000000Y-108120000D03*
X118000000Y-110660000D03*
X118000000Y-113200000D03*
X118000000Y-115740000D03*
D28*
X169600000Y-138700000D03*
X170200000Y-136600000D03*
X166800000Y-134600000D03*
X164800000Y-133600000D03*
X164800000Y-136300000D03*
X169200000Y-134300000D03*
X172300000Y-135300000D03*
X172100000Y-138500000D03*
X171700000Y-141100000D03*
X169200000Y-143900000D03*
X172600000Y-142400000D03*
X159159998Y-139500000D03*
X165500000Y-147900000D03*
X159000000Y-147900000D03*
X212900000Y-100100000D03*
X205400000Y-103600000D03*
X198900000Y-103600000D03*
X191400000Y-102600000D03*
X188900000Y-100100000D03*
X226900000Y-99100000D03*
X224400000Y-100600000D03*
X220900000Y-100100000D03*
X220900000Y-97100000D03*
X232400000Y-99600000D03*
X189300000Y-89400000D03*
D29*
X169600000Y-138700000D02*
X169500000Y-138700000D01*
X168800000Y-136600000D02*
X170200000Y-136600000D01*
X166800000Y-134600000D02*
X168800000Y-136600000D01*
X164800000Y-136300000D02*
X164800000Y-133600000D01*
X169200000Y-134300000D02*
X169900000Y-135000000D01*
X169900000Y-135000000D02*
X172000000Y-135000000D01*
X172000000Y-135000000D02*
X172300000Y-135300000D01*
X172100000Y-138500000D02*
X171900000Y-138700000D01*
X171900000Y-138700000D02*
X169500000Y-138700000D01*
X169500000Y-138900000D02*
X169500000Y-138700000D01*
X171700000Y-141100000D02*
X169500000Y-138900000D01*
X169200000Y-143900000D02*
X170700000Y-142400000D01*
X170700000Y-142400000D02*
X172600000Y-142400000D01*
X160460000Y-151000000D02*
X160460000Y-146960000D01*
X159159998Y-145659998D02*
X159159998Y-139500000D01*
X160460000Y-146960000D02*
X159159998Y-145659998D01*
X160460000Y-132000000D02*
X160460000Y-144460000D01*
X167000000Y-145500000D02*
X167000000Y-144080000D01*
X166000000Y-146500000D02*
X167000000Y-145500000D01*
X162500000Y-146500000D02*
X166000000Y-146500000D01*
X160460000Y-144460000D02*
X162500000Y-146500000D01*
X172300000Y-144000000D02*
X175000000Y-144000000D01*
X171200000Y-145100000D02*
X172300000Y-144000000D01*
X171200000Y-146500000D02*
X171200000Y-145100000D01*
X169800000Y-147900000D02*
X171200000Y-146500000D01*
X165500000Y-147900000D02*
X169800000Y-147900000D01*
X163000000Y-132000000D02*
X163000000Y-136100000D01*
X162980000Y-144080000D02*
X164460000Y-144080000D01*
X162200000Y-143300000D02*
X162980000Y-144080000D01*
X162200000Y-136900000D02*
X162200000Y-143300000D01*
X163000000Y-136100000D02*
X162200000Y-136900000D01*
X156000000Y-144000000D02*
X156500000Y-144000000D01*
X156500000Y-144000000D02*
X157800000Y-145300000D01*
X157800000Y-146700000D02*
X159000000Y-147900000D01*
X157800000Y-145300000D02*
X157800000Y-146700000D01*
D30*
X204980000Y-91140000D02*
X209860000Y-91140000D01*
X209860000Y-91140000D02*
X211900000Y-89100000D01*
X211900000Y-89100000D02*
X211900000Y-83100000D01*
X211900000Y-83100000D02*
X214900000Y-80100000D01*
X214900000Y-80100000D02*
X222402540Y-80100000D01*
X215520000Y-97480000D02*
X215520000Y-94600000D01*
X212900000Y-100100000D02*
X215520000Y-97480000D01*
X204900000Y-103600000D02*
X205400000Y-103600000D01*
X198900000Y-103600000D02*
X204900000Y-103600000D01*
X188900000Y-100100000D02*
X191400000Y-102600000D01*
X225900000Y-99100000D02*
X226900000Y-99100000D01*
X224400000Y-100600000D02*
X225900000Y-99100000D01*
X220900000Y-97100000D02*
X220900000Y-100100000D01*
D31*
X189300000Y-89400000D02*
X189400000Y-89300000D01*
X189400000Y-89300000D02*
X189400000Y-88300000D01*
X189400000Y-88300000D02*
X190300000Y-87400000D01*
X190300000Y-87400000D02*
X195100000Y-87400000D01*
X195100000Y-87400000D02*
X197400000Y-85100000D01*
D32*
G36*
X172803000Y-134000000D02*
X172817996Y-134075389D01*
X172860700Y-134139300D01*
X172924611Y-134182004D01*
X173000000Y-134197000D01*
X225803000Y-134197000D01*
X225803000Y-148803000D01*
X173000000Y-148803000D01*
X172924611Y-148817996D01*
X172860700Y-148860700D01*
X172817996Y-148924611D01*
X172803000Y-149000000D01*
X172803000Y-201803000D01*
X158197000Y-201803000D01*
X158197000Y-195401426D01*
X162972649Y-195401426D01*
X163280591Y-196146703D01*
X163850298Y-196717405D01*
X164595036Y-197026647D01*
X165401426Y-197027351D01*
X166146703Y-196719409D01*
X166717405Y-196149702D01*
X167026647Y-195404964D01*
X167027351Y-194598574D01*
X166719409Y-193853297D01*
X166149702Y-193282595D01*
X165404964Y-192973353D01*
X164598574Y-192972649D01*
X163853297Y-193280591D01*
X163282595Y-193850298D01*
X162973353Y-194595036D01*
X162972649Y-195401426D01*
X158197000Y-195401426D01*
X158197000Y-187235469D01*
X159270794Y-187235469D01*
X159451427Y-187672635D01*
X159785606Y-188007397D01*
X160222456Y-188188793D01*
X160695469Y-188189206D01*
X161132635Y-188008573D01*
X161467397Y-187674394D01*
X161648793Y-187237544D01*
X161648794Y-187235469D01*
X161810794Y-187235469D01*
X161991427Y-187672635D01*
X162325606Y-188007397D01*
X162762456Y-188188793D01*
X163235469Y-188189206D01*
X163672635Y-188008573D01*
X164007397Y-187674394D01*
X164168776Y-187285750D01*
X166365000Y-187285750D01*
X166365000Y-188126309D01*
X166461673Y-188359698D01*
X166640301Y-188538327D01*
X166873690Y-188635000D01*
X167714250Y-188635000D01*
X167873000Y-188476250D01*
X167873000Y-187127000D01*
X166523750Y-187127000D01*
X166365000Y-187285750D01*
X164168776Y-187285750D01*
X164188793Y-187237544D01*
X164189206Y-186764531D01*
X164008573Y-186327365D01*
X163674394Y-185992603D01*
X163388023Y-185873691D01*
X166365000Y-185873691D01*
X166365000Y-186714250D01*
X166523750Y-186873000D01*
X167873000Y-186873000D01*
X167873000Y-185523750D01*
X168127000Y-185523750D01*
X168127000Y-186873000D01*
X168147000Y-186873000D01*
X168147000Y-187127000D01*
X168127000Y-187127000D01*
X168127000Y-188476250D01*
X168285750Y-188635000D01*
X169126310Y-188635000D01*
X169359699Y-188538327D01*
X169538327Y-188359698D01*
X169635000Y-188126309D01*
X169635000Y-188113266D01*
X169730614Y-188209047D01*
X170254907Y-188426752D01*
X170822603Y-188427248D01*
X171347275Y-188210457D01*
X171749047Y-187809386D01*
X171966752Y-187285093D01*
X171967248Y-186717397D01*
X171750457Y-186192725D01*
X171349386Y-185790953D01*
X170825093Y-185573248D01*
X170257397Y-185572752D01*
X169732725Y-185789543D01*
X169635000Y-185887097D01*
X169635000Y-185873691D01*
X169538327Y-185640302D01*
X169359699Y-185461673D01*
X169126310Y-185365000D01*
X168285750Y-185365000D01*
X168127000Y-185523750D01*
X167873000Y-185523750D01*
X167714250Y-185365000D01*
X166873690Y-185365000D01*
X166640301Y-185461673D01*
X166461673Y-185640302D01*
X166365000Y-185873691D01*
X163388023Y-185873691D01*
X163237544Y-185811207D01*
X162764531Y-185810794D01*
X162327365Y-185991427D01*
X161992603Y-186325606D01*
X161811207Y-186762456D01*
X161810794Y-187235469D01*
X161648794Y-187235469D01*
X161649206Y-186764531D01*
X161468573Y-186327365D01*
X161134394Y-185992603D01*
X160697544Y-185811207D01*
X160224531Y-185810794D01*
X159787365Y-185991427D01*
X159452603Y-186325606D01*
X159271207Y-186762456D01*
X159270794Y-187235469D01*
X158197000Y-187235469D01*
X158197000Y-180782502D01*
X161573263Y-180782502D01*
X161789975Y-181306986D01*
X162190903Y-181708615D01*
X162715009Y-181926242D01*
X163282502Y-181926737D01*
X163806986Y-181710025D01*
X164208615Y-181309097D01*
X164426242Y-180784991D01*
X164426244Y-180782502D01*
X169193263Y-180782502D01*
X169409975Y-181306986D01*
X169810903Y-181708615D01*
X170335009Y-181926242D01*
X170902502Y-181926737D01*
X171426986Y-181710025D01*
X171828615Y-181309097D01*
X172046242Y-180784991D01*
X172046737Y-180217498D01*
X171830025Y-179693014D01*
X171429097Y-179291385D01*
X170904991Y-179073758D01*
X170337498Y-179073263D01*
X169813014Y-179289975D01*
X169411385Y-179690903D01*
X169193758Y-180215009D01*
X169193263Y-180782502D01*
X164426244Y-180782502D01*
X164426737Y-180217498D01*
X164210025Y-179693014D01*
X163809097Y-179291385D01*
X163284991Y-179073758D01*
X162717498Y-179073263D01*
X162193014Y-179289975D01*
X161791385Y-179690903D01*
X161573758Y-180215009D01*
X161573263Y-180782502D01*
X158197000Y-180782502D01*
X158197000Y-175235469D01*
X159270794Y-175235469D01*
X159451427Y-175672635D01*
X159785606Y-176007397D01*
X160222456Y-176188793D01*
X160695469Y-176189206D01*
X161132635Y-176008573D01*
X161467397Y-175674394D01*
X161648793Y-175237544D01*
X161648794Y-175235469D01*
X161810794Y-175235469D01*
X161991427Y-175672635D01*
X162325606Y-176007397D01*
X162762456Y-176188793D01*
X163235469Y-176189206D01*
X163672635Y-176008573D01*
X164007397Y-175674394D01*
X164188793Y-175237544D01*
X164189206Y-174764531D01*
X164008573Y-174327365D01*
X163681779Y-174000000D01*
X166564635Y-174000000D01*
X166564635Y-176000000D01*
X166594409Y-176158237D01*
X166687927Y-176303567D01*
X166830619Y-176401064D01*
X167000000Y-176435365D01*
X169000000Y-176435365D01*
X169158237Y-176405591D01*
X169303567Y-176312073D01*
X169401064Y-176169381D01*
X169435365Y-176000000D01*
X169435365Y-175913282D01*
X169730614Y-176209047D01*
X170254907Y-176426752D01*
X170822603Y-176427248D01*
X171347275Y-176210457D01*
X171749047Y-175809386D01*
X171966752Y-175285093D01*
X171967248Y-174717397D01*
X171750457Y-174192725D01*
X171349386Y-173790953D01*
X170825093Y-173573248D01*
X170257397Y-173572752D01*
X169732725Y-173789543D01*
X169435365Y-174086384D01*
X169435365Y-174000000D01*
X169405591Y-173841763D01*
X169312073Y-173696433D01*
X169169381Y-173598936D01*
X169000000Y-173564635D01*
X167000000Y-173564635D01*
X166841763Y-173594409D01*
X166696433Y-173687927D01*
X166598936Y-173830619D01*
X166564635Y-174000000D01*
X163681779Y-174000000D01*
X163674394Y-173992603D01*
X163237544Y-173811207D01*
X162764531Y-173810794D01*
X162327365Y-173991427D01*
X161992603Y-174325606D01*
X161811207Y-174762456D01*
X161810794Y-175235469D01*
X161648794Y-175235469D01*
X161649206Y-174764531D01*
X161468573Y-174327365D01*
X161134394Y-173992603D01*
X160697544Y-173811207D01*
X160224531Y-173810794D01*
X159787365Y-173991427D01*
X159452603Y-174325606D01*
X159271207Y-174762456D01*
X159270794Y-175235469D01*
X158197000Y-175235469D01*
X158197000Y-169382502D01*
X159073263Y-169382502D01*
X159289975Y-169906986D01*
X159690903Y-170308615D01*
X160215009Y-170526242D01*
X160782502Y-170526737D01*
X161306986Y-170310025D01*
X161364949Y-170252163D01*
X167147443Y-170252163D01*
X167246042Y-170518965D01*
X167855582Y-170745401D01*
X168505377Y-170721341D01*
X168993958Y-170518965D01*
X169092557Y-170252163D01*
X168120000Y-169279605D01*
X167147443Y-170252163D01*
X161364949Y-170252163D01*
X161708615Y-169909097D01*
X161926242Y-169384991D01*
X161926721Y-168835582D01*
X166474599Y-168835582D01*
X166498659Y-169485377D01*
X166701035Y-169973958D01*
X166967837Y-170072557D01*
X167940395Y-169100000D01*
X168299605Y-169100000D01*
X169272163Y-170072557D01*
X169538965Y-169973958D01*
X169765401Y-169364418D01*
X169741341Y-168714623D01*
X169538965Y-168226042D01*
X169272163Y-168127443D01*
X168299605Y-169100000D01*
X167940395Y-169100000D01*
X166967837Y-168127443D01*
X166701035Y-168226042D01*
X166474599Y-168835582D01*
X161926721Y-168835582D01*
X161926737Y-168817498D01*
X161710025Y-168293014D01*
X161365451Y-167947837D01*
X167147443Y-167947837D01*
X168120000Y-168920395D01*
X169092557Y-167947837D01*
X168993958Y-167681035D01*
X168384418Y-167454599D01*
X167734623Y-167478659D01*
X167246042Y-167681035D01*
X167147443Y-167947837D01*
X161365451Y-167947837D01*
X161309097Y-167891385D01*
X160784991Y-167673758D01*
X160217498Y-167673263D01*
X159693014Y-167889975D01*
X159291385Y-168290903D01*
X159073758Y-168815009D01*
X159073263Y-169382502D01*
X158197000Y-169382502D01*
X158197000Y-163235469D01*
X159270794Y-163235469D01*
X159451427Y-163672635D01*
X159785606Y-164007397D01*
X160222456Y-164188793D01*
X160695469Y-164189206D01*
X161132635Y-164008573D01*
X161467397Y-163674394D01*
X161648793Y-163237544D01*
X161648794Y-163235469D01*
X161810794Y-163235469D01*
X161991427Y-163672635D01*
X162325606Y-164007397D01*
X162762456Y-164188793D01*
X163235469Y-164189206D01*
X163672635Y-164008573D01*
X164007397Y-163674394D01*
X164168776Y-163285750D01*
X166365000Y-163285750D01*
X166365000Y-164126309D01*
X166461673Y-164359698D01*
X166640301Y-164538327D01*
X166873690Y-164635000D01*
X167714250Y-164635000D01*
X167873000Y-164476250D01*
X167873000Y-163127000D01*
X166523750Y-163127000D01*
X166365000Y-163285750D01*
X164168776Y-163285750D01*
X164188793Y-163237544D01*
X164189206Y-162764531D01*
X164008573Y-162327365D01*
X163674394Y-161992603D01*
X163388023Y-161873691D01*
X166365000Y-161873691D01*
X166365000Y-162714250D01*
X166523750Y-162873000D01*
X167873000Y-162873000D01*
X167873000Y-161523750D01*
X168127000Y-161523750D01*
X168127000Y-162873000D01*
X168147000Y-162873000D01*
X168147000Y-163127000D01*
X168127000Y-163127000D01*
X168127000Y-164476250D01*
X168285750Y-164635000D01*
X169126310Y-164635000D01*
X169359699Y-164538327D01*
X169538327Y-164359698D01*
X169635000Y-164126309D01*
X169635000Y-164113266D01*
X169730614Y-164209047D01*
X170254907Y-164426752D01*
X170822603Y-164427248D01*
X171347275Y-164210457D01*
X171749047Y-163809386D01*
X171966752Y-163285093D01*
X171967248Y-162717397D01*
X171750457Y-162192725D01*
X171349386Y-161790953D01*
X170825093Y-161573248D01*
X170257397Y-161572752D01*
X169732725Y-161789543D01*
X169635000Y-161887097D01*
X169635000Y-161873691D01*
X169538327Y-161640302D01*
X169359699Y-161461673D01*
X169126310Y-161365000D01*
X168285750Y-161365000D01*
X168127000Y-161523750D01*
X167873000Y-161523750D01*
X167714250Y-161365000D01*
X166873690Y-161365000D01*
X166640301Y-161461673D01*
X166461673Y-161640302D01*
X166365000Y-161873691D01*
X163388023Y-161873691D01*
X163237544Y-161811207D01*
X162764531Y-161810794D01*
X162327365Y-161991427D01*
X161992603Y-162325606D01*
X161811207Y-162762456D01*
X161810794Y-163235469D01*
X161648794Y-163235469D01*
X161649206Y-162764531D01*
X161468573Y-162327365D01*
X161134394Y-161992603D01*
X160697544Y-161811207D01*
X160224531Y-161810794D01*
X159787365Y-161991427D01*
X159452603Y-162325606D01*
X159271207Y-162762456D01*
X159270794Y-163235469D01*
X158197000Y-163235469D01*
X158197000Y-156982502D01*
X161673263Y-156982502D01*
X161889975Y-157506986D01*
X162290903Y-157908615D01*
X162815009Y-158126242D01*
X163382502Y-158126737D01*
X163906986Y-157910025D01*
X164308615Y-157509097D01*
X164526242Y-156984991D01*
X164526244Y-156982502D01*
X169293263Y-156982502D01*
X169509975Y-157506986D01*
X169910903Y-157908615D01*
X170435009Y-158126242D01*
X171002502Y-158126737D01*
X171526986Y-157910025D01*
X171928615Y-157509097D01*
X172146242Y-156984991D01*
X172146737Y-156417498D01*
X171930025Y-155893014D01*
X171529097Y-155491385D01*
X171004991Y-155273758D01*
X170437498Y-155273263D01*
X169913014Y-155489975D01*
X169511385Y-155890903D01*
X169293758Y-156415009D01*
X169293263Y-156982502D01*
X164526244Y-156982502D01*
X164526737Y-156417498D01*
X164310025Y-155893014D01*
X163909097Y-155491385D01*
X163384991Y-155273758D01*
X162817498Y-155273263D01*
X162293014Y-155489975D01*
X161891385Y-155890903D01*
X161673758Y-156415009D01*
X161673263Y-156982502D01*
X158197000Y-156982502D01*
X158197000Y-149000000D01*
X158182004Y-148924611D01*
X158139300Y-148860700D01*
X158075389Y-148817996D01*
X158000000Y-148803000D01*
X105197000Y-148803000D01*
X105197000Y-146775469D01*
X118810794Y-146775469D01*
X118991427Y-147212635D01*
X119325606Y-147547397D01*
X119762456Y-147728793D01*
X120235469Y-147729206D01*
X120672635Y-147548573D01*
X121007397Y-147214394D01*
X121188793Y-146777544D01*
X121188794Y-146775469D01*
X130810794Y-146775469D01*
X130991427Y-147212635D01*
X131325606Y-147547397D01*
X131762456Y-147728793D01*
X132235469Y-147729206D01*
X132672635Y-147548573D01*
X133007397Y-147214394D01*
X133186734Y-146782502D01*
X136573263Y-146782502D01*
X136789975Y-147306986D01*
X137190903Y-147708615D01*
X137715009Y-147926242D01*
X138282502Y-147926737D01*
X138806986Y-147710025D01*
X139208615Y-147309097D01*
X139426242Y-146784991D01*
X139426250Y-146775469D01*
X142810794Y-146775469D01*
X142991427Y-147212635D01*
X143325606Y-147547397D01*
X143762456Y-147728793D01*
X144235469Y-147729206D01*
X144672635Y-147548573D01*
X145007397Y-147214394D01*
X145188793Y-146777544D01*
X145189206Y-146304531D01*
X145008573Y-145867365D01*
X144674394Y-145532603D01*
X144237544Y-145351207D01*
X143764531Y-145350794D01*
X143327365Y-145531427D01*
X142992603Y-145865606D01*
X142811207Y-146302456D01*
X142810794Y-146775469D01*
X139426250Y-146775469D01*
X139426737Y-146217498D01*
X139210025Y-145693014D01*
X138809097Y-145291385D01*
X138284991Y-145073758D01*
X137717498Y-145073263D01*
X137193014Y-145289975D01*
X136791385Y-145690903D01*
X136573758Y-146215009D01*
X136573263Y-146782502D01*
X133186734Y-146782502D01*
X133188793Y-146777544D01*
X133189206Y-146304531D01*
X133008573Y-145867365D01*
X132674394Y-145532603D01*
X132237544Y-145351207D01*
X131764531Y-145350794D01*
X131327365Y-145531427D01*
X130992603Y-145865606D01*
X130811207Y-146302456D01*
X130810794Y-146775469D01*
X121188794Y-146775469D01*
X121189206Y-146304531D01*
X121008573Y-145867365D01*
X120674394Y-145532603D01*
X120237544Y-145351207D01*
X119764531Y-145350794D01*
X119327365Y-145531427D01*
X118992603Y-145865606D01*
X118811207Y-146302456D01*
X118810794Y-146775469D01*
X105197000Y-146775469D01*
X105197000Y-144235469D01*
X118810794Y-144235469D01*
X118991427Y-144672635D01*
X119325606Y-145007397D01*
X119762456Y-145188793D01*
X120235469Y-145189206D01*
X120672635Y-145008573D01*
X121007397Y-144674394D01*
X121170124Y-144282502D01*
X124573263Y-144282502D01*
X124789975Y-144806986D01*
X125190903Y-145208615D01*
X125715009Y-145426242D01*
X126282502Y-145426737D01*
X126806986Y-145210025D01*
X127208615Y-144809097D01*
X127426242Y-144284991D01*
X127426285Y-144235469D01*
X130810794Y-144235469D01*
X130991427Y-144672635D01*
X131325606Y-145007397D01*
X131762456Y-145188793D01*
X132235469Y-145189206D01*
X132672635Y-145008573D01*
X133007397Y-144674394D01*
X133188793Y-144237544D01*
X133188794Y-144235469D01*
X142810794Y-144235469D01*
X142991427Y-144672635D01*
X143325606Y-145007397D01*
X143762456Y-145188793D01*
X144235469Y-145189206D01*
X144672635Y-145008573D01*
X145007397Y-144674394D01*
X145170124Y-144282502D01*
X149073263Y-144282502D01*
X149289975Y-144806986D01*
X149690903Y-145208615D01*
X150215009Y-145426242D01*
X150782502Y-145426737D01*
X151306986Y-145210025D01*
X151708615Y-144809097D01*
X151926242Y-144284991D01*
X151926285Y-144235469D01*
X154810794Y-144235469D01*
X154991427Y-144672635D01*
X155325606Y-145007397D01*
X155762456Y-145188793D01*
X156235469Y-145189206D01*
X156336489Y-145147465D01*
X156873000Y-145683976D01*
X156873000Y-145731555D01*
X156674394Y-145532603D01*
X156237544Y-145351207D01*
X155764531Y-145350794D01*
X155327365Y-145531427D01*
X154992603Y-145865606D01*
X154811207Y-146302456D01*
X154810794Y-146775469D01*
X154991427Y-147212635D01*
X155325606Y-147547397D01*
X155762456Y-147728793D01*
X156235469Y-147729206D01*
X156672635Y-147548573D01*
X157007397Y-147214394D01*
X157023816Y-147174853D01*
X157144512Y-147355488D01*
X158344512Y-148555488D01*
X158645253Y-148756436D01*
X159000000Y-148827000D01*
X159354747Y-148756436D01*
X159533000Y-148637332D01*
X159533000Y-150245349D01*
X159452603Y-150325606D01*
X159271207Y-150762456D01*
X159270794Y-151235469D01*
X159451427Y-151672635D01*
X159785606Y-152007397D01*
X160222456Y-152188793D01*
X160695469Y-152189206D01*
X161132635Y-152008573D01*
X161467397Y-151674394D01*
X161648793Y-151237544D01*
X161648794Y-151235469D01*
X161810794Y-151235469D01*
X161991427Y-151672635D01*
X162325606Y-152007397D01*
X162762456Y-152188793D01*
X163235469Y-152189206D01*
X163672635Y-152008573D01*
X164007397Y-151674394D01*
X164188793Y-151237544D01*
X164189206Y-150764531D01*
X164008573Y-150327365D01*
X163681779Y-150000000D01*
X166564635Y-150000000D01*
X166564635Y-152000000D01*
X166594409Y-152158237D01*
X166687927Y-152303567D01*
X166830619Y-152401064D01*
X167000000Y-152435365D01*
X169000000Y-152435365D01*
X169158237Y-152405591D01*
X169303567Y-152312073D01*
X169401064Y-152169381D01*
X169435365Y-152000000D01*
X169435365Y-151913282D01*
X169730614Y-152209047D01*
X170254907Y-152426752D01*
X170822603Y-152427248D01*
X171347275Y-152210457D01*
X171749047Y-151809386D01*
X171966752Y-151285093D01*
X171967248Y-150717397D01*
X171750457Y-150192725D01*
X171349386Y-149790953D01*
X170825093Y-149573248D01*
X170257397Y-149572752D01*
X169732725Y-149789543D01*
X169435365Y-150086384D01*
X169435365Y-150000000D01*
X169405591Y-149841763D01*
X169312073Y-149696433D01*
X169169381Y-149598936D01*
X169000000Y-149564635D01*
X167000000Y-149564635D01*
X166841763Y-149594409D01*
X166696433Y-149687927D01*
X166598936Y-149830619D01*
X166564635Y-150000000D01*
X163681779Y-150000000D01*
X163674394Y-149992603D01*
X163237544Y-149811207D01*
X162764531Y-149810794D01*
X162327365Y-149991427D01*
X161992603Y-150325606D01*
X161811207Y-150762456D01*
X161810794Y-151235469D01*
X161648794Y-151235469D01*
X161649206Y-150764531D01*
X161468573Y-150327365D01*
X161387000Y-150245650D01*
X161387000Y-146960000D01*
X161321938Y-146632914D01*
X161844512Y-147155488D01*
X162145253Y-147356437D01*
X162500000Y-147427000D01*
X164722577Y-147427000D01*
X164643564Y-147545252D01*
X164573000Y-147900000D01*
X164643564Y-148254748D01*
X164844512Y-148555488D01*
X165145252Y-148756436D01*
X165500000Y-148827000D01*
X169800000Y-148827000D01*
X170154748Y-148756436D01*
X170455488Y-148555488D01*
X171855488Y-147155488D01*
X171930273Y-147043564D01*
X172056436Y-146854748D01*
X172072205Y-146775469D01*
X173810794Y-146775469D01*
X173991427Y-147212635D01*
X174325606Y-147547397D01*
X174762456Y-147728793D01*
X175235469Y-147729206D01*
X175672635Y-147548573D01*
X176007397Y-147214394D01*
X176188793Y-146777544D01*
X176188794Y-146775469D01*
X185810794Y-146775469D01*
X185991427Y-147212635D01*
X186325606Y-147547397D01*
X186762456Y-147728793D01*
X187235469Y-147729206D01*
X187672635Y-147548573D01*
X188007397Y-147214394D01*
X188188793Y-146777544D01*
X188188794Y-146775469D01*
X197810794Y-146775469D01*
X197991427Y-147212635D01*
X198325606Y-147547397D01*
X198762456Y-147728793D01*
X199235469Y-147729206D01*
X199672635Y-147548573D01*
X200007397Y-147214394D01*
X200186734Y-146782502D01*
X203573263Y-146782502D01*
X203789975Y-147306986D01*
X204190903Y-147708615D01*
X204715009Y-147926242D01*
X205282502Y-147926737D01*
X205806986Y-147710025D01*
X206208615Y-147309097D01*
X206426242Y-146784991D01*
X206426250Y-146775469D01*
X209810794Y-146775469D01*
X209991427Y-147212635D01*
X210325606Y-147547397D01*
X210762456Y-147728793D01*
X211235469Y-147729206D01*
X211672635Y-147548573D01*
X212007397Y-147214394D01*
X212188793Y-146777544D01*
X212189206Y-146304531D01*
X212008573Y-145867365D01*
X211674394Y-145532603D01*
X211237544Y-145351207D01*
X210764531Y-145350794D01*
X210327365Y-145531427D01*
X209992603Y-145865606D01*
X209811207Y-146302456D01*
X209810794Y-146775469D01*
X206426250Y-146775469D01*
X206426737Y-146217498D01*
X206210025Y-145693014D01*
X205809097Y-145291385D01*
X205284991Y-145073758D01*
X204717498Y-145073263D01*
X204193014Y-145289975D01*
X203791385Y-145690903D01*
X203573758Y-146215009D01*
X203573263Y-146782502D01*
X200186734Y-146782502D01*
X200188793Y-146777544D01*
X200189206Y-146304531D01*
X200008573Y-145867365D01*
X199674394Y-145532603D01*
X199237544Y-145351207D01*
X198764531Y-145350794D01*
X198327365Y-145531427D01*
X197992603Y-145865606D01*
X197811207Y-146302456D01*
X197810794Y-146775469D01*
X188188794Y-146775469D01*
X188189206Y-146304531D01*
X188008573Y-145867365D01*
X187674394Y-145532603D01*
X187237544Y-145351207D01*
X186764531Y-145350794D01*
X186327365Y-145531427D01*
X185992603Y-145865606D01*
X185811207Y-146302456D01*
X185810794Y-146775469D01*
X176188794Y-146775469D01*
X176189206Y-146304531D01*
X176008573Y-145867365D01*
X175674394Y-145532603D01*
X175237544Y-145351207D01*
X174764531Y-145350794D01*
X174327365Y-145531427D01*
X173992603Y-145865606D01*
X173811207Y-146302456D01*
X173810794Y-146775469D01*
X172072205Y-146775469D01*
X172127000Y-146500000D01*
X172127000Y-145483976D01*
X172683976Y-144927000D01*
X174245349Y-144927000D01*
X174325606Y-145007397D01*
X174762456Y-145188793D01*
X175235469Y-145189206D01*
X175672635Y-145008573D01*
X176007397Y-144674394D01*
X176170124Y-144282502D01*
X179573263Y-144282502D01*
X179789975Y-144806986D01*
X180190903Y-145208615D01*
X180715009Y-145426242D01*
X181282502Y-145426737D01*
X181806986Y-145210025D01*
X182208615Y-144809097D01*
X182426242Y-144284991D01*
X182426285Y-144235469D01*
X185810794Y-144235469D01*
X185991427Y-144672635D01*
X186325606Y-145007397D01*
X186762456Y-145188793D01*
X187235469Y-145189206D01*
X187672635Y-145008573D01*
X188007397Y-144674394D01*
X188170124Y-144282502D01*
X191573263Y-144282502D01*
X191789975Y-144806986D01*
X192190903Y-145208615D01*
X192715009Y-145426242D01*
X193282502Y-145426737D01*
X193806986Y-145210025D01*
X194208615Y-144809097D01*
X194426242Y-144284991D01*
X194426285Y-144235469D01*
X197810794Y-144235469D01*
X197991427Y-144672635D01*
X198325606Y-145007397D01*
X198762456Y-145188793D01*
X199235469Y-145189206D01*
X199672635Y-145008573D01*
X200007397Y-144674394D01*
X200188793Y-144237544D01*
X200188794Y-144235469D01*
X209810794Y-144235469D01*
X209991427Y-144672635D01*
X210325606Y-145007397D01*
X210762456Y-145188793D01*
X211235469Y-145189206D01*
X211672635Y-145008573D01*
X212007397Y-144674394D01*
X212188793Y-144237544D01*
X212189206Y-143764531D01*
X212008573Y-143327365D01*
X211674394Y-142992603D01*
X211237544Y-142811207D01*
X210764531Y-142810794D01*
X210327365Y-142991427D01*
X209992603Y-143325606D01*
X209811207Y-143762456D01*
X209810794Y-144235469D01*
X200188794Y-144235469D01*
X200189206Y-143764531D01*
X200008573Y-143327365D01*
X199674394Y-142992603D01*
X199237544Y-142811207D01*
X198764531Y-142810794D01*
X198327365Y-142991427D01*
X197992603Y-143325606D01*
X197811207Y-143762456D01*
X197810794Y-144235469D01*
X194426285Y-144235469D01*
X194426737Y-143717498D01*
X194210025Y-143193014D01*
X193809097Y-142791385D01*
X193284991Y-142573758D01*
X192717498Y-142573263D01*
X192193014Y-142789975D01*
X191791385Y-143190903D01*
X191573758Y-143715009D01*
X191573263Y-144282502D01*
X188170124Y-144282502D01*
X188188793Y-144237544D01*
X188189206Y-143764531D01*
X188008573Y-143327365D01*
X187674394Y-142992603D01*
X187237544Y-142811207D01*
X186764531Y-142810794D01*
X186327365Y-142991427D01*
X185992603Y-143325606D01*
X185811207Y-143762456D01*
X185810794Y-144235469D01*
X182426285Y-144235469D01*
X182426737Y-143717498D01*
X182210025Y-143193014D01*
X181809097Y-142791385D01*
X181284991Y-142573758D01*
X180717498Y-142573263D01*
X180193014Y-142789975D01*
X179791385Y-143190903D01*
X179573758Y-143715009D01*
X179573263Y-144282502D01*
X176170124Y-144282502D01*
X176188793Y-144237544D01*
X176189206Y-143764531D01*
X176008573Y-143327365D01*
X175674394Y-142992603D01*
X175237544Y-142811207D01*
X174764531Y-142810794D01*
X174327365Y-142991427D01*
X174245650Y-143073000D01*
X172300000Y-143073000D01*
X171945252Y-143143564D01*
X171825524Y-143223564D01*
X171644512Y-143344512D01*
X170544512Y-144444512D01*
X170343564Y-144745252D01*
X170273000Y-145100000D01*
X170273000Y-146116024D01*
X169416024Y-146973000D01*
X166837976Y-146973000D01*
X167655488Y-146155488D01*
X167856437Y-145854747D01*
X167927000Y-145500000D01*
X167927000Y-144999859D01*
X167937876Y-144992592D01*
X168217643Y-144573891D01*
X168315884Y-144080000D01*
X168217643Y-143586109D01*
X167937876Y-143167408D01*
X167519175Y-142887641D01*
X167128847Y-142810000D01*
X167519175Y-142732359D01*
X167937876Y-142452592D01*
X168217643Y-142033891D01*
X168315884Y-141540000D01*
X168288320Y-141401426D01*
X216972649Y-141401426D01*
X217280591Y-142146703D01*
X217850298Y-142717405D01*
X218595036Y-143026647D01*
X219401426Y-143027351D01*
X220146703Y-142719409D01*
X220717405Y-142149702D01*
X221026647Y-141404964D01*
X221027351Y-140598574D01*
X220719409Y-139853297D01*
X220149702Y-139282595D01*
X219404964Y-138973353D01*
X218598574Y-138972649D01*
X217853297Y-139280591D01*
X217282595Y-139850298D01*
X216973353Y-140595036D01*
X216972649Y-141401426D01*
X168288320Y-141401426D01*
X168217643Y-141046109D01*
X167937876Y-140627408D01*
X167745101Y-140498600D01*
X167989909Y-140498600D01*
X168223298Y-140401927D01*
X168401927Y-140223299D01*
X168498600Y-139989910D01*
X168498600Y-139285750D01*
X168339850Y-139127000D01*
X167127000Y-139127000D01*
X167127000Y-139147000D01*
X166873000Y-139147000D01*
X166873000Y-139127000D01*
X166853000Y-139127000D01*
X166853000Y-138873000D01*
X166873000Y-138873000D01*
X166873000Y-137660150D01*
X167127000Y-137660150D01*
X167127000Y-138873000D01*
X168339850Y-138873000D01*
X168498600Y-138714250D01*
X168498600Y-138010090D01*
X168494421Y-138000000D01*
X173564635Y-138000000D01*
X173564635Y-140000000D01*
X173594409Y-140158237D01*
X173687927Y-140303567D01*
X173830619Y-140401064D01*
X174000000Y-140435365D01*
X176000000Y-140435365D01*
X176158237Y-140405591D01*
X176303567Y-140312073D01*
X176401064Y-140169381D01*
X176435365Y-140000000D01*
X176435365Y-139285750D01*
X185365000Y-139285750D01*
X185365000Y-140126310D01*
X185461673Y-140359699D01*
X185640302Y-140538327D01*
X185873691Y-140635000D01*
X186714250Y-140635000D01*
X186873000Y-140476250D01*
X186873000Y-139127000D01*
X187127000Y-139127000D01*
X187127000Y-140476250D01*
X187285750Y-140635000D01*
X188126309Y-140635000D01*
X188359698Y-140538327D01*
X188538327Y-140359699D01*
X188635000Y-140126310D01*
X188635000Y-139285750D01*
X188476250Y-139127000D01*
X187127000Y-139127000D01*
X186873000Y-139127000D01*
X185523750Y-139127000D01*
X185365000Y-139285750D01*
X176435365Y-139285750D01*
X176435365Y-138000000D01*
X176411599Y-137873690D01*
X185365000Y-137873690D01*
X185365000Y-138714250D01*
X185523750Y-138873000D01*
X186873000Y-138873000D01*
X186873000Y-138853000D01*
X187127000Y-138853000D01*
X187127000Y-138873000D01*
X188476250Y-138873000D01*
X188635000Y-138714250D01*
X188635000Y-138000000D01*
X197564635Y-138000000D01*
X197564635Y-140000000D01*
X197594409Y-140158237D01*
X197687927Y-140303567D01*
X197830619Y-140401064D01*
X198000000Y-140435365D01*
X200000000Y-140435365D01*
X200158237Y-140405591D01*
X200303567Y-140312073D01*
X200401064Y-140169381D01*
X200428851Y-140032163D01*
X204027443Y-140032163D01*
X204126042Y-140298965D01*
X204735582Y-140525401D01*
X205385377Y-140501341D01*
X205873958Y-140298965D01*
X205972557Y-140032163D01*
X205000000Y-139059605D01*
X204027443Y-140032163D01*
X200428851Y-140032163D01*
X200435365Y-140000000D01*
X200435365Y-138615582D01*
X203354599Y-138615582D01*
X203378659Y-139265377D01*
X203581035Y-139753958D01*
X203847837Y-139852557D01*
X204820395Y-138880000D01*
X205179605Y-138880000D01*
X206152163Y-139852557D01*
X206418965Y-139753958D01*
X206592898Y-139285750D01*
X209365000Y-139285750D01*
X209365000Y-140126310D01*
X209461673Y-140359699D01*
X209640302Y-140538327D01*
X209873691Y-140635000D01*
X210714250Y-140635000D01*
X210873000Y-140476250D01*
X210873000Y-139127000D01*
X211127000Y-139127000D01*
X211127000Y-140476250D01*
X211285750Y-140635000D01*
X212126309Y-140635000D01*
X212359698Y-140538327D01*
X212538327Y-140359699D01*
X212635000Y-140126310D01*
X212635000Y-139285750D01*
X212476250Y-139127000D01*
X211127000Y-139127000D01*
X210873000Y-139127000D01*
X209523750Y-139127000D01*
X209365000Y-139285750D01*
X206592898Y-139285750D01*
X206645401Y-139144418D01*
X206621341Y-138494623D01*
X206418965Y-138006042D01*
X206152163Y-137907443D01*
X205179605Y-138880000D01*
X204820395Y-138880000D01*
X203847837Y-137907443D01*
X203581035Y-138006042D01*
X203354599Y-138615582D01*
X200435365Y-138615582D01*
X200435365Y-138000000D01*
X200405591Y-137841763D01*
X200332282Y-137727837D01*
X204027443Y-137727837D01*
X205000000Y-138700395D01*
X205826704Y-137873690D01*
X209365000Y-137873690D01*
X209365000Y-138714250D01*
X209523750Y-138873000D01*
X210873000Y-138873000D01*
X210873000Y-138853000D01*
X211127000Y-138853000D01*
X211127000Y-138873000D01*
X212476250Y-138873000D01*
X212635000Y-138714250D01*
X212635000Y-137873690D01*
X212538327Y-137640301D01*
X212359698Y-137461673D01*
X212126309Y-137365000D01*
X212113266Y-137365000D01*
X212209047Y-137269386D01*
X212426752Y-136745093D01*
X212427248Y-136177397D01*
X212210457Y-135652725D01*
X211809386Y-135250953D01*
X211285093Y-135033248D01*
X210717397Y-135032752D01*
X210192725Y-135249543D01*
X209790953Y-135650614D01*
X209573248Y-136174907D01*
X209572752Y-136742603D01*
X209789543Y-137267275D01*
X209887097Y-137365000D01*
X209873691Y-137365000D01*
X209640302Y-137461673D01*
X209461673Y-137640301D01*
X209365000Y-137873690D01*
X205826704Y-137873690D01*
X205972557Y-137727837D01*
X205873958Y-137461035D01*
X205264418Y-137234599D01*
X204614623Y-137258659D01*
X204126042Y-137461035D01*
X204027443Y-137727837D01*
X200332282Y-137727837D01*
X200312073Y-137696433D01*
X200169381Y-137598936D01*
X200000000Y-137564635D01*
X199913282Y-137564635D01*
X200209047Y-137269386D01*
X200426752Y-136745093D01*
X200427248Y-136177397D01*
X200210457Y-135652725D01*
X199809386Y-135250953D01*
X199285093Y-135033248D01*
X198717397Y-135032752D01*
X198192725Y-135249543D01*
X197790953Y-135650614D01*
X197573248Y-136174907D01*
X197572752Y-136742603D01*
X197789543Y-137267275D01*
X198086384Y-137564635D01*
X198000000Y-137564635D01*
X197841763Y-137594409D01*
X197696433Y-137687927D01*
X197598936Y-137830619D01*
X197564635Y-138000000D01*
X188635000Y-138000000D01*
X188635000Y-137873690D01*
X188538327Y-137640301D01*
X188359698Y-137461673D01*
X188126309Y-137365000D01*
X188113266Y-137365000D01*
X188209047Y-137269386D01*
X188426752Y-136745093D01*
X188426824Y-136662502D01*
X191573263Y-136662502D01*
X191789975Y-137186986D01*
X192190903Y-137588615D01*
X192715009Y-137806242D01*
X193282502Y-137806737D01*
X193806986Y-137590025D01*
X194208615Y-137189097D01*
X194426242Y-136664991D01*
X194426737Y-136097498D01*
X194210025Y-135573014D01*
X193809097Y-135171385D01*
X193284991Y-134953758D01*
X192717498Y-134953263D01*
X192193014Y-135169975D01*
X191791385Y-135570903D01*
X191573758Y-136095009D01*
X191573263Y-136662502D01*
X188426824Y-136662502D01*
X188427248Y-136177397D01*
X188210457Y-135652725D01*
X187809386Y-135250953D01*
X187285093Y-135033248D01*
X186717397Y-135032752D01*
X186192725Y-135249543D01*
X185790953Y-135650614D01*
X185573248Y-136174907D01*
X185572752Y-136742603D01*
X185789543Y-137267275D01*
X185887097Y-137365000D01*
X185873691Y-137365000D01*
X185640302Y-137461673D01*
X185461673Y-137640301D01*
X185365000Y-137873690D01*
X176411599Y-137873690D01*
X176405591Y-137841763D01*
X176312073Y-137696433D01*
X176169381Y-137598936D01*
X176000000Y-137564635D01*
X175913282Y-137564635D01*
X176209047Y-137269386D01*
X176426752Y-136745093D01*
X176426824Y-136662502D01*
X179573263Y-136662502D01*
X179789975Y-137186986D01*
X180190903Y-137588615D01*
X180715009Y-137806242D01*
X181282502Y-137806737D01*
X181806986Y-137590025D01*
X182208615Y-137189097D01*
X182426242Y-136664991D01*
X182426737Y-136097498D01*
X182210025Y-135573014D01*
X181809097Y-135171385D01*
X181284991Y-134953758D01*
X180717498Y-134953263D01*
X180193014Y-135169975D01*
X179791385Y-135570903D01*
X179573758Y-136095009D01*
X179573263Y-136662502D01*
X176426824Y-136662502D01*
X176427248Y-136177397D01*
X176210457Y-135652725D01*
X175809386Y-135250953D01*
X175285093Y-135033248D01*
X174717397Y-135032752D01*
X174192725Y-135249543D01*
X173790953Y-135650614D01*
X173573248Y-136174907D01*
X173572752Y-136742603D01*
X173789543Y-137267275D01*
X174086384Y-137564635D01*
X174000000Y-137564635D01*
X173841763Y-137594409D01*
X173696433Y-137687927D01*
X173598936Y-137830619D01*
X173564635Y-138000000D01*
X168494421Y-138000000D01*
X168401927Y-137776701D01*
X168223298Y-137598073D01*
X167989909Y-137501400D01*
X167285750Y-137501400D01*
X167127000Y-137660150D01*
X166873000Y-137660150D01*
X166714250Y-137501400D01*
X166010091Y-137501400D01*
X165776702Y-137598073D01*
X165598073Y-137776701D01*
X165501400Y-138010090D01*
X165501400Y-138242343D01*
X165397876Y-138087408D01*
X164979175Y-137807641D01*
X164485284Y-137709400D01*
X164434716Y-137709400D01*
X163940825Y-137807641D01*
X163522124Y-138087408D01*
X163242357Y-138506109D01*
X163144116Y-139000000D01*
X163242357Y-139493891D01*
X163522124Y-139912592D01*
X163940825Y-140192359D01*
X164331153Y-140270000D01*
X163940825Y-140347641D01*
X163522124Y-140627408D01*
X163242357Y-141046109D01*
X163144116Y-141540000D01*
X163242357Y-142033891D01*
X163522124Y-142452592D01*
X163940825Y-142732359D01*
X164331153Y-142810000D01*
X163940825Y-142887641D01*
X163543687Y-143153000D01*
X163363976Y-143153000D01*
X163127000Y-142916024D01*
X163127000Y-137283976D01*
X163655488Y-136755488D01*
X163856437Y-136454747D01*
X163927000Y-136100000D01*
X163927000Y-132754651D01*
X164007397Y-132674394D01*
X164168776Y-132285750D01*
X166365000Y-132285750D01*
X166365000Y-133126309D01*
X166461673Y-133359698D01*
X166640301Y-133538327D01*
X166873690Y-133635000D01*
X167714250Y-133635000D01*
X167873000Y-133476250D01*
X167873000Y-132127000D01*
X166523750Y-132127000D01*
X166365000Y-132285750D01*
X164168776Y-132285750D01*
X164188793Y-132237544D01*
X164189206Y-131764531D01*
X164008573Y-131327365D01*
X163674394Y-130992603D01*
X163388023Y-130873691D01*
X166365000Y-130873691D01*
X166365000Y-131714250D01*
X166523750Y-131873000D01*
X167873000Y-131873000D01*
X167873000Y-130523750D01*
X168127000Y-130523750D01*
X168127000Y-131873000D01*
X168147000Y-131873000D01*
X168147000Y-132127000D01*
X168127000Y-132127000D01*
X168127000Y-133476250D01*
X168285750Y-133635000D01*
X169126310Y-133635000D01*
X169359699Y-133538327D01*
X169538327Y-133359698D01*
X169635000Y-133126309D01*
X169635000Y-133113266D01*
X169730614Y-133209047D01*
X170254907Y-133426752D01*
X170822603Y-133427248D01*
X171347275Y-133210457D01*
X171749047Y-132809386D01*
X171966752Y-132285093D01*
X171967248Y-131717397D01*
X171750457Y-131192725D01*
X171349386Y-130790953D01*
X170825093Y-130573248D01*
X170257397Y-130572752D01*
X169732725Y-130789543D01*
X169635000Y-130887097D01*
X169635000Y-130873691D01*
X169538327Y-130640302D01*
X169359699Y-130461673D01*
X169126310Y-130365000D01*
X168285750Y-130365000D01*
X168127000Y-130523750D01*
X167873000Y-130523750D01*
X167714250Y-130365000D01*
X166873690Y-130365000D01*
X166640301Y-130461673D01*
X166461673Y-130640302D01*
X166365000Y-130873691D01*
X163388023Y-130873691D01*
X163237544Y-130811207D01*
X162764531Y-130810794D01*
X162327365Y-130991427D01*
X161992603Y-131325606D01*
X161811207Y-131762456D01*
X161810794Y-132235469D01*
X161991427Y-132672635D01*
X162073000Y-132754350D01*
X162073000Y-135716024D01*
X161544512Y-136244512D01*
X161387000Y-136480245D01*
X161387000Y-132754651D01*
X161467397Y-132674394D01*
X161648793Y-132237544D01*
X161649206Y-131764531D01*
X161468573Y-131327365D01*
X161134394Y-130992603D01*
X160697544Y-130811207D01*
X160224531Y-130810794D01*
X159787365Y-130991427D01*
X159452603Y-131325606D01*
X159271207Y-131762456D01*
X159270794Y-132235469D01*
X159451427Y-132672635D01*
X159533000Y-132754350D01*
X159533000Y-138655761D01*
X159514746Y-138643564D01*
X159159998Y-138573000D01*
X158805250Y-138643564D01*
X158504510Y-138844512D01*
X158303562Y-139145252D01*
X158232998Y-139500000D01*
X158232998Y-144422022D01*
X157155488Y-143344512D01*
X156974476Y-143223564D01*
X156854748Y-143143564D01*
X156817744Y-143136204D01*
X156674394Y-142992603D01*
X156237544Y-142811207D01*
X155764531Y-142810794D01*
X155327365Y-142991427D01*
X154992603Y-143325606D01*
X154811207Y-143762456D01*
X154810794Y-144235469D01*
X151926285Y-144235469D01*
X151926737Y-143717498D01*
X151710025Y-143193014D01*
X151309097Y-142791385D01*
X150784991Y-142573758D01*
X150217498Y-142573263D01*
X149693014Y-142789975D01*
X149291385Y-143190903D01*
X149073758Y-143715009D01*
X149073263Y-144282502D01*
X145170124Y-144282502D01*
X145188793Y-144237544D01*
X145189206Y-143764531D01*
X145008573Y-143327365D01*
X144674394Y-142992603D01*
X144237544Y-142811207D01*
X143764531Y-142810794D01*
X143327365Y-142991427D01*
X142992603Y-143325606D01*
X142811207Y-143762456D01*
X142810794Y-144235469D01*
X133188794Y-144235469D01*
X133189206Y-143764531D01*
X133008573Y-143327365D01*
X132674394Y-142992603D01*
X132237544Y-142811207D01*
X131764531Y-142810794D01*
X131327365Y-142991427D01*
X130992603Y-143325606D01*
X130811207Y-143762456D01*
X130810794Y-144235469D01*
X127426285Y-144235469D01*
X127426737Y-143717498D01*
X127210025Y-143193014D01*
X126809097Y-142791385D01*
X126284991Y-142573758D01*
X125717498Y-142573263D01*
X125193014Y-142789975D01*
X124791385Y-143190903D01*
X124573758Y-143715009D01*
X124573263Y-144282502D01*
X121170124Y-144282502D01*
X121188793Y-144237544D01*
X121189206Y-143764531D01*
X121008573Y-143327365D01*
X120674394Y-142992603D01*
X120237544Y-142811207D01*
X119764531Y-142810794D01*
X119327365Y-142991427D01*
X118992603Y-143325606D01*
X118811207Y-143762456D01*
X118810794Y-144235469D01*
X105197000Y-144235469D01*
X105197000Y-141401426D01*
X109972649Y-141401426D01*
X110280591Y-142146703D01*
X110850298Y-142717405D01*
X111595036Y-143026647D01*
X112401426Y-143027351D01*
X113146703Y-142719409D01*
X113717405Y-142149702D01*
X114026647Y-141404964D01*
X114027351Y-140598574D01*
X113719409Y-139853297D01*
X113149702Y-139282595D01*
X112404964Y-138973353D01*
X111598574Y-138972649D01*
X110853297Y-139280591D01*
X110282595Y-139850298D01*
X109973353Y-140595036D01*
X109972649Y-141401426D01*
X105197000Y-141401426D01*
X105197000Y-138000000D01*
X118564635Y-138000000D01*
X118564635Y-140000000D01*
X118594409Y-140158237D01*
X118687927Y-140303567D01*
X118830619Y-140401064D01*
X119000000Y-140435365D01*
X121000000Y-140435365D01*
X121158237Y-140405591D01*
X121303567Y-140312073D01*
X121401064Y-140169381D01*
X121435365Y-140000000D01*
X121435365Y-139285750D01*
X130365000Y-139285750D01*
X130365000Y-140126310D01*
X130461673Y-140359699D01*
X130640302Y-140538327D01*
X130873691Y-140635000D01*
X131714250Y-140635000D01*
X131873000Y-140476250D01*
X131873000Y-139127000D01*
X132127000Y-139127000D01*
X132127000Y-140476250D01*
X132285750Y-140635000D01*
X133126309Y-140635000D01*
X133359698Y-140538327D01*
X133538327Y-140359699D01*
X133635000Y-140126310D01*
X133635000Y-140032163D01*
X137027443Y-140032163D01*
X137126042Y-140298965D01*
X137735582Y-140525401D01*
X138385377Y-140501341D01*
X138873958Y-140298965D01*
X138972557Y-140032163D01*
X138000000Y-139059605D01*
X137027443Y-140032163D01*
X133635000Y-140032163D01*
X133635000Y-139285750D01*
X133476250Y-139127000D01*
X132127000Y-139127000D01*
X131873000Y-139127000D01*
X130523750Y-139127000D01*
X130365000Y-139285750D01*
X121435365Y-139285750D01*
X121435365Y-138000000D01*
X121411599Y-137873690D01*
X130365000Y-137873690D01*
X130365000Y-138714250D01*
X130523750Y-138873000D01*
X131873000Y-138873000D01*
X131873000Y-138853000D01*
X132127000Y-138853000D01*
X132127000Y-138873000D01*
X133476250Y-138873000D01*
X133635000Y-138714250D01*
X133635000Y-138615582D01*
X136354599Y-138615582D01*
X136378659Y-139265377D01*
X136581035Y-139753958D01*
X136847837Y-139852557D01*
X137820395Y-138880000D01*
X138179605Y-138880000D01*
X139152163Y-139852557D01*
X139418965Y-139753958D01*
X139645401Y-139144418D01*
X139621341Y-138494623D01*
X139418965Y-138006042D01*
X139402616Y-138000000D01*
X142564635Y-138000000D01*
X142564635Y-140000000D01*
X142594409Y-140158237D01*
X142687927Y-140303567D01*
X142830619Y-140401064D01*
X143000000Y-140435365D01*
X145000000Y-140435365D01*
X145158237Y-140405591D01*
X145303567Y-140312073D01*
X145401064Y-140169381D01*
X145435365Y-140000000D01*
X145435365Y-139285750D01*
X154365000Y-139285750D01*
X154365000Y-140126310D01*
X154461673Y-140359699D01*
X154640302Y-140538327D01*
X154873691Y-140635000D01*
X155714250Y-140635000D01*
X155873000Y-140476250D01*
X155873000Y-139127000D01*
X156127000Y-139127000D01*
X156127000Y-140476250D01*
X156285750Y-140635000D01*
X157126309Y-140635000D01*
X157359698Y-140538327D01*
X157538327Y-140359699D01*
X157635000Y-140126310D01*
X157635000Y-139285750D01*
X157476250Y-139127000D01*
X156127000Y-139127000D01*
X155873000Y-139127000D01*
X154523750Y-139127000D01*
X154365000Y-139285750D01*
X145435365Y-139285750D01*
X145435365Y-138000000D01*
X145411599Y-137873690D01*
X154365000Y-137873690D01*
X154365000Y-138714250D01*
X154523750Y-138873000D01*
X155873000Y-138873000D01*
X155873000Y-138853000D01*
X156127000Y-138853000D01*
X156127000Y-138873000D01*
X157476250Y-138873000D01*
X157635000Y-138714250D01*
X157635000Y-137873690D01*
X157538327Y-137640301D01*
X157359698Y-137461673D01*
X157126309Y-137365000D01*
X157113266Y-137365000D01*
X157209047Y-137269386D01*
X157426752Y-136745093D01*
X157427248Y-136177397D01*
X157210457Y-135652725D01*
X156809386Y-135250953D01*
X156285093Y-135033248D01*
X155717397Y-135032752D01*
X155192725Y-135249543D01*
X154790953Y-135650614D01*
X154573248Y-136174907D01*
X154572752Y-136742603D01*
X154789543Y-137267275D01*
X154887097Y-137365000D01*
X154873691Y-137365000D01*
X154640302Y-137461673D01*
X154461673Y-137640301D01*
X154365000Y-137873690D01*
X145411599Y-137873690D01*
X145405591Y-137841763D01*
X145312073Y-137696433D01*
X145169381Y-137598936D01*
X145000000Y-137564635D01*
X144913282Y-137564635D01*
X145209047Y-137269386D01*
X145426752Y-136745093D01*
X145426824Y-136662502D01*
X149073263Y-136662502D01*
X149289975Y-137186986D01*
X149690903Y-137588615D01*
X150215009Y-137806242D01*
X150782502Y-137806737D01*
X151306986Y-137590025D01*
X151708615Y-137189097D01*
X151926242Y-136664991D01*
X151926737Y-136097498D01*
X151710025Y-135573014D01*
X151309097Y-135171385D01*
X150784991Y-134953758D01*
X150217498Y-134953263D01*
X149693014Y-135169975D01*
X149291385Y-135570903D01*
X149073758Y-136095009D01*
X149073263Y-136662502D01*
X145426824Y-136662502D01*
X145427248Y-136177397D01*
X145210457Y-135652725D01*
X144809386Y-135250953D01*
X144285093Y-135033248D01*
X143717397Y-135032752D01*
X143192725Y-135249543D01*
X142790953Y-135650614D01*
X142573248Y-136174907D01*
X142572752Y-136742603D01*
X142789543Y-137267275D01*
X143086384Y-137564635D01*
X143000000Y-137564635D01*
X142841763Y-137594409D01*
X142696433Y-137687927D01*
X142598936Y-137830619D01*
X142564635Y-138000000D01*
X139402616Y-138000000D01*
X139152163Y-137907443D01*
X138179605Y-138880000D01*
X137820395Y-138880000D01*
X136847837Y-137907443D01*
X136581035Y-138006042D01*
X136354599Y-138615582D01*
X133635000Y-138615582D01*
X133635000Y-137873690D01*
X133574586Y-137727837D01*
X137027443Y-137727837D01*
X138000000Y-138700395D01*
X138972557Y-137727837D01*
X138873958Y-137461035D01*
X138264418Y-137234599D01*
X137614623Y-137258659D01*
X137126042Y-137461035D01*
X137027443Y-137727837D01*
X133574586Y-137727837D01*
X133538327Y-137640301D01*
X133359698Y-137461673D01*
X133126309Y-137365000D01*
X133113266Y-137365000D01*
X133209047Y-137269386D01*
X133426752Y-136745093D01*
X133427248Y-136177397D01*
X133210457Y-135652725D01*
X132809386Y-135250953D01*
X132285093Y-135033248D01*
X131717397Y-135032752D01*
X131192725Y-135249543D01*
X130790953Y-135650614D01*
X130573248Y-136174907D01*
X130572752Y-136742603D01*
X130789543Y-137267275D01*
X130887097Y-137365000D01*
X130873691Y-137365000D01*
X130640302Y-137461673D01*
X130461673Y-137640301D01*
X130365000Y-137873690D01*
X121411599Y-137873690D01*
X121405591Y-137841763D01*
X121312073Y-137696433D01*
X121169381Y-137598936D01*
X121000000Y-137564635D01*
X120913282Y-137564635D01*
X121209047Y-137269386D01*
X121426752Y-136745093D01*
X121426824Y-136662502D01*
X124573263Y-136662502D01*
X124789975Y-137186986D01*
X125190903Y-137588615D01*
X125715009Y-137806242D01*
X126282502Y-137806737D01*
X126806986Y-137590025D01*
X127208615Y-137189097D01*
X127426242Y-136664991D01*
X127426737Y-136097498D01*
X127210025Y-135573014D01*
X126809097Y-135171385D01*
X126284991Y-134953758D01*
X125717498Y-134953263D01*
X125193014Y-135169975D01*
X124791385Y-135570903D01*
X124573758Y-136095009D01*
X124573263Y-136662502D01*
X121426824Y-136662502D01*
X121427248Y-136177397D01*
X121210457Y-135652725D01*
X120809386Y-135250953D01*
X120285093Y-135033248D01*
X119717397Y-135032752D01*
X119192725Y-135249543D01*
X118790953Y-135650614D01*
X118573248Y-136174907D01*
X118572752Y-136742603D01*
X118789543Y-137267275D01*
X119086384Y-137564635D01*
X119000000Y-137564635D01*
X118841763Y-137594409D01*
X118696433Y-137687927D01*
X118598936Y-137830619D01*
X118564635Y-138000000D01*
X105197000Y-138000000D01*
X105197000Y-134197000D01*
X158000000Y-134197000D01*
X158075389Y-134182004D01*
X158139300Y-134139300D01*
X158182004Y-134075389D01*
X158197000Y-134000000D01*
X158197000Y-125782502D01*
X161573263Y-125782502D01*
X161789975Y-126306986D01*
X162190903Y-126708615D01*
X162715009Y-126926242D01*
X163282502Y-126926737D01*
X163806986Y-126710025D01*
X164208615Y-126309097D01*
X164426242Y-125784991D01*
X164426244Y-125782502D01*
X169193263Y-125782502D01*
X169409975Y-126306986D01*
X169810903Y-126708615D01*
X170335009Y-126926242D01*
X170902502Y-126926737D01*
X171426986Y-126710025D01*
X171828615Y-126309097D01*
X172046242Y-125784991D01*
X172046737Y-125217498D01*
X171830025Y-124693014D01*
X171429097Y-124291385D01*
X170904991Y-124073758D01*
X170337498Y-124073263D01*
X169813014Y-124289975D01*
X169411385Y-124690903D01*
X169193758Y-125215009D01*
X169193263Y-125782502D01*
X164426244Y-125782502D01*
X164426737Y-125217498D01*
X164210025Y-124693014D01*
X163809097Y-124291385D01*
X163284991Y-124073758D01*
X162717498Y-124073263D01*
X162193014Y-124289975D01*
X161791385Y-124690903D01*
X161573758Y-125215009D01*
X161573263Y-125782502D01*
X158197000Y-125782502D01*
X158197000Y-120235469D01*
X159270794Y-120235469D01*
X159451427Y-120672635D01*
X159785606Y-121007397D01*
X160222456Y-121188793D01*
X160695469Y-121189206D01*
X161132635Y-121008573D01*
X161467397Y-120674394D01*
X161648793Y-120237544D01*
X161648794Y-120235469D01*
X161810794Y-120235469D01*
X161991427Y-120672635D01*
X162325606Y-121007397D01*
X162762456Y-121188793D01*
X163235469Y-121189206D01*
X163672635Y-121008573D01*
X164007397Y-120674394D01*
X164188793Y-120237544D01*
X164189206Y-119764531D01*
X164008573Y-119327365D01*
X163681779Y-119000000D01*
X166564635Y-119000000D01*
X166564635Y-121000000D01*
X166594409Y-121158237D01*
X166687927Y-121303567D01*
X166830619Y-121401064D01*
X167000000Y-121435365D01*
X169000000Y-121435365D01*
X169158237Y-121405591D01*
X169303567Y-121312073D01*
X169401064Y-121169381D01*
X169435365Y-121000000D01*
X169435365Y-120913282D01*
X169730614Y-121209047D01*
X170254907Y-121426752D01*
X170822603Y-121427248D01*
X171347275Y-121210457D01*
X171749047Y-120809386D01*
X171966752Y-120285093D01*
X171967248Y-119717397D01*
X171750457Y-119192725D01*
X171349386Y-118790953D01*
X170825093Y-118573248D01*
X170257397Y-118572752D01*
X169732725Y-118789543D01*
X169435365Y-119086384D01*
X169435365Y-119000000D01*
X169405591Y-118841763D01*
X169312073Y-118696433D01*
X169169381Y-118598936D01*
X169000000Y-118564635D01*
X167000000Y-118564635D01*
X166841763Y-118594409D01*
X166696433Y-118687927D01*
X166598936Y-118830619D01*
X166564635Y-119000000D01*
X163681779Y-119000000D01*
X163674394Y-118992603D01*
X163237544Y-118811207D01*
X162764531Y-118810794D01*
X162327365Y-118991427D01*
X161992603Y-119325606D01*
X161811207Y-119762456D01*
X161810794Y-120235469D01*
X161648794Y-120235469D01*
X161649206Y-119764531D01*
X161468573Y-119327365D01*
X161134394Y-118992603D01*
X160697544Y-118811207D01*
X160224531Y-118810794D01*
X159787365Y-118991427D01*
X159452603Y-119325606D01*
X159271207Y-119762456D01*
X159270794Y-120235469D01*
X158197000Y-120235469D01*
X158197000Y-114282502D01*
X159173263Y-114282502D01*
X159389975Y-114806986D01*
X159790903Y-115208615D01*
X160315009Y-115426242D01*
X160882502Y-115426737D01*
X161406986Y-115210025D01*
X161464949Y-115152163D01*
X169787443Y-115152163D01*
X169886042Y-115418965D01*
X170495582Y-115645401D01*
X171145377Y-115621341D01*
X171633958Y-115418965D01*
X171732557Y-115152163D01*
X170760000Y-114179605D01*
X169787443Y-115152163D01*
X161464949Y-115152163D01*
X161808615Y-114809097D01*
X162026242Y-114284991D01*
X162026721Y-113735582D01*
X169114599Y-113735582D01*
X169138659Y-114385377D01*
X169341035Y-114873958D01*
X169607837Y-114972557D01*
X170580395Y-114000000D01*
X170939605Y-114000000D01*
X171912163Y-114972557D01*
X172178965Y-114873958D01*
X172405401Y-114264418D01*
X172381341Y-113614623D01*
X172178965Y-113126042D01*
X171912163Y-113027443D01*
X170939605Y-114000000D01*
X170580395Y-114000000D01*
X169607837Y-113027443D01*
X169341035Y-113126042D01*
X169114599Y-113735582D01*
X162026721Y-113735582D01*
X162026737Y-113717498D01*
X161810025Y-113193014D01*
X161465451Y-112847837D01*
X169787443Y-112847837D01*
X170760000Y-113820395D01*
X171732557Y-112847837D01*
X171633958Y-112581035D01*
X171024418Y-112354599D01*
X170374623Y-112378659D01*
X169886042Y-112581035D01*
X169787443Y-112847837D01*
X161465451Y-112847837D01*
X161409097Y-112791385D01*
X160884991Y-112573758D01*
X160317498Y-112573263D01*
X159793014Y-112789975D01*
X159391385Y-113190903D01*
X159173758Y-113715009D01*
X159173263Y-114282502D01*
X158197000Y-114282502D01*
X158197000Y-108235469D01*
X159270794Y-108235469D01*
X159451427Y-108672635D01*
X159785606Y-109007397D01*
X160222456Y-109188793D01*
X160695469Y-109189206D01*
X161132635Y-109008573D01*
X161467397Y-108674394D01*
X161648793Y-108237544D01*
X161648794Y-108235469D01*
X161810794Y-108235469D01*
X161991427Y-108672635D01*
X162325606Y-109007397D01*
X162762456Y-109188793D01*
X163235469Y-109189206D01*
X163672635Y-109008573D01*
X164007397Y-108674394D01*
X164168776Y-108285750D01*
X166365000Y-108285750D01*
X166365000Y-109126309D01*
X166461673Y-109359698D01*
X166640301Y-109538327D01*
X166873690Y-109635000D01*
X167714250Y-109635000D01*
X167873000Y-109476250D01*
X167873000Y-108127000D01*
X166523750Y-108127000D01*
X166365000Y-108285750D01*
X164168776Y-108285750D01*
X164188793Y-108237544D01*
X164189206Y-107764531D01*
X164008573Y-107327365D01*
X163674394Y-106992603D01*
X163388023Y-106873691D01*
X166365000Y-106873691D01*
X166365000Y-107714250D01*
X166523750Y-107873000D01*
X167873000Y-107873000D01*
X167873000Y-106523750D01*
X168127000Y-106523750D01*
X168127000Y-107873000D01*
X168147000Y-107873000D01*
X168147000Y-108127000D01*
X168127000Y-108127000D01*
X168127000Y-109476250D01*
X168285750Y-109635000D01*
X169126310Y-109635000D01*
X169359699Y-109538327D01*
X169538327Y-109359698D01*
X169635000Y-109126309D01*
X169635000Y-109113266D01*
X169730614Y-109209047D01*
X170254907Y-109426752D01*
X170822603Y-109427248D01*
X171347275Y-109210457D01*
X171749047Y-108809386D01*
X171966752Y-108285093D01*
X171967248Y-107717397D01*
X171750457Y-107192725D01*
X171349386Y-106790953D01*
X170825093Y-106573248D01*
X170257397Y-106572752D01*
X169732725Y-106789543D01*
X169635000Y-106887097D01*
X169635000Y-106873691D01*
X169538327Y-106640302D01*
X169359699Y-106461673D01*
X169126310Y-106365000D01*
X168285750Y-106365000D01*
X168127000Y-106523750D01*
X167873000Y-106523750D01*
X167714250Y-106365000D01*
X166873690Y-106365000D01*
X166640301Y-106461673D01*
X166461673Y-106640302D01*
X166365000Y-106873691D01*
X163388023Y-106873691D01*
X163237544Y-106811207D01*
X162764531Y-106810794D01*
X162327365Y-106991427D01*
X161992603Y-107325606D01*
X161811207Y-107762456D01*
X161810794Y-108235469D01*
X161648794Y-108235469D01*
X161649206Y-107764531D01*
X161468573Y-107327365D01*
X161134394Y-106992603D01*
X160697544Y-106811207D01*
X160224531Y-106810794D01*
X159787365Y-106991427D01*
X159452603Y-107325606D01*
X159271207Y-107762456D01*
X159270794Y-108235469D01*
X158197000Y-108235469D01*
X158197000Y-102082502D01*
X161673263Y-102082502D01*
X161889975Y-102606986D01*
X162290903Y-103008615D01*
X162815009Y-103226242D01*
X163382502Y-103226737D01*
X163906986Y-103010025D01*
X164308615Y-102609097D01*
X164526242Y-102084991D01*
X164526244Y-102082502D01*
X169293263Y-102082502D01*
X169509975Y-102606986D01*
X169910903Y-103008615D01*
X170435009Y-103226242D01*
X171002502Y-103226737D01*
X171526986Y-103010025D01*
X171928615Y-102609097D01*
X172146242Y-102084991D01*
X172146737Y-101517498D01*
X171930025Y-100993014D01*
X171529097Y-100591385D01*
X171004991Y-100373758D01*
X170437498Y-100373263D01*
X169913014Y-100589975D01*
X169511385Y-100990903D01*
X169293758Y-101515009D01*
X169293263Y-102082502D01*
X164526244Y-102082502D01*
X164526737Y-101517498D01*
X164310025Y-100993014D01*
X163909097Y-100591385D01*
X163384991Y-100373758D01*
X162817498Y-100373263D01*
X162293014Y-100589975D01*
X161891385Y-100990903D01*
X161673758Y-101515009D01*
X161673263Y-102082502D01*
X158197000Y-102082502D01*
X158197000Y-96235469D01*
X159270794Y-96235469D01*
X159451427Y-96672635D01*
X159785606Y-97007397D01*
X160222456Y-97188793D01*
X160695469Y-97189206D01*
X161132635Y-97008573D01*
X161467397Y-96674394D01*
X161648793Y-96237544D01*
X161648794Y-96235469D01*
X161810794Y-96235469D01*
X161991427Y-96672635D01*
X162325606Y-97007397D01*
X162762456Y-97188793D01*
X163235469Y-97189206D01*
X163672635Y-97008573D01*
X164007397Y-96674394D01*
X164188793Y-96237544D01*
X164189206Y-95764531D01*
X164008573Y-95327365D01*
X163681779Y-95000000D01*
X166564635Y-95000000D01*
X166564635Y-97000000D01*
X166594409Y-97158237D01*
X166687927Y-97303567D01*
X166830619Y-97401064D01*
X167000000Y-97435365D01*
X169000000Y-97435365D01*
X169158237Y-97405591D01*
X169303567Y-97312073D01*
X169401064Y-97169381D01*
X169435365Y-97000000D01*
X169435365Y-96913282D01*
X169730614Y-97209047D01*
X170254907Y-97426752D01*
X170822603Y-97427248D01*
X171347275Y-97210457D01*
X171749047Y-96809386D01*
X171966752Y-96285093D01*
X171967248Y-95717397D01*
X171750457Y-95192725D01*
X171349386Y-94790953D01*
X170825093Y-94573248D01*
X170257397Y-94572752D01*
X169732725Y-94789543D01*
X169435365Y-95086384D01*
X169435365Y-95000000D01*
X169405591Y-94841763D01*
X169312073Y-94696433D01*
X169169381Y-94598936D01*
X169000000Y-94564635D01*
X167000000Y-94564635D01*
X166841763Y-94594409D01*
X166696433Y-94687927D01*
X166598936Y-94830619D01*
X166564635Y-95000000D01*
X163681779Y-95000000D01*
X163674394Y-94992603D01*
X163237544Y-94811207D01*
X162764531Y-94810794D01*
X162327365Y-94991427D01*
X161992603Y-95325606D01*
X161811207Y-95762456D01*
X161810794Y-96235469D01*
X161648794Y-96235469D01*
X161649206Y-95764531D01*
X161468573Y-95327365D01*
X161134394Y-94992603D01*
X160697544Y-94811207D01*
X160224531Y-94810794D01*
X159787365Y-94991427D01*
X159452603Y-95325606D01*
X159271207Y-95762456D01*
X159270794Y-96235469D01*
X158197000Y-96235469D01*
X158197000Y-88401426D01*
X162972649Y-88401426D01*
X163280591Y-89146703D01*
X163850298Y-89717405D01*
X164595036Y-90026647D01*
X165401426Y-90027351D01*
X166146703Y-89719409D01*
X166717405Y-89149702D01*
X167026647Y-88404964D01*
X167027351Y-87598574D01*
X166719409Y-86853297D01*
X166149702Y-86282595D01*
X165404964Y-85973353D01*
X164598574Y-85972649D01*
X163853297Y-86280591D01*
X163282595Y-86850298D01*
X162973353Y-87595036D01*
X162972649Y-88401426D01*
X158197000Y-88401426D01*
X158197000Y-81197000D01*
X172803000Y-81197000D01*
X172803000Y-134000000D01*
X172803000Y-134000000D01*
G37*
X172803000Y-134000000D02*
X172817996Y-134075389D01*
X172860700Y-134139300D01*
X172924611Y-134182004D01*
X173000000Y-134197000D01*
X225803000Y-134197000D01*
X225803000Y-148803000D01*
X173000000Y-148803000D01*
X172924611Y-148817996D01*
X172860700Y-148860700D01*
X172817996Y-148924611D01*
X172803000Y-149000000D01*
X172803000Y-201803000D01*
X158197000Y-201803000D01*
X158197000Y-195401426D01*
X162972649Y-195401426D01*
X163280591Y-196146703D01*
X163850298Y-196717405D01*
X164595036Y-197026647D01*
X165401426Y-197027351D01*
X166146703Y-196719409D01*
X166717405Y-196149702D01*
X167026647Y-195404964D01*
X167027351Y-194598574D01*
X166719409Y-193853297D01*
X166149702Y-193282595D01*
X165404964Y-192973353D01*
X164598574Y-192972649D01*
X163853297Y-193280591D01*
X163282595Y-193850298D01*
X162973353Y-194595036D01*
X162972649Y-195401426D01*
X158197000Y-195401426D01*
X158197000Y-187235469D01*
X159270794Y-187235469D01*
X159451427Y-187672635D01*
X159785606Y-188007397D01*
X160222456Y-188188793D01*
X160695469Y-188189206D01*
X161132635Y-188008573D01*
X161467397Y-187674394D01*
X161648793Y-187237544D01*
X161648794Y-187235469D01*
X161810794Y-187235469D01*
X161991427Y-187672635D01*
X162325606Y-188007397D01*
X162762456Y-188188793D01*
X163235469Y-188189206D01*
X163672635Y-188008573D01*
X164007397Y-187674394D01*
X164168776Y-187285750D01*
X166365000Y-187285750D01*
X166365000Y-188126309D01*
X166461673Y-188359698D01*
X166640301Y-188538327D01*
X166873690Y-188635000D01*
X167714250Y-188635000D01*
X167873000Y-188476250D01*
X167873000Y-187127000D01*
X166523750Y-187127000D01*
X166365000Y-187285750D01*
X164168776Y-187285750D01*
X164188793Y-187237544D01*
X164189206Y-186764531D01*
X164008573Y-186327365D01*
X163674394Y-185992603D01*
X163388023Y-185873691D01*
X166365000Y-185873691D01*
X166365000Y-186714250D01*
X166523750Y-186873000D01*
X167873000Y-186873000D01*
X167873000Y-185523750D01*
X168127000Y-185523750D01*
X168127000Y-186873000D01*
X168147000Y-186873000D01*
X168147000Y-187127000D01*
X168127000Y-187127000D01*
X168127000Y-188476250D01*
X168285750Y-188635000D01*
X169126310Y-188635000D01*
X169359699Y-188538327D01*
X169538327Y-188359698D01*
X169635000Y-188126309D01*
X169635000Y-188113266D01*
X169730614Y-188209047D01*
X170254907Y-188426752D01*
X170822603Y-188427248D01*
X171347275Y-188210457D01*
X171749047Y-187809386D01*
X171966752Y-187285093D01*
X171967248Y-186717397D01*
X171750457Y-186192725D01*
X171349386Y-185790953D01*
X170825093Y-185573248D01*
X170257397Y-185572752D01*
X169732725Y-185789543D01*
X169635000Y-185887097D01*
X169635000Y-185873691D01*
X169538327Y-185640302D01*
X169359699Y-185461673D01*
X169126310Y-185365000D01*
X168285750Y-185365000D01*
X168127000Y-185523750D01*
X167873000Y-185523750D01*
X167714250Y-185365000D01*
X166873690Y-185365000D01*
X166640301Y-185461673D01*
X166461673Y-185640302D01*
X166365000Y-185873691D01*
X163388023Y-185873691D01*
X163237544Y-185811207D01*
X162764531Y-185810794D01*
X162327365Y-185991427D01*
X161992603Y-186325606D01*
X161811207Y-186762456D01*
X161810794Y-187235469D01*
X161648794Y-187235469D01*
X161649206Y-186764531D01*
X161468573Y-186327365D01*
X161134394Y-185992603D01*
X160697544Y-185811207D01*
X160224531Y-185810794D01*
X159787365Y-185991427D01*
X159452603Y-186325606D01*
X159271207Y-186762456D01*
X159270794Y-187235469D01*
X158197000Y-187235469D01*
X158197000Y-180782502D01*
X161573263Y-180782502D01*
X161789975Y-181306986D01*
X162190903Y-181708615D01*
X162715009Y-181926242D01*
X163282502Y-181926737D01*
X163806986Y-181710025D01*
X164208615Y-181309097D01*
X164426242Y-180784991D01*
X164426244Y-180782502D01*
X169193263Y-180782502D01*
X169409975Y-181306986D01*
X169810903Y-181708615D01*
X170335009Y-181926242D01*
X170902502Y-181926737D01*
X171426986Y-181710025D01*
X171828615Y-181309097D01*
X172046242Y-180784991D01*
X172046737Y-180217498D01*
X171830025Y-179693014D01*
X171429097Y-179291385D01*
X170904991Y-179073758D01*
X170337498Y-179073263D01*
X169813014Y-179289975D01*
X169411385Y-179690903D01*
X169193758Y-180215009D01*
X169193263Y-180782502D01*
X164426244Y-180782502D01*
X164426737Y-180217498D01*
X164210025Y-179693014D01*
X163809097Y-179291385D01*
X163284991Y-179073758D01*
X162717498Y-179073263D01*
X162193014Y-179289975D01*
X161791385Y-179690903D01*
X161573758Y-180215009D01*
X161573263Y-180782502D01*
X158197000Y-180782502D01*
X158197000Y-175235469D01*
X159270794Y-175235469D01*
X159451427Y-175672635D01*
X159785606Y-176007397D01*
X160222456Y-176188793D01*
X160695469Y-176189206D01*
X161132635Y-176008573D01*
X161467397Y-175674394D01*
X161648793Y-175237544D01*
X161648794Y-175235469D01*
X161810794Y-175235469D01*
X161991427Y-175672635D01*
X162325606Y-176007397D01*
X162762456Y-176188793D01*
X163235469Y-176189206D01*
X163672635Y-176008573D01*
X164007397Y-175674394D01*
X164188793Y-175237544D01*
X164189206Y-174764531D01*
X164008573Y-174327365D01*
X163681779Y-174000000D01*
X166564635Y-174000000D01*
X166564635Y-176000000D01*
X166594409Y-176158237D01*
X166687927Y-176303567D01*
X166830619Y-176401064D01*
X167000000Y-176435365D01*
X169000000Y-176435365D01*
X169158237Y-176405591D01*
X169303567Y-176312073D01*
X169401064Y-176169381D01*
X169435365Y-176000000D01*
X169435365Y-175913282D01*
X169730614Y-176209047D01*
X170254907Y-176426752D01*
X170822603Y-176427248D01*
X171347275Y-176210457D01*
X171749047Y-175809386D01*
X171966752Y-175285093D01*
X171967248Y-174717397D01*
X171750457Y-174192725D01*
X171349386Y-173790953D01*
X170825093Y-173573248D01*
X170257397Y-173572752D01*
X169732725Y-173789543D01*
X169435365Y-174086384D01*
X169435365Y-174000000D01*
X169405591Y-173841763D01*
X169312073Y-173696433D01*
X169169381Y-173598936D01*
X169000000Y-173564635D01*
X167000000Y-173564635D01*
X166841763Y-173594409D01*
X166696433Y-173687927D01*
X166598936Y-173830619D01*
X166564635Y-174000000D01*
X163681779Y-174000000D01*
X163674394Y-173992603D01*
X163237544Y-173811207D01*
X162764531Y-173810794D01*
X162327365Y-173991427D01*
X161992603Y-174325606D01*
X161811207Y-174762456D01*
X161810794Y-175235469D01*
X161648794Y-175235469D01*
X161649206Y-174764531D01*
X161468573Y-174327365D01*
X161134394Y-173992603D01*
X160697544Y-173811207D01*
X160224531Y-173810794D01*
X159787365Y-173991427D01*
X159452603Y-174325606D01*
X159271207Y-174762456D01*
X159270794Y-175235469D01*
X158197000Y-175235469D01*
X158197000Y-169382502D01*
X159073263Y-169382502D01*
X159289975Y-169906986D01*
X159690903Y-170308615D01*
X160215009Y-170526242D01*
X160782502Y-170526737D01*
X161306986Y-170310025D01*
X161364949Y-170252163D01*
X167147443Y-170252163D01*
X167246042Y-170518965D01*
X167855582Y-170745401D01*
X168505377Y-170721341D01*
X168993958Y-170518965D01*
X169092557Y-170252163D01*
X168120000Y-169279605D01*
X167147443Y-170252163D01*
X161364949Y-170252163D01*
X161708615Y-169909097D01*
X161926242Y-169384991D01*
X161926721Y-168835582D01*
X166474599Y-168835582D01*
X166498659Y-169485377D01*
X166701035Y-169973958D01*
X166967837Y-170072557D01*
X167940395Y-169100000D01*
X168299605Y-169100000D01*
X169272163Y-170072557D01*
X169538965Y-169973958D01*
X169765401Y-169364418D01*
X169741341Y-168714623D01*
X169538965Y-168226042D01*
X169272163Y-168127443D01*
X168299605Y-169100000D01*
X167940395Y-169100000D01*
X166967837Y-168127443D01*
X166701035Y-168226042D01*
X166474599Y-168835582D01*
X161926721Y-168835582D01*
X161926737Y-168817498D01*
X161710025Y-168293014D01*
X161365451Y-167947837D01*
X167147443Y-167947837D01*
X168120000Y-168920395D01*
X169092557Y-167947837D01*
X168993958Y-167681035D01*
X168384418Y-167454599D01*
X167734623Y-167478659D01*
X167246042Y-167681035D01*
X167147443Y-167947837D01*
X161365451Y-167947837D01*
X161309097Y-167891385D01*
X160784991Y-167673758D01*
X160217498Y-167673263D01*
X159693014Y-167889975D01*
X159291385Y-168290903D01*
X159073758Y-168815009D01*
X159073263Y-169382502D01*
X158197000Y-169382502D01*
X158197000Y-163235469D01*
X159270794Y-163235469D01*
X159451427Y-163672635D01*
X159785606Y-164007397D01*
X160222456Y-164188793D01*
X160695469Y-164189206D01*
X161132635Y-164008573D01*
X161467397Y-163674394D01*
X161648793Y-163237544D01*
X161648794Y-163235469D01*
X161810794Y-163235469D01*
X161991427Y-163672635D01*
X162325606Y-164007397D01*
X162762456Y-164188793D01*
X163235469Y-164189206D01*
X163672635Y-164008573D01*
X164007397Y-163674394D01*
X164168776Y-163285750D01*
X166365000Y-163285750D01*
X166365000Y-164126309D01*
X166461673Y-164359698D01*
X166640301Y-164538327D01*
X166873690Y-164635000D01*
X167714250Y-164635000D01*
X167873000Y-164476250D01*
X167873000Y-163127000D01*
X166523750Y-163127000D01*
X166365000Y-163285750D01*
X164168776Y-163285750D01*
X164188793Y-163237544D01*
X164189206Y-162764531D01*
X164008573Y-162327365D01*
X163674394Y-161992603D01*
X163388023Y-161873691D01*
X166365000Y-161873691D01*
X166365000Y-162714250D01*
X166523750Y-162873000D01*
X167873000Y-162873000D01*
X167873000Y-161523750D01*
X168127000Y-161523750D01*
X168127000Y-162873000D01*
X168147000Y-162873000D01*
X168147000Y-163127000D01*
X168127000Y-163127000D01*
X168127000Y-164476250D01*
X168285750Y-164635000D01*
X169126310Y-164635000D01*
X169359699Y-164538327D01*
X169538327Y-164359698D01*
X169635000Y-164126309D01*
X169635000Y-164113266D01*
X169730614Y-164209047D01*
X170254907Y-164426752D01*
X170822603Y-164427248D01*
X171347275Y-164210457D01*
X171749047Y-163809386D01*
X171966752Y-163285093D01*
X171967248Y-162717397D01*
X171750457Y-162192725D01*
X171349386Y-161790953D01*
X170825093Y-161573248D01*
X170257397Y-161572752D01*
X169732725Y-161789543D01*
X169635000Y-161887097D01*
X169635000Y-161873691D01*
X169538327Y-161640302D01*
X169359699Y-161461673D01*
X169126310Y-161365000D01*
X168285750Y-161365000D01*
X168127000Y-161523750D01*
X167873000Y-161523750D01*
X167714250Y-161365000D01*
X166873690Y-161365000D01*
X166640301Y-161461673D01*
X166461673Y-161640302D01*
X166365000Y-161873691D01*
X163388023Y-161873691D01*
X163237544Y-161811207D01*
X162764531Y-161810794D01*
X162327365Y-161991427D01*
X161992603Y-162325606D01*
X161811207Y-162762456D01*
X161810794Y-163235469D01*
X161648794Y-163235469D01*
X161649206Y-162764531D01*
X161468573Y-162327365D01*
X161134394Y-161992603D01*
X160697544Y-161811207D01*
X160224531Y-161810794D01*
X159787365Y-161991427D01*
X159452603Y-162325606D01*
X159271207Y-162762456D01*
X159270794Y-163235469D01*
X158197000Y-163235469D01*
X158197000Y-156982502D01*
X161673263Y-156982502D01*
X161889975Y-157506986D01*
X162290903Y-157908615D01*
X162815009Y-158126242D01*
X163382502Y-158126737D01*
X163906986Y-157910025D01*
X164308615Y-157509097D01*
X164526242Y-156984991D01*
X164526244Y-156982502D01*
X169293263Y-156982502D01*
X169509975Y-157506986D01*
X169910903Y-157908615D01*
X170435009Y-158126242D01*
X171002502Y-158126737D01*
X171526986Y-157910025D01*
X171928615Y-157509097D01*
X172146242Y-156984991D01*
X172146737Y-156417498D01*
X171930025Y-155893014D01*
X171529097Y-155491385D01*
X171004991Y-155273758D01*
X170437498Y-155273263D01*
X169913014Y-155489975D01*
X169511385Y-155890903D01*
X169293758Y-156415009D01*
X169293263Y-156982502D01*
X164526244Y-156982502D01*
X164526737Y-156417498D01*
X164310025Y-155893014D01*
X163909097Y-155491385D01*
X163384991Y-155273758D01*
X162817498Y-155273263D01*
X162293014Y-155489975D01*
X161891385Y-155890903D01*
X161673758Y-156415009D01*
X161673263Y-156982502D01*
X158197000Y-156982502D01*
X158197000Y-149000000D01*
X158182004Y-148924611D01*
X158139300Y-148860700D01*
X158075389Y-148817996D01*
X158000000Y-148803000D01*
X105197000Y-148803000D01*
X105197000Y-146775469D01*
X118810794Y-146775469D01*
X118991427Y-147212635D01*
X119325606Y-147547397D01*
X119762456Y-147728793D01*
X120235469Y-147729206D01*
X120672635Y-147548573D01*
X121007397Y-147214394D01*
X121188793Y-146777544D01*
X121188794Y-146775469D01*
X130810794Y-146775469D01*
X130991427Y-147212635D01*
X131325606Y-147547397D01*
X131762456Y-147728793D01*
X132235469Y-147729206D01*
X132672635Y-147548573D01*
X133007397Y-147214394D01*
X133186734Y-146782502D01*
X136573263Y-146782502D01*
X136789975Y-147306986D01*
X137190903Y-147708615D01*
X137715009Y-147926242D01*
X138282502Y-147926737D01*
X138806986Y-147710025D01*
X139208615Y-147309097D01*
X139426242Y-146784991D01*
X139426250Y-146775469D01*
X142810794Y-146775469D01*
X142991427Y-147212635D01*
X143325606Y-147547397D01*
X143762456Y-147728793D01*
X144235469Y-147729206D01*
X144672635Y-147548573D01*
X145007397Y-147214394D01*
X145188793Y-146777544D01*
X145189206Y-146304531D01*
X145008573Y-145867365D01*
X144674394Y-145532603D01*
X144237544Y-145351207D01*
X143764531Y-145350794D01*
X143327365Y-145531427D01*
X142992603Y-145865606D01*
X142811207Y-146302456D01*
X142810794Y-146775469D01*
X139426250Y-146775469D01*
X139426737Y-146217498D01*
X139210025Y-145693014D01*
X138809097Y-145291385D01*
X138284991Y-145073758D01*
X137717498Y-145073263D01*
X137193014Y-145289975D01*
X136791385Y-145690903D01*
X136573758Y-146215009D01*
X136573263Y-146782502D01*
X133186734Y-146782502D01*
X133188793Y-146777544D01*
X133189206Y-146304531D01*
X133008573Y-145867365D01*
X132674394Y-145532603D01*
X132237544Y-145351207D01*
X131764531Y-145350794D01*
X131327365Y-145531427D01*
X130992603Y-145865606D01*
X130811207Y-146302456D01*
X130810794Y-146775469D01*
X121188794Y-146775469D01*
X121189206Y-146304531D01*
X121008573Y-145867365D01*
X120674394Y-145532603D01*
X120237544Y-145351207D01*
X119764531Y-145350794D01*
X119327365Y-145531427D01*
X118992603Y-145865606D01*
X118811207Y-146302456D01*
X118810794Y-146775469D01*
X105197000Y-146775469D01*
X105197000Y-144235469D01*
X118810794Y-144235469D01*
X118991427Y-144672635D01*
X119325606Y-145007397D01*
X119762456Y-145188793D01*
X120235469Y-145189206D01*
X120672635Y-145008573D01*
X121007397Y-144674394D01*
X121170124Y-144282502D01*
X124573263Y-144282502D01*
X124789975Y-144806986D01*
X125190903Y-145208615D01*
X125715009Y-145426242D01*
X126282502Y-145426737D01*
X126806986Y-145210025D01*
X127208615Y-144809097D01*
X127426242Y-144284991D01*
X127426285Y-144235469D01*
X130810794Y-144235469D01*
X130991427Y-144672635D01*
X131325606Y-145007397D01*
X131762456Y-145188793D01*
X132235469Y-145189206D01*
X132672635Y-145008573D01*
X133007397Y-144674394D01*
X133188793Y-144237544D01*
X133188794Y-144235469D01*
X142810794Y-144235469D01*
X142991427Y-144672635D01*
X143325606Y-145007397D01*
X143762456Y-145188793D01*
X144235469Y-145189206D01*
X144672635Y-145008573D01*
X145007397Y-144674394D01*
X145170124Y-144282502D01*
X149073263Y-144282502D01*
X149289975Y-144806986D01*
X149690903Y-145208615D01*
X150215009Y-145426242D01*
X150782502Y-145426737D01*
X151306986Y-145210025D01*
X151708615Y-144809097D01*
X151926242Y-144284991D01*
X151926285Y-144235469D01*
X154810794Y-144235469D01*
X154991427Y-144672635D01*
X155325606Y-145007397D01*
X155762456Y-145188793D01*
X156235469Y-145189206D01*
X156336489Y-145147465D01*
X156873000Y-145683976D01*
X156873000Y-145731555D01*
X156674394Y-145532603D01*
X156237544Y-145351207D01*
X155764531Y-145350794D01*
X155327365Y-145531427D01*
X154992603Y-145865606D01*
X154811207Y-146302456D01*
X154810794Y-146775469D01*
X154991427Y-147212635D01*
X155325606Y-147547397D01*
X155762456Y-147728793D01*
X156235469Y-147729206D01*
X156672635Y-147548573D01*
X157007397Y-147214394D01*
X157023816Y-147174853D01*
X157144512Y-147355488D01*
X158344512Y-148555488D01*
X158645253Y-148756436D01*
X159000000Y-148827000D01*
X159354747Y-148756436D01*
X159533000Y-148637332D01*
X159533000Y-150245349D01*
X159452603Y-150325606D01*
X159271207Y-150762456D01*
X159270794Y-151235469D01*
X159451427Y-151672635D01*
X159785606Y-152007397D01*
X160222456Y-152188793D01*
X160695469Y-152189206D01*
X161132635Y-152008573D01*
X161467397Y-151674394D01*
X161648793Y-151237544D01*
X161648794Y-151235469D01*
X161810794Y-151235469D01*
X161991427Y-151672635D01*
X162325606Y-152007397D01*
X162762456Y-152188793D01*
X163235469Y-152189206D01*
X163672635Y-152008573D01*
X164007397Y-151674394D01*
X164188793Y-151237544D01*
X164189206Y-150764531D01*
X164008573Y-150327365D01*
X163681779Y-150000000D01*
X166564635Y-150000000D01*
X166564635Y-152000000D01*
X166594409Y-152158237D01*
X166687927Y-152303567D01*
X166830619Y-152401064D01*
X167000000Y-152435365D01*
X169000000Y-152435365D01*
X169158237Y-152405591D01*
X169303567Y-152312073D01*
X169401064Y-152169381D01*
X169435365Y-152000000D01*
X169435365Y-151913282D01*
X169730614Y-152209047D01*
X170254907Y-152426752D01*
X170822603Y-152427248D01*
X171347275Y-152210457D01*
X171749047Y-151809386D01*
X171966752Y-151285093D01*
X171967248Y-150717397D01*
X171750457Y-150192725D01*
X171349386Y-149790953D01*
X170825093Y-149573248D01*
X170257397Y-149572752D01*
X169732725Y-149789543D01*
X169435365Y-150086384D01*
X169435365Y-150000000D01*
X169405591Y-149841763D01*
X169312073Y-149696433D01*
X169169381Y-149598936D01*
X169000000Y-149564635D01*
X167000000Y-149564635D01*
X166841763Y-149594409D01*
X166696433Y-149687927D01*
X166598936Y-149830619D01*
X166564635Y-150000000D01*
X163681779Y-150000000D01*
X163674394Y-149992603D01*
X163237544Y-149811207D01*
X162764531Y-149810794D01*
X162327365Y-149991427D01*
X161992603Y-150325606D01*
X161811207Y-150762456D01*
X161810794Y-151235469D01*
X161648794Y-151235469D01*
X161649206Y-150764531D01*
X161468573Y-150327365D01*
X161387000Y-150245650D01*
X161387000Y-146960000D01*
X161321938Y-146632914D01*
X161844512Y-147155488D01*
X162145253Y-147356437D01*
X162500000Y-147427000D01*
X164722577Y-147427000D01*
X164643564Y-147545252D01*
X164573000Y-147900000D01*
X164643564Y-148254748D01*
X164844512Y-148555488D01*
X165145252Y-148756436D01*
X165500000Y-148827000D01*
X169800000Y-148827000D01*
X170154748Y-148756436D01*
X170455488Y-148555488D01*
X171855488Y-147155488D01*
X171930273Y-147043564D01*
X172056436Y-146854748D01*
X172072205Y-146775469D01*
X173810794Y-146775469D01*
X173991427Y-147212635D01*
X174325606Y-147547397D01*
X174762456Y-147728793D01*
X175235469Y-147729206D01*
X175672635Y-147548573D01*
X176007397Y-147214394D01*
X176188793Y-146777544D01*
X176188794Y-146775469D01*
X185810794Y-146775469D01*
X185991427Y-147212635D01*
X186325606Y-147547397D01*
X186762456Y-147728793D01*
X187235469Y-147729206D01*
X187672635Y-147548573D01*
X188007397Y-147214394D01*
X188188793Y-146777544D01*
X188188794Y-146775469D01*
X197810794Y-146775469D01*
X197991427Y-147212635D01*
X198325606Y-147547397D01*
X198762456Y-147728793D01*
X199235469Y-147729206D01*
X199672635Y-147548573D01*
X200007397Y-147214394D01*
X200186734Y-146782502D01*
X203573263Y-146782502D01*
X203789975Y-147306986D01*
X204190903Y-147708615D01*
X204715009Y-147926242D01*
X205282502Y-147926737D01*
X205806986Y-147710025D01*
X206208615Y-147309097D01*
X206426242Y-146784991D01*
X206426250Y-146775469D01*
X209810794Y-146775469D01*
X209991427Y-147212635D01*
X210325606Y-147547397D01*
X210762456Y-147728793D01*
X211235469Y-147729206D01*
X211672635Y-147548573D01*
X212007397Y-147214394D01*
X212188793Y-146777544D01*
X212189206Y-146304531D01*
X212008573Y-145867365D01*
X211674394Y-145532603D01*
X211237544Y-145351207D01*
X210764531Y-145350794D01*
X210327365Y-145531427D01*
X209992603Y-145865606D01*
X209811207Y-146302456D01*
X209810794Y-146775469D01*
X206426250Y-146775469D01*
X206426737Y-146217498D01*
X206210025Y-145693014D01*
X205809097Y-145291385D01*
X205284991Y-145073758D01*
X204717498Y-145073263D01*
X204193014Y-145289975D01*
X203791385Y-145690903D01*
X203573758Y-146215009D01*
X203573263Y-146782502D01*
X200186734Y-146782502D01*
X200188793Y-146777544D01*
X200189206Y-146304531D01*
X200008573Y-145867365D01*
X199674394Y-145532603D01*
X199237544Y-145351207D01*
X198764531Y-145350794D01*
X198327365Y-145531427D01*
X197992603Y-145865606D01*
X197811207Y-146302456D01*
X197810794Y-146775469D01*
X188188794Y-146775469D01*
X188189206Y-146304531D01*
X188008573Y-145867365D01*
X187674394Y-145532603D01*
X187237544Y-145351207D01*
X186764531Y-145350794D01*
X186327365Y-145531427D01*
X185992603Y-145865606D01*
X185811207Y-146302456D01*
X185810794Y-146775469D01*
X176188794Y-146775469D01*
X176189206Y-146304531D01*
X176008573Y-145867365D01*
X175674394Y-145532603D01*
X175237544Y-145351207D01*
X174764531Y-145350794D01*
X174327365Y-145531427D01*
X173992603Y-145865606D01*
X173811207Y-146302456D01*
X173810794Y-146775469D01*
X172072205Y-146775469D01*
X172127000Y-146500000D01*
X172127000Y-145483976D01*
X172683976Y-144927000D01*
X174245349Y-144927000D01*
X174325606Y-145007397D01*
X174762456Y-145188793D01*
X175235469Y-145189206D01*
X175672635Y-145008573D01*
X176007397Y-144674394D01*
X176170124Y-144282502D01*
X179573263Y-144282502D01*
X179789975Y-144806986D01*
X180190903Y-145208615D01*
X180715009Y-145426242D01*
X181282502Y-145426737D01*
X181806986Y-145210025D01*
X182208615Y-144809097D01*
X182426242Y-144284991D01*
X182426285Y-144235469D01*
X185810794Y-144235469D01*
X185991427Y-144672635D01*
X186325606Y-145007397D01*
X186762456Y-145188793D01*
X187235469Y-145189206D01*
X187672635Y-145008573D01*
X188007397Y-144674394D01*
X188170124Y-144282502D01*
X191573263Y-144282502D01*
X191789975Y-144806986D01*
X192190903Y-145208615D01*
X192715009Y-145426242D01*
X193282502Y-145426737D01*
X193806986Y-145210025D01*
X194208615Y-144809097D01*
X194426242Y-144284991D01*
X194426285Y-144235469D01*
X197810794Y-144235469D01*
X197991427Y-144672635D01*
X198325606Y-145007397D01*
X198762456Y-145188793D01*
X199235469Y-145189206D01*
X199672635Y-145008573D01*
X200007397Y-144674394D01*
X200188793Y-144237544D01*
X200188794Y-144235469D01*
X209810794Y-144235469D01*
X209991427Y-144672635D01*
X210325606Y-145007397D01*
X210762456Y-145188793D01*
X211235469Y-145189206D01*
X211672635Y-145008573D01*
X212007397Y-144674394D01*
X212188793Y-144237544D01*
X212189206Y-143764531D01*
X212008573Y-143327365D01*
X211674394Y-142992603D01*
X211237544Y-142811207D01*
X210764531Y-142810794D01*
X210327365Y-142991427D01*
X209992603Y-143325606D01*
X209811207Y-143762456D01*
X209810794Y-144235469D01*
X200188794Y-144235469D01*
X200189206Y-143764531D01*
X200008573Y-143327365D01*
X199674394Y-142992603D01*
X199237544Y-142811207D01*
X198764531Y-142810794D01*
X198327365Y-142991427D01*
X197992603Y-143325606D01*
X197811207Y-143762456D01*
X197810794Y-144235469D01*
X194426285Y-144235469D01*
X194426737Y-143717498D01*
X194210025Y-143193014D01*
X193809097Y-142791385D01*
X193284991Y-142573758D01*
X192717498Y-142573263D01*
X192193014Y-142789975D01*
X191791385Y-143190903D01*
X191573758Y-143715009D01*
X191573263Y-144282502D01*
X188170124Y-144282502D01*
X188188793Y-144237544D01*
X188189206Y-143764531D01*
X188008573Y-143327365D01*
X187674394Y-142992603D01*
X187237544Y-142811207D01*
X186764531Y-142810794D01*
X186327365Y-142991427D01*
X185992603Y-143325606D01*
X185811207Y-143762456D01*
X185810794Y-144235469D01*
X182426285Y-144235469D01*
X182426737Y-143717498D01*
X182210025Y-143193014D01*
X181809097Y-142791385D01*
X181284991Y-142573758D01*
X180717498Y-142573263D01*
X180193014Y-142789975D01*
X179791385Y-143190903D01*
X179573758Y-143715009D01*
X179573263Y-144282502D01*
X176170124Y-144282502D01*
X176188793Y-144237544D01*
X176189206Y-143764531D01*
X176008573Y-143327365D01*
X175674394Y-142992603D01*
X175237544Y-142811207D01*
X174764531Y-142810794D01*
X174327365Y-142991427D01*
X174245650Y-143073000D01*
X172300000Y-143073000D01*
X171945252Y-143143564D01*
X171825524Y-143223564D01*
X171644512Y-143344512D01*
X170544512Y-144444512D01*
X170343564Y-144745252D01*
X170273000Y-145100000D01*
X170273000Y-146116024D01*
X169416024Y-146973000D01*
X166837976Y-146973000D01*
X167655488Y-146155488D01*
X167856437Y-145854747D01*
X167927000Y-145500000D01*
X167927000Y-144999859D01*
X167937876Y-144992592D01*
X168217643Y-144573891D01*
X168315884Y-144080000D01*
X168217643Y-143586109D01*
X167937876Y-143167408D01*
X167519175Y-142887641D01*
X167128847Y-142810000D01*
X167519175Y-142732359D01*
X167937876Y-142452592D01*
X168217643Y-142033891D01*
X168315884Y-141540000D01*
X168288320Y-141401426D01*
X216972649Y-141401426D01*
X217280591Y-142146703D01*
X217850298Y-142717405D01*
X218595036Y-143026647D01*
X219401426Y-143027351D01*
X220146703Y-142719409D01*
X220717405Y-142149702D01*
X221026647Y-141404964D01*
X221027351Y-140598574D01*
X220719409Y-139853297D01*
X220149702Y-139282595D01*
X219404964Y-138973353D01*
X218598574Y-138972649D01*
X217853297Y-139280591D01*
X217282595Y-139850298D01*
X216973353Y-140595036D01*
X216972649Y-141401426D01*
X168288320Y-141401426D01*
X168217643Y-141046109D01*
X167937876Y-140627408D01*
X167745101Y-140498600D01*
X167989909Y-140498600D01*
X168223298Y-140401927D01*
X168401927Y-140223299D01*
X168498600Y-139989910D01*
X168498600Y-139285750D01*
X168339850Y-139127000D01*
X167127000Y-139127000D01*
X167127000Y-139147000D01*
X166873000Y-139147000D01*
X166873000Y-139127000D01*
X166853000Y-139127000D01*
X166853000Y-138873000D01*
X166873000Y-138873000D01*
X166873000Y-137660150D01*
X167127000Y-137660150D01*
X167127000Y-138873000D01*
X168339850Y-138873000D01*
X168498600Y-138714250D01*
X168498600Y-138010090D01*
X168494421Y-138000000D01*
X173564635Y-138000000D01*
X173564635Y-140000000D01*
X173594409Y-140158237D01*
X173687927Y-140303567D01*
X173830619Y-140401064D01*
X174000000Y-140435365D01*
X176000000Y-140435365D01*
X176158237Y-140405591D01*
X176303567Y-140312073D01*
X176401064Y-140169381D01*
X176435365Y-140000000D01*
X176435365Y-139285750D01*
X185365000Y-139285750D01*
X185365000Y-140126310D01*
X185461673Y-140359699D01*
X185640302Y-140538327D01*
X185873691Y-140635000D01*
X186714250Y-140635000D01*
X186873000Y-140476250D01*
X186873000Y-139127000D01*
X187127000Y-139127000D01*
X187127000Y-140476250D01*
X187285750Y-140635000D01*
X188126309Y-140635000D01*
X188359698Y-140538327D01*
X188538327Y-140359699D01*
X188635000Y-140126310D01*
X188635000Y-139285750D01*
X188476250Y-139127000D01*
X187127000Y-139127000D01*
X186873000Y-139127000D01*
X185523750Y-139127000D01*
X185365000Y-139285750D01*
X176435365Y-139285750D01*
X176435365Y-138000000D01*
X176411599Y-137873690D01*
X185365000Y-137873690D01*
X185365000Y-138714250D01*
X185523750Y-138873000D01*
X186873000Y-138873000D01*
X186873000Y-138853000D01*
X187127000Y-138853000D01*
X187127000Y-138873000D01*
X188476250Y-138873000D01*
X188635000Y-138714250D01*
X188635000Y-138000000D01*
X197564635Y-138000000D01*
X197564635Y-140000000D01*
X197594409Y-140158237D01*
X197687927Y-140303567D01*
X197830619Y-140401064D01*
X198000000Y-140435365D01*
X200000000Y-140435365D01*
X200158237Y-140405591D01*
X200303567Y-140312073D01*
X200401064Y-140169381D01*
X200428851Y-140032163D01*
X204027443Y-140032163D01*
X204126042Y-140298965D01*
X204735582Y-140525401D01*
X205385377Y-140501341D01*
X205873958Y-140298965D01*
X205972557Y-140032163D01*
X205000000Y-139059605D01*
X204027443Y-140032163D01*
X200428851Y-140032163D01*
X200435365Y-140000000D01*
X200435365Y-138615582D01*
X203354599Y-138615582D01*
X203378659Y-139265377D01*
X203581035Y-139753958D01*
X203847837Y-139852557D01*
X204820395Y-138880000D01*
X205179605Y-138880000D01*
X206152163Y-139852557D01*
X206418965Y-139753958D01*
X206592898Y-139285750D01*
X209365000Y-139285750D01*
X209365000Y-140126310D01*
X209461673Y-140359699D01*
X209640302Y-140538327D01*
X209873691Y-140635000D01*
X210714250Y-140635000D01*
X210873000Y-140476250D01*
X210873000Y-139127000D01*
X211127000Y-139127000D01*
X211127000Y-140476250D01*
X211285750Y-140635000D01*
X212126309Y-140635000D01*
X212359698Y-140538327D01*
X212538327Y-140359699D01*
X212635000Y-140126310D01*
X212635000Y-139285750D01*
X212476250Y-139127000D01*
X211127000Y-139127000D01*
X210873000Y-139127000D01*
X209523750Y-139127000D01*
X209365000Y-139285750D01*
X206592898Y-139285750D01*
X206645401Y-139144418D01*
X206621341Y-138494623D01*
X206418965Y-138006042D01*
X206152163Y-137907443D01*
X205179605Y-138880000D01*
X204820395Y-138880000D01*
X203847837Y-137907443D01*
X203581035Y-138006042D01*
X203354599Y-138615582D01*
X200435365Y-138615582D01*
X200435365Y-138000000D01*
X200405591Y-137841763D01*
X200332282Y-137727837D01*
X204027443Y-137727837D01*
X205000000Y-138700395D01*
X205826704Y-137873690D01*
X209365000Y-137873690D01*
X209365000Y-138714250D01*
X209523750Y-138873000D01*
X210873000Y-138873000D01*
X210873000Y-138853000D01*
X211127000Y-138853000D01*
X211127000Y-138873000D01*
X212476250Y-138873000D01*
X212635000Y-138714250D01*
X212635000Y-137873690D01*
X212538327Y-137640301D01*
X212359698Y-137461673D01*
X212126309Y-137365000D01*
X212113266Y-137365000D01*
X212209047Y-137269386D01*
X212426752Y-136745093D01*
X212427248Y-136177397D01*
X212210457Y-135652725D01*
X211809386Y-135250953D01*
X211285093Y-135033248D01*
X210717397Y-135032752D01*
X210192725Y-135249543D01*
X209790953Y-135650614D01*
X209573248Y-136174907D01*
X209572752Y-136742603D01*
X209789543Y-137267275D01*
X209887097Y-137365000D01*
X209873691Y-137365000D01*
X209640302Y-137461673D01*
X209461673Y-137640301D01*
X209365000Y-137873690D01*
X205826704Y-137873690D01*
X205972557Y-137727837D01*
X205873958Y-137461035D01*
X205264418Y-137234599D01*
X204614623Y-137258659D01*
X204126042Y-137461035D01*
X204027443Y-137727837D01*
X200332282Y-137727837D01*
X200312073Y-137696433D01*
X200169381Y-137598936D01*
X200000000Y-137564635D01*
X199913282Y-137564635D01*
X200209047Y-137269386D01*
X200426752Y-136745093D01*
X200427248Y-136177397D01*
X200210457Y-135652725D01*
X199809386Y-135250953D01*
X199285093Y-135033248D01*
X198717397Y-135032752D01*
X198192725Y-135249543D01*
X197790953Y-135650614D01*
X197573248Y-136174907D01*
X197572752Y-136742603D01*
X197789543Y-137267275D01*
X198086384Y-137564635D01*
X198000000Y-137564635D01*
X197841763Y-137594409D01*
X197696433Y-137687927D01*
X197598936Y-137830619D01*
X197564635Y-138000000D01*
X188635000Y-138000000D01*
X188635000Y-137873690D01*
X188538327Y-137640301D01*
X188359698Y-137461673D01*
X188126309Y-137365000D01*
X188113266Y-137365000D01*
X188209047Y-137269386D01*
X188426752Y-136745093D01*
X188426824Y-136662502D01*
X191573263Y-136662502D01*
X191789975Y-137186986D01*
X192190903Y-137588615D01*
X192715009Y-137806242D01*
X193282502Y-137806737D01*
X193806986Y-137590025D01*
X194208615Y-137189097D01*
X194426242Y-136664991D01*
X194426737Y-136097498D01*
X194210025Y-135573014D01*
X193809097Y-135171385D01*
X193284991Y-134953758D01*
X192717498Y-134953263D01*
X192193014Y-135169975D01*
X191791385Y-135570903D01*
X191573758Y-136095009D01*
X191573263Y-136662502D01*
X188426824Y-136662502D01*
X188427248Y-136177397D01*
X188210457Y-135652725D01*
X187809386Y-135250953D01*
X187285093Y-135033248D01*
X186717397Y-135032752D01*
X186192725Y-135249543D01*
X185790953Y-135650614D01*
X185573248Y-136174907D01*
X185572752Y-136742603D01*
X185789543Y-137267275D01*
X185887097Y-137365000D01*
X185873691Y-137365000D01*
X185640302Y-137461673D01*
X185461673Y-137640301D01*
X185365000Y-137873690D01*
X176411599Y-137873690D01*
X176405591Y-137841763D01*
X176312073Y-137696433D01*
X176169381Y-137598936D01*
X176000000Y-137564635D01*
X175913282Y-137564635D01*
X176209047Y-137269386D01*
X176426752Y-136745093D01*
X176426824Y-136662502D01*
X179573263Y-136662502D01*
X179789975Y-137186986D01*
X180190903Y-137588615D01*
X180715009Y-137806242D01*
X181282502Y-137806737D01*
X181806986Y-137590025D01*
X182208615Y-137189097D01*
X182426242Y-136664991D01*
X182426737Y-136097498D01*
X182210025Y-135573014D01*
X181809097Y-135171385D01*
X181284991Y-134953758D01*
X180717498Y-134953263D01*
X180193014Y-135169975D01*
X179791385Y-135570903D01*
X179573758Y-136095009D01*
X179573263Y-136662502D01*
X176426824Y-136662502D01*
X176427248Y-136177397D01*
X176210457Y-135652725D01*
X175809386Y-135250953D01*
X175285093Y-135033248D01*
X174717397Y-135032752D01*
X174192725Y-135249543D01*
X173790953Y-135650614D01*
X173573248Y-136174907D01*
X173572752Y-136742603D01*
X173789543Y-137267275D01*
X174086384Y-137564635D01*
X174000000Y-137564635D01*
X173841763Y-137594409D01*
X173696433Y-137687927D01*
X173598936Y-137830619D01*
X173564635Y-138000000D01*
X168494421Y-138000000D01*
X168401927Y-137776701D01*
X168223298Y-137598073D01*
X167989909Y-137501400D01*
X167285750Y-137501400D01*
X167127000Y-137660150D01*
X166873000Y-137660150D01*
X166714250Y-137501400D01*
X166010091Y-137501400D01*
X165776702Y-137598073D01*
X165598073Y-137776701D01*
X165501400Y-138010090D01*
X165501400Y-138242343D01*
X165397876Y-138087408D01*
X164979175Y-137807641D01*
X164485284Y-137709400D01*
X164434716Y-137709400D01*
X163940825Y-137807641D01*
X163522124Y-138087408D01*
X163242357Y-138506109D01*
X163144116Y-139000000D01*
X163242357Y-139493891D01*
X163522124Y-139912592D01*
X163940825Y-140192359D01*
X164331153Y-140270000D01*
X163940825Y-140347641D01*
X163522124Y-140627408D01*
X163242357Y-141046109D01*
X163144116Y-141540000D01*
X163242357Y-142033891D01*
X163522124Y-142452592D01*
X163940825Y-142732359D01*
X164331153Y-142810000D01*
X163940825Y-142887641D01*
X163543687Y-143153000D01*
X163363976Y-143153000D01*
X163127000Y-142916024D01*
X163127000Y-137283976D01*
X163655488Y-136755488D01*
X163856437Y-136454747D01*
X163927000Y-136100000D01*
X163927000Y-132754651D01*
X164007397Y-132674394D01*
X164168776Y-132285750D01*
X166365000Y-132285750D01*
X166365000Y-133126309D01*
X166461673Y-133359698D01*
X166640301Y-133538327D01*
X166873690Y-133635000D01*
X167714250Y-133635000D01*
X167873000Y-133476250D01*
X167873000Y-132127000D01*
X166523750Y-132127000D01*
X166365000Y-132285750D01*
X164168776Y-132285750D01*
X164188793Y-132237544D01*
X164189206Y-131764531D01*
X164008573Y-131327365D01*
X163674394Y-130992603D01*
X163388023Y-130873691D01*
X166365000Y-130873691D01*
X166365000Y-131714250D01*
X166523750Y-131873000D01*
X167873000Y-131873000D01*
X167873000Y-130523750D01*
X168127000Y-130523750D01*
X168127000Y-131873000D01*
X168147000Y-131873000D01*
X168147000Y-132127000D01*
X168127000Y-132127000D01*
X168127000Y-133476250D01*
X168285750Y-133635000D01*
X169126310Y-133635000D01*
X169359699Y-133538327D01*
X169538327Y-133359698D01*
X169635000Y-133126309D01*
X169635000Y-133113266D01*
X169730614Y-133209047D01*
X170254907Y-133426752D01*
X170822603Y-133427248D01*
X171347275Y-133210457D01*
X171749047Y-132809386D01*
X171966752Y-132285093D01*
X171967248Y-131717397D01*
X171750457Y-131192725D01*
X171349386Y-130790953D01*
X170825093Y-130573248D01*
X170257397Y-130572752D01*
X169732725Y-130789543D01*
X169635000Y-130887097D01*
X169635000Y-130873691D01*
X169538327Y-130640302D01*
X169359699Y-130461673D01*
X169126310Y-130365000D01*
X168285750Y-130365000D01*
X168127000Y-130523750D01*
X167873000Y-130523750D01*
X167714250Y-130365000D01*
X166873690Y-130365000D01*
X166640301Y-130461673D01*
X166461673Y-130640302D01*
X166365000Y-130873691D01*
X163388023Y-130873691D01*
X163237544Y-130811207D01*
X162764531Y-130810794D01*
X162327365Y-130991427D01*
X161992603Y-131325606D01*
X161811207Y-131762456D01*
X161810794Y-132235469D01*
X161991427Y-132672635D01*
X162073000Y-132754350D01*
X162073000Y-135716024D01*
X161544512Y-136244512D01*
X161387000Y-136480245D01*
X161387000Y-132754651D01*
X161467397Y-132674394D01*
X161648793Y-132237544D01*
X161649206Y-131764531D01*
X161468573Y-131327365D01*
X161134394Y-130992603D01*
X160697544Y-130811207D01*
X160224531Y-130810794D01*
X159787365Y-130991427D01*
X159452603Y-131325606D01*
X159271207Y-131762456D01*
X159270794Y-132235469D01*
X159451427Y-132672635D01*
X159533000Y-132754350D01*
X159533000Y-138655761D01*
X159514746Y-138643564D01*
X159159998Y-138573000D01*
X158805250Y-138643564D01*
X158504510Y-138844512D01*
X158303562Y-139145252D01*
X158232998Y-139500000D01*
X158232998Y-144422022D01*
X157155488Y-143344512D01*
X156974476Y-143223564D01*
X156854748Y-143143564D01*
X156817744Y-143136204D01*
X156674394Y-142992603D01*
X156237544Y-142811207D01*
X155764531Y-142810794D01*
X155327365Y-142991427D01*
X154992603Y-143325606D01*
X154811207Y-143762456D01*
X154810794Y-144235469D01*
X151926285Y-144235469D01*
X151926737Y-143717498D01*
X151710025Y-143193014D01*
X151309097Y-142791385D01*
X150784991Y-142573758D01*
X150217498Y-142573263D01*
X149693014Y-142789975D01*
X149291385Y-143190903D01*
X149073758Y-143715009D01*
X149073263Y-144282502D01*
X145170124Y-144282502D01*
X145188793Y-144237544D01*
X145189206Y-143764531D01*
X145008573Y-143327365D01*
X144674394Y-142992603D01*
X144237544Y-142811207D01*
X143764531Y-142810794D01*
X143327365Y-142991427D01*
X142992603Y-143325606D01*
X142811207Y-143762456D01*
X142810794Y-144235469D01*
X133188794Y-144235469D01*
X133189206Y-143764531D01*
X133008573Y-143327365D01*
X132674394Y-142992603D01*
X132237544Y-142811207D01*
X131764531Y-142810794D01*
X131327365Y-142991427D01*
X130992603Y-143325606D01*
X130811207Y-143762456D01*
X130810794Y-144235469D01*
X127426285Y-144235469D01*
X127426737Y-143717498D01*
X127210025Y-143193014D01*
X126809097Y-142791385D01*
X126284991Y-142573758D01*
X125717498Y-142573263D01*
X125193014Y-142789975D01*
X124791385Y-143190903D01*
X124573758Y-143715009D01*
X124573263Y-144282502D01*
X121170124Y-144282502D01*
X121188793Y-144237544D01*
X121189206Y-143764531D01*
X121008573Y-143327365D01*
X120674394Y-142992603D01*
X120237544Y-142811207D01*
X119764531Y-142810794D01*
X119327365Y-142991427D01*
X118992603Y-143325606D01*
X118811207Y-143762456D01*
X118810794Y-144235469D01*
X105197000Y-144235469D01*
X105197000Y-141401426D01*
X109972649Y-141401426D01*
X110280591Y-142146703D01*
X110850298Y-142717405D01*
X111595036Y-143026647D01*
X112401426Y-143027351D01*
X113146703Y-142719409D01*
X113717405Y-142149702D01*
X114026647Y-141404964D01*
X114027351Y-140598574D01*
X113719409Y-139853297D01*
X113149702Y-139282595D01*
X112404964Y-138973353D01*
X111598574Y-138972649D01*
X110853297Y-139280591D01*
X110282595Y-139850298D01*
X109973353Y-140595036D01*
X109972649Y-141401426D01*
X105197000Y-141401426D01*
X105197000Y-138000000D01*
X118564635Y-138000000D01*
X118564635Y-140000000D01*
X118594409Y-140158237D01*
X118687927Y-140303567D01*
X118830619Y-140401064D01*
X119000000Y-140435365D01*
X121000000Y-140435365D01*
X121158237Y-140405591D01*
X121303567Y-140312073D01*
X121401064Y-140169381D01*
X121435365Y-140000000D01*
X121435365Y-139285750D01*
X130365000Y-139285750D01*
X130365000Y-140126310D01*
X130461673Y-140359699D01*
X130640302Y-140538327D01*
X130873691Y-140635000D01*
X131714250Y-140635000D01*
X131873000Y-140476250D01*
X131873000Y-139127000D01*
X132127000Y-139127000D01*
X132127000Y-140476250D01*
X132285750Y-140635000D01*
X133126309Y-140635000D01*
X133359698Y-140538327D01*
X133538327Y-140359699D01*
X133635000Y-140126310D01*
X133635000Y-140032163D01*
X137027443Y-140032163D01*
X137126042Y-140298965D01*
X137735582Y-140525401D01*
X138385377Y-140501341D01*
X138873958Y-140298965D01*
X138972557Y-140032163D01*
X138000000Y-139059605D01*
X137027443Y-140032163D01*
X133635000Y-140032163D01*
X133635000Y-139285750D01*
X133476250Y-139127000D01*
X132127000Y-139127000D01*
X131873000Y-139127000D01*
X130523750Y-139127000D01*
X130365000Y-139285750D01*
X121435365Y-139285750D01*
X121435365Y-138000000D01*
X121411599Y-137873690D01*
X130365000Y-137873690D01*
X130365000Y-138714250D01*
X130523750Y-138873000D01*
X131873000Y-138873000D01*
X131873000Y-138853000D01*
X132127000Y-138853000D01*
X132127000Y-138873000D01*
X133476250Y-138873000D01*
X133635000Y-138714250D01*
X133635000Y-138615582D01*
X136354599Y-138615582D01*
X136378659Y-139265377D01*
X136581035Y-139753958D01*
X136847837Y-139852557D01*
X137820395Y-138880000D01*
X138179605Y-138880000D01*
X139152163Y-139852557D01*
X139418965Y-139753958D01*
X139645401Y-139144418D01*
X139621341Y-138494623D01*
X139418965Y-138006042D01*
X139402616Y-138000000D01*
X142564635Y-138000000D01*
X142564635Y-140000000D01*
X142594409Y-140158237D01*
X142687927Y-140303567D01*
X142830619Y-140401064D01*
X143000000Y-140435365D01*
X145000000Y-140435365D01*
X145158237Y-140405591D01*
X145303567Y-140312073D01*
X145401064Y-140169381D01*
X145435365Y-140000000D01*
X145435365Y-139285750D01*
X154365000Y-139285750D01*
X154365000Y-140126310D01*
X154461673Y-140359699D01*
X154640302Y-140538327D01*
X154873691Y-140635000D01*
X155714250Y-140635000D01*
X155873000Y-140476250D01*
X155873000Y-139127000D01*
X156127000Y-139127000D01*
X156127000Y-140476250D01*
X156285750Y-140635000D01*
X157126309Y-140635000D01*
X157359698Y-140538327D01*
X157538327Y-140359699D01*
X157635000Y-140126310D01*
X157635000Y-139285750D01*
X157476250Y-139127000D01*
X156127000Y-139127000D01*
X155873000Y-139127000D01*
X154523750Y-139127000D01*
X154365000Y-139285750D01*
X145435365Y-139285750D01*
X145435365Y-138000000D01*
X145411599Y-137873690D01*
X154365000Y-137873690D01*
X154365000Y-138714250D01*
X154523750Y-138873000D01*
X155873000Y-138873000D01*
X155873000Y-138853000D01*
X156127000Y-138853000D01*
X156127000Y-138873000D01*
X157476250Y-138873000D01*
X157635000Y-138714250D01*
X157635000Y-137873690D01*
X157538327Y-137640301D01*
X157359698Y-137461673D01*
X157126309Y-137365000D01*
X157113266Y-137365000D01*
X157209047Y-137269386D01*
X157426752Y-136745093D01*
X157427248Y-136177397D01*
X157210457Y-135652725D01*
X156809386Y-135250953D01*
X156285093Y-135033248D01*
X155717397Y-135032752D01*
X155192725Y-135249543D01*
X154790953Y-135650614D01*
X154573248Y-136174907D01*
X154572752Y-136742603D01*
X154789543Y-137267275D01*
X154887097Y-137365000D01*
X154873691Y-137365000D01*
X154640302Y-137461673D01*
X154461673Y-137640301D01*
X154365000Y-137873690D01*
X145411599Y-137873690D01*
X145405591Y-137841763D01*
X145312073Y-137696433D01*
X145169381Y-137598936D01*
X145000000Y-137564635D01*
X144913282Y-137564635D01*
X145209047Y-137269386D01*
X145426752Y-136745093D01*
X145426824Y-136662502D01*
X149073263Y-136662502D01*
X149289975Y-137186986D01*
X149690903Y-137588615D01*
X150215009Y-137806242D01*
X150782502Y-137806737D01*
X151306986Y-137590025D01*
X151708615Y-137189097D01*
X151926242Y-136664991D01*
X151926737Y-136097498D01*
X151710025Y-135573014D01*
X151309097Y-135171385D01*
X150784991Y-134953758D01*
X150217498Y-134953263D01*
X149693014Y-135169975D01*
X149291385Y-135570903D01*
X149073758Y-136095009D01*
X149073263Y-136662502D01*
X145426824Y-136662502D01*
X145427248Y-136177397D01*
X145210457Y-135652725D01*
X144809386Y-135250953D01*
X144285093Y-135033248D01*
X143717397Y-135032752D01*
X143192725Y-135249543D01*
X142790953Y-135650614D01*
X142573248Y-136174907D01*
X142572752Y-136742603D01*
X142789543Y-137267275D01*
X143086384Y-137564635D01*
X143000000Y-137564635D01*
X142841763Y-137594409D01*
X142696433Y-137687927D01*
X142598936Y-137830619D01*
X142564635Y-138000000D01*
X139402616Y-138000000D01*
X139152163Y-137907443D01*
X138179605Y-138880000D01*
X137820395Y-138880000D01*
X136847837Y-137907443D01*
X136581035Y-138006042D01*
X136354599Y-138615582D01*
X133635000Y-138615582D01*
X133635000Y-137873690D01*
X133574586Y-137727837D01*
X137027443Y-137727837D01*
X138000000Y-138700395D01*
X138972557Y-137727837D01*
X138873958Y-137461035D01*
X138264418Y-137234599D01*
X137614623Y-137258659D01*
X137126042Y-137461035D01*
X137027443Y-137727837D01*
X133574586Y-137727837D01*
X133538327Y-137640301D01*
X133359698Y-137461673D01*
X133126309Y-137365000D01*
X133113266Y-137365000D01*
X133209047Y-137269386D01*
X133426752Y-136745093D01*
X133427248Y-136177397D01*
X133210457Y-135652725D01*
X132809386Y-135250953D01*
X132285093Y-135033248D01*
X131717397Y-135032752D01*
X131192725Y-135249543D01*
X130790953Y-135650614D01*
X130573248Y-136174907D01*
X130572752Y-136742603D01*
X130789543Y-137267275D01*
X130887097Y-137365000D01*
X130873691Y-137365000D01*
X130640302Y-137461673D01*
X130461673Y-137640301D01*
X130365000Y-137873690D01*
X121411599Y-137873690D01*
X121405591Y-137841763D01*
X121312073Y-137696433D01*
X121169381Y-137598936D01*
X121000000Y-137564635D01*
X120913282Y-137564635D01*
X121209047Y-137269386D01*
X121426752Y-136745093D01*
X121426824Y-136662502D01*
X124573263Y-136662502D01*
X124789975Y-137186986D01*
X125190903Y-137588615D01*
X125715009Y-137806242D01*
X126282502Y-137806737D01*
X126806986Y-137590025D01*
X127208615Y-137189097D01*
X127426242Y-136664991D01*
X127426737Y-136097498D01*
X127210025Y-135573014D01*
X126809097Y-135171385D01*
X126284991Y-134953758D01*
X125717498Y-134953263D01*
X125193014Y-135169975D01*
X124791385Y-135570903D01*
X124573758Y-136095009D01*
X124573263Y-136662502D01*
X121426824Y-136662502D01*
X121427248Y-136177397D01*
X121210457Y-135652725D01*
X120809386Y-135250953D01*
X120285093Y-135033248D01*
X119717397Y-135032752D01*
X119192725Y-135249543D01*
X118790953Y-135650614D01*
X118573248Y-136174907D01*
X118572752Y-136742603D01*
X118789543Y-137267275D01*
X119086384Y-137564635D01*
X119000000Y-137564635D01*
X118841763Y-137594409D01*
X118696433Y-137687927D01*
X118598936Y-137830619D01*
X118564635Y-138000000D01*
X105197000Y-138000000D01*
X105197000Y-134197000D01*
X158000000Y-134197000D01*
X158075389Y-134182004D01*
X158139300Y-134139300D01*
X158182004Y-134075389D01*
X158197000Y-134000000D01*
X158197000Y-125782502D01*
X161573263Y-125782502D01*
X161789975Y-126306986D01*
X162190903Y-126708615D01*
X162715009Y-126926242D01*
X163282502Y-126926737D01*
X163806986Y-126710025D01*
X164208615Y-126309097D01*
X164426242Y-125784991D01*
X164426244Y-125782502D01*
X169193263Y-125782502D01*
X169409975Y-126306986D01*
X169810903Y-126708615D01*
X170335009Y-126926242D01*
X170902502Y-126926737D01*
X171426986Y-126710025D01*
X171828615Y-126309097D01*
X172046242Y-125784991D01*
X172046737Y-125217498D01*
X171830025Y-124693014D01*
X171429097Y-124291385D01*
X170904991Y-124073758D01*
X170337498Y-124073263D01*
X169813014Y-124289975D01*
X169411385Y-124690903D01*
X169193758Y-125215009D01*
X169193263Y-125782502D01*
X164426244Y-125782502D01*
X164426737Y-125217498D01*
X164210025Y-124693014D01*
X163809097Y-124291385D01*
X163284991Y-124073758D01*
X162717498Y-124073263D01*
X162193014Y-124289975D01*
X161791385Y-124690903D01*
X161573758Y-125215009D01*
X161573263Y-125782502D01*
X158197000Y-125782502D01*
X158197000Y-120235469D01*
X159270794Y-120235469D01*
X159451427Y-120672635D01*
X159785606Y-121007397D01*
X160222456Y-121188793D01*
X160695469Y-121189206D01*
X161132635Y-121008573D01*
X161467397Y-120674394D01*
X161648793Y-120237544D01*
X161648794Y-120235469D01*
X161810794Y-120235469D01*
X161991427Y-120672635D01*
X162325606Y-121007397D01*
X162762456Y-121188793D01*
X163235469Y-121189206D01*
X163672635Y-121008573D01*
X164007397Y-120674394D01*
X164188793Y-120237544D01*
X164189206Y-119764531D01*
X164008573Y-119327365D01*
X163681779Y-119000000D01*
X166564635Y-119000000D01*
X166564635Y-121000000D01*
X166594409Y-121158237D01*
X166687927Y-121303567D01*
X166830619Y-121401064D01*
X167000000Y-121435365D01*
X169000000Y-121435365D01*
X169158237Y-121405591D01*
X169303567Y-121312073D01*
X169401064Y-121169381D01*
X169435365Y-121000000D01*
X169435365Y-120913282D01*
X169730614Y-121209047D01*
X170254907Y-121426752D01*
X170822603Y-121427248D01*
X171347275Y-121210457D01*
X171749047Y-120809386D01*
X171966752Y-120285093D01*
X171967248Y-119717397D01*
X171750457Y-119192725D01*
X171349386Y-118790953D01*
X170825093Y-118573248D01*
X170257397Y-118572752D01*
X169732725Y-118789543D01*
X169435365Y-119086384D01*
X169435365Y-119000000D01*
X169405591Y-118841763D01*
X169312073Y-118696433D01*
X169169381Y-118598936D01*
X169000000Y-118564635D01*
X167000000Y-118564635D01*
X166841763Y-118594409D01*
X166696433Y-118687927D01*
X166598936Y-118830619D01*
X166564635Y-119000000D01*
X163681779Y-119000000D01*
X163674394Y-118992603D01*
X163237544Y-118811207D01*
X162764531Y-118810794D01*
X162327365Y-118991427D01*
X161992603Y-119325606D01*
X161811207Y-119762456D01*
X161810794Y-120235469D01*
X161648794Y-120235469D01*
X161649206Y-119764531D01*
X161468573Y-119327365D01*
X161134394Y-118992603D01*
X160697544Y-118811207D01*
X160224531Y-118810794D01*
X159787365Y-118991427D01*
X159452603Y-119325606D01*
X159271207Y-119762456D01*
X159270794Y-120235469D01*
X158197000Y-120235469D01*
X158197000Y-114282502D01*
X159173263Y-114282502D01*
X159389975Y-114806986D01*
X159790903Y-115208615D01*
X160315009Y-115426242D01*
X160882502Y-115426737D01*
X161406986Y-115210025D01*
X161464949Y-115152163D01*
X169787443Y-115152163D01*
X169886042Y-115418965D01*
X170495582Y-115645401D01*
X171145377Y-115621341D01*
X171633958Y-115418965D01*
X171732557Y-115152163D01*
X170760000Y-114179605D01*
X169787443Y-115152163D01*
X161464949Y-115152163D01*
X161808615Y-114809097D01*
X162026242Y-114284991D01*
X162026721Y-113735582D01*
X169114599Y-113735582D01*
X169138659Y-114385377D01*
X169341035Y-114873958D01*
X169607837Y-114972557D01*
X170580395Y-114000000D01*
X170939605Y-114000000D01*
X171912163Y-114972557D01*
X172178965Y-114873958D01*
X172405401Y-114264418D01*
X172381341Y-113614623D01*
X172178965Y-113126042D01*
X171912163Y-113027443D01*
X170939605Y-114000000D01*
X170580395Y-114000000D01*
X169607837Y-113027443D01*
X169341035Y-113126042D01*
X169114599Y-113735582D01*
X162026721Y-113735582D01*
X162026737Y-113717498D01*
X161810025Y-113193014D01*
X161465451Y-112847837D01*
X169787443Y-112847837D01*
X170760000Y-113820395D01*
X171732557Y-112847837D01*
X171633958Y-112581035D01*
X171024418Y-112354599D01*
X170374623Y-112378659D01*
X169886042Y-112581035D01*
X169787443Y-112847837D01*
X161465451Y-112847837D01*
X161409097Y-112791385D01*
X160884991Y-112573758D01*
X160317498Y-112573263D01*
X159793014Y-112789975D01*
X159391385Y-113190903D01*
X159173758Y-113715009D01*
X159173263Y-114282502D01*
X158197000Y-114282502D01*
X158197000Y-108235469D01*
X159270794Y-108235469D01*
X159451427Y-108672635D01*
X159785606Y-109007397D01*
X160222456Y-109188793D01*
X160695469Y-109189206D01*
X161132635Y-109008573D01*
X161467397Y-108674394D01*
X161648793Y-108237544D01*
X161648794Y-108235469D01*
X161810794Y-108235469D01*
X161991427Y-108672635D01*
X162325606Y-109007397D01*
X162762456Y-109188793D01*
X163235469Y-109189206D01*
X163672635Y-109008573D01*
X164007397Y-108674394D01*
X164168776Y-108285750D01*
X166365000Y-108285750D01*
X166365000Y-109126309D01*
X166461673Y-109359698D01*
X166640301Y-109538327D01*
X166873690Y-109635000D01*
X167714250Y-109635000D01*
X167873000Y-109476250D01*
X167873000Y-108127000D01*
X166523750Y-108127000D01*
X166365000Y-108285750D01*
X164168776Y-108285750D01*
X164188793Y-108237544D01*
X164189206Y-107764531D01*
X164008573Y-107327365D01*
X163674394Y-106992603D01*
X163388023Y-106873691D01*
X166365000Y-106873691D01*
X166365000Y-107714250D01*
X166523750Y-107873000D01*
X167873000Y-107873000D01*
X167873000Y-106523750D01*
X168127000Y-106523750D01*
X168127000Y-107873000D01*
X168147000Y-107873000D01*
X168147000Y-108127000D01*
X168127000Y-108127000D01*
X168127000Y-109476250D01*
X168285750Y-109635000D01*
X169126310Y-109635000D01*
X169359699Y-109538327D01*
X169538327Y-109359698D01*
X169635000Y-109126309D01*
X169635000Y-109113266D01*
X169730614Y-109209047D01*
X170254907Y-109426752D01*
X170822603Y-109427248D01*
X171347275Y-109210457D01*
X171749047Y-108809386D01*
X171966752Y-108285093D01*
X171967248Y-107717397D01*
X171750457Y-107192725D01*
X171349386Y-106790953D01*
X170825093Y-106573248D01*
X170257397Y-106572752D01*
X169732725Y-106789543D01*
X169635000Y-106887097D01*
X169635000Y-106873691D01*
X169538327Y-106640302D01*
X169359699Y-106461673D01*
X169126310Y-106365000D01*
X168285750Y-106365000D01*
X168127000Y-106523750D01*
X167873000Y-106523750D01*
X167714250Y-106365000D01*
X166873690Y-106365000D01*
X166640301Y-106461673D01*
X166461673Y-106640302D01*
X166365000Y-106873691D01*
X163388023Y-106873691D01*
X163237544Y-106811207D01*
X162764531Y-106810794D01*
X162327365Y-106991427D01*
X161992603Y-107325606D01*
X161811207Y-107762456D01*
X161810794Y-108235469D01*
X161648794Y-108235469D01*
X161649206Y-107764531D01*
X161468573Y-107327365D01*
X161134394Y-106992603D01*
X160697544Y-106811207D01*
X160224531Y-106810794D01*
X159787365Y-106991427D01*
X159452603Y-107325606D01*
X159271207Y-107762456D01*
X159270794Y-108235469D01*
X158197000Y-108235469D01*
X158197000Y-102082502D01*
X161673263Y-102082502D01*
X161889975Y-102606986D01*
X162290903Y-103008615D01*
X162815009Y-103226242D01*
X163382502Y-103226737D01*
X163906986Y-103010025D01*
X164308615Y-102609097D01*
X164526242Y-102084991D01*
X164526244Y-102082502D01*
X169293263Y-102082502D01*
X169509975Y-102606986D01*
X169910903Y-103008615D01*
X170435009Y-103226242D01*
X171002502Y-103226737D01*
X171526986Y-103010025D01*
X171928615Y-102609097D01*
X172146242Y-102084991D01*
X172146737Y-101517498D01*
X171930025Y-100993014D01*
X171529097Y-100591385D01*
X171004991Y-100373758D01*
X170437498Y-100373263D01*
X169913014Y-100589975D01*
X169511385Y-100990903D01*
X169293758Y-101515009D01*
X169293263Y-102082502D01*
X164526244Y-102082502D01*
X164526737Y-101517498D01*
X164310025Y-100993014D01*
X163909097Y-100591385D01*
X163384991Y-100373758D01*
X162817498Y-100373263D01*
X162293014Y-100589975D01*
X161891385Y-100990903D01*
X161673758Y-101515009D01*
X161673263Y-102082502D01*
X158197000Y-102082502D01*
X158197000Y-96235469D01*
X159270794Y-96235469D01*
X159451427Y-96672635D01*
X159785606Y-97007397D01*
X160222456Y-97188793D01*
X160695469Y-97189206D01*
X161132635Y-97008573D01*
X161467397Y-96674394D01*
X161648793Y-96237544D01*
X161648794Y-96235469D01*
X161810794Y-96235469D01*
X161991427Y-96672635D01*
X162325606Y-97007397D01*
X162762456Y-97188793D01*
X163235469Y-97189206D01*
X163672635Y-97008573D01*
X164007397Y-96674394D01*
X164188793Y-96237544D01*
X164189206Y-95764531D01*
X164008573Y-95327365D01*
X163681779Y-95000000D01*
X166564635Y-95000000D01*
X166564635Y-97000000D01*
X166594409Y-97158237D01*
X166687927Y-97303567D01*
X166830619Y-97401064D01*
X167000000Y-97435365D01*
X169000000Y-97435365D01*
X169158237Y-97405591D01*
X169303567Y-97312073D01*
X169401064Y-97169381D01*
X169435365Y-97000000D01*
X169435365Y-96913282D01*
X169730614Y-97209047D01*
X170254907Y-97426752D01*
X170822603Y-97427248D01*
X171347275Y-97210457D01*
X171749047Y-96809386D01*
X171966752Y-96285093D01*
X171967248Y-95717397D01*
X171750457Y-95192725D01*
X171349386Y-94790953D01*
X170825093Y-94573248D01*
X170257397Y-94572752D01*
X169732725Y-94789543D01*
X169435365Y-95086384D01*
X169435365Y-95000000D01*
X169405591Y-94841763D01*
X169312073Y-94696433D01*
X169169381Y-94598936D01*
X169000000Y-94564635D01*
X167000000Y-94564635D01*
X166841763Y-94594409D01*
X166696433Y-94687927D01*
X166598936Y-94830619D01*
X166564635Y-95000000D01*
X163681779Y-95000000D01*
X163674394Y-94992603D01*
X163237544Y-94811207D01*
X162764531Y-94810794D01*
X162327365Y-94991427D01*
X161992603Y-95325606D01*
X161811207Y-95762456D01*
X161810794Y-96235469D01*
X161648794Y-96235469D01*
X161649206Y-95764531D01*
X161468573Y-95327365D01*
X161134394Y-94992603D01*
X160697544Y-94811207D01*
X160224531Y-94810794D01*
X159787365Y-94991427D01*
X159452603Y-95325606D01*
X159271207Y-95762456D01*
X159270794Y-96235469D01*
X158197000Y-96235469D01*
X158197000Y-88401426D01*
X162972649Y-88401426D01*
X163280591Y-89146703D01*
X163850298Y-89717405D01*
X164595036Y-90026647D01*
X165401426Y-90027351D01*
X166146703Y-89719409D01*
X166717405Y-89149702D01*
X167026647Y-88404964D01*
X167027351Y-87598574D01*
X166719409Y-86853297D01*
X166149702Y-86282595D01*
X165404964Y-85973353D01*
X164598574Y-85972649D01*
X163853297Y-86280591D01*
X163282595Y-86850298D01*
X162973353Y-87595036D01*
X162972649Y-88401426D01*
X158197000Y-88401426D01*
X158197000Y-81197000D01*
X172803000Y-81197000D01*
X172803000Y-134000000D01*
G36*
X241703000Y-82181600D02*
X241703000Y-100018400D01*
X235818400Y-105903000D01*
X233400000Y-105903000D01*
X233324611Y-105917996D01*
X233260700Y-105960700D01*
X206818400Y-132403000D01*
X193475965Y-132403000D01*
X194042989Y-132168710D01*
X194726311Y-131486580D01*
X195096578Y-130594878D01*
X195097421Y-129629358D01*
X194728710Y-128737011D01*
X194046580Y-128053689D01*
X193154878Y-127683422D01*
X192189358Y-127682579D01*
X191297011Y-128051290D01*
X190613689Y-128733420D01*
X190243422Y-129625122D01*
X190242579Y-130590642D01*
X190611290Y-131482989D01*
X191293420Y-132166311D01*
X191863430Y-132403000D01*
X188395965Y-132403000D01*
X188962989Y-132168710D01*
X189646311Y-131486580D01*
X190016578Y-130594878D01*
X190017421Y-129629358D01*
X189648710Y-128737011D01*
X188966580Y-128053689D01*
X188074878Y-127683422D01*
X187109358Y-127682579D01*
X186217011Y-128051290D01*
X185533689Y-128733420D01*
X185163422Y-129625122D01*
X185162579Y-130590642D01*
X185531290Y-131482989D01*
X186213420Y-132166311D01*
X186783430Y-132403000D01*
X174597000Y-132403000D01*
X174597000Y-130001426D01*
X176372649Y-130001426D01*
X176680591Y-130746703D01*
X177250298Y-131317405D01*
X177995036Y-131626647D01*
X178801426Y-131627351D01*
X179546703Y-131319409D01*
X180117405Y-130749702D01*
X180426647Y-130004964D01*
X180427351Y-129198574D01*
X180119409Y-128453297D01*
X179549702Y-127882595D01*
X178804964Y-127573353D01*
X177998574Y-127572649D01*
X177253297Y-127880591D01*
X176682595Y-128450298D01*
X176373353Y-129195036D01*
X176372649Y-130001426D01*
X174597000Y-130001426D01*
X174597000Y-124001426D01*
X176372649Y-124001426D01*
X176680591Y-124746703D01*
X177250298Y-125317405D01*
X177995036Y-125626647D01*
X178801426Y-125627351D01*
X179546703Y-125319409D01*
X180117405Y-124749702D01*
X180426647Y-124004964D01*
X180426650Y-124001426D01*
X200372649Y-124001426D01*
X200680591Y-124746703D01*
X201250298Y-125317405D01*
X201995036Y-125626647D01*
X202801426Y-125627351D01*
X203546703Y-125319409D01*
X204117405Y-124749702D01*
X204426647Y-124004964D01*
X204427351Y-123198574D01*
X204119409Y-122453297D01*
X203549702Y-121882595D01*
X202804964Y-121573353D01*
X201998574Y-121572649D01*
X201253297Y-121880591D01*
X200682595Y-122450298D01*
X200373353Y-123195036D01*
X200372649Y-124001426D01*
X180426650Y-124001426D01*
X180427351Y-123198574D01*
X180119409Y-122453297D01*
X179549702Y-121882595D01*
X178804964Y-121573353D01*
X177998574Y-121572649D01*
X177253297Y-121880591D01*
X176682595Y-122450298D01*
X176373353Y-123195036D01*
X176372649Y-124001426D01*
X174597000Y-124001426D01*
X174597000Y-109305000D01*
X209189635Y-109305000D01*
X209189635Y-111855000D01*
X209219409Y-112013237D01*
X209312927Y-112158567D01*
X209455619Y-112256064D01*
X209625000Y-112290365D01*
X212175000Y-112290365D01*
X212333237Y-112260591D01*
X212478567Y-112167073D01*
X212576064Y-112024381D01*
X212610365Y-111855000D01*
X212610365Y-109305000D01*
X219689635Y-109305000D01*
X219689635Y-111855000D01*
X219719409Y-112013237D01*
X219812927Y-112158567D01*
X219955619Y-112256064D01*
X220125000Y-112290365D01*
X222675000Y-112290365D01*
X222833237Y-112260591D01*
X222978567Y-112167073D01*
X223076064Y-112024381D01*
X223110365Y-111855000D01*
X223110365Y-109305000D01*
X223080591Y-109146763D01*
X222987073Y-109001433D01*
X222844381Y-108903936D01*
X222675000Y-108869635D01*
X220125000Y-108869635D01*
X219966763Y-108899409D01*
X219821433Y-108992927D01*
X219723936Y-109135619D01*
X219689635Y-109305000D01*
X212610365Y-109305000D01*
X212580591Y-109146763D01*
X212487073Y-109001433D01*
X212344381Y-108903936D01*
X212175000Y-108869635D01*
X209625000Y-108869635D01*
X209466763Y-108899409D01*
X209321433Y-108992927D01*
X209223936Y-109135619D01*
X209189635Y-109305000D01*
X174597000Y-109305000D01*
X174597000Y-106957063D01*
X209197705Y-106957063D01*
X209456273Y-107582846D01*
X209934636Y-108062044D01*
X210559966Y-108321704D01*
X211237063Y-108322295D01*
X211862846Y-108063727D01*
X212342044Y-107585364D01*
X212601704Y-106960034D01*
X212601706Y-106957063D01*
X219697705Y-106957063D01*
X219956273Y-107582846D01*
X220434636Y-108062044D01*
X221059966Y-108321704D01*
X221737063Y-108322295D01*
X222362846Y-108063727D01*
X222842044Y-107585364D01*
X223101704Y-106960034D01*
X223102295Y-106282937D01*
X222843727Y-105657154D01*
X222365364Y-105177956D01*
X221740034Y-104918296D01*
X221062937Y-104917705D01*
X220437154Y-105176273D01*
X219957956Y-105654636D01*
X219698296Y-106279966D01*
X219697705Y-106957063D01*
X212601706Y-106957063D01*
X212602295Y-106282937D01*
X212343727Y-105657154D01*
X211865364Y-105177956D01*
X211240034Y-104918296D01*
X210562937Y-104917705D01*
X209937154Y-105176273D01*
X209457956Y-105654636D01*
X209198296Y-106279966D01*
X209197705Y-106957063D01*
X174597000Y-106957063D01*
X174597000Y-100001426D01*
X176372649Y-100001426D01*
X176680591Y-100746703D01*
X177250298Y-101317405D01*
X177995036Y-101626647D01*
X178801426Y-101627351D01*
X179546703Y-101319409D01*
X180117405Y-100749702D01*
X180426647Y-100004964D01*
X180426650Y-100001426D01*
X200372649Y-100001426D01*
X200680591Y-100746703D01*
X201250298Y-101317405D01*
X201995036Y-101626647D01*
X202801426Y-101627351D01*
X203546703Y-101319409D01*
X204117405Y-100749702D01*
X204221498Y-100499016D01*
X231680590Y-100499016D01*
X231736271Y-100729611D01*
X232219078Y-100897622D01*
X232729428Y-100868083D01*
X233063729Y-100729611D01*
X233119410Y-100499016D01*
X232400000Y-99779605D01*
X231680590Y-100499016D01*
X204221498Y-100499016D01*
X204426647Y-100004964D01*
X204427158Y-99419078D01*
X231102378Y-99419078D01*
X231131917Y-99929428D01*
X231270389Y-100263729D01*
X231500984Y-100319410D01*
X232220395Y-99600000D01*
X232579605Y-99600000D01*
X233299016Y-100319410D01*
X233529611Y-100263729D01*
X233697622Y-99780922D01*
X233668083Y-99270572D01*
X233529611Y-98936271D01*
X233299016Y-98880590D01*
X232579605Y-99600000D01*
X232220395Y-99600000D01*
X231500984Y-98880590D01*
X231270389Y-98936271D01*
X231102378Y-99419078D01*
X204427158Y-99419078D01*
X204427351Y-99198574D01*
X204221752Y-98700984D01*
X231680590Y-98700984D01*
X232400000Y-99420395D01*
X233119410Y-98700984D01*
X233063729Y-98470389D01*
X232580922Y-98302378D01*
X232070572Y-98331917D01*
X231736271Y-98470389D01*
X231680590Y-98700984D01*
X204221752Y-98700984D01*
X204119409Y-98453297D01*
X203549702Y-97882595D01*
X202804964Y-97573353D01*
X201998574Y-97572649D01*
X201253297Y-97880591D01*
X200682595Y-98450298D01*
X200373353Y-99195036D01*
X200372649Y-100001426D01*
X180426650Y-100001426D01*
X180427351Y-99198574D01*
X180119409Y-98453297D01*
X179549702Y-97882595D01*
X178804964Y-97573353D01*
X177998574Y-97572649D01*
X177253297Y-97880591D01*
X176682595Y-98450298D01*
X176373353Y-99195036D01*
X176372649Y-100001426D01*
X174597000Y-100001426D01*
X174597000Y-95395022D01*
X185894584Y-95395022D01*
X186115353Y-95765743D01*
X187087012Y-96159119D01*
X188135247Y-96150713D01*
X189064647Y-95765743D01*
X189285416Y-95395022D01*
X187590000Y-93699605D01*
X185894584Y-95395022D01*
X174597000Y-95395022D01*
X174597000Y-93017012D01*
X184950881Y-93017012D01*
X184959287Y-94065247D01*
X185344257Y-94994647D01*
X185714978Y-95215416D01*
X187410395Y-93520000D01*
X187769605Y-93520000D01*
X189465022Y-95215416D01*
X189835743Y-94994647D01*
X190229119Y-94022988D01*
X190228940Y-94000642D01*
X190242579Y-94000642D01*
X190611290Y-94892989D01*
X191293420Y-95576311D01*
X192185122Y-95946578D01*
X193150642Y-95947421D01*
X194042989Y-95578710D01*
X194726311Y-94896580D01*
X194732156Y-94882502D01*
X206473263Y-94882502D01*
X206689975Y-95406986D01*
X207090903Y-95808615D01*
X207615009Y-96026242D01*
X208182502Y-96026737D01*
X208706986Y-95810025D01*
X208764949Y-95752163D01*
X214547443Y-95752163D01*
X214646042Y-96018965D01*
X215255582Y-96245401D01*
X215905377Y-96221341D01*
X216393958Y-96018965D01*
X216492557Y-95752163D01*
X215520000Y-94779605D01*
X214547443Y-95752163D01*
X208764949Y-95752163D01*
X209108615Y-95409097D01*
X209326242Y-94884991D01*
X209326721Y-94335582D01*
X213874599Y-94335582D01*
X213898659Y-94985377D01*
X214101035Y-95473958D01*
X214367837Y-95572557D01*
X215340395Y-94600000D01*
X215699605Y-94600000D01*
X216672163Y-95572557D01*
X216938965Y-95473958D01*
X217165401Y-94864418D01*
X217141341Y-94214623D01*
X217113640Y-94147745D01*
X218071861Y-94147745D01*
X218145995Y-94393864D01*
X218683223Y-94586965D01*
X219253454Y-94559778D01*
X219654005Y-94393864D01*
X219728139Y-94147745D01*
X218900000Y-93319605D01*
X218071861Y-94147745D01*
X217113640Y-94147745D01*
X216938965Y-93726042D01*
X216672163Y-93627443D01*
X215699605Y-94600000D01*
X215340395Y-94600000D01*
X214367837Y-93627443D01*
X214101035Y-93726042D01*
X213874599Y-94335582D01*
X209326721Y-94335582D01*
X209326737Y-94317498D01*
X209110025Y-93793014D01*
X208765451Y-93447837D01*
X214547443Y-93447837D01*
X215520000Y-94420395D01*
X216492557Y-93447837D01*
X216393958Y-93181035D01*
X215784418Y-92954599D01*
X215134623Y-92978659D01*
X214646042Y-93181035D01*
X214547443Y-93447837D01*
X208765451Y-93447837D01*
X208709097Y-93391385D01*
X208184991Y-93173758D01*
X207617498Y-93173263D01*
X207093014Y-93389975D01*
X206691385Y-93790903D01*
X206473758Y-94315009D01*
X206473263Y-94882502D01*
X194732156Y-94882502D01*
X195096578Y-94004878D01*
X195097421Y-93039358D01*
X195049435Y-92923223D01*
X217453035Y-92923223D01*
X217480222Y-93493454D01*
X217646136Y-93894005D01*
X217892255Y-93968139D01*
X218720395Y-93140000D01*
X219079605Y-93140000D01*
X219907745Y-93968139D01*
X220153864Y-93894005D01*
X220346965Y-93356777D01*
X220319778Y-92786546D01*
X220153864Y-92385995D01*
X219907745Y-92311861D01*
X219079605Y-93140000D01*
X218720395Y-93140000D01*
X217892255Y-92311861D01*
X217646136Y-92385995D01*
X217453035Y-92923223D01*
X195049435Y-92923223D01*
X194728710Y-92147011D01*
X194046580Y-91463689D01*
X193834123Y-91375469D01*
X196170794Y-91375469D01*
X196351427Y-91812635D01*
X196685606Y-92147397D01*
X197122456Y-92328793D01*
X197595469Y-92329206D01*
X198032635Y-92148573D01*
X198367397Y-91814394D01*
X198548793Y-91377544D01*
X198548794Y-91375469D01*
X203790794Y-91375469D01*
X203971427Y-91812635D01*
X204305606Y-92147397D01*
X204742456Y-92328793D01*
X205215469Y-92329206D01*
X205245010Y-92317000D01*
X209860000Y-92317000D01*
X210310419Y-92227406D01*
X210692265Y-91972265D01*
X211821534Y-90842995D01*
X217672788Y-90842995D01*
X217859194Y-91294131D01*
X218204053Y-91639593D01*
X218472296Y-91750977D01*
X218145995Y-91886136D01*
X218071861Y-92132255D01*
X218900000Y-92960395D01*
X219728139Y-92132255D01*
X219654005Y-91886136D01*
X219304460Y-91760496D01*
X219594131Y-91640806D01*
X219939593Y-91295947D01*
X220126786Y-90845136D01*
X220127050Y-90542502D01*
X220975803Y-90542502D01*
X221192515Y-91066986D01*
X221593443Y-91468615D01*
X222117549Y-91686242D01*
X222685042Y-91686737D01*
X223209526Y-91470025D01*
X223229586Y-91450000D01*
X231314635Y-91450000D01*
X231314635Y-92750000D01*
X231344409Y-92908237D01*
X231437927Y-93053567D01*
X231580619Y-93151064D01*
X231750000Y-93185365D01*
X233050000Y-93185365D01*
X233208237Y-93155591D01*
X233353567Y-93062073D01*
X233451064Y-92919381D01*
X233485365Y-92750000D01*
X233485365Y-91450000D01*
X233455591Y-91291763D01*
X233362073Y-91146433D01*
X233219381Y-91048936D01*
X233050000Y-91014635D01*
X231750000Y-91014635D01*
X231591763Y-91044409D01*
X231446433Y-91137927D01*
X231348936Y-91280619D01*
X231314635Y-91450000D01*
X223229586Y-91450000D01*
X223611155Y-91069097D01*
X223828782Y-90544991D01*
X223829277Y-89977498D01*
X223612565Y-89453014D01*
X223211637Y-89051385D01*
X222687531Y-88833758D01*
X222120038Y-88833263D01*
X221595554Y-89049975D01*
X221193925Y-89450903D01*
X220976298Y-89975009D01*
X220975803Y-90542502D01*
X220127050Y-90542502D01*
X220127212Y-90357005D01*
X219940806Y-89905869D01*
X219595947Y-89560407D01*
X219145136Y-89373214D01*
X218657005Y-89372788D01*
X218205869Y-89559194D01*
X217860407Y-89904053D01*
X217673214Y-90354864D01*
X217672788Y-90842995D01*
X211821534Y-90842995D01*
X212732262Y-89932267D01*
X212732265Y-89932265D01*
X212987406Y-89550418D01*
X213015517Y-89409097D01*
X213077001Y-89100000D01*
X213077000Y-89099995D01*
X213077000Y-88882502D01*
X214093263Y-88882502D01*
X214309975Y-89406986D01*
X214710903Y-89808615D01*
X215235009Y-90026242D01*
X215802502Y-90026737D01*
X216326986Y-89810025D01*
X216728615Y-89409097D01*
X216946242Y-88884991D01*
X216946737Y-88317498D01*
X216940745Y-88302995D01*
X217672788Y-88302995D01*
X217859194Y-88754131D01*
X218204053Y-89099593D01*
X218654864Y-89286786D01*
X219142995Y-89287212D01*
X219594131Y-89100806D01*
X219939593Y-88755947D01*
X220126786Y-88305136D01*
X220127212Y-87817005D01*
X219940806Y-87365869D01*
X219595947Y-87020407D01*
X219145136Y-86833214D01*
X218657005Y-86832788D01*
X218205869Y-87019194D01*
X217860407Y-87364053D01*
X217673214Y-87814864D01*
X217672788Y-88302995D01*
X216940745Y-88302995D01*
X216730025Y-87793014D01*
X216329097Y-87391385D01*
X215804991Y-87173758D01*
X215237498Y-87173263D01*
X214713014Y-87389975D01*
X214311385Y-87790903D01*
X214093758Y-88315009D01*
X214093263Y-88882502D01*
X213077000Y-88882502D01*
X213077000Y-84417063D01*
X228197705Y-84417063D01*
X228456273Y-85042846D01*
X228934636Y-85522044D01*
X229559966Y-85781704D01*
X230237063Y-85782295D01*
X230862846Y-85523727D01*
X231342044Y-85045364D01*
X231601704Y-84420034D01*
X231602069Y-84001426D01*
X236372649Y-84001426D01*
X236680591Y-84746703D01*
X237250298Y-85317405D01*
X237995036Y-85626647D01*
X238801426Y-85627351D01*
X239546703Y-85319409D01*
X240117405Y-84749702D01*
X240426647Y-84004964D01*
X240427351Y-83198574D01*
X240119409Y-82453297D01*
X239549702Y-81882595D01*
X238804964Y-81573353D01*
X237998574Y-81572649D01*
X237253297Y-81880591D01*
X236682595Y-82450298D01*
X236373353Y-83195036D01*
X236372649Y-84001426D01*
X231602069Y-84001426D01*
X231602295Y-83742937D01*
X231343727Y-83117154D01*
X230865364Y-82637956D01*
X230240034Y-82378296D01*
X229562937Y-82377705D01*
X228937154Y-82636273D01*
X228457956Y-83114636D01*
X228198296Y-83739966D01*
X228197705Y-84417063D01*
X213077000Y-84417063D01*
X213077000Y-83587530D01*
X215387529Y-81277000D01*
X221009861Y-81277000D01*
X221090977Y-81403057D01*
X221233669Y-81500554D01*
X221403050Y-81534855D01*
X223402030Y-81534855D01*
X223560267Y-81505081D01*
X223705597Y-81411563D01*
X223803094Y-81268871D01*
X223837395Y-81099490D01*
X223837395Y-79100510D01*
X223807621Y-78942273D01*
X223745028Y-78845000D01*
X228189635Y-78845000D01*
X228189635Y-81395000D01*
X228219409Y-81553237D01*
X228312927Y-81698567D01*
X228455619Y-81796064D01*
X228625000Y-81830365D01*
X231175000Y-81830365D01*
X231333237Y-81800591D01*
X231478567Y-81707073D01*
X231576064Y-81564381D01*
X231610365Y-81395000D01*
X231610365Y-78845000D01*
X231580591Y-78686763D01*
X231487073Y-78541433D01*
X231344381Y-78443936D01*
X231175000Y-78409635D01*
X228625000Y-78409635D01*
X228466763Y-78439409D01*
X228321433Y-78532927D01*
X228223936Y-78675619D01*
X228189635Y-78845000D01*
X223745028Y-78845000D01*
X223714103Y-78796943D01*
X223571411Y-78699446D01*
X223402030Y-78665145D01*
X221403050Y-78665145D01*
X221244813Y-78694919D01*
X221099483Y-78788437D01*
X221007540Y-78923000D01*
X214900005Y-78923000D01*
X214900000Y-78922999D01*
X214449582Y-79012594D01*
X214067735Y-79267735D01*
X214067733Y-79267738D01*
X211067735Y-82267735D01*
X210812594Y-82649581D01*
X210775645Y-82835336D01*
X210723000Y-83100000D01*
X210723000Y-88612471D01*
X209372470Y-89963000D01*
X208336758Y-89963000D01*
X208706986Y-89810025D01*
X209108615Y-89409097D01*
X209326242Y-88884991D01*
X209326737Y-88317498D01*
X209110025Y-87793014D01*
X208709097Y-87391385D01*
X208184991Y-87173758D01*
X207617498Y-87173263D01*
X207093014Y-87389975D01*
X206691385Y-87790903D01*
X206473758Y-88315009D01*
X206473263Y-88882502D01*
X206689975Y-89406986D01*
X207090903Y-89808615D01*
X207462705Y-89963000D01*
X205245945Y-89963000D01*
X205217544Y-89951207D01*
X204744531Y-89950794D01*
X204307365Y-90131427D01*
X203972603Y-90465606D01*
X203791207Y-90902456D01*
X203790794Y-91375469D01*
X198548794Y-91375469D01*
X198549206Y-90904531D01*
X198368573Y-90467365D01*
X198034394Y-90132603D01*
X197597544Y-89951207D01*
X197124531Y-89950794D01*
X196687365Y-90131427D01*
X196352603Y-90465606D01*
X196171207Y-90902456D01*
X196170794Y-91375469D01*
X193834123Y-91375469D01*
X193154878Y-91093422D01*
X192189358Y-91092579D01*
X191297011Y-91461290D01*
X190613689Y-92143420D01*
X190243422Y-93035122D01*
X190242579Y-94000642D01*
X190228940Y-94000642D01*
X190220713Y-92974753D01*
X189835743Y-92045353D01*
X189465022Y-91824584D01*
X187769605Y-93520000D01*
X187410395Y-93520000D01*
X185714978Y-91824584D01*
X185344257Y-92045353D01*
X184950881Y-93017012D01*
X174597000Y-93017012D01*
X174597000Y-86640000D01*
X176084116Y-86640000D01*
X176182357Y-87133891D01*
X176462124Y-87552592D01*
X176880825Y-87832359D01*
X177271153Y-87910000D01*
X176880825Y-87987641D01*
X176462124Y-88267408D01*
X176182357Y-88686109D01*
X176084116Y-89180000D01*
X176182357Y-89673891D01*
X176462124Y-90092592D01*
X176880825Y-90372359D01*
X177271153Y-90450000D01*
X176880825Y-90527641D01*
X176462124Y-90807408D01*
X176182357Y-91226109D01*
X176084116Y-91720000D01*
X176182357Y-92213891D01*
X176462124Y-92632592D01*
X176880825Y-92912359D01*
X177374716Y-93010600D01*
X177425284Y-93010600D01*
X177919175Y-92912359D01*
X178337876Y-92632592D01*
X178617643Y-92213891D01*
X178670000Y-91950675D01*
X178722357Y-92213891D01*
X179002124Y-92632592D01*
X179420825Y-92912359D01*
X179914716Y-93010600D01*
X179965284Y-93010600D01*
X180459175Y-92912359D01*
X180877876Y-92632592D01*
X181157643Y-92213891D01*
X181255884Y-91720000D01*
X181240962Y-91644978D01*
X185894584Y-91644978D01*
X187590000Y-93340395D01*
X189285416Y-91644978D01*
X189064647Y-91274257D01*
X188092988Y-90880881D01*
X187044753Y-90889287D01*
X186115353Y-91274257D01*
X185894584Y-91644978D01*
X181240962Y-91644978D01*
X181157643Y-91226109D01*
X180877876Y-90807408D01*
X180459175Y-90527641D01*
X180068847Y-90450000D01*
X180459175Y-90372359D01*
X180877876Y-90092592D01*
X181157643Y-89673891D01*
X181255884Y-89180000D01*
X181157643Y-88686109D01*
X180877876Y-88267408D01*
X180459175Y-87987641D01*
X180068847Y-87910000D01*
X180459175Y-87832359D01*
X180877876Y-87552592D01*
X181157643Y-87133891D01*
X181255884Y-86640000D01*
X181157643Y-86146109D01*
X181153562Y-86140000D01*
X183084116Y-86140000D01*
X183182357Y-86633891D01*
X183462124Y-87052592D01*
X183880825Y-87332359D01*
X184271153Y-87410000D01*
X183880825Y-87487641D01*
X183462124Y-87767408D01*
X183182357Y-88186109D01*
X183084116Y-88680000D01*
X183182357Y-89173891D01*
X183462124Y-89592592D01*
X183880825Y-89872359D01*
X184374716Y-89970600D01*
X184425284Y-89970600D01*
X184919175Y-89872359D01*
X185337876Y-89592592D01*
X185617643Y-89173891D01*
X185670000Y-88910675D01*
X185722357Y-89173891D01*
X186002124Y-89592592D01*
X186420825Y-89872359D01*
X186914716Y-89970600D01*
X186965284Y-89970600D01*
X187459175Y-89872359D01*
X187877876Y-89592592D01*
X187910360Y-89543975D01*
X188572874Y-89543975D01*
X188683320Y-89811275D01*
X188887650Y-90015961D01*
X189154756Y-90126874D01*
X189443975Y-90127126D01*
X189711275Y-90016680D01*
X189915961Y-89812350D01*
X190026874Y-89545244D01*
X190027126Y-89256025D01*
X189916680Y-88988725D01*
X189903200Y-88975222D01*
X189903200Y-88508432D01*
X189977670Y-88433962D01*
X189928730Y-88680000D01*
X190026971Y-89173891D01*
X190306738Y-89592592D01*
X190725439Y-89872359D01*
X191219330Y-89970600D01*
X191580670Y-89970600D01*
X192074561Y-89872359D01*
X192493262Y-89592592D01*
X192773029Y-89173891D01*
X192840345Y-88835469D01*
X196170794Y-88835469D01*
X196351427Y-89272635D01*
X196685606Y-89607397D01*
X197122456Y-89788793D01*
X197595469Y-89789206D01*
X198032635Y-89608573D01*
X198367397Y-89274394D01*
X198548793Y-88837544D01*
X198548794Y-88835469D01*
X203790794Y-88835469D01*
X203971427Y-89272635D01*
X204305606Y-89607397D01*
X204742456Y-89788793D01*
X205215469Y-89789206D01*
X205652635Y-89608573D01*
X205987397Y-89274394D01*
X206168793Y-88837544D01*
X206169206Y-88364531D01*
X205988573Y-87927365D01*
X205654394Y-87592603D01*
X205217544Y-87411207D01*
X204744531Y-87410794D01*
X204307365Y-87591427D01*
X203972603Y-87925606D01*
X203791207Y-88362456D01*
X203790794Y-88835469D01*
X198548794Y-88835469D01*
X198549206Y-88364531D01*
X198368573Y-87927365D01*
X198034394Y-87592603D01*
X197597544Y-87411207D01*
X197124531Y-87410794D01*
X196687365Y-87591427D01*
X196352603Y-87925606D01*
X196171207Y-88362456D01*
X196170794Y-88835469D01*
X192840345Y-88835469D01*
X192871270Y-88680000D01*
X192773029Y-88186109D01*
X192583995Y-87903200D01*
X195100000Y-87903200D01*
X195292566Y-87864896D01*
X195455816Y-87755816D01*
X196811442Y-86400190D01*
X197115009Y-86526242D01*
X197682502Y-86526737D01*
X198206986Y-86310025D01*
X198608615Y-85909097D01*
X198826242Y-85384991D01*
X198826244Y-85382502D01*
X203593263Y-85382502D01*
X203809975Y-85906986D01*
X204210903Y-86308615D01*
X204735009Y-86526242D01*
X205302502Y-86526737D01*
X205826986Y-86310025D01*
X206228615Y-85909097D01*
X206446242Y-85384991D01*
X206446737Y-84817498D01*
X206230025Y-84293014D01*
X205829097Y-83891385D01*
X205304991Y-83673758D01*
X204737498Y-83673263D01*
X204213014Y-83889975D01*
X203811385Y-84290903D01*
X203593758Y-84815009D01*
X203593263Y-85382502D01*
X198826244Y-85382502D01*
X198826737Y-84817498D01*
X198610025Y-84293014D01*
X198209097Y-83891385D01*
X197684991Y-83673758D01*
X197117498Y-83673263D01*
X196593014Y-83889975D01*
X196191385Y-84290903D01*
X195973758Y-84815009D01*
X195973263Y-85382502D01*
X196099748Y-85688620D01*
X194891568Y-86896800D01*
X192597359Y-86896800D01*
X192773029Y-86633891D01*
X192871270Y-86140000D01*
X192773029Y-85646109D01*
X192493262Y-85227408D01*
X192074561Y-84947641D01*
X191829850Y-84898965D01*
X192416000Y-84898965D01*
X192574237Y-84869191D01*
X192719567Y-84775673D01*
X192817064Y-84632981D01*
X192851365Y-84463600D01*
X192851365Y-82736400D01*
X192821591Y-82578163D01*
X192728073Y-82432833D01*
X192585381Y-82335336D01*
X192416000Y-82301035D01*
X190384000Y-82301035D01*
X190225763Y-82330809D01*
X190080433Y-82424327D01*
X189982936Y-82567019D01*
X189948635Y-82736400D01*
X189948635Y-84463600D01*
X189978409Y-84621837D01*
X190071927Y-84767167D01*
X190214619Y-84864664D01*
X190384000Y-84898965D01*
X190970150Y-84898965D01*
X190725439Y-84947641D01*
X190306738Y-85227408D01*
X190026971Y-85646109D01*
X189928730Y-86140000D01*
X190026971Y-86633891D01*
X190214063Y-86913894D01*
X190107433Y-86935104D01*
X189944184Y-87044184D01*
X189044184Y-87944184D01*
X188935104Y-88107434D01*
X188896800Y-88300000D01*
X188896800Y-88779983D01*
X188888725Y-88783320D01*
X188684039Y-88987650D01*
X188573126Y-89254756D01*
X188572874Y-89543975D01*
X187910360Y-89543975D01*
X188157643Y-89173891D01*
X188255884Y-88680000D01*
X188157643Y-88186109D01*
X187877876Y-87767408D01*
X187459175Y-87487641D01*
X187068847Y-87410000D01*
X187459175Y-87332359D01*
X187877876Y-87052592D01*
X188157643Y-86633891D01*
X188255884Y-86140000D01*
X188157643Y-85646109D01*
X187877876Y-85227408D01*
X187459175Y-84947641D01*
X187068847Y-84870000D01*
X187459175Y-84792359D01*
X187877876Y-84512592D01*
X188157643Y-84093891D01*
X188255884Y-83600000D01*
X188157643Y-83106109D01*
X187877876Y-82687408D01*
X187459175Y-82407641D01*
X186965284Y-82309400D01*
X186914716Y-82309400D01*
X186420825Y-82407641D01*
X186002124Y-82687408D01*
X185722357Y-83106109D01*
X185698965Y-83223709D01*
X185698965Y-82736400D01*
X185669191Y-82578163D01*
X185575673Y-82432833D01*
X185432981Y-82335336D01*
X185263600Y-82301035D01*
X183536400Y-82301035D01*
X183378163Y-82330809D01*
X183232833Y-82424327D01*
X183135336Y-82567019D01*
X183101035Y-82736400D01*
X183101035Y-84463600D01*
X183130809Y-84621837D01*
X183224327Y-84767167D01*
X183367019Y-84864664D01*
X183536400Y-84898965D01*
X184125536Y-84898965D01*
X183880825Y-84947641D01*
X183462124Y-85227408D01*
X183182357Y-85646109D01*
X183084116Y-86140000D01*
X181153562Y-86140000D01*
X180877876Y-85727408D01*
X180459175Y-85447641D01*
X180068847Y-85370000D01*
X180459175Y-85292359D01*
X180877876Y-85012592D01*
X181157643Y-84593891D01*
X181255884Y-84100000D01*
X181157643Y-83606109D01*
X180877876Y-83187408D01*
X180459175Y-82907641D01*
X179965284Y-82809400D01*
X179914716Y-82809400D01*
X179420825Y-82907641D01*
X179002124Y-83187408D01*
X178722357Y-83606109D01*
X178698965Y-83723709D01*
X178698965Y-83236400D01*
X178669191Y-83078163D01*
X178575673Y-82932833D01*
X178432981Y-82835336D01*
X178263600Y-82801035D01*
X176536400Y-82801035D01*
X176378163Y-82830809D01*
X176232833Y-82924327D01*
X176135336Y-83067019D01*
X176101035Y-83236400D01*
X176101035Y-84963600D01*
X176130809Y-85121837D01*
X176224327Y-85267167D01*
X176367019Y-85364664D01*
X176536400Y-85398965D01*
X177125536Y-85398965D01*
X176880825Y-85447641D01*
X176462124Y-85727408D01*
X176182357Y-86146109D01*
X176084116Y-86640000D01*
X174597000Y-86640000D01*
X174597000Y-79501426D01*
X175372649Y-79501426D01*
X175680591Y-80246703D01*
X176250298Y-80817405D01*
X176995036Y-81126647D01*
X177801426Y-81127351D01*
X178546703Y-80819409D01*
X179117405Y-80249702D01*
X179426647Y-79504964D01*
X179427351Y-78698574D01*
X179119409Y-77953297D01*
X178549702Y-77382595D01*
X177804964Y-77073353D01*
X176998574Y-77072649D01*
X176253297Y-77380591D01*
X175682595Y-77950298D01*
X175373353Y-78695036D01*
X175372649Y-79501426D01*
X174597000Y-79501426D01*
X174597000Y-76297000D01*
X235818400Y-76297000D01*
X241703000Y-82181600D01*
X241703000Y-82181600D01*
G37*
X241703000Y-82181600D02*
X241703000Y-100018400D01*
X235818400Y-105903000D01*
X233400000Y-105903000D01*
X233324611Y-105917996D01*
X233260700Y-105960700D01*
X206818400Y-132403000D01*
X193475965Y-132403000D01*
X194042989Y-132168710D01*
X194726311Y-131486580D01*
X195096578Y-130594878D01*
X195097421Y-129629358D01*
X194728710Y-128737011D01*
X194046580Y-128053689D01*
X193154878Y-127683422D01*
X192189358Y-127682579D01*
X191297011Y-128051290D01*
X190613689Y-128733420D01*
X190243422Y-129625122D01*
X190242579Y-130590642D01*
X190611290Y-131482989D01*
X191293420Y-132166311D01*
X191863430Y-132403000D01*
X188395965Y-132403000D01*
X188962989Y-132168710D01*
X189646311Y-131486580D01*
X190016578Y-130594878D01*
X190017421Y-129629358D01*
X189648710Y-128737011D01*
X188966580Y-128053689D01*
X188074878Y-127683422D01*
X187109358Y-127682579D01*
X186217011Y-128051290D01*
X185533689Y-128733420D01*
X185163422Y-129625122D01*
X185162579Y-130590642D01*
X185531290Y-131482989D01*
X186213420Y-132166311D01*
X186783430Y-132403000D01*
X174597000Y-132403000D01*
X174597000Y-130001426D01*
X176372649Y-130001426D01*
X176680591Y-130746703D01*
X177250298Y-131317405D01*
X177995036Y-131626647D01*
X178801426Y-131627351D01*
X179546703Y-131319409D01*
X180117405Y-130749702D01*
X180426647Y-130004964D01*
X180427351Y-129198574D01*
X180119409Y-128453297D01*
X179549702Y-127882595D01*
X178804964Y-127573353D01*
X177998574Y-127572649D01*
X177253297Y-127880591D01*
X176682595Y-128450298D01*
X176373353Y-129195036D01*
X176372649Y-130001426D01*
X174597000Y-130001426D01*
X174597000Y-124001426D01*
X176372649Y-124001426D01*
X176680591Y-124746703D01*
X177250298Y-125317405D01*
X177995036Y-125626647D01*
X178801426Y-125627351D01*
X179546703Y-125319409D01*
X180117405Y-124749702D01*
X180426647Y-124004964D01*
X180426650Y-124001426D01*
X200372649Y-124001426D01*
X200680591Y-124746703D01*
X201250298Y-125317405D01*
X201995036Y-125626647D01*
X202801426Y-125627351D01*
X203546703Y-125319409D01*
X204117405Y-124749702D01*
X204426647Y-124004964D01*
X204427351Y-123198574D01*
X204119409Y-122453297D01*
X203549702Y-121882595D01*
X202804964Y-121573353D01*
X201998574Y-121572649D01*
X201253297Y-121880591D01*
X200682595Y-122450298D01*
X200373353Y-123195036D01*
X200372649Y-124001426D01*
X180426650Y-124001426D01*
X180427351Y-123198574D01*
X180119409Y-122453297D01*
X179549702Y-121882595D01*
X178804964Y-121573353D01*
X177998574Y-121572649D01*
X177253297Y-121880591D01*
X176682595Y-122450298D01*
X176373353Y-123195036D01*
X176372649Y-124001426D01*
X174597000Y-124001426D01*
X174597000Y-109305000D01*
X209189635Y-109305000D01*
X209189635Y-111855000D01*
X209219409Y-112013237D01*
X209312927Y-112158567D01*
X209455619Y-112256064D01*
X209625000Y-112290365D01*
X212175000Y-112290365D01*
X212333237Y-112260591D01*
X212478567Y-112167073D01*
X212576064Y-112024381D01*
X212610365Y-111855000D01*
X212610365Y-109305000D01*
X219689635Y-109305000D01*
X219689635Y-111855000D01*
X219719409Y-112013237D01*
X219812927Y-112158567D01*
X219955619Y-112256064D01*
X220125000Y-112290365D01*
X222675000Y-112290365D01*
X222833237Y-112260591D01*
X222978567Y-112167073D01*
X223076064Y-112024381D01*
X223110365Y-111855000D01*
X223110365Y-109305000D01*
X223080591Y-109146763D01*
X222987073Y-109001433D01*
X222844381Y-108903936D01*
X222675000Y-108869635D01*
X220125000Y-108869635D01*
X219966763Y-108899409D01*
X219821433Y-108992927D01*
X219723936Y-109135619D01*
X219689635Y-109305000D01*
X212610365Y-109305000D01*
X212580591Y-109146763D01*
X212487073Y-109001433D01*
X212344381Y-108903936D01*
X212175000Y-108869635D01*
X209625000Y-108869635D01*
X209466763Y-108899409D01*
X209321433Y-108992927D01*
X209223936Y-109135619D01*
X209189635Y-109305000D01*
X174597000Y-109305000D01*
X174597000Y-106957063D01*
X209197705Y-106957063D01*
X209456273Y-107582846D01*
X209934636Y-108062044D01*
X210559966Y-108321704D01*
X211237063Y-108322295D01*
X211862846Y-108063727D01*
X212342044Y-107585364D01*
X212601704Y-106960034D01*
X212601706Y-106957063D01*
X219697705Y-106957063D01*
X219956273Y-107582846D01*
X220434636Y-108062044D01*
X221059966Y-108321704D01*
X221737063Y-108322295D01*
X222362846Y-108063727D01*
X222842044Y-107585364D01*
X223101704Y-106960034D01*
X223102295Y-106282937D01*
X222843727Y-105657154D01*
X222365364Y-105177956D01*
X221740034Y-104918296D01*
X221062937Y-104917705D01*
X220437154Y-105176273D01*
X219957956Y-105654636D01*
X219698296Y-106279966D01*
X219697705Y-106957063D01*
X212601706Y-106957063D01*
X212602295Y-106282937D01*
X212343727Y-105657154D01*
X211865364Y-105177956D01*
X211240034Y-104918296D01*
X210562937Y-104917705D01*
X209937154Y-105176273D01*
X209457956Y-105654636D01*
X209198296Y-106279966D01*
X209197705Y-106957063D01*
X174597000Y-106957063D01*
X174597000Y-100001426D01*
X176372649Y-100001426D01*
X176680591Y-100746703D01*
X177250298Y-101317405D01*
X177995036Y-101626647D01*
X178801426Y-101627351D01*
X179546703Y-101319409D01*
X180117405Y-100749702D01*
X180426647Y-100004964D01*
X180426650Y-100001426D01*
X200372649Y-100001426D01*
X200680591Y-100746703D01*
X201250298Y-101317405D01*
X201995036Y-101626647D01*
X202801426Y-101627351D01*
X203546703Y-101319409D01*
X204117405Y-100749702D01*
X204221498Y-100499016D01*
X231680590Y-100499016D01*
X231736271Y-100729611D01*
X232219078Y-100897622D01*
X232729428Y-100868083D01*
X233063729Y-100729611D01*
X233119410Y-100499016D01*
X232400000Y-99779605D01*
X231680590Y-100499016D01*
X204221498Y-100499016D01*
X204426647Y-100004964D01*
X204427158Y-99419078D01*
X231102378Y-99419078D01*
X231131917Y-99929428D01*
X231270389Y-100263729D01*
X231500984Y-100319410D01*
X232220395Y-99600000D01*
X232579605Y-99600000D01*
X233299016Y-100319410D01*
X233529611Y-100263729D01*
X233697622Y-99780922D01*
X233668083Y-99270572D01*
X233529611Y-98936271D01*
X233299016Y-98880590D01*
X232579605Y-99600000D01*
X232220395Y-99600000D01*
X231500984Y-98880590D01*
X231270389Y-98936271D01*
X231102378Y-99419078D01*
X204427158Y-99419078D01*
X204427351Y-99198574D01*
X204221752Y-98700984D01*
X231680590Y-98700984D01*
X232400000Y-99420395D01*
X233119410Y-98700984D01*
X233063729Y-98470389D01*
X232580922Y-98302378D01*
X232070572Y-98331917D01*
X231736271Y-98470389D01*
X231680590Y-98700984D01*
X204221752Y-98700984D01*
X204119409Y-98453297D01*
X203549702Y-97882595D01*
X202804964Y-97573353D01*
X201998574Y-97572649D01*
X201253297Y-97880591D01*
X200682595Y-98450298D01*
X200373353Y-99195036D01*
X200372649Y-100001426D01*
X180426650Y-100001426D01*
X180427351Y-99198574D01*
X180119409Y-98453297D01*
X179549702Y-97882595D01*
X178804964Y-97573353D01*
X177998574Y-97572649D01*
X177253297Y-97880591D01*
X176682595Y-98450298D01*
X176373353Y-99195036D01*
X176372649Y-100001426D01*
X174597000Y-100001426D01*
X174597000Y-95395022D01*
X185894584Y-95395022D01*
X186115353Y-95765743D01*
X187087012Y-96159119D01*
X188135247Y-96150713D01*
X189064647Y-95765743D01*
X189285416Y-95395022D01*
X187590000Y-93699605D01*
X185894584Y-95395022D01*
X174597000Y-95395022D01*
X174597000Y-93017012D01*
X184950881Y-93017012D01*
X184959287Y-94065247D01*
X185344257Y-94994647D01*
X185714978Y-95215416D01*
X187410395Y-93520000D01*
X187769605Y-93520000D01*
X189465022Y-95215416D01*
X189835743Y-94994647D01*
X190229119Y-94022988D01*
X190228940Y-94000642D01*
X190242579Y-94000642D01*
X190611290Y-94892989D01*
X191293420Y-95576311D01*
X192185122Y-95946578D01*
X193150642Y-95947421D01*
X194042989Y-95578710D01*
X194726311Y-94896580D01*
X194732156Y-94882502D01*
X206473263Y-94882502D01*
X206689975Y-95406986D01*
X207090903Y-95808615D01*
X207615009Y-96026242D01*
X208182502Y-96026737D01*
X208706986Y-95810025D01*
X208764949Y-95752163D01*
X214547443Y-95752163D01*
X214646042Y-96018965D01*
X215255582Y-96245401D01*
X215905377Y-96221341D01*
X216393958Y-96018965D01*
X216492557Y-95752163D01*
X215520000Y-94779605D01*
X214547443Y-95752163D01*
X208764949Y-95752163D01*
X209108615Y-95409097D01*
X209326242Y-94884991D01*
X209326721Y-94335582D01*
X213874599Y-94335582D01*
X213898659Y-94985377D01*
X214101035Y-95473958D01*
X214367837Y-95572557D01*
X215340395Y-94600000D01*
X215699605Y-94600000D01*
X216672163Y-95572557D01*
X216938965Y-95473958D01*
X217165401Y-94864418D01*
X217141341Y-94214623D01*
X217113640Y-94147745D01*
X218071861Y-94147745D01*
X218145995Y-94393864D01*
X218683223Y-94586965D01*
X219253454Y-94559778D01*
X219654005Y-94393864D01*
X219728139Y-94147745D01*
X218900000Y-93319605D01*
X218071861Y-94147745D01*
X217113640Y-94147745D01*
X216938965Y-93726042D01*
X216672163Y-93627443D01*
X215699605Y-94600000D01*
X215340395Y-94600000D01*
X214367837Y-93627443D01*
X214101035Y-93726042D01*
X213874599Y-94335582D01*
X209326721Y-94335582D01*
X209326737Y-94317498D01*
X209110025Y-93793014D01*
X208765451Y-93447837D01*
X214547443Y-93447837D01*
X215520000Y-94420395D01*
X216492557Y-93447837D01*
X216393958Y-93181035D01*
X215784418Y-92954599D01*
X215134623Y-92978659D01*
X214646042Y-93181035D01*
X214547443Y-93447837D01*
X208765451Y-93447837D01*
X208709097Y-93391385D01*
X208184991Y-93173758D01*
X207617498Y-93173263D01*
X207093014Y-93389975D01*
X206691385Y-93790903D01*
X206473758Y-94315009D01*
X206473263Y-94882502D01*
X194732156Y-94882502D01*
X195096578Y-94004878D01*
X195097421Y-93039358D01*
X195049435Y-92923223D01*
X217453035Y-92923223D01*
X217480222Y-93493454D01*
X217646136Y-93894005D01*
X217892255Y-93968139D01*
X218720395Y-93140000D01*
X219079605Y-93140000D01*
X219907745Y-93968139D01*
X220153864Y-93894005D01*
X220346965Y-93356777D01*
X220319778Y-92786546D01*
X220153864Y-92385995D01*
X219907745Y-92311861D01*
X219079605Y-93140000D01*
X218720395Y-93140000D01*
X217892255Y-92311861D01*
X217646136Y-92385995D01*
X217453035Y-92923223D01*
X195049435Y-92923223D01*
X194728710Y-92147011D01*
X194046580Y-91463689D01*
X193834123Y-91375469D01*
X196170794Y-91375469D01*
X196351427Y-91812635D01*
X196685606Y-92147397D01*
X197122456Y-92328793D01*
X197595469Y-92329206D01*
X198032635Y-92148573D01*
X198367397Y-91814394D01*
X198548793Y-91377544D01*
X198548794Y-91375469D01*
X203790794Y-91375469D01*
X203971427Y-91812635D01*
X204305606Y-92147397D01*
X204742456Y-92328793D01*
X205215469Y-92329206D01*
X205245010Y-92317000D01*
X209860000Y-92317000D01*
X210310419Y-92227406D01*
X210692265Y-91972265D01*
X211821534Y-90842995D01*
X217672788Y-90842995D01*
X217859194Y-91294131D01*
X218204053Y-91639593D01*
X218472296Y-91750977D01*
X218145995Y-91886136D01*
X218071861Y-92132255D01*
X218900000Y-92960395D01*
X219728139Y-92132255D01*
X219654005Y-91886136D01*
X219304460Y-91760496D01*
X219594131Y-91640806D01*
X219939593Y-91295947D01*
X220126786Y-90845136D01*
X220127050Y-90542502D01*
X220975803Y-90542502D01*
X221192515Y-91066986D01*
X221593443Y-91468615D01*
X222117549Y-91686242D01*
X222685042Y-91686737D01*
X223209526Y-91470025D01*
X223229586Y-91450000D01*
X231314635Y-91450000D01*
X231314635Y-92750000D01*
X231344409Y-92908237D01*
X231437927Y-93053567D01*
X231580619Y-93151064D01*
X231750000Y-93185365D01*
X233050000Y-93185365D01*
X233208237Y-93155591D01*
X233353567Y-93062073D01*
X233451064Y-92919381D01*
X233485365Y-92750000D01*
X233485365Y-91450000D01*
X233455591Y-91291763D01*
X233362073Y-91146433D01*
X233219381Y-91048936D01*
X233050000Y-91014635D01*
X231750000Y-91014635D01*
X231591763Y-91044409D01*
X231446433Y-91137927D01*
X231348936Y-91280619D01*
X231314635Y-91450000D01*
X223229586Y-91450000D01*
X223611155Y-91069097D01*
X223828782Y-90544991D01*
X223829277Y-89977498D01*
X223612565Y-89453014D01*
X223211637Y-89051385D01*
X222687531Y-88833758D01*
X222120038Y-88833263D01*
X221595554Y-89049975D01*
X221193925Y-89450903D01*
X220976298Y-89975009D01*
X220975803Y-90542502D01*
X220127050Y-90542502D01*
X220127212Y-90357005D01*
X219940806Y-89905869D01*
X219595947Y-89560407D01*
X219145136Y-89373214D01*
X218657005Y-89372788D01*
X218205869Y-89559194D01*
X217860407Y-89904053D01*
X217673214Y-90354864D01*
X217672788Y-90842995D01*
X211821534Y-90842995D01*
X212732262Y-89932267D01*
X212732265Y-89932265D01*
X212987406Y-89550418D01*
X213015517Y-89409097D01*
X213077001Y-89100000D01*
X213077000Y-89099995D01*
X213077000Y-88882502D01*
X214093263Y-88882502D01*
X214309975Y-89406986D01*
X214710903Y-89808615D01*
X215235009Y-90026242D01*
X215802502Y-90026737D01*
X216326986Y-89810025D01*
X216728615Y-89409097D01*
X216946242Y-88884991D01*
X216946737Y-88317498D01*
X216940745Y-88302995D01*
X217672788Y-88302995D01*
X217859194Y-88754131D01*
X218204053Y-89099593D01*
X218654864Y-89286786D01*
X219142995Y-89287212D01*
X219594131Y-89100806D01*
X219939593Y-88755947D01*
X220126786Y-88305136D01*
X220127212Y-87817005D01*
X219940806Y-87365869D01*
X219595947Y-87020407D01*
X219145136Y-86833214D01*
X218657005Y-86832788D01*
X218205869Y-87019194D01*
X217860407Y-87364053D01*
X217673214Y-87814864D01*
X217672788Y-88302995D01*
X216940745Y-88302995D01*
X216730025Y-87793014D01*
X216329097Y-87391385D01*
X215804991Y-87173758D01*
X215237498Y-87173263D01*
X214713014Y-87389975D01*
X214311385Y-87790903D01*
X214093758Y-88315009D01*
X214093263Y-88882502D01*
X213077000Y-88882502D01*
X213077000Y-84417063D01*
X228197705Y-84417063D01*
X228456273Y-85042846D01*
X228934636Y-85522044D01*
X229559966Y-85781704D01*
X230237063Y-85782295D01*
X230862846Y-85523727D01*
X231342044Y-85045364D01*
X231601704Y-84420034D01*
X231602069Y-84001426D01*
X236372649Y-84001426D01*
X236680591Y-84746703D01*
X237250298Y-85317405D01*
X237995036Y-85626647D01*
X238801426Y-85627351D01*
X239546703Y-85319409D01*
X240117405Y-84749702D01*
X240426647Y-84004964D01*
X240427351Y-83198574D01*
X240119409Y-82453297D01*
X239549702Y-81882595D01*
X238804964Y-81573353D01*
X237998574Y-81572649D01*
X237253297Y-81880591D01*
X236682595Y-82450298D01*
X236373353Y-83195036D01*
X236372649Y-84001426D01*
X231602069Y-84001426D01*
X231602295Y-83742937D01*
X231343727Y-83117154D01*
X230865364Y-82637956D01*
X230240034Y-82378296D01*
X229562937Y-82377705D01*
X228937154Y-82636273D01*
X228457956Y-83114636D01*
X228198296Y-83739966D01*
X228197705Y-84417063D01*
X213077000Y-84417063D01*
X213077000Y-83587530D01*
X215387529Y-81277000D01*
X221009861Y-81277000D01*
X221090977Y-81403057D01*
X221233669Y-81500554D01*
X221403050Y-81534855D01*
X223402030Y-81534855D01*
X223560267Y-81505081D01*
X223705597Y-81411563D01*
X223803094Y-81268871D01*
X223837395Y-81099490D01*
X223837395Y-79100510D01*
X223807621Y-78942273D01*
X223745028Y-78845000D01*
X228189635Y-78845000D01*
X228189635Y-81395000D01*
X228219409Y-81553237D01*
X228312927Y-81698567D01*
X228455619Y-81796064D01*
X228625000Y-81830365D01*
X231175000Y-81830365D01*
X231333237Y-81800591D01*
X231478567Y-81707073D01*
X231576064Y-81564381D01*
X231610365Y-81395000D01*
X231610365Y-78845000D01*
X231580591Y-78686763D01*
X231487073Y-78541433D01*
X231344381Y-78443936D01*
X231175000Y-78409635D01*
X228625000Y-78409635D01*
X228466763Y-78439409D01*
X228321433Y-78532927D01*
X228223936Y-78675619D01*
X228189635Y-78845000D01*
X223745028Y-78845000D01*
X223714103Y-78796943D01*
X223571411Y-78699446D01*
X223402030Y-78665145D01*
X221403050Y-78665145D01*
X221244813Y-78694919D01*
X221099483Y-78788437D01*
X221007540Y-78923000D01*
X214900005Y-78923000D01*
X214900000Y-78922999D01*
X214449582Y-79012594D01*
X214067735Y-79267735D01*
X214067733Y-79267738D01*
X211067735Y-82267735D01*
X210812594Y-82649581D01*
X210775645Y-82835336D01*
X210723000Y-83100000D01*
X210723000Y-88612471D01*
X209372470Y-89963000D01*
X208336758Y-89963000D01*
X208706986Y-89810025D01*
X209108615Y-89409097D01*
X209326242Y-88884991D01*
X209326737Y-88317498D01*
X209110025Y-87793014D01*
X208709097Y-87391385D01*
X208184991Y-87173758D01*
X207617498Y-87173263D01*
X207093014Y-87389975D01*
X206691385Y-87790903D01*
X206473758Y-88315009D01*
X206473263Y-88882502D01*
X206689975Y-89406986D01*
X207090903Y-89808615D01*
X207462705Y-89963000D01*
X205245945Y-89963000D01*
X205217544Y-89951207D01*
X204744531Y-89950794D01*
X204307365Y-90131427D01*
X203972603Y-90465606D01*
X203791207Y-90902456D01*
X203790794Y-91375469D01*
X198548794Y-91375469D01*
X198549206Y-90904531D01*
X198368573Y-90467365D01*
X198034394Y-90132603D01*
X197597544Y-89951207D01*
X197124531Y-89950794D01*
X196687365Y-90131427D01*
X196352603Y-90465606D01*
X196171207Y-90902456D01*
X196170794Y-91375469D01*
X193834123Y-91375469D01*
X193154878Y-91093422D01*
X192189358Y-91092579D01*
X191297011Y-91461290D01*
X190613689Y-92143420D01*
X190243422Y-93035122D01*
X190242579Y-94000642D01*
X190228940Y-94000642D01*
X190220713Y-92974753D01*
X189835743Y-92045353D01*
X189465022Y-91824584D01*
X187769605Y-93520000D01*
X187410395Y-93520000D01*
X185714978Y-91824584D01*
X185344257Y-92045353D01*
X184950881Y-93017012D01*
X174597000Y-93017012D01*
X174597000Y-86640000D01*
X176084116Y-86640000D01*
X176182357Y-87133891D01*
X176462124Y-87552592D01*
X176880825Y-87832359D01*
X177271153Y-87910000D01*
X176880825Y-87987641D01*
X176462124Y-88267408D01*
X176182357Y-88686109D01*
X176084116Y-89180000D01*
X176182357Y-89673891D01*
X176462124Y-90092592D01*
X176880825Y-90372359D01*
X177271153Y-90450000D01*
X176880825Y-90527641D01*
X176462124Y-90807408D01*
X176182357Y-91226109D01*
X176084116Y-91720000D01*
X176182357Y-92213891D01*
X176462124Y-92632592D01*
X176880825Y-92912359D01*
X177374716Y-93010600D01*
X177425284Y-93010600D01*
X177919175Y-92912359D01*
X178337876Y-92632592D01*
X178617643Y-92213891D01*
X178670000Y-91950675D01*
X178722357Y-92213891D01*
X179002124Y-92632592D01*
X179420825Y-92912359D01*
X179914716Y-93010600D01*
X179965284Y-93010600D01*
X180459175Y-92912359D01*
X180877876Y-92632592D01*
X181157643Y-92213891D01*
X181255884Y-91720000D01*
X181240962Y-91644978D01*
X185894584Y-91644978D01*
X187590000Y-93340395D01*
X189285416Y-91644978D01*
X189064647Y-91274257D01*
X188092988Y-90880881D01*
X187044753Y-90889287D01*
X186115353Y-91274257D01*
X185894584Y-91644978D01*
X181240962Y-91644978D01*
X181157643Y-91226109D01*
X180877876Y-90807408D01*
X180459175Y-90527641D01*
X180068847Y-90450000D01*
X180459175Y-90372359D01*
X180877876Y-90092592D01*
X181157643Y-89673891D01*
X181255884Y-89180000D01*
X181157643Y-88686109D01*
X180877876Y-88267408D01*
X180459175Y-87987641D01*
X180068847Y-87910000D01*
X180459175Y-87832359D01*
X180877876Y-87552592D01*
X181157643Y-87133891D01*
X181255884Y-86640000D01*
X181157643Y-86146109D01*
X181153562Y-86140000D01*
X183084116Y-86140000D01*
X183182357Y-86633891D01*
X183462124Y-87052592D01*
X183880825Y-87332359D01*
X184271153Y-87410000D01*
X183880825Y-87487641D01*
X183462124Y-87767408D01*
X183182357Y-88186109D01*
X183084116Y-88680000D01*
X183182357Y-89173891D01*
X183462124Y-89592592D01*
X183880825Y-89872359D01*
X184374716Y-89970600D01*
X184425284Y-89970600D01*
X184919175Y-89872359D01*
X185337876Y-89592592D01*
X185617643Y-89173891D01*
X185670000Y-88910675D01*
X185722357Y-89173891D01*
X186002124Y-89592592D01*
X186420825Y-89872359D01*
X186914716Y-89970600D01*
X186965284Y-89970600D01*
X187459175Y-89872359D01*
X187877876Y-89592592D01*
X187910360Y-89543975D01*
X188572874Y-89543975D01*
X188683320Y-89811275D01*
X188887650Y-90015961D01*
X189154756Y-90126874D01*
X189443975Y-90127126D01*
X189711275Y-90016680D01*
X189915961Y-89812350D01*
X190026874Y-89545244D01*
X190027126Y-89256025D01*
X189916680Y-88988725D01*
X189903200Y-88975222D01*
X189903200Y-88508432D01*
X189977670Y-88433962D01*
X189928730Y-88680000D01*
X190026971Y-89173891D01*
X190306738Y-89592592D01*
X190725439Y-89872359D01*
X191219330Y-89970600D01*
X191580670Y-89970600D01*
X192074561Y-89872359D01*
X192493262Y-89592592D01*
X192773029Y-89173891D01*
X192840345Y-88835469D01*
X196170794Y-88835469D01*
X196351427Y-89272635D01*
X196685606Y-89607397D01*
X197122456Y-89788793D01*
X197595469Y-89789206D01*
X198032635Y-89608573D01*
X198367397Y-89274394D01*
X198548793Y-88837544D01*
X198548794Y-88835469D01*
X203790794Y-88835469D01*
X203971427Y-89272635D01*
X204305606Y-89607397D01*
X204742456Y-89788793D01*
X205215469Y-89789206D01*
X205652635Y-89608573D01*
X205987397Y-89274394D01*
X206168793Y-88837544D01*
X206169206Y-88364531D01*
X205988573Y-87927365D01*
X205654394Y-87592603D01*
X205217544Y-87411207D01*
X204744531Y-87410794D01*
X204307365Y-87591427D01*
X203972603Y-87925606D01*
X203791207Y-88362456D01*
X203790794Y-88835469D01*
X198548794Y-88835469D01*
X198549206Y-88364531D01*
X198368573Y-87927365D01*
X198034394Y-87592603D01*
X197597544Y-87411207D01*
X197124531Y-87410794D01*
X196687365Y-87591427D01*
X196352603Y-87925606D01*
X196171207Y-88362456D01*
X196170794Y-88835469D01*
X192840345Y-88835469D01*
X192871270Y-88680000D01*
X192773029Y-88186109D01*
X192583995Y-87903200D01*
X195100000Y-87903200D01*
X195292566Y-87864896D01*
X195455816Y-87755816D01*
X196811442Y-86400190D01*
X197115009Y-86526242D01*
X197682502Y-86526737D01*
X198206986Y-86310025D01*
X198608615Y-85909097D01*
X198826242Y-85384991D01*
X198826244Y-85382502D01*
X203593263Y-85382502D01*
X203809975Y-85906986D01*
X204210903Y-86308615D01*
X204735009Y-86526242D01*
X205302502Y-86526737D01*
X205826986Y-86310025D01*
X206228615Y-85909097D01*
X206446242Y-85384991D01*
X206446737Y-84817498D01*
X206230025Y-84293014D01*
X205829097Y-83891385D01*
X205304991Y-83673758D01*
X204737498Y-83673263D01*
X204213014Y-83889975D01*
X203811385Y-84290903D01*
X203593758Y-84815009D01*
X203593263Y-85382502D01*
X198826244Y-85382502D01*
X198826737Y-84817498D01*
X198610025Y-84293014D01*
X198209097Y-83891385D01*
X197684991Y-83673758D01*
X197117498Y-83673263D01*
X196593014Y-83889975D01*
X196191385Y-84290903D01*
X195973758Y-84815009D01*
X195973263Y-85382502D01*
X196099748Y-85688620D01*
X194891568Y-86896800D01*
X192597359Y-86896800D01*
X192773029Y-86633891D01*
X192871270Y-86140000D01*
X192773029Y-85646109D01*
X192493262Y-85227408D01*
X192074561Y-84947641D01*
X191829850Y-84898965D01*
X192416000Y-84898965D01*
X192574237Y-84869191D01*
X192719567Y-84775673D01*
X192817064Y-84632981D01*
X192851365Y-84463600D01*
X192851365Y-82736400D01*
X192821591Y-82578163D01*
X192728073Y-82432833D01*
X192585381Y-82335336D01*
X192416000Y-82301035D01*
X190384000Y-82301035D01*
X190225763Y-82330809D01*
X190080433Y-82424327D01*
X189982936Y-82567019D01*
X189948635Y-82736400D01*
X189948635Y-84463600D01*
X189978409Y-84621837D01*
X190071927Y-84767167D01*
X190214619Y-84864664D01*
X190384000Y-84898965D01*
X190970150Y-84898965D01*
X190725439Y-84947641D01*
X190306738Y-85227408D01*
X190026971Y-85646109D01*
X189928730Y-86140000D01*
X190026971Y-86633891D01*
X190214063Y-86913894D01*
X190107433Y-86935104D01*
X189944184Y-87044184D01*
X189044184Y-87944184D01*
X188935104Y-88107434D01*
X188896800Y-88300000D01*
X188896800Y-88779983D01*
X188888725Y-88783320D01*
X188684039Y-88987650D01*
X188573126Y-89254756D01*
X188572874Y-89543975D01*
X187910360Y-89543975D01*
X188157643Y-89173891D01*
X188255884Y-88680000D01*
X188157643Y-88186109D01*
X187877876Y-87767408D01*
X187459175Y-87487641D01*
X187068847Y-87410000D01*
X187459175Y-87332359D01*
X187877876Y-87052592D01*
X188157643Y-86633891D01*
X188255884Y-86140000D01*
X188157643Y-85646109D01*
X187877876Y-85227408D01*
X187459175Y-84947641D01*
X187068847Y-84870000D01*
X187459175Y-84792359D01*
X187877876Y-84512592D01*
X188157643Y-84093891D01*
X188255884Y-83600000D01*
X188157643Y-83106109D01*
X187877876Y-82687408D01*
X187459175Y-82407641D01*
X186965284Y-82309400D01*
X186914716Y-82309400D01*
X186420825Y-82407641D01*
X186002124Y-82687408D01*
X185722357Y-83106109D01*
X185698965Y-83223709D01*
X185698965Y-82736400D01*
X185669191Y-82578163D01*
X185575673Y-82432833D01*
X185432981Y-82335336D01*
X185263600Y-82301035D01*
X183536400Y-82301035D01*
X183378163Y-82330809D01*
X183232833Y-82424327D01*
X183135336Y-82567019D01*
X183101035Y-82736400D01*
X183101035Y-84463600D01*
X183130809Y-84621837D01*
X183224327Y-84767167D01*
X183367019Y-84864664D01*
X183536400Y-84898965D01*
X184125536Y-84898965D01*
X183880825Y-84947641D01*
X183462124Y-85227408D01*
X183182357Y-85646109D01*
X183084116Y-86140000D01*
X181153562Y-86140000D01*
X180877876Y-85727408D01*
X180459175Y-85447641D01*
X180068847Y-85370000D01*
X180459175Y-85292359D01*
X180877876Y-85012592D01*
X181157643Y-84593891D01*
X181255884Y-84100000D01*
X181157643Y-83606109D01*
X180877876Y-83187408D01*
X180459175Y-82907641D01*
X179965284Y-82809400D01*
X179914716Y-82809400D01*
X179420825Y-82907641D01*
X179002124Y-83187408D01*
X178722357Y-83606109D01*
X178698965Y-83723709D01*
X178698965Y-83236400D01*
X178669191Y-83078163D01*
X178575673Y-82932833D01*
X178432981Y-82835336D01*
X178263600Y-82801035D01*
X176536400Y-82801035D01*
X176378163Y-82830809D01*
X176232833Y-82924327D01*
X176135336Y-83067019D01*
X176101035Y-83236400D01*
X176101035Y-84963600D01*
X176130809Y-85121837D01*
X176224327Y-85267167D01*
X176367019Y-85364664D01*
X176536400Y-85398965D01*
X177125536Y-85398965D01*
X176880825Y-85447641D01*
X176462124Y-85727408D01*
X176182357Y-86146109D01*
X176084116Y-86640000D01*
X174597000Y-86640000D01*
X174597000Y-79501426D01*
X175372649Y-79501426D01*
X175680591Y-80246703D01*
X176250298Y-80817405D01*
X176995036Y-81126647D01*
X177801426Y-81127351D01*
X178546703Y-80819409D01*
X179117405Y-80249702D01*
X179426647Y-79504964D01*
X179427351Y-78698574D01*
X179119409Y-77953297D01*
X178549702Y-77382595D01*
X177804964Y-77073353D01*
X176998574Y-77072649D01*
X176253297Y-77380591D01*
X175682595Y-77950298D01*
X175373353Y-78695036D01*
X175372649Y-79501426D01*
X174597000Y-79501426D01*
X174597000Y-76297000D01*
X235818400Y-76297000D01*
X241703000Y-82181600D01*
G36*
X152805818Y-92261690D02*
X153065077Y-92434922D01*
X153238310Y-92694182D01*
X153303000Y-93019403D01*
X153303000Y-128980597D01*
X153238310Y-129305818D01*
X153065077Y-129565078D01*
X152805818Y-129738310D01*
X152480596Y-129803000D01*
X108519403Y-129803000D01*
X108194182Y-129738310D01*
X107934922Y-129565077D01*
X107761690Y-129305818D01*
X107697000Y-128980596D01*
X107697000Y-122371730D01*
X108217000Y-122371730D01*
X108217000Y-122428270D01*
X108326842Y-122980482D01*
X108639645Y-123448625D01*
X109107788Y-123761428D01*
X109660000Y-123871270D01*
X110212212Y-123761428D01*
X110549000Y-123536394D01*
X110549000Y-123542309D01*
X110645673Y-123775698D01*
X110824301Y-123954327D01*
X111057690Y-124051000D01*
X111914250Y-124051000D01*
X112073000Y-123892250D01*
X112073000Y-122527000D01*
X112327000Y-122527000D01*
X112327000Y-123892250D01*
X112485750Y-124051000D01*
X113342310Y-124051000D01*
X113575699Y-123954327D01*
X113727618Y-123802407D01*
X119472735Y-123802407D01*
X119704717Y-124363846D01*
X120133894Y-124793773D01*
X120694928Y-125026735D01*
X121302407Y-125027265D01*
X121863846Y-124795283D01*
X122293773Y-124366106D01*
X122526735Y-123805072D01*
X122526737Y-123802407D01*
X145472735Y-123802407D01*
X145704717Y-124363846D01*
X146133894Y-124793773D01*
X146694928Y-125026735D01*
X147302407Y-125027265D01*
X147863846Y-124795283D01*
X148293773Y-124366106D01*
X148526735Y-123805072D01*
X148527265Y-123197593D01*
X148295283Y-122636154D01*
X147866106Y-122206227D01*
X147305072Y-121973265D01*
X146697593Y-121972735D01*
X146136154Y-122204717D01*
X145706227Y-122633894D01*
X145473265Y-123194928D01*
X145472735Y-123802407D01*
X122526737Y-123802407D01*
X122527265Y-123197593D01*
X122295283Y-122636154D01*
X121866106Y-122206227D01*
X121305072Y-121973265D01*
X120697593Y-121972735D01*
X120136154Y-122204717D01*
X119706227Y-122633894D01*
X119473265Y-123194928D01*
X119472735Y-123802407D01*
X113727618Y-123802407D01*
X113754327Y-123775698D01*
X113851000Y-123542309D01*
X113851000Y-122685750D01*
X113692250Y-122527000D01*
X112327000Y-122527000D01*
X112073000Y-122527000D01*
X112053000Y-122527000D01*
X112053000Y-122273000D01*
X112073000Y-122273000D01*
X112073000Y-120907750D01*
X112327000Y-120907750D01*
X112327000Y-122273000D01*
X113692250Y-122273000D01*
X113851000Y-122114250D01*
X113851000Y-121257691D01*
X113754327Y-121024302D01*
X113575699Y-120845673D01*
X113342310Y-120749000D01*
X112485750Y-120749000D01*
X112327000Y-120907750D01*
X112073000Y-120907750D01*
X111914250Y-120749000D01*
X111057690Y-120749000D01*
X110824301Y-120845673D01*
X110645673Y-121024302D01*
X110549000Y-121257691D01*
X110549000Y-121263606D01*
X110212212Y-121038572D01*
X109660000Y-120928730D01*
X109107788Y-121038572D01*
X108639645Y-121351375D01*
X108326842Y-121819518D01*
X108217000Y-122371730D01*
X107697000Y-122371730D01*
X107697000Y-108040000D01*
X108184116Y-108040000D01*
X108282357Y-108533891D01*
X108562124Y-108952592D01*
X108980825Y-109232359D01*
X109371153Y-109310000D01*
X108980825Y-109387641D01*
X108562124Y-109667408D01*
X108282357Y-110086109D01*
X108184116Y-110580000D01*
X108282357Y-111073891D01*
X108562124Y-111492592D01*
X108980825Y-111772359D01*
X109371153Y-111850000D01*
X108980825Y-111927641D01*
X108562124Y-112207408D01*
X108282357Y-112626109D01*
X108184116Y-113120000D01*
X108282357Y-113613891D01*
X108562124Y-114032592D01*
X108980825Y-114312359D01*
X109371153Y-114390000D01*
X108980825Y-114467641D01*
X108562124Y-114747408D01*
X108282357Y-115166109D01*
X108184116Y-115660000D01*
X108282357Y-116153891D01*
X108562124Y-116572592D01*
X108980825Y-116852359D01*
X109474716Y-116950600D01*
X109525284Y-116950600D01*
X110019175Y-116852359D01*
X110437876Y-116572592D01*
X110670268Y-116224792D01*
X110757312Y-116434947D01*
X111151510Y-116866821D01*
X111680973Y-117114968D01*
X111913000Y-116994469D01*
X111913000Y-115787000D01*
X112167000Y-115787000D01*
X112167000Y-116994469D01*
X112399027Y-117114968D01*
X112928490Y-116866821D01*
X113322688Y-116434947D01*
X113494958Y-116019026D01*
X113373817Y-115787000D01*
X112167000Y-115787000D01*
X111913000Y-115787000D01*
X111893000Y-115787000D01*
X111893000Y-115533000D01*
X111913000Y-115533000D01*
X111913000Y-115513000D01*
X112167000Y-115513000D01*
X112167000Y-115533000D01*
X113373817Y-115533000D01*
X113494958Y-115300974D01*
X113322688Y-114885053D01*
X112928490Y-114453179D01*
X112587560Y-114293393D01*
X112977876Y-114032592D01*
X113257643Y-113613891D01*
X113355884Y-113120000D01*
X113257643Y-112626109D01*
X112977876Y-112207408D01*
X112559175Y-111927641D01*
X112168847Y-111850000D01*
X112559175Y-111772359D01*
X112977876Y-111492592D01*
X113257643Y-111073891D01*
X113355884Y-110580000D01*
X113257643Y-110086109D01*
X112977876Y-109667408D01*
X112559175Y-109387641D01*
X112168847Y-109310000D01*
X112559175Y-109232359D01*
X112977876Y-108952592D01*
X113257643Y-108533891D01*
X113355884Y-108040000D01*
X113257643Y-107546109D01*
X112977876Y-107127408D01*
X112559175Y-106847641D01*
X112168847Y-106770000D01*
X112559175Y-106692359D01*
X112977876Y-106412592D01*
X113257643Y-105993891D01*
X113355884Y-105500000D01*
X113257643Y-105006109D01*
X112977876Y-104587408D01*
X112559175Y-104307641D01*
X112065284Y-104209400D01*
X112014716Y-104209400D01*
X111520825Y-104307641D01*
X111102124Y-104587408D01*
X110822357Y-105006109D01*
X110798965Y-105123709D01*
X110798965Y-104636400D01*
X110769191Y-104478163D01*
X110675673Y-104332833D01*
X110532981Y-104235336D01*
X110363600Y-104201035D01*
X108636400Y-104201035D01*
X108478163Y-104230809D01*
X108332833Y-104324327D01*
X108235336Y-104467019D01*
X108201035Y-104636400D01*
X108201035Y-106363600D01*
X108230809Y-106521837D01*
X108324327Y-106667167D01*
X108467019Y-106764664D01*
X108636400Y-106798965D01*
X109225536Y-106798965D01*
X108980825Y-106847641D01*
X108562124Y-107127408D01*
X108282357Y-107546109D01*
X108184116Y-108040000D01*
X107697000Y-108040000D01*
X107697000Y-103040000D01*
X116528730Y-103040000D01*
X116626971Y-103533891D01*
X116906738Y-103952592D01*
X117325439Y-104232359D01*
X117715767Y-104310000D01*
X117325439Y-104387641D01*
X116906738Y-104667408D01*
X116626971Y-105086109D01*
X116528730Y-105580000D01*
X116626971Y-106073891D01*
X116906738Y-106492592D01*
X117325439Y-106772359D01*
X117715767Y-106850000D01*
X117325439Y-106927641D01*
X116906738Y-107207408D01*
X116626971Y-107626109D01*
X116528730Y-108120000D01*
X116626971Y-108613891D01*
X116906738Y-109032592D01*
X117325439Y-109312359D01*
X117715767Y-109390000D01*
X117325439Y-109467641D01*
X116906738Y-109747408D01*
X116626971Y-110166109D01*
X116528730Y-110660000D01*
X116626971Y-111153891D01*
X116906738Y-111572592D01*
X117325439Y-111852359D01*
X117715767Y-111930000D01*
X117325439Y-112007641D01*
X116906738Y-112287408D01*
X116626971Y-112706109D01*
X116528730Y-113200000D01*
X116626971Y-113693891D01*
X116906738Y-114112592D01*
X117325439Y-114392359D01*
X117715767Y-114470000D01*
X117325439Y-114547641D01*
X116906738Y-114827408D01*
X116626971Y-115246109D01*
X116528730Y-115740000D01*
X116626971Y-116233891D01*
X116906738Y-116652592D01*
X117325439Y-116932359D01*
X117819330Y-117030600D01*
X118180670Y-117030600D01*
X118674561Y-116932359D01*
X119093262Y-116652592D01*
X119373029Y-116233891D01*
X119471270Y-115740000D01*
X119373029Y-115246109D01*
X119093262Y-114827408D01*
X118674561Y-114547641D01*
X118284233Y-114470000D01*
X118674561Y-114392359D01*
X119093262Y-114112592D01*
X119373029Y-113693891D01*
X119471270Y-113200000D01*
X119373029Y-112706109D01*
X119093262Y-112287408D01*
X118674561Y-112007641D01*
X118284233Y-111930000D01*
X118674561Y-111852359D01*
X119093262Y-111572592D01*
X119373029Y-111153891D01*
X119471270Y-110660000D01*
X119373029Y-110166109D01*
X119093262Y-109747408D01*
X118674561Y-109467641D01*
X118284233Y-109390000D01*
X118674561Y-109312359D01*
X119093262Y-109032592D01*
X119373029Y-108613891D01*
X119471270Y-108120000D01*
X119373029Y-107626109D01*
X119093262Y-107207408D01*
X118674561Y-106927641D01*
X118284233Y-106850000D01*
X118674561Y-106772359D01*
X119093262Y-106492592D01*
X119373029Y-106073891D01*
X119471270Y-105580000D01*
X119373029Y-105086109D01*
X119093262Y-104667408D01*
X118674561Y-104387641D01*
X118284233Y-104310000D01*
X118674561Y-104232359D01*
X119093262Y-103952592D01*
X119373029Y-103533891D01*
X119471270Y-103040000D01*
X119373029Y-102546109D01*
X119093262Y-102127408D01*
X118674561Y-101847641D01*
X118429850Y-101798965D01*
X119016000Y-101798965D01*
X119174237Y-101769191D01*
X119319567Y-101675673D01*
X119417064Y-101532981D01*
X119451365Y-101363600D01*
X119451365Y-99636400D01*
X119421591Y-99478163D01*
X119328073Y-99332833D01*
X119185381Y-99235336D01*
X119016000Y-99201035D01*
X116984000Y-99201035D01*
X116825763Y-99230809D01*
X116680433Y-99324327D01*
X116582936Y-99467019D01*
X116548635Y-99636400D01*
X116548635Y-101363600D01*
X116578409Y-101521837D01*
X116671927Y-101667167D01*
X116814619Y-101764664D01*
X116984000Y-101798965D01*
X117570150Y-101798965D01*
X117325439Y-101847641D01*
X116906738Y-102127408D01*
X116626971Y-102546109D01*
X116528730Y-103040000D01*
X107697000Y-103040000D01*
X107697000Y-95401426D01*
X108472649Y-95401426D01*
X108780591Y-96146703D01*
X109350298Y-96717405D01*
X110095036Y-97026647D01*
X110901426Y-97027351D01*
X111646703Y-96719409D01*
X112217405Y-96149702D01*
X112526647Y-95404964D01*
X112526650Y-95401426D01*
X148472649Y-95401426D01*
X148780591Y-96146703D01*
X149350298Y-96717405D01*
X150095036Y-97026647D01*
X150901426Y-97027351D01*
X151646703Y-96719409D01*
X152217405Y-96149702D01*
X152526647Y-95404964D01*
X152527351Y-94598574D01*
X152219409Y-93853297D01*
X151649702Y-93282595D01*
X150904964Y-92973353D01*
X150098574Y-92972649D01*
X149353297Y-93280591D01*
X148782595Y-93850298D01*
X148473353Y-94595036D01*
X148472649Y-95401426D01*
X112526650Y-95401426D01*
X112527351Y-94598574D01*
X112219409Y-93853297D01*
X111649702Y-93282595D01*
X110904964Y-92973353D01*
X110098574Y-92972649D01*
X109353297Y-93280591D01*
X108782595Y-93850298D01*
X108473353Y-94595036D01*
X108472649Y-95401426D01*
X107697000Y-95401426D01*
X107697000Y-93019404D01*
X107761690Y-92694182D01*
X107934922Y-92434923D01*
X108194182Y-92261690D01*
X108519403Y-92197000D01*
X152480596Y-92197000D01*
X152805818Y-92261690D01*
X152805818Y-92261690D01*
G37*
X152805818Y-92261690D02*
X153065077Y-92434922D01*
X153238310Y-92694182D01*
X153303000Y-93019403D01*
X153303000Y-128980597D01*
X153238310Y-129305818D01*
X153065077Y-129565078D01*
X152805818Y-129738310D01*
X152480596Y-129803000D01*
X108519403Y-129803000D01*
X108194182Y-129738310D01*
X107934922Y-129565077D01*
X107761690Y-129305818D01*
X107697000Y-128980596D01*
X107697000Y-122371730D01*
X108217000Y-122371730D01*
X108217000Y-122428270D01*
X108326842Y-122980482D01*
X108639645Y-123448625D01*
X109107788Y-123761428D01*
X109660000Y-123871270D01*
X110212212Y-123761428D01*
X110549000Y-123536394D01*
X110549000Y-123542309D01*
X110645673Y-123775698D01*
X110824301Y-123954327D01*
X111057690Y-124051000D01*
X111914250Y-124051000D01*
X112073000Y-123892250D01*
X112073000Y-122527000D01*
X112327000Y-122527000D01*
X112327000Y-123892250D01*
X112485750Y-124051000D01*
X113342310Y-124051000D01*
X113575699Y-123954327D01*
X113727618Y-123802407D01*
X119472735Y-123802407D01*
X119704717Y-124363846D01*
X120133894Y-124793773D01*
X120694928Y-125026735D01*
X121302407Y-125027265D01*
X121863846Y-124795283D01*
X122293773Y-124366106D01*
X122526735Y-123805072D01*
X122526737Y-123802407D01*
X145472735Y-123802407D01*
X145704717Y-124363846D01*
X146133894Y-124793773D01*
X146694928Y-125026735D01*
X147302407Y-125027265D01*
X147863846Y-124795283D01*
X148293773Y-124366106D01*
X148526735Y-123805072D01*
X148527265Y-123197593D01*
X148295283Y-122636154D01*
X147866106Y-122206227D01*
X147305072Y-121973265D01*
X146697593Y-121972735D01*
X146136154Y-122204717D01*
X145706227Y-122633894D01*
X145473265Y-123194928D01*
X145472735Y-123802407D01*
X122526737Y-123802407D01*
X122527265Y-123197593D01*
X122295283Y-122636154D01*
X121866106Y-122206227D01*
X121305072Y-121973265D01*
X120697593Y-121972735D01*
X120136154Y-122204717D01*
X119706227Y-122633894D01*
X119473265Y-123194928D01*
X119472735Y-123802407D01*
X113727618Y-123802407D01*
X113754327Y-123775698D01*
X113851000Y-123542309D01*
X113851000Y-122685750D01*
X113692250Y-122527000D01*
X112327000Y-122527000D01*
X112073000Y-122527000D01*
X112053000Y-122527000D01*
X112053000Y-122273000D01*
X112073000Y-122273000D01*
X112073000Y-120907750D01*
X112327000Y-120907750D01*
X112327000Y-122273000D01*
X113692250Y-122273000D01*
X113851000Y-122114250D01*
X113851000Y-121257691D01*
X113754327Y-121024302D01*
X113575699Y-120845673D01*
X113342310Y-120749000D01*
X112485750Y-120749000D01*
X112327000Y-120907750D01*
X112073000Y-120907750D01*
X111914250Y-120749000D01*
X111057690Y-120749000D01*
X110824301Y-120845673D01*
X110645673Y-121024302D01*
X110549000Y-121257691D01*
X110549000Y-121263606D01*
X110212212Y-121038572D01*
X109660000Y-120928730D01*
X109107788Y-121038572D01*
X108639645Y-121351375D01*
X108326842Y-121819518D01*
X108217000Y-122371730D01*
X107697000Y-122371730D01*
X107697000Y-108040000D01*
X108184116Y-108040000D01*
X108282357Y-108533891D01*
X108562124Y-108952592D01*
X108980825Y-109232359D01*
X109371153Y-109310000D01*
X108980825Y-109387641D01*
X108562124Y-109667408D01*
X108282357Y-110086109D01*
X108184116Y-110580000D01*
X108282357Y-111073891D01*
X108562124Y-111492592D01*
X108980825Y-111772359D01*
X109371153Y-111850000D01*
X108980825Y-111927641D01*
X108562124Y-112207408D01*
X108282357Y-112626109D01*
X108184116Y-113120000D01*
X108282357Y-113613891D01*
X108562124Y-114032592D01*
X108980825Y-114312359D01*
X109371153Y-114390000D01*
X108980825Y-114467641D01*
X108562124Y-114747408D01*
X108282357Y-115166109D01*
X108184116Y-115660000D01*
X108282357Y-116153891D01*
X108562124Y-116572592D01*
X108980825Y-116852359D01*
X109474716Y-116950600D01*
X109525284Y-116950600D01*
X110019175Y-116852359D01*
X110437876Y-116572592D01*
X110670268Y-116224792D01*
X110757312Y-116434947D01*
X111151510Y-116866821D01*
X111680973Y-117114968D01*
X111913000Y-116994469D01*
X111913000Y-115787000D01*
X112167000Y-115787000D01*
X112167000Y-116994469D01*
X112399027Y-117114968D01*
X112928490Y-116866821D01*
X113322688Y-116434947D01*
X113494958Y-116019026D01*
X113373817Y-115787000D01*
X112167000Y-115787000D01*
X111913000Y-115787000D01*
X111893000Y-115787000D01*
X111893000Y-115533000D01*
X111913000Y-115533000D01*
X111913000Y-115513000D01*
X112167000Y-115513000D01*
X112167000Y-115533000D01*
X113373817Y-115533000D01*
X113494958Y-115300974D01*
X113322688Y-114885053D01*
X112928490Y-114453179D01*
X112587560Y-114293393D01*
X112977876Y-114032592D01*
X113257643Y-113613891D01*
X113355884Y-113120000D01*
X113257643Y-112626109D01*
X112977876Y-112207408D01*
X112559175Y-111927641D01*
X112168847Y-111850000D01*
X112559175Y-111772359D01*
X112977876Y-111492592D01*
X113257643Y-111073891D01*
X113355884Y-110580000D01*
X113257643Y-110086109D01*
X112977876Y-109667408D01*
X112559175Y-109387641D01*
X112168847Y-109310000D01*
X112559175Y-109232359D01*
X112977876Y-108952592D01*
X113257643Y-108533891D01*
X113355884Y-108040000D01*
X113257643Y-107546109D01*
X112977876Y-107127408D01*
X112559175Y-106847641D01*
X112168847Y-106770000D01*
X112559175Y-106692359D01*
X112977876Y-106412592D01*
X113257643Y-105993891D01*
X113355884Y-105500000D01*
X113257643Y-105006109D01*
X112977876Y-104587408D01*
X112559175Y-104307641D01*
X112065284Y-104209400D01*
X112014716Y-104209400D01*
X111520825Y-104307641D01*
X111102124Y-104587408D01*
X110822357Y-105006109D01*
X110798965Y-105123709D01*
X110798965Y-104636400D01*
X110769191Y-104478163D01*
X110675673Y-104332833D01*
X110532981Y-104235336D01*
X110363600Y-104201035D01*
X108636400Y-104201035D01*
X108478163Y-104230809D01*
X108332833Y-104324327D01*
X108235336Y-104467019D01*
X108201035Y-104636400D01*
X108201035Y-106363600D01*
X108230809Y-106521837D01*
X108324327Y-106667167D01*
X108467019Y-106764664D01*
X108636400Y-106798965D01*
X109225536Y-106798965D01*
X108980825Y-106847641D01*
X108562124Y-107127408D01*
X108282357Y-107546109D01*
X108184116Y-108040000D01*
X107697000Y-108040000D01*
X107697000Y-103040000D01*
X116528730Y-103040000D01*
X116626971Y-103533891D01*
X116906738Y-103952592D01*
X117325439Y-104232359D01*
X117715767Y-104310000D01*
X117325439Y-104387641D01*
X116906738Y-104667408D01*
X116626971Y-105086109D01*
X116528730Y-105580000D01*
X116626971Y-106073891D01*
X116906738Y-106492592D01*
X117325439Y-106772359D01*
X117715767Y-106850000D01*
X117325439Y-106927641D01*
X116906738Y-107207408D01*
X116626971Y-107626109D01*
X116528730Y-108120000D01*
X116626971Y-108613891D01*
X116906738Y-109032592D01*
X117325439Y-109312359D01*
X117715767Y-109390000D01*
X117325439Y-109467641D01*
X116906738Y-109747408D01*
X116626971Y-110166109D01*
X116528730Y-110660000D01*
X116626971Y-111153891D01*
X116906738Y-111572592D01*
X117325439Y-111852359D01*
X117715767Y-111930000D01*
X117325439Y-112007641D01*
X116906738Y-112287408D01*
X116626971Y-112706109D01*
X116528730Y-113200000D01*
X116626971Y-113693891D01*
X116906738Y-114112592D01*
X117325439Y-114392359D01*
X117715767Y-114470000D01*
X117325439Y-114547641D01*
X116906738Y-114827408D01*
X116626971Y-115246109D01*
X116528730Y-115740000D01*
X116626971Y-116233891D01*
X116906738Y-116652592D01*
X117325439Y-116932359D01*
X117819330Y-117030600D01*
X118180670Y-117030600D01*
X118674561Y-116932359D01*
X119093262Y-116652592D01*
X119373029Y-116233891D01*
X119471270Y-115740000D01*
X119373029Y-115246109D01*
X119093262Y-114827408D01*
X118674561Y-114547641D01*
X118284233Y-114470000D01*
X118674561Y-114392359D01*
X119093262Y-114112592D01*
X119373029Y-113693891D01*
X119471270Y-113200000D01*
X119373029Y-112706109D01*
X119093262Y-112287408D01*
X118674561Y-112007641D01*
X118284233Y-111930000D01*
X118674561Y-111852359D01*
X119093262Y-111572592D01*
X119373029Y-111153891D01*
X119471270Y-110660000D01*
X119373029Y-110166109D01*
X119093262Y-109747408D01*
X118674561Y-109467641D01*
X118284233Y-109390000D01*
X118674561Y-109312359D01*
X119093262Y-109032592D01*
X119373029Y-108613891D01*
X119471270Y-108120000D01*
X119373029Y-107626109D01*
X119093262Y-107207408D01*
X118674561Y-106927641D01*
X118284233Y-106850000D01*
X118674561Y-106772359D01*
X119093262Y-106492592D01*
X119373029Y-106073891D01*
X119471270Y-105580000D01*
X119373029Y-105086109D01*
X119093262Y-104667408D01*
X118674561Y-104387641D01*
X118284233Y-104310000D01*
X118674561Y-104232359D01*
X119093262Y-103952592D01*
X119373029Y-103533891D01*
X119471270Y-103040000D01*
X119373029Y-102546109D01*
X119093262Y-102127408D01*
X118674561Y-101847641D01*
X118429850Y-101798965D01*
X119016000Y-101798965D01*
X119174237Y-101769191D01*
X119319567Y-101675673D01*
X119417064Y-101532981D01*
X119451365Y-101363600D01*
X119451365Y-99636400D01*
X119421591Y-99478163D01*
X119328073Y-99332833D01*
X119185381Y-99235336D01*
X119016000Y-99201035D01*
X116984000Y-99201035D01*
X116825763Y-99230809D01*
X116680433Y-99324327D01*
X116582936Y-99467019D01*
X116548635Y-99636400D01*
X116548635Y-101363600D01*
X116578409Y-101521837D01*
X116671927Y-101667167D01*
X116814619Y-101764664D01*
X116984000Y-101798965D01*
X117570150Y-101798965D01*
X117325439Y-101847641D01*
X116906738Y-102127408D01*
X116626971Y-102546109D01*
X116528730Y-103040000D01*
X107697000Y-103040000D01*
X107697000Y-95401426D01*
X108472649Y-95401426D01*
X108780591Y-96146703D01*
X109350298Y-96717405D01*
X110095036Y-97026647D01*
X110901426Y-97027351D01*
X111646703Y-96719409D01*
X112217405Y-96149702D01*
X112526647Y-95404964D01*
X112526650Y-95401426D01*
X148472649Y-95401426D01*
X148780591Y-96146703D01*
X149350298Y-96717405D01*
X150095036Y-97026647D01*
X150901426Y-97027351D01*
X151646703Y-96719409D01*
X152217405Y-96149702D01*
X152526647Y-95404964D01*
X152527351Y-94598574D01*
X152219409Y-93853297D01*
X151649702Y-93282595D01*
X150904964Y-92973353D01*
X150098574Y-92972649D01*
X149353297Y-93280591D01*
X148782595Y-93850298D01*
X148473353Y-94595036D01*
X148472649Y-95401426D01*
X112526650Y-95401426D01*
X112527351Y-94598574D01*
X112219409Y-93853297D01*
X111649702Y-93282595D01*
X110904964Y-92973353D01*
X110098574Y-92972649D01*
X109353297Y-93280591D01*
X108782595Y-93850298D01*
X108473353Y-94595036D01*
X108472649Y-95401426D01*
X107697000Y-95401426D01*
X107697000Y-93019404D01*
X107761690Y-92694182D01*
X107934922Y-92434923D01*
X108194182Y-92261690D01*
X108519403Y-92197000D01*
X152480596Y-92197000D01*
X152805818Y-92261690D01*
M02*
