G04 #@! TF.FileFunction,Legend,Top*
%FSLAX46Y46*%
G04 Gerber Fmt 4.6, Leading zero omitted, Abs format (unit mm)*
G04 Created by KiCad (PCBNEW 4.0.1-stable) date 2016/11/09 23:27:56*
%MOMM*%
G01*
G04 APERTURE LIST*
%ADD10C,0.100000*%
%ADD11C,0.200000*%
%ADD12C,0.150000*%
%ADD13C,0.203200*%
%ADD14C,0.127000*%
%ADD15C,0.050000*%
%ADD16C,2.200000*%
%ADD17R,2.000000X2.000000*%
%ADD18C,2.000000*%
%ADD19R,1.727200X1.727200*%
%ADD20O,1.727200X1.727200*%
%ADD21C,1.524000*%
%ADD22C,1.998980*%
%ADD23C,3.200000*%
%ADD24C,4.000000*%
%ADD25R,1.300000X1.300000*%
%ADD26C,1.300000*%
%ADD27R,1.998980X1.998980*%
%ADD28R,2.032000X1.727200*%
%ADD29O,2.032000X1.727200*%
%ADD30R,2.950000X2.950000*%
%ADD31C,2.950000*%
%ADD32C,1.600000*%
%ADD33R,2.032000X2.032000*%
%ADD34O,2.032000X2.032000*%
G04 APERTURE END LIST*
D10*
D11*
X153500000Y-92000000D02*
X153500000Y-93000000D01*
X107500000Y-92000000D02*
X153500000Y-92000000D01*
X107500000Y-130000000D02*
X107500000Y-92000000D01*
X153500000Y-130000000D02*
X107500000Y-130000000D01*
X153500000Y-93000000D02*
X153500000Y-130000000D01*
X173000000Y-134000000D02*
X173000000Y-81000000D01*
X226000000Y-134000000D02*
X173000000Y-134000000D01*
X226000000Y-149000000D02*
X226000000Y-134000000D01*
X173000000Y-149000000D02*
X226000000Y-149000000D01*
X173000000Y-202000000D02*
X173000000Y-149000000D01*
X158000000Y-202000000D02*
X173000000Y-202000000D01*
X158000000Y-149000000D02*
X158000000Y-202000000D01*
X105000000Y-149000000D02*
X158000000Y-149000000D01*
X105000000Y-134000000D02*
X105000000Y-149000000D01*
X158000000Y-134000000D02*
X105000000Y-134000000D01*
X158000000Y-81000000D02*
X158000000Y-134000000D01*
X173000000Y-81000000D02*
X158000000Y-81000000D01*
X235900000Y-76100000D02*
X174400000Y-76100000D01*
X241900000Y-82100000D02*
X235900000Y-76100000D01*
X241900000Y-100100000D02*
X241900000Y-82100000D01*
X235900000Y-106100000D02*
X241900000Y-100100000D01*
X233400000Y-106100000D02*
X235900000Y-106100000D01*
X206900000Y-132600000D02*
X233400000Y-106100000D01*
X174400000Y-132600000D02*
X206900000Y-132600000D01*
X174400000Y-76100000D02*
X174400000Y-132600000D01*
X122200000Y-123500000D02*
G75*
G03X122200000Y-123500000I-1200000J0D01*
G01*
X148200000Y-123500000D02*
G75*
G03X148200000Y-123500000I-1200000J0D01*
G01*
X149100000Y-121500000D02*
X145600000Y-121500000D01*
X149100000Y-125500000D02*
X145600000Y-125500000D01*
X149100000Y-121500000D02*
X149100000Y-125500000D01*
X122600000Y-121500000D02*
X119100000Y-121500000D01*
X119100000Y-125500000D02*
X122600000Y-125500000D01*
X119100000Y-121500000D02*
X119100000Y-125500000D01*
X122600000Y-118400000D02*
X145600000Y-118400000D01*
X122600000Y-129400000D02*
X122600000Y-118400000D01*
X145600000Y-129400000D02*
X122600000Y-129400000D01*
X145600000Y-118400000D02*
X145600000Y-129400000D01*
X116000000Y-118000000D02*
X116000000Y-98000000D01*
X150000000Y-118000000D02*
X116000000Y-118000000D01*
X150000000Y-98000000D02*
X150000000Y-118000000D01*
X116000000Y-98000000D02*
X150000000Y-98000000D01*
D12*
X167801000Y-97314000D02*
X167801000Y-97114000D01*
X167801000Y-94720000D02*
X167801000Y-94900000D01*
X171028744Y-95030357D02*
G75*
G03X167801000Y-94714000I-1727744J-1003643D01*
G01*
X170353006Y-94900932D02*
G75*
G03X168250000Y-94900000I-1052006J-1133068D01*
G01*
X167813780Y-97340726D02*
G75*
G03X171051000Y-96994000I1497220J1306726D01*
G01*
X168287111Y-97113253D02*
G75*
G03X170335000Y-97094000I1013889J1079253D01*
G01*
X167801000Y-109314000D02*
X167801000Y-109114000D01*
X167801000Y-106720000D02*
X167801000Y-106900000D01*
X171028744Y-107030357D02*
G75*
G03X167801000Y-106714000I-1727744J-1003643D01*
G01*
X170353006Y-106900932D02*
G75*
G03X168250000Y-106900000I-1052006J-1133068D01*
G01*
X167813780Y-109340726D02*
G75*
G03X171051000Y-108994000I1497220J1306726D01*
G01*
X168287111Y-109113253D02*
G75*
G03X170335000Y-109094000I1013889J1079253D01*
G01*
X167801000Y-121314000D02*
X167801000Y-121114000D01*
X167801000Y-118720000D02*
X167801000Y-118900000D01*
X171028744Y-119030357D02*
G75*
G03X167801000Y-118714000I-1727744J-1003643D01*
G01*
X170353006Y-118900932D02*
G75*
G03X168250000Y-118900000I-1052006J-1133068D01*
G01*
X167813780Y-121340726D02*
G75*
G03X171051000Y-120994000I1497220J1306726D01*
G01*
X168287111Y-121113253D02*
G75*
G03X170335000Y-121094000I1013889J1079253D01*
G01*
X167801000Y-133314000D02*
X167801000Y-133114000D01*
X167801000Y-130720000D02*
X167801000Y-130900000D01*
X171028744Y-131030357D02*
G75*
G03X167801000Y-130714000I-1727744J-1003643D01*
G01*
X170353006Y-130900932D02*
G75*
G03X168250000Y-130900000I-1052006J-1133068D01*
G01*
X167813780Y-133340726D02*
G75*
G03X171051000Y-132994000I1497220J1306726D01*
G01*
X168287111Y-133113253D02*
G75*
G03X170335000Y-133094000I1013889J1079253D01*
G01*
X121314000Y-139199000D02*
X121114000Y-139199000D01*
X118720000Y-139199000D02*
X118900000Y-139199000D01*
X119030357Y-135971256D02*
G75*
G03X118714000Y-139199000I1003643J-1727744D01*
G01*
X118900932Y-136646994D02*
G75*
G03X118900000Y-138750000I1133068J-1052006D01*
G01*
X121340726Y-139186220D02*
G75*
G03X120994000Y-135949000I-1306726J1497220D01*
G01*
X121113253Y-138712889D02*
G75*
G03X121094000Y-136665000I-1079253J1013889D01*
G01*
X133314000Y-139199000D02*
X133114000Y-139199000D01*
X130720000Y-139199000D02*
X130900000Y-139199000D01*
X131030357Y-135971256D02*
G75*
G03X130714000Y-139199000I1003643J-1727744D01*
G01*
X130900932Y-136646994D02*
G75*
G03X130900000Y-138750000I1133068J-1052006D01*
G01*
X133340726Y-139186220D02*
G75*
G03X132994000Y-135949000I-1306726J1497220D01*
G01*
X133113253Y-138712889D02*
G75*
G03X133094000Y-136665000I-1079253J1013889D01*
G01*
X145314000Y-139199000D02*
X145114000Y-139199000D01*
X142720000Y-139199000D02*
X142900000Y-139199000D01*
X143030357Y-135971256D02*
G75*
G03X142714000Y-139199000I1003643J-1727744D01*
G01*
X142900932Y-136646994D02*
G75*
G03X142900000Y-138750000I1133068J-1052006D01*
G01*
X145340726Y-139186220D02*
G75*
G03X144994000Y-135949000I-1306726J1497220D01*
G01*
X145113253Y-138712889D02*
G75*
G03X145094000Y-136665000I-1079253J1013889D01*
G01*
X157314000Y-139199000D02*
X157114000Y-139199000D01*
X154720000Y-139199000D02*
X154900000Y-139199000D01*
X155030357Y-135971256D02*
G75*
G03X154714000Y-139199000I1003643J-1727744D01*
G01*
X154900932Y-136646994D02*
G75*
G03X154900000Y-138750000I1133068J-1052006D01*
G01*
X157340726Y-139186220D02*
G75*
G03X156994000Y-135949000I-1306726J1497220D01*
G01*
X157113253Y-138712889D02*
G75*
G03X157094000Y-136665000I-1079253J1013889D01*
G01*
X176314000Y-139199000D02*
X176114000Y-139199000D01*
X173720000Y-139199000D02*
X173900000Y-139199000D01*
X174030357Y-135971256D02*
G75*
G03X173714000Y-139199000I1003643J-1727744D01*
G01*
X173900932Y-136646994D02*
G75*
G03X173900000Y-138750000I1133068J-1052006D01*
G01*
X176340726Y-139186220D02*
G75*
G03X175994000Y-135949000I-1306726J1497220D01*
G01*
X176113253Y-138712889D02*
G75*
G03X176094000Y-136665000I-1079253J1013889D01*
G01*
X188314000Y-139199000D02*
X188114000Y-139199000D01*
X185720000Y-139199000D02*
X185900000Y-139199000D01*
X186030357Y-135971256D02*
G75*
G03X185714000Y-139199000I1003643J-1727744D01*
G01*
X185900932Y-136646994D02*
G75*
G03X185900000Y-138750000I1133068J-1052006D01*
G01*
X188340726Y-139186220D02*
G75*
G03X187994000Y-135949000I-1306726J1497220D01*
G01*
X188113253Y-138712889D02*
G75*
G03X188094000Y-136665000I-1079253J1013889D01*
G01*
X200314000Y-139199000D02*
X200114000Y-139199000D01*
X197720000Y-139199000D02*
X197900000Y-139199000D01*
X198030357Y-135971256D02*
G75*
G03X197714000Y-139199000I1003643J-1727744D01*
G01*
X197900932Y-136646994D02*
G75*
G03X197900000Y-138750000I1133068J-1052006D01*
G01*
X200340726Y-139186220D02*
G75*
G03X199994000Y-135949000I-1306726J1497220D01*
G01*
X200113253Y-138712889D02*
G75*
G03X200094000Y-136665000I-1079253J1013889D01*
G01*
X212314000Y-139199000D02*
X212114000Y-139199000D01*
X209720000Y-139199000D02*
X209900000Y-139199000D01*
X210030357Y-135971256D02*
G75*
G03X209714000Y-139199000I1003643J-1727744D01*
G01*
X209900932Y-136646994D02*
G75*
G03X209900000Y-138750000I1133068J-1052006D01*
G01*
X212340726Y-139186220D02*
G75*
G03X211994000Y-135949000I-1306726J1497220D01*
G01*
X212113253Y-138712889D02*
G75*
G03X212094000Y-136665000I-1079253J1013889D01*
G01*
X167801000Y-152314000D02*
X167801000Y-152114000D01*
X167801000Y-149720000D02*
X167801000Y-149900000D01*
X171028744Y-150030357D02*
G75*
G03X167801000Y-149714000I-1727744J-1003643D01*
G01*
X170353006Y-149900932D02*
G75*
G03X168250000Y-149900000I-1052006J-1133068D01*
G01*
X167813780Y-152340726D02*
G75*
G03X171051000Y-151994000I1497220J1306726D01*
G01*
X168287111Y-152113253D02*
G75*
G03X170335000Y-152094000I1013889J1079253D01*
G01*
X167801000Y-164314000D02*
X167801000Y-164114000D01*
X167801000Y-161720000D02*
X167801000Y-161900000D01*
X171028744Y-162030357D02*
G75*
G03X167801000Y-161714000I-1727744J-1003643D01*
G01*
X170353006Y-161900932D02*
G75*
G03X168250000Y-161900000I-1052006J-1133068D01*
G01*
X167813780Y-164340726D02*
G75*
G03X171051000Y-163994000I1497220J1306726D01*
G01*
X168287111Y-164113253D02*
G75*
G03X170335000Y-164094000I1013889J1079253D01*
G01*
X167801000Y-176314000D02*
X167801000Y-176114000D01*
X167801000Y-173720000D02*
X167801000Y-173900000D01*
X171028744Y-174030357D02*
G75*
G03X167801000Y-173714000I-1727744J-1003643D01*
G01*
X170353006Y-173900932D02*
G75*
G03X168250000Y-173900000I-1052006J-1133068D01*
G01*
X167813780Y-176340726D02*
G75*
G03X171051000Y-175994000I1497220J1306726D01*
G01*
X168287111Y-176113253D02*
G75*
G03X170335000Y-176094000I1013889J1079253D01*
G01*
X167801000Y-188314000D02*
X167801000Y-188114000D01*
X167801000Y-185720000D02*
X167801000Y-185900000D01*
X171028744Y-186030357D02*
G75*
G03X167801000Y-185714000I-1727744J-1003643D01*
G01*
X170353006Y-185900932D02*
G75*
G03X168250000Y-185900000I-1052006J-1133068D01*
G01*
X167813780Y-188340726D02*
G75*
G03X171051000Y-187994000I1497220J1306726D01*
G01*
X168287111Y-188113253D02*
G75*
G03X170335000Y-188094000I1013889J1079253D01*
G01*
X160100000Y-96900000D02*
X160100000Y-97500000D01*
X160100000Y-94500000D02*
X160100000Y-95100000D01*
X163909072Y-96000000D02*
G75*
G03X163909072Y-96000000I-2209072J0D01*
G01*
X160100000Y-108900000D02*
X160100000Y-109500000D01*
X160100000Y-106500000D02*
X160100000Y-107100000D01*
X163909072Y-108000000D02*
G75*
G03X163909072Y-108000000I-2209072J0D01*
G01*
X160100000Y-120900000D02*
X160100000Y-121500000D01*
X160100000Y-118500000D02*
X160100000Y-119100000D01*
X163909072Y-120000000D02*
G75*
G03X163909072Y-120000000I-2209072J0D01*
G01*
X160100000Y-132900000D02*
X160100000Y-133500000D01*
X160100000Y-130500000D02*
X160100000Y-131100000D01*
X163909072Y-132000000D02*
G75*
G03X163909072Y-132000000I-2209072J0D01*
G01*
X120900000Y-146900000D02*
X121500000Y-146900000D01*
X118500000Y-146900000D02*
X119100000Y-146900000D01*
X122209072Y-145300000D02*
G75*
G03X122209072Y-145300000I-2209072J0D01*
G01*
X132900000Y-146900000D02*
X133500000Y-146900000D01*
X130500000Y-146900000D02*
X131100000Y-146900000D01*
X134209072Y-145300000D02*
G75*
G03X134209072Y-145300000I-2209072J0D01*
G01*
X144900000Y-146900000D02*
X145500000Y-146900000D01*
X142500000Y-146900000D02*
X143100000Y-146900000D01*
X146209072Y-145300000D02*
G75*
G03X146209072Y-145300000I-2209072J0D01*
G01*
X156900000Y-146900000D02*
X157500000Y-146900000D01*
X154500000Y-146900000D02*
X155100000Y-146900000D01*
X158209072Y-145300000D02*
G75*
G03X158209072Y-145300000I-2209072J0D01*
G01*
X175900000Y-146900000D02*
X176500000Y-146900000D01*
X173500000Y-146900000D02*
X174100000Y-146900000D01*
X177209072Y-145300000D02*
G75*
G03X177209072Y-145300000I-2209072J0D01*
G01*
X187900000Y-146900000D02*
X188500000Y-146900000D01*
X185500000Y-146900000D02*
X186100000Y-146900000D01*
X189209072Y-145300000D02*
G75*
G03X189209072Y-145300000I-2209072J0D01*
G01*
X199900000Y-146900000D02*
X200500000Y-146900000D01*
X197500000Y-146900000D02*
X198100000Y-146900000D01*
X201209072Y-145300000D02*
G75*
G03X201209072Y-145300000I-2209072J0D01*
G01*
X211900000Y-146900000D02*
X212500000Y-146900000D01*
X209500000Y-146900000D02*
X210100000Y-146900000D01*
X213209072Y-145300000D02*
G75*
G03X213209072Y-145300000I-2209072J0D01*
G01*
X160100000Y-151900000D02*
X160100000Y-152500000D01*
X160100000Y-149500000D02*
X160100000Y-150100000D01*
X163909072Y-151000000D02*
G75*
G03X163909072Y-151000000I-2209072J0D01*
G01*
X160100000Y-163900000D02*
X160100000Y-164500000D01*
X160100000Y-161500000D02*
X160100000Y-162100000D01*
X163909072Y-163000000D02*
G75*
G03X163909072Y-163000000I-2209072J0D01*
G01*
X160100000Y-175900000D02*
X160100000Y-176500000D01*
X160100000Y-173500000D02*
X160100000Y-174100000D01*
X163909072Y-175000000D02*
G75*
G03X163909072Y-175000000I-2209072J0D01*
G01*
X160100000Y-187900000D02*
X160100000Y-188500000D01*
X160100000Y-185500000D02*
X160100000Y-186100000D01*
X163909072Y-187000000D02*
G75*
G03X163909072Y-187000000I-2209072J0D01*
G01*
X163140000Y-112730000D02*
X168220000Y-112730000D01*
X168220000Y-112730000D02*
X168220000Y-115270000D01*
X168220000Y-115270000D02*
X163140000Y-115270000D01*
X163140000Y-115270000D02*
X163140000Y-112730000D01*
X163140000Y-114000000D02*
X161870000Y-114000000D01*
X168220000Y-114000000D02*
X169490000Y-114000000D01*
X164370000Y-100530000D02*
X169450000Y-100530000D01*
X169450000Y-100530000D02*
X169450000Y-103070000D01*
X169450000Y-103070000D02*
X164370000Y-103070000D01*
X164370000Y-103070000D02*
X164370000Y-100530000D01*
X164270000Y-124230000D02*
X169350000Y-124230000D01*
X169350000Y-124230000D02*
X169350000Y-126770000D01*
X169350000Y-126770000D02*
X164270000Y-126770000D01*
X164270000Y-126770000D02*
X164270000Y-124230000D01*
X136730000Y-145230000D02*
X136730000Y-140150000D01*
X136730000Y-140150000D02*
X139270000Y-140150000D01*
X139270000Y-140150000D02*
X139270000Y-145230000D01*
X139270000Y-145230000D02*
X136730000Y-145230000D01*
X124730000Y-142730000D02*
X124730000Y-137650000D01*
X124730000Y-137650000D02*
X127270000Y-137650000D01*
X127270000Y-137650000D02*
X127270000Y-142730000D01*
X127270000Y-142730000D02*
X124730000Y-142730000D01*
X149230000Y-142730000D02*
X149230000Y-137650000D01*
X149230000Y-137650000D02*
X151770000Y-137650000D01*
X151770000Y-137650000D02*
X151770000Y-142730000D01*
X151770000Y-142730000D02*
X149230000Y-142730000D01*
X203730000Y-145230000D02*
X203730000Y-140150000D01*
X203730000Y-140150000D02*
X206270000Y-140150000D01*
X206270000Y-140150000D02*
X206270000Y-145230000D01*
X206270000Y-145230000D02*
X203730000Y-145230000D01*
X179730000Y-142730000D02*
X179730000Y-137650000D01*
X179730000Y-137650000D02*
X182270000Y-137650000D01*
X182270000Y-137650000D02*
X182270000Y-142730000D01*
X182270000Y-142730000D02*
X179730000Y-142730000D01*
X191730000Y-142730000D02*
X191730000Y-137650000D01*
X191730000Y-137650000D02*
X194270000Y-137650000D01*
X194270000Y-137650000D02*
X194270000Y-142730000D01*
X194270000Y-142730000D02*
X191730000Y-142730000D01*
X161770000Y-167830000D02*
X166850000Y-167830000D01*
X166850000Y-167830000D02*
X166850000Y-170370000D01*
X166850000Y-170370000D02*
X161770000Y-170370000D01*
X161770000Y-170370000D02*
X161770000Y-167830000D01*
X164370000Y-155430000D02*
X169450000Y-155430000D01*
X169450000Y-155430000D02*
X169450000Y-157970000D01*
X169450000Y-157970000D02*
X164370000Y-157970000D01*
X164370000Y-157970000D02*
X164370000Y-155430000D01*
X164270000Y-179230000D02*
X169350000Y-179230000D01*
X169350000Y-179230000D02*
X169350000Y-181770000D01*
X169350000Y-181770000D02*
X164270000Y-181770000D01*
X164270000Y-181770000D02*
X164270000Y-179230000D01*
X203913275Y-99600000D02*
G75*
G03X203913275Y-99600000I-1513275J0D01*
G01*
X205400000Y-96600000D02*
X175400000Y-96600000D01*
X175400000Y-96600000D02*
X175400000Y-126600000D01*
X175400000Y-126600000D02*
X205400000Y-126600000D01*
X205400000Y-126600000D02*
X205400000Y-96600000D01*
X179913275Y-99600000D02*
G75*
G03X179913275Y-99600000I-1513275J0D01*
G01*
X203913275Y-123600000D02*
G75*
G03X203913275Y-123600000I-1513275J0D01*
G01*
X179913275Y-123600000D02*
G75*
G03X179913275Y-123600000I-1513275J0D01*
G01*
X233873200Y-104749200D02*
X231053800Y-104774600D01*
X230317200Y-104647600D02*
X234457400Y-104622200D01*
X234990800Y-104520600D02*
X229910800Y-104520600D01*
X229453600Y-104393600D02*
X235295600Y-104393600D01*
X235676600Y-104266600D02*
X229148800Y-104266600D01*
X228818600Y-104139600D02*
X235956000Y-104139600D01*
X236286200Y-104012600D02*
X228564600Y-104012600D01*
X228259800Y-103885600D02*
X236514800Y-103885600D01*
X228005800Y-103758600D02*
X236718000Y-103758600D01*
X241400000Y-95925000D02*
X223400000Y-95925000D01*
X241397000Y-96065000D02*
X223403000Y-96065000D01*
X241392000Y-96205000D02*
X223408000Y-96205000D01*
X241385000Y-96345000D02*
X223415000Y-96345000D01*
X241375000Y-96485000D02*
X223425000Y-96485000D01*
X241362000Y-96625000D02*
X223438000Y-96625000D01*
X241348000Y-96765000D02*
X223452000Y-96765000D01*
X241330000Y-96905000D02*
X223470000Y-96905000D01*
X241310000Y-97045000D02*
X223490000Y-97045000D01*
X241288000Y-97185000D02*
X223512000Y-97185000D01*
X241263000Y-97325000D02*
X223537000Y-97325000D01*
X241235000Y-97465000D02*
X223565000Y-97465000D01*
X241205000Y-97605000D02*
X223595000Y-97605000D01*
X241172000Y-97745000D02*
X223628000Y-97745000D01*
X241137000Y-97885000D02*
X223663000Y-97885000D01*
X241099000Y-98025000D02*
X223701000Y-98025000D01*
X241058000Y-98165000D02*
X223742000Y-98165000D01*
X241014000Y-98305000D02*
X223786000Y-98305000D01*
X240967000Y-98445000D02*
X223833000Y-98445000D01*
X240918000Y-98585000D02*
X223882000Y-98585000D01*
X240866000Y-98725000D02*
X232884000Y-98725000D01*
X231916000Y-98725000D02*
X223934000Y-98725000D01*
X240850000Y-98865000D02*
X233078000Y-98865000D01*
X231722000Y-98865000D02*
X223990000Y-98865000D01*
X240800000Y-99005000D02*
X233204000Y-99005000D01*
X231596000Y-99005000D02*
X224020000Y-99005000D01*
X240750000Y-99145000D02*
X233290000Y-99145000D01*
X231510000Y-99145000D02*
X224050000Y-99145000D01*
X240650000Y-99285000D02*
X233349000Y-99285000D01*
X231451000Y-99285000D02*
X224070000Y-99285000D01*
X240650000Y-99425000D02*
X233385000Y-99425000D01*
X231415000Y-99425000D02*
X224120000Y-99425000D01*
X240585000Y-99565000D02*
X233399000Y-99565000D01*
X231401000Y-99565000D02*
X224200000Y-99565000D01*
X240550000Y-99705000D02*
X233394000Y-99705000D01*
X231406000Y-99705000D02*
X224250000Y-99705000D01*
X240500000Y-99845000D02*
X233370000Y-99845000D01*
X231430000Y-99845000D02*
X224350000Y-99845000D01*
X240400000Y-99985000D02*
X233323000Y-99985000D01*
X231477000Y-99985000D02*
X224450000Y-99985000D01*
X240300000Y-100125000D02*
X233251000Y-100125000D01*
X231549000Y-100125000D02*
X224530000Y-100125000D01*
X240200000Y-100265000D02*
X233147000Y-100265000D01*
X231653000Y-100265000D02*
X224550000Y-100265000D01*
X240150000Y-100405000D02*
X232993000Y-100405000D01*
X231807000Y-100405000D02*
X224620000Y-100405000D01*
X240100000Y-100545000D02*
X232727000Y-100545000D01*
X232073000Y-100545000D02*
X224700000Y-100545000D01*
X240000000Y-100685000D02*
X224800000Y-100685000D01*
X239900000Y-100825000D02*
X224900000Y-100825000D01*
X239800000Y-100965000D02*
X225000000Y-100965000D01*
X239700000Y-101105000D02*
X225100000Y-101105000D01*
X239600000Y-101245000D02*
X225200000Y-101245000D01*
X239500000Y-101385000D02*
X225300000Y-101385000D01*
X239400000Y-101525000D02*
X225400000Y-101525000D01*
X239300000Y-101665000D02*
X225500000Y-101665000D01*
X239200000Y-101805000D02*
X225600000Y-101805000D01*
X239000000Y-101945000D02*
X225800000Y-101945000D01*
X238900000Y-102085000D02*
X225900000Y-102085000D01*
X238800000Y-102225000D02*
X226000000Y-102225000D01*
X238600000Y-102365000D02*
X226200000Y-102365000D01*
X238500000Y-102505000D02*
X226300000Y-102505000D01*
X238300000Y-102645000D02*
X226500000Y-102645000D01*
X238200000Y-102785000D02*
X226600000Y-102785000D01*
X238000000Y-102925000D02*
X226800000Y-102925000D01*
X237850000Y-103065000D02*
X226950000Y-103065000D01*
X237650000Y-103205000D02*
X227150000Y-103205000D01*
X237450000Y-103345000D02*
X227350000Y-103345000D01*
X237200000Y-103485000D02*
X227600000Y-103485000D01*
X237000000Y-103625000D02*
X227800000Y-103625000D01*
X233400000Y-99600000D02*
G75*
G03X233400000Y-99600000I-1000000J0D01*
G01*
X241400000Y-95910000D02*
G75*
G03X241400000Y-95910000I-9000000J0D01*
G01*
X222402540Y-87720000D02*
X222402540Y-88736000D01*
X222402540Y-82894000D02*
X222402540Y-81624000D01*
X223672540Y-83148000D02*
X221132540Y-83148000D01*
X223672540Y-83402000D02*
X221132540Y-83402000D01*
X223672540Y-83656000D02*
X221132540Y-83656000D01*
X223672540Y-82894000D02*
X221132540Y-82894000D01*
X223672540Y-83910000D02*
X221132540Y-82640000D01*
X223672540Y-82640000D02*
X221132540Y-83910000D01*
X223672540Y-83910000D02*
X221132540Y-83910000D01*
X223672540Y-83275000D02*
X221132540Y-83275000D01*
X221132540Y-82640000D02*
X223672540Y-82640000D01*
X223672540Y-82640000D02*
X223672540Y-87720000D01*
X223672540Y-87720000D02*
X221132540Y-87720000D01*
X221132540Y-87720000D02*
X221132540Y-82640000D01*
X176130000Y-85370000D02*
X176130000Y-92990000D01*
X176130000Y-92990000D02*
X181210000Y-92990000D01*
X181210000Y-92990000D02*
X181210000Y-82830000D01*
X181210000Y-82830000D02*
X178670000Y-82830000D01*
X177400000Y-82550000D02*
X175850000Y-82550000D01*
X178670000Y-82830000D02*
X178670000Y-85370000D01*
X178670000Y-85370000D02*
X176130000Y-85370000D01*
X175850000Y-82550000D02*
X175850000Y-84100000D01*
X183130000Y-84870000D02*
X183130000Y-89950000D01*
X182850000Y-82050000D02*
X184400000Y-82050000D01*
X185670000Y-82330000D02*
X185670000Y-84870000D01*
X185670000Y-84870000D02*
X183130000Y-84870000D01*
X183130000Y-89950000D02*
X188210000Y-89950000D01*
X188210000Y-89950000D02*
X188210000Y-84870000D01*
X182850000Y-82050000D02*
X182850000Y-83600000D01*
X188210000Y-82330000D02*
X185670000Y-82330000D01*
X188210000Y-84870000D02*
X188210000Y-82330000D01*
X190130000Y-84870000D02*
X190130000Y-89950000D01*
X190130000Y-89950000D02*
X192670000Y-89950000D01*
X192670000Y-89950000D02*
X192670000Y-84870000D01*
X192950000Y-82050000D02*
X192950000Y-83600000D01*
X192670000Y-84870000D02*
X190130000Y-84870000D01*
X189850000Y-83600000D02*
X189850000Y-82050000D01*
X189850000Y-82050000D02*
X192950000Y-82050000D01*
D13*
X225100000Y-86030000D02*
X225100000Y-78170000D01*
X225100000Y-78170000D02*
X231900000Y-78170000D01*
X231900000Y-86030000D02*
X225100000Y-86030000D01*
X231900000Y-86030000D02*
X231900000Y-78170000D01*
D14*
X233600000Y-78170000D02*
X233600000Y-86030000D01*
X231900000Y-78170000D02*
X233600000Y-78170000D01*
X231900000Y-86030000D02*
X233600000Y-86030000D01*
D10*
X231404000Y-77225000D02*
G75*
G03X231404000Y-77225000I-254000J0D01*
G01*
D13*
X215700000Y-104670000D02*
X215700000Y-112530000D01*
X215700000Y-112530000D02*
X208900000Y-112530000D01*
X208900000Y-104670000D02*
X215700000Y-104670000D01*
X208900000Y-104670000D02*
X208900000Y-112530000D01*
D14*
X207200000Y-112530000D02*
X207200000Y-104670000D01*
X208900000Y-112530000D02*
X207200000Y-112530000D01*
X208900000Y-104670000D02*
X207200000Y-104670000D01*
D10*
X209904000Y-113475000D02*
G75*
G03X209904000Y-113475000I-254000J0D01*
G01*
D13*
X226200000Y-104670000D02*
X226200000Y-112530000D01*
X226200000Y-112530000D02*
X219400000Y-112530000D01*
X219400000Y-104670000D02*
X226200000Y-104670000D01*
X219400000Y-104670000D02*
X219400000Y-112530000D01*
D14*
X217700000Y-112530000D02*
X217700000Y-104670000D01*
X219400000Y-112530000D02*
X217700000Y-112530000D01*
X219400000Y-104670000D02*
X217700000Y-104670000D01*
D10*
X220404000Y-113475000D02*
G75*
G03X220404000Y-113475000I-254000J0D01*
G01*
D12*
X218000000Y-88600000D02*
X218000000Y-92500000D01*
X218000000Y-92500000D02*
X218000000Y-92300000D01*
X219900000Y-92600000D02*
X220200000Y-92600000D01*
X220200000Y-92600000D02*
X220200000Y-88600000D01*
X220200000Y-88600000D02*
X220000000Y-88600000D01*
X220000000Y-88600000D02*
X219900000Y-88600000D01*
X219900000Y-92600000D02*
X219900000Y-88600000D01*
X198670000Y-83830000D02*
X203750000Y-83830000D01*
X203750000Y-83830000D02*
X203750000Y-86370000D01*
X203750000Y-86370000D02*
X198670000Y-86370000D01*
X198670000Y-86370000D02*
X198670000Y-83830000D01*
X209170000Y-87330000D02*
X214250000Y-87330000D01*
X214250000Y-87330000D02*
X214250000Y-89870000D01*
X214250000Y-89870000D02*
X209170000Y-89870000D01*
X209170000Y-89870000D02*
X209170000Y-87330000D01*
X209170000Y-93330000D02*
X214250000Y-93330000D01*
X214250000Y-93330000D02*
X214250000Y-95870000D01*
X214250000Y-95870000D02*
X209170000Y-95870000D01*
X209170000Y-95870000D02*
X209170000Y-93330000D01*
X198630000Y-87330000D02*
X198630000Y-92410000D01*
X198630000Y-92410000D02*
X203710000Y-92410000D01*
X203710000Y-92410000D02*
X203710000Y-87330000D01*
X203710000Y-87330000D02*
X198630000Y-87330000D01*
X113310000Y-104230000D02*
X113310000Y-116930000D01*
X113310000Y-116930000D02*
X108230000Y-116930000D01*
X108230000Y-116930000D02*
X108230000Y-106770000D01*
X113310000Y-104230000D02*
X110770000Y-104230000D01*
X109500000Y-103950000D02*
X107950000Y-103950000D01*
X110770000Y-104230000D02*
X110770000Y-106770000D01*
X110770000Y-106770000D02*
X108230000Y-106770000D01*
X107950000Y-103950000D02*
X107950000Y-105500000D01*
X110930000Y-123670000D02*
X108390000Y-123670000D01*
X113750000Y-123950000D02*
X112200000Y-123950000D01*
X110930000Y-123670000D02*
X110930000Y-121130000D01*
X112200000Y-120850000D02*
X113750000Y-120850000D01*
X113750000Y-120850000D02*
X113750000Y-123950000D01*
X110930000Y-121130000D02*
X108390000Y-121130000D01*
X108390000Y-121130000D02*
X108390000Y-123670000D01*
X116730000Y-101770000D02*
X116730000Y-117010000D01*
X116730000Y-117010000D02*
X119270000Y-117010000D01*
X119270000Y-117010000D02*
X119270000Y-101770000D01*
X116450000Y-98950000D02*
X116450000Y-100500000D01*
X116730000Y-101770000D02*
X119270000Y-101770000D01*
X119550000Y-100500000D02*
X119550000Y-98950000D01*
X119550000Y-98950000D02*
X116450000Y-98950000D01*
X169171905Y-99512381D02*
X169171905Y-98512381D01*
X169410000Y-98512381D01*
X169552858Y-98560000D01*
X169648096Y-98655238D01*
X169695715Y-98750476D01*
X169743334Y-98940952D01*
X169743334Y-99083810D01*
X169695715Y-99274286D01*
X169648096Y-99369524D01*
X169552858Y-99464762D01*
X169410000Y-99512381D01*
X169171905Y-99512381D01*
X170124286Y-98607619D02*
X170171905Y-98560000D01*
X170267143Y-98512381D01*
X170505239Y-98512381D01*
X170600477Y-98560000D01*
X170648096Y-98607619D01*
X170695715Y-98702857D01*
X170695715Y-98798095D01*
X170648096Y-98940952D01*
X170076667Y-99512381D01*
X170695715Y-99512381D01*
X166048095Y-98192381D02*
X166048095Y-97192381D01*
X166619524Y-98192381D02*
X166190952Y-97620952D01*
X166619524Y-97192381D02*
X166048095Y-97763810D01*
X169171905Y-111512381D02*
X169171905Y-110512381D01*
X169410000Y-110512381D01*
X169552858Y-110560000D01*
X169648096Y-110655238D01*
X169695715Y-110750476D01*
X169743334Y-110940952D01*
X169743334Y-111083810D01*
X169695715Y-111274286D01*
X169648096Y-111369524D01*
X169552858Y-111464762D01*
X169410000Y-111512381D01*
X169171905Y-111512381D01*
X170076667Y-110512381D02*
X170695715Y-110512381D01*
X170362381Y-110893333D01*
X170505239Y-110893333D01*
X170600477Y-110940952D01*
X170648096Y-110988571D01*
X170695715Y-111083810D01*
X170695715Y-111321905D01*
X170648096Y-111417143D01*
X170600477Y-111464762D01*
X170505239Y-111512381D01*
X170219524Y-111512381D01*
X170124286Y-111464762D01*
X170076667Y-111417143D01*
X166048095Y-110192381D02*
X166048095Y-109192381D01*
X166619524Y-110192381D02*
X166190952Y-109620952D01*
X166619524Y-109192381D02*
X166048095Y-109763810D01*
X168761905Y-116452381D02*
X168761905Y-115452381D01*
X169000000Y-115452381D01*
X169142858Y-115500000D01*
X169238096Y-115595238D01*
X169285715Y-115690476D01*
X169333334Y-115880952D01*
X169333334Y-116023810D01*
X169285715Y-116214286D01*
X169238096Y-116309524D01*
X169142858Y-116404762D01*
X169000000Y-116452381D01*
X168761905Y-116452381D01*
X170190477Y-115785714D02*
X170190477Y-116452381D01*
X169952381Y-115404762D02*
X169714286Y-116119048D01*
X170333334Y-116119048D01*
X166048095Y-122192381D02*
X166048095Y-121192381D01*
X166619524Y-122192381D02*
X166190952Y-121620952D01*
X166619524Y-121192381D02*
X166048095Y-121763810D01*
X170761905Y-129952381D02*
X170761905Y-128952381D01*
X171000000Y-128952381D01*
X171142858Y-129000000D01*
X171238096Y-129095238D01*
X171285715Y-129190476D01*
X171333334Y-129380952D01*
X171333334Y-129523810D01*
X171285715Y-129714286D01*
X171238096Y-129809524D01*
X171142858Y-129904762D01*
X171000000Y-129952381D01*
X170761905Y-129952381D01*
X172238096Y-128952381D02*
X171761905Y-128952381D01*
X171714286Y-129428571D01*
X171761905Y-129380952D01*
X171857143Y-129333333D01*
X172095239Y-129333333D01*
X172190477Y-129380952D01*
X172238096Y-129428571D01*
X172285715Y-129523810D01*
X172285715Y-129761905D01*
X172238096Y-129857143D01*
X172190477Y-129904762D01*
X172095239Y-129952381D01*
X171857143Y-129952381D01*
X171761905Y-129904762D01*
X171714286Y-129857143D01*
X166048095Y-134192381D02*
X166048095Y-133192381D01*
X166619524Y-134192381D02*
X166190952Y-133620952D01*
X166619524Y-133192381D02*
X166048095Y-133763810D01*
X123512381Y-137828095D02*
X122512381Y-137828095D01*
X122512381Y-137590000D01*
X122560000Y-137447142D01*
X122655238Y-137351904D01*
X122750476Y-137304285D01*
X122940952Y-137256666D01*
X123083810Y-137256666D01*
X123274286Y-137304285D01*
X123369524Y-137351904D01*
X123464762Y-137447142D01*
X123512381Y-137590000D01*
X123512381Y-137828095D01*
X122512381Y-136399523D02*
X122512381Y-136590000D01*
X122560000Y-136685238D01*
X122607619Y-136732857D01*
X122750476Y-136828095D01*
X122940952Y-136875714D01*
X123321905Y-136875714D01*
X123417143Y-136828095D01*
X123464762Y-136780476D01*
X123512381Y-136685238D01*
X123512381Y-136494761D01*
X123464762Y-136399523D01*
X123417143Y-136351904D01*
X123321905Y-136304285D01*
X123083810Y-136304285D01*
X122988571Y-136351904D01*
X122940952Y-136399523D01*
X122893333Y-136494761D01*
X122893333Y-136685238D01*
X122940952Y-136780476D01*
X122988571Y-136828095D01*
X123083810Y-136875714D01*
X122192381Y-140951905D02*
X121192381Y-140951905D01*
X122192381Y-140380476D02*
X121620952Y-140809048D01*
X121192381Y-140380476D02*
X121763810Y-140951905D01*
X135512381Y-137828095D02*
X134512381Y-137828095D01*
X134512381Y-137590000D01*
X134560000Y-137447142D01*
X134655238Y-137351904D01*
X134750476Y-137304285D01*
X134940952Y-137256666D01*
X135083810Y-137256666D01*
X135274286Y-137304285D01*
X135369524Y-137351904D01*
X135464762Y-137447142D01*
X135512381Y-137590000D01*
X135512381Y-137828095D01*
X134512381Y-136923333D02*
X134512381Y-136256666D01*
X135512381Y-136685238D01*
X134192381Y-140951905D02*
X133192381Y-140951905D01*
X134192381Y-140380476D02*
X133620952Y-140809048D01*
X133192381Y-140380476D02*
X133763810Y-140951905D01*
X147512381Y-137828095D02*
X146512381Y-137828095D01*
X146512381Y-137590000D01*
X146560000Y-137447142D01*
X146655238Y-137351904D01*
X146750476Y-137304285D01*
X146940952Y-137256666D01*
X147083810Y-137256666D01*
X147274286Y-137304285D01*
X147369524Y-137351904D01*
X147464762Y-137447142D01*
X147512381Y-137590000D01*
X147512381Y-137828095D01*
X146940952Y-136685238D02*
X146893333Y-136780476D01*
X146845714Y-136828095D01*
X146750476Y-136875714D01*
X146702857Y-136875714D01*
X146607619Y-136828095D01*
X146560000Y-136780476D01*
X146512381Y-136685238D01*
X146512381Y-136494761D01*
X146560000Y-136399523D01*
X146607619Y-136351904D01*
X146702857Y-136304285D01*
X146750476Y-136304285D01*
X146845714Y-136351904D01*
X146893333Y-136399523D01*
X146940952Y-136494761D01*
X146940952Y-136685238D01*
X146988571Y-136780476D01*
X147036190Y-136828095D01*
X147131429Y-136875714D01*
X147321905Y-136875714D01*
X147417143Y-136828095D01*
X147464762Y-136780476D01*
X147512381Y-136685238D01*
X147512381Y-136494761D01*
X147464762Y-136399523D01*
X147417143Y-136351904D01*
X147321905Y-136304285D01*
X147131429Y-136304285D01*
X147036190Y-136351904D01*
X146988571Y-136399523D01*
X146940952Y-136494761D01*
X146192381Y-140951905D02*
X145192381Y-140951905D01*
X146192381Y-140380476D02*
X145620952Y-140809048D01*
X145192381Y-140380476D02*
X145763810Y-140951905D01*
X158952381Y-136738095D02*
X157952381Y-136738095D01*
X157952381Y-136500000D01*
X158000000Y-136357142D01*
X158095238Y-136261904D01*
X158190476Y-136214285D01*
X158380952Y-136166666D01*
X158523810Y-136166666D01*
X158714286Y-136214285D01*
X158809524Y-136261904D01*
X158904762Y-136357142D01*
X158952381Y-136500000D01*
X158952381Y-136738095D01*
X158952381Y-135690476D02*
X158952381Y-135500000D01*
X158904762Y-135404761D01*
X158857143Y-135357142D01*
X158714286Y-135261904D01*
X158523810Y-135214285D01*
X158142857Y-135214285D01*
X158047619Y-135261904D01*
X158000000Y-135309523D01*
X157952381Y-135404761D01*
X157952381Y-135595238D01*
X158000000Y-135690476D01*
X158047619Y-135738095D01*
X158142857Y-135785714D01*
X158380952Y-135785714D01*
X158476190Y-135738095D01*
X158523810Y-135690476D01*
X158571429Y-135595238D01*
X158571429Y-135404761D01*
X158523810Y-135309523D01*
X158476190Y-135261904D01*
X158380952Y-135214285D01*
X158192381Y-140951905D02*
X157192381Y-140951905D01*
X158192381Y-140380476D02*
X157620952Y-140809048D01*
X157192381Y-140380476D02*
X157763810Y-140951905D01*
X178512381Y-138304286D02*
X177512381Y-138304286D01*
X177512381Y-138066191D01*
X177560000Y-137923333D01*
X177655238Y-137828095D01*
X177750476Y-137780476D01*
X177940952Y-137732857D01*
X178083810Y-137732857D01*
X178274286Y-137780476D01*
X178369524Y-137828095D01*
X178464762Y-137923333D01*
X178512381Y-138066191D01*
X178512381Y-138304286D01*
X178512381Y-136780476D02*
X178512381Y-137351905D01*
X178512381Y-137066191D02*
X177512381Y-137066191D01*
X177655238Y-137161429D01*
X177750476Y-137256667D01*
X177798095Y-137351905D01*
X177512381Y-136161429D02*
X177512381Y-136066190D01*
X177560000Y-135970952D01*
X177607619Y-135923333D01*
X177702857Y-135875714D01*
X177893333Y-135828095D01*
X178131429Y-135828095D01*
X178321905Y-135875714D01*
X178417143Y-135923333D01*
X178464762Y-135970952D01*
X178512381Y-136066190D01*
X178512381Y-136161429D01*
X178464762Y-136256667D01*
X178417143Y-136304286D01*
X178321905Y-136351905D01*
X178131429Y-136399524D01*
X177893333Y-136399524D01*
X177702857Y-136351905D01*
X177607619Y-136304286D01*
X177560000Y-136256667D01*
X177512381Y-136161429D01*
X177192381Y-140951905D02*
X176192381Y-140951905D01*
X177192381Y-140380476D02*
X176620952Y-140809048D01*
X176192381Y-140380476D02*
X176763810Y-140951905D01*
X190512381Y-138304286D02*
X189512381Y-138304286D01*
X189512381Y-138066191D01*
X189560000Y-137923333D01*
X189655238Y-137828095D01*
X189750476Y-137780476D01*
X189940952Y-137732857D01*
X190083810Y-137732857D01*
X190274286Y-137780476D01*
X190369524Y-137828095D01*
X190464762Y-137923333D01*
X190512381Y-138066191D01*
X190512381Y-138304286D01*
X190512381Y-136780476D02*
X190512381Y-137351905D01*
X190512381Y-137066191D02*
X189512381Y-137066191D01*
X189655238Y-137161429D01*
X189750476Y-137256667D01*
X189798095Y-137351905D01*
X190512381Y-135828095D02*
X190512381Y-136399524D01*
X190512381Y-136113810D02*
X189512381Y-136113810D01*
X189655238Y-136209048D01*
X189750476Y-136304286D01*
X189798095Y-136399524D01*
X189192381Y-140951905D02*
X188192381Y-140951905D01*
X189192381Y-140380476D02*
X188620952Y-140809048D01*
X188192381Y-140380476D02*
X188763810Y-140951905D01*
X202512381Y-138304286D02*
X201512381Y-138304286D01*
X201512381Y-138066191D01*
X201560000Y-137923333D01*
X201655238Y-137828095D01*
X201750476Y-137780476D01*
X201940952Y-137732857D01*
X202083810Y-137732857D01*
X202274286Y-137780476D01*
X202369524Y-137828095D01*
X202464762Y-137923333D01*
X202512381Y-138066191D01*
X202512381Y-138304286D01*
X202512381Y-136780476D02*
X202512381Y-137351905D01*
X202512381Y-137066191D02*
X201512381Y-137066191D01*
X201655238Y-137161429D01*
X201750476Y-137256667D01*
X201798095Y-137351905D01*
X201607619Y-136399524D02*
X201560000Y-136351905D01*
X201512381Y-136256667D01*
X201512381Y-136018571D01*
X201560000Y-135923333D01*
X201607619Y-135875714D01*
X201702857Y-135828095D01*
X201798095Y-135828095D01*
X201940952Y-135875714D01*
X202512381Y-136447143D01*
X202512381Y-135828095D01*
X201192381Y-140951905D02*
X200192381Y-140951905D01*
X201192381Y-140380476D02*
X200620952Y-140809048D01*
X200192381Y-140380476D02*
X200763810Y-140951905D01*
X214512381Y-138304286D02*
X213512381Y-138304286D01*
X213512381Y-138066191D01*
X213560000Y-137923333D01*
X213655238Y-137828095D01*
X213750476Y-137780476D01*
X213940952Y-137732857D01*
X214083810Y-137732857D01*
X214274286Y-137780476D01*
X214369524Y-137828095D01*
X214464762Y-137923333D01*
X214512381Y-138066191D01*
X214512381Y-138304286D01*
X214512381Y-136780476D02*
X214512381Y-137351905D01*
X214512381Y-137066191D02*
X213512381Y-137066191D01*
X213655238Y-137161429D01*
X213750476Y-137256667D01*
X213798095Y-137351905D01*
X213512381Y-136447143D02*
X213512381Y-135828095D01*
X213893333Y-136161429D01*
X213893333Y-136018571D01*
X213940952Y-135923333D01*
X213988571Y-135875714D01*
X214083810Y-135828095D01*
X214321905Y-135828095D01*
X214417143Y-135875714D01*
X214464762Y-135923333D01*
X214512381Y-136018571D01*
X214512381Y-136304286D01*
X214464762Y-136399524D01*
X214417143Y-136447143D01*
X213192381Y-140951905D02*
X212192381Y-140951905D01*
X213192381Y-140380476D02*
X212620952Y-140809048D01*
X212192381Y-140380476D02*
X212763810Y-140951905D01*
X168695714Y-154512381D02*
X168695714Y-153512381D01*
X168933809Y-153512381D01*
X169076667Y-153560000D01*
X169171905Y-153655238D01*
X169219524Y-153750476D01*
X169267143Y-153940952D01*
X169267143Y-154083810D01*
X169219524Y-154274286D01*
X169171905Y-154369524D01*
X169076667Y-154464762D01*
X168933809Y-154512381D01*
X168695714Y-154512381D01*
X170219524Y-154512381D02*
X169648095Y-154512381D01*
X169933809Y-154512381D02*
X169933809Y-153512381D01*
X169838571Y-153655238D01*
X169743333Y-153750476D01*
X169648095Y-153798095D01*
X171076667Y-153845714D02*
X171076667Y-154512381D01*
X170838571Y-153464762D02*
X170600476Y-154179048D01*
X171219524Y-154179048D01*
X166048095Y-153192381D02*
X166048095Y-152192381D01*
X166619524Y-153192381D02*
X166190952Y-152620952D01*
X166619524Y-152192381D02*
X166048095Y-152763810D01*
X168695714Y-166512381D02*
X168695714Y-165512381D01*
X168933809Y-165512381D01*
X169076667Y-165560000D01*
X169171905Y-165655238D01*
X169219524Y-165750476D01*
X169267143Y-165940952D01*
X169267143Y-166083810D01*
X169219524Y-166274286D01*
X169171905Y-166369524D01*
X169076667Y-166464762D01*
X168933809Y-166512381D01*
X168695714Y-166512381D01*
X170219524Y-166512381D02*
X169648095Y-166512381D01*
X169933809Y-166512381D02*
X169933809Y-165512381D01*
X169838571Y-165655238D01*
X169743333Y-165750476D01*
X169648095Y-165798095D01*
X171124286Y-165512381D02*
X170648095Y-165512381D01*
X170600476Y-165988571D01*
X170648095Y-165940952D01*
X170743333Y-165893333D01*
X170981429Y-165893333D01*
X171076667Y-165940952D01*
X171124286Y-165988571D01*
X171171905Y-166083810D01*
X171171905Y-166321905D01*
X171124286Y-166417143D01*
X171076667Y-166464762D01*
X170981429Y-166512381D01*
X170743333Y-166512381D01*
X170648095Y-166464762D01*
X170600476Y-166417143D01*
X166048095Y-165192381D02*
X166048095Y-164192381D01*
X166619524Y-165192381D02*
X166190952Y-164620952D01*
X166619524Y-164192381D02*
X166048095Y-164763810D01*
X168695714Y-178512381D02*
X168695714Y-177512381D01*
X168933809Y-177512381D01*
X169076667Y-177560000D01*
X169171905Y-177655238D01*
X169219524Y-177750476D01*
X169267143Y-177940952D01*
X169267143Y-178083810D01*
X169219524Y-178274286D01*
X169171905Y-178369524D01*
X169076667Y-178464762D01*
X168933809Y-178512381D01*
X168695714Y-178512381D01*
X170219524Y-178512381D02*
X169648095Y-178512381D01*
X169933809Y-178512381D02*
X169933809Y-177512381D01*
X169838571Y-177655238D01*
X169743333Y-177750476D01*
X169648095Y-177798095D01*
X171076667Y-177512381D02*
X170886190Y-177512381D01*
X170790952Y-177560000D01*
X170743333Y-177607619D01*
X170648095Y-177750476D01*
X170600476Y-177940952D01*
X170600476Y-178321905D01*
X170648095Y-178417143D01*
X170695714Y-178464762D01*
X170790952Y-178512381D01*
X170981429Y-178512381D01*
X171076667Y-178464762D01*
X171124286Y-178417143D01*
X171171905Y-178321905D01*
X171171905Y-178083810D01*
X171124286Y-177988571D01*
X171076667Y-177940952D01*
X170981429Y-177893333D01*
X170790952Y-177893333D01*
X170695714Y-177940952D01*
X170648095Y-177988571D01*
X170600476Y-178083810D01*
X166048095Y-177192381D02*
X166048095Y-176192381D01*
X166619524Y-177192381D02*
X166190952Y-176620952D01*
X166619524Y-176192381D02*
X166048095Y-176763810D01*
X168695714Y-190512381D02*
X168695714Y-189512381D01*
X168933809Y-189512381D01*
X169076667Y-189560000D01*
X169171905Y-189655238D01*
X169219524Y-189750476D01*
X169267143Y-189940952D01*
X169267143Y-190083810D01*
X169219524Y-190274286D01*
X169171905Y-190369524D01*
X169076667Y-190464762D01*
X168933809Y-190512381D01*
X168695714Y-190512381D01*
X170219524Y-190512381D02*
X169648095Y-190512381D01*
X169933809Y-190512381D02*
X169933809Y-189512381D01*
X169838571Y-189655238D01*
X169743333Y-189750476D01*
X169648095Y-189798095D01*
X170552857Y-189512381D02*
X171219524Y-189512381D01*
X170790952Y-190512381D01*
X166048095Y-189192381D02*
X166048095Y-188192381D01*
X166619524Y-189192381D02*
X166190952Y-188620952D01*
X166619524Y-188192381D02*
X166048095Y-188763810D01*
X162904762Y-94007619D02*
X162809524Y-93960000D01*
X162714286Y-93864762D01*
X162571429Y-93721905D01*
X162476190Y-93674286D01*
X162380952Y-93674286D01*
X162428571Y-93912381D02*
X162333333Y-93864762D01*
X162238095Y-93769524D01*
X162190476Y-93579048D01*
X162190476Y-93245714D01*
X162238095Y-93055238D01*
X162333333Y-92960000D01*
X162428571Y-92912381D01*
X162619048Y-92912381D01*
X162714286Y-92960000D01*
X162809524Y-93055238D01*
X162857143Y-93245714D01*
X162857143Y-93579048D01*
X162809524Y-93769524D01*
X162714286Y-93864762D01*
X162619048Y-93912381D01*
X162428571Y-93912381D01*
X163809524Y-93912381D02*
X163238095Y-93912381D01*
X163523809Y-93912381D02*
X163523809Y-92912381D01*
X163428571Y-93055238D01*
X163333333Y-93150476D01*
X163238095Y-93198095D01*
X162904762Y-106007619D02*
X162809524Y-105960000D01*
X162714286Y-105864762D01*
X162571429Y-105721905D01*
X162476190Y-105674286D01*
X162380952Y-105674286D01*
X162428571Y-105912381D02*
X162333333Y-105864762D01*
X162238095Y-105769524D01*
X162190476Y-105579048D01*
X162190476Y-105245714D01*
X162238095Y-105055238D01*
X162333333Y-104960000D01*
X162428571Y-104912381D01*
X162619048Y-104912381D01*
X162714286Y-104960000D01*
X162809524Y-105055238D01*
X162857143Y-105245714D01*
X162857143Y-105579048D01*
X162809524Y-105769524D01*
X162714286Y-105864762D01*
X162619048Y-105912381D01*
X162428571Y-105912381D01*
X163238095Y-105007619D02*
X163285714Y-104960000D01*
X163380952Y-104912381D01*
X163619048Y-104912381D01*
X163714286Y-104960000D01*
X163761905Y-105007619D01*
X163809524Y-105102857D01*
X163809524Y-105198095D01*
X163761905Y-105340952D01*
X163190476Y-105912381D01*
X163809524Y-105912381D01*
X162904762Y-118007619D02*
X162809524Y-117960000D01*
X162714286Y-117864762D01*
X162571429Y-117721905D01*
X162476190Y-117674286D01*
X162380952Y-117674286D01*
X162428571Y-117912381D02*
X162333333Y-117864762D01*
X162238095Y-117769524D01*
X162190476Y-117579048D01*
X162190476Y-117245714D01*
X162238095Y-117055238D01*
X162333333Y-116960000D01*
X162428571Y-116912381D01*
X162619048Y-116912381D01*
X162714286Y-116960000D01*
X162809524Y-117055238D01*
X162857143Y-117245714D01*
X162857143Y-117579048D01*
X162809524Y-117769524D01*
X162714286Y-117864762D01*
X162619048Y-117912381D01*
X162428571Y-117912381D01*
X163190476Y-116912381D02*
X163809524Y-116912381D01*
X163476190Y-117293333D01*
X163619048Y-117293333D01*
X163714286Y-117340952D01*
X163761905Y-117388571D01*
X163809524Y-117483810D01*
X163809524Y-117721905D01*
X163761905Y-117817143D01*
X163714286Y-117864762D01*
X163619048Y-117912381D01*
X163333333Y-117912381D01*
X163238095Y-117864762D01*
X163190476Y-117817143D01*
X162904762Y-130007619D02*
X162809524Y-129960000D01*
X162714286Y-129864762D01*
X162571429Y-129721905D01*
X162476190Y-129674286D01*
X162380952Y-129674286D01*
X162428571Y-129912381D02*
X162333333Y-129864762D01*
X162238095Y-129769524D01*
X162190476Y-129579048D01*
X162190476Y-129245714D01*
X162238095Y-129055238D01*
X162333333Y-128960000D01*
X162428571Y-128912381D01*
X162619048Y-128912381D01*
X162714286Y-128960000D01*
X162809524Y-129055238D01*
X162857143Y-129245714D01*
X162857143Y-129579048D01*
X162809524Y-129769524D01*
X162714286Y-129864762D01*
X162619048Y-129912381D01*
X162428571Y-129912381D01*
X163714286Y-129245714D02*
X163714286Y-129912381D01*
X163476190Y-128864762D02*
X163238095Y-129579048D01*
X163857143Y-129579048D01*
X118007619Y-144095238D02*
X117960000Y-144190476D01*
X117864762Y-144285714D01*
X117721905Y-144428571D01*
X117674286Y-144523810D01*
X117674286Y-144619048D01*
X117912381Y-144571429D02*
X117864762Y-144666667D01*
X117769524Y-144761905D01*
X117579048Y-144809524D01*
X117245714Y-144809524D01*
X117055238Y-144761905D01*
X116960000Y-144666667D01*
X116912381Y-144571429D01*
X116912381Y-144380952D01*
X116960000Y-144285714D01*
X117055238Y-144190476D01*
X117245714Y-144142857D01*
X117579048Y-144142857D01*
X117769524Y-144190476D01*
X117864762Y-144285714D01*
X117912381Y-144380952D01*
X117912381Y-144571429D01*
X116912381Y-143238095D02*
X116912381Y-143714286D01*
X117388571Y-143761905D01*
X117340952Y-143714286D01*
X117293333Y-143619048D01*
X117293333Y-143380952D01*
X117340952Y-143285714D01*
X117388571Y-143238095D01*
X117483810Y-143190476D01*
X117721905Y-143190476D01*
X117817143Y-143238095D01*
X117864762Y-143285714D01*
X117912381Y-143380952D01*
X117912381Y-143619048D01*
X117864762Y-143714286D01*
X117817143Y-143761905D01*
X130007619Y-144095238D02*
X129960000Y-144190476D01*
X129864762Y-144285714D01*
X129721905Y-144428571D01*
X129674286Y-144523810D01*
X129674286Y-144619048D01*
X129912381Y-144571429D02*
X129864762Y-144666667D01*
X129769524Y-144761905D01*
X129579048Y-144809524D01*
X129245714Y-144809524D01*
X129055238Y-144761905D01*
X128960000Y-144666667D01*
X128912381Y-144571429D01*
X128912381Y-144380952D01*
X128960000Y-144285714D01*
X129055238Y-144190476D01*
X129245714Y-144142857D01*
X129579048Y-144142857D01*
X129769524Y-144190476D01*
X129864762Y-144285714D01*
X129912381Y-144380952D01*
X129912381Y-144571429D01*
X128912381Y-143285714D02*
X128912381Y-143476191D01*
X128960000Y-143571429D01*
X129007619Y-143619048D01*
X129150476Y-143714286D01*
X129340952Y-143761905D01*
X129721905Y-143761905D01*
X129817143Y-143714286D01*
X129864762Y-143666667D01*
X129912381Y-143571429D01*
X129912381Y-143380952D01*
X129864762Y-143285714D01*
X129817143Y-143238095D01*
X129721905Y-143190476D01*
X129483810Y-143190476D01*
X129388571Y-143238095D01*
X129340952Y-143285714D01*
X129293333Y-143380952D01*
X129293333Y-143571429D01*
X129340952Y-143666667D01*
X129388571Y-143714286D01*
X129483810Y-143761905D01*
X142007619Y-144095238D02*
X141960000Y-144190476D01*
X141864762Y-144285714D01*
X141721905Y-144428571D01*
X141674286Y-144523810D01*
X141674286Y-144619048D01*
X141912381Y-144571429D02*
X141864762Y-144666667D01*
X141769524Y-144761905D01*
X141579048Y-144809524D01*
X141245714Y-144809524D01*
X141055238Y-144761905D01*
X140960000Y-144666667D01*
X140912381Y-144571429D01*
X140912381Y-144380952D01*
X140960000Y-144285714D01*
X141055238Y-144190476D01*
X141245714Y-144142857D01*
X141579048Y-144142857D01*
X141769524Y-144190476D01*
X141864762Y-144285714D01*
X141912381Y-144380952D01*
X141912381Y-144571429D01*
X140912381Y-143809524D02*
X140912381Y-143142857D01*
X141912381Y-143571429D01*
X154047619Y-145095238D02*
X154000000Y-145190476D01*
X153904762Y-145285714D01*
X153761905Y-145428571D01*
X153714286Y-145523810D01*
X153714286Y-145619048D01*
X153952381Y-145571429D02*
X153904762Y-145666667D01*
X153809524Y-145761905D01*
X153619048Y-145809524D01*
X153285714Y-145809524D01*
X153095238Y-145761905D01*
X153000000Y-145666667D01*
X152952381Y-145571429D01*
X152952381Y-145380952D01*
X153000000Y-145285714D01*
X153095238Y-145190476D01*
X153285714Y-145142857D01*
X153619048Y-145142857D01*
X153809524Y-145190476D01*
X153904762Y-145285714D01*
X153952381Y-145380952D01*
X153952381Y-145571429D01*
X153380952Y-144571429D02*
X153333333Y-144666667D01*
X153285714Y-144714286D01*
X153190476Y-144761905D01*
X153142857Y-144761905D01*
X153047619Y-144714286D01*
X153000000Y-144666667D01*
X152952381Y-144571429D01*
X152952381Y-144380952D01*
X153000000Y-144285714D01*
X153047619Y-144238095D01*
X153142857Y-144190476D01*
X153190476Y-144190476D01*
X153285714Y-144238095D01*
X153333333Y-144285714D01*
X153380952Y-144380952D01*
X153380952Y-144571429D01*
X153428571Y-144666667D01*
X153476190Y-144714286D01*
X153571429Y-144761905D01*
X153761905Y-144761905D01*
X153857143Y-144714286D01*
X153904762Y-144666667D01*
X153952381Y-144571429D01*
X153952381Y-144380952D01*
X153904762Y-144285714D01*
X153857143Y-144238095D01*
X153761905Y-144190476D01*
X153571429Y-144190476D01*
X153476190Y-144238095D01*
X153428571Y-144285714D01*
X153380952Y-144380952D01*
X173007619Y-144095238D02*
X172960000Y-144190476D01*
X172864762Y-144285714D01*
X172721905Y-144428571D01*
X172674286Y-144523810D01*
X172674286Y-144619048D01*
X172912381Y-144571429D02*
X172864762Y-144666667D01*
X172769524Y-144761905D01*
X172579048Y-144809524D01*
X172245714Y-144809524D01*
X172055238Y-144761905D01*
X171960000Y-144666667D01*
X171912381Y-144571429D01*
X171912381Y-144380952D01*
X171960000Y-144285714D01*
X172055238Y-144190476D01*
X172245714Y-144142857D01*
X172579048Y-144142857D01*
X172769524Y-144190476D01*
X172864762Y-144285714D01*
X172912381Y-144380952D01*
X172912381Y-144571429D01*
X172912381Y-143666667D02*
X172912381Y-143476191D01*
X172864762Y-143380952D01*
X172817143Y-143333333D01*
X172674286Y-143238095D01*
X172483810Y-143190476D01*
X172102857Y-143190476D01*
X172007619Y-143238095D01*
X171960000Y-143285714D01*
X171912381Y-143380952D01*
X171912381Y-143571429D01*
X171960000Y-143666667D01*
X172007619Y-143714286D01*
X172102857Y-143761905D01*
X172340952Y-143761905D01*
X172436190Y-143714286D01*
X172483810Y-143666667D01*
X172531429Y-143571429D01*
X172531429Y-143380952D01*
X172483810Y-143285714D01*
X172436190Y-143238095D01*
X172340952Y-143190476D01*
X185007619Y-144571428D02*
X184960000Y-144666666D01*
X184864762Y-144761904D01*
X184721905Y-144904761D01*
X184674286Y-145000000D01*
X184674286Y-145095238D01*
X184912381Y-145047619D02*
X184864762Y-145142857D01*
X184769524Y-145238095D01*
X184579048Y-145285714D01*
X184245714Y-145285714D01*
X184055238Y-145238095D01*
X183960000Y-145142857D01*
X183912381Y-145047619D01*
X183912381Y-144857142D01*
X183960000Y-144761904D01*
X184055238Y-144666666D01*
X184245714Y-144619047D01*
X184579048Y-144619047D01*
X184769524Y-144666666D01*
X184864762Y-144761904D01*
X184912381Y-144857142D01*
X184912381Y-145047619D01*
X184912381Y-143666666D02*
X184912381Y-144238095D01*
X184912381Y-143952381D02*
X183912381Y-143952381D01*
X184055238Y-144047619D01*
X184150476Y-144142857D01*
X184198095Y-144238095D01*
X183912381Y-143047619D02*
X183912381Y-142952380D01*
X183960000Y-142857142D01*
X184007619Y-142809523D01*
X184102857Y-142761904D01*
X184293333Y-142714285D01*
X184531429Y-142714285D01*
X184721905Y-142761904D01*
X184817143Y-142809523D01*
X184864762Y-142857142D01*
X184912381Y-142952380D01*
X184912381Y-143047619D01*
X184864762Y-143142857D01*
X184817143Y-143190476D01*
X184721905Y-143238095D01*
X184531429Y-143285714D01*
X184293333Y-143285714D01*
X184102857Y-143238095D01*
X184007619Y-143190476D01*
X183960000Y-143142857D01*
X183912381Y-143047619D01*
X197007619Y-144571428D02*
X196960000Y-144666666D01*
X196864762Y-144761904D01*
X196721905Y-144904761D01*
X196674286Y-145000000D01*
X196674286Y-145095238D01*
X196912381Y-145047619D02*
X196864762Y-145142857D01*
X196769524Y-145238095D01*
X196579048Y-145285714D01*
X196245714Y-145285714D01*
X196055238Y-145238095D01*
X195960000Y-145142857D01*
X195912381Y-145047619D01*
X195912381Y-144857142D01*
X195960000Y-144761904D01*
X196055238Y-144666666D01*
X196245714Y-144619047D01*
X196579048Y-144619047D01*
X196769524Y-144666666D01*
X196864762Y-144761904D01*
X196912381Y-144857142D01*
X196912381Y-145047619D01*
X196912381Y-143666666D02*
X196912381Y-144238095D01*
X196912381Y-143952381D02*
X195912381Y-143952381D01*
X196055238Y-144047619D01*
X196150476Y-144142857D01*
X196198095Y-144238095D01*
X196912381Y-142714285D02*
X196912381Y-143285714D01*
X196912381Y-143000000D02*
X195912381Y-143000000D01*
X196055238Y-143095238D01*
X196150476Y-143190476D01*
X196198095Y-143285714D01*
X209007619Y-144571428D02*
X208960000Y-144666666D01*
X208864762Y-144761904D01*
X208721905Y-144904761D01*
X208674286Y-145000000D01*
X208674286Y-145095238D01*
X208912381Y-145047619D02*
X208864762Y-145142857D01*
X208769524Y-145238095D01*
X208579048Y-145285714D01*
X208245714Y-145285714D01*
X208055238Y-145238095D01*
X207960000Y-145142857D01*
X207912381Y-145047619D01*
X207912381Y-144857142D01*
X207960000Y-144761904D01*
X208055238Y-144666666D01*
X208245714Y-144619047D01*
X208579048Y-144619047D01*
X208769524Y-144666666D01*
X208864762Y-144761904D01*
X208912381Y-144857142D01*
X208912381Y-145047619D01*
X208912381Y-143666666D02*
X208912381Y-144238095D01*
X208912381Y-143952381D02*
X207912381Y-143952381D01*
X208055238Y-144047619D01*
X208150476Y-144142857D01*
X208198095Y-144238095D01*
X208007619Y-143285714D02*
X207960000Y-143238095D01*
X207912381Y-143142857D01*
X207912381Y-142904761D01*
X207960000Y-142809523D01*
X208007619Y-142761904D01*
X208102857Y-142714285D01*
X208198095Y-142714285D01*
X208340952Y-142761904D01*
X208912381Y-143333333D01*
X208912381Y-142714285D01*
X162428572Y-149007619D02*
X162333334Y-148960000D01*
X162238096Y-148864762D01*
X162095239Y-148721905D01*
X162000000Y-148674286D01*
X161904762Y-148674286D01*
X161952381Y-148912381D02*
X161857143Y-148864762D01*
X161761905Y-148769524D01*
X161714286Y-148579048D01*
X161714286Y-148245714D01*
X161761905Y-148055238D01*
X161857143Y-147960000D01*
X161952381Y-147912381D01*
X162142858Y-147912381D01*
X162238096Y-147960000D01*
X162333334Y-148055238D01*
X162380953Y-148245714D01*
X162380953Y-148579048D01*
X162333334Y-148769524D01*
X162238096Y-148864762D01*
X162142858Y-148912381D01*
X161952381Y-148912381D01*
X163333334Y-148912381D02*
X162761905Y-148912381D01*
X163047619Y-148912381D02*
X163047619Y-147912381D01*
X162952381Y-148055238D01*
X162857143Y-148150476D01*
X162761905Y-148198095D01*
X163666667Y-147912381D02*
X164285715Y-147912381D01*
X163952381Y-148293333D01*
X164095239Y-148293333D01*
X164190477Y-148340952D01*
X164238096Y-148388571D01*
X164285715Y-148483810D01*
X164285715Y-148721905D01*
X164238096Y-148817143D01*
X164190477Y-148864762D01*
X164095239Y-148912381D01*
X163809524Y-148912381D01*
X163714286Y-148864762D01*
X163666667Y-148817143D01*
X162428572Y-161047619D02*
X162333334Y-161000000D01*
X162238096Y-160904762D01*
X162095239Y-160761905D01*
X162000000Y-160714286D01*
X161904762Y-160714286D01*
X161952381Y-160952381D02*
X161857143Y-160904762D01*
X161761905Y-160809524D01*
X161714286Y-160619048D01*
X161714286Y-160285714D01*
X161761905Y-160095238D01*
X161857143Y-160000000D01*
X161952381Y-159952381D01*
X162142858Y-159952381D01*
X162238096Y-160000000D01*
X162333334Y-160095238D01*
X162380953Y-160285714D01*
X162380953Y-160619048D01*
X162333334Y-160809524D01*
X162238096Y-160904762D01*
X162142858Y-160952381D01*
X161952381Y-160952381D01*
X163333334Y-160952381D02*
X162761905Y-160952381D01*
X163047619Y-160952381D02*
X163047619Y-159952381D01*
X162952381Y-160095238D01*
X162857143Y-160190476D01*
X162761905Y-160238095D01*
X164190477Y-160285714D02*
X164190477Y-160952381D01*
X163952381Y-159904762D02*
X163714286Y-160619048D01*
X164333334Y-160619048D01*
X162428572Y-173007619D02*
X162333334Y-172960000D01*
X162238096Y-172864762D01*
X162095239Y-172721905D01*
X162000000Y-172674286D01*
X161904762Y-172674286D01*
X161952381Y-172912381D02*
X161857143Y-172864762D01*
X161761905Y-172769524D01*
X161714286Y-172579048D01*
X161714286Y-172245714D01*
X161761905Y-172055238D01*
X161857143Y-171960000D01*
X161952381Y-171912381D01*
X162142858Y-171912381D01*
X162238096Y-171960000D01*
X162333334Y-172055238D01*
X162380953Y-172245714D01*
X162380953Y-172579048D01*
X162333334Y-172769524D01*
X162238096Y-172864762D01*
X162142858Y-172912381D01*
X161952381Y-172912381D01*
X163333334Y-172912381D02*
X162761905Y-172912381D01*
X163047619Y-172912381D02*
X163047619Y-171912381D01*
X162952381Y-172055238D01*
X162857143Y-172150476D01*
X162761905Y-172198095D01*
X164238096Y-171912381D02*
X163761905Y-171912381D01*
X163714286Y-172388571D01*
X163761905Y-172340952D01*
X163857143Y-172293333D01*
X164095239Y-172293333D01*
X164190477Y-172340952D01*
X164238096Y-172388571D01*
X164285715Y-172483810D01*
X164285715Y-172721905D01*
X164238096Y-172817143D01*
X164190477Y-172864762D01*
X164095239Y-172912381D01*
X163857143Y-172912381D01*
X163761905Y-172864762D01*
X163714286Y-172817143D01*
X162428572Y-185007619D02*
X162333334Y-184960000D01*
X162238096Y-184864762D01*
X162095239Y-184721905D01*
X162000000Y-184674286D01*
X161904762Y-184674286D01*
X161952381Y-184912381D02*
X161857143Y-184864762D01*
X161761905Y-184769524D01*
X161714286Y-184579048D01*
X161714286Y-184245714D01*
X161761905Y-184055238D01*
X161857143Y-183960000D01*
X161952381Y-183912381D01*
X162142858Y-183912381D01*
X162238096Y-183960000D01*
X162333334Y-184055238D01*
X162380953Y-184245714D01*
X162380953Y-184579048D01*
X162333334Y-184769524D01*
X162238096Y-184864762D01*
X162142858Y-184912381D01*
X161952381Y-184912381D01*
X163333334Y-184912381D02*
X162761905Y-184912381D01*
X163047619Y-184912381D02*
X163047619Y-183912381D01*
X162952381Y-184055238D01*
X162857143Y-184150476D01*
X162761905Y-184198095D01*
X164190477Y-183912381D02*
X164000000Y-183912381D01*
X163904762Y-183960000D01*
X163857143Y-184007619D01*
X163761905Y-184150476D01*
X163714286Y-184340952D01*
X163714286Y-184721905D01*
X163761905Y-184817143D01*
X163809524Y-184864762D01*
X163904762Y-184912381D01*
X164095239Y-184912381D01*
X164190477Y-184864762D01*
X164238096Y-184817143D01*
X164285715Y-184721905D01*
X164285715Y-184483810D01*
X164238096Y-184388571D01*
X164190477Y-184340952D01*
X164095239Y-184293333D01*
X163904762Y-184293333D01*
X163809524Y-184340952D01*
X163761905Y-184388571D01*
X163714286Y-184483810D01*
X163457143Y-114452381D02*
X163123809Y-113976190D01*
X162885714Y-114452381D02*
X162885714Y-113452381D01*
X163266667Y-113452381D01*
X163361905Y-113500000D01*
X163409524Y-113547619D01*
X163457143Y-113642857D01*
X163457143Y-113785714D01*
X163409524Y-113880952D01*
X163361905Y-113928571D01*
X163266667Y-113976190D01*
X162885714Y-113976190D01*
X164409524Y-114452381D02*
X163838095Y-114452381D01*
X164123809Y-114452381D02*
X164123809Y-113452381D01*
X164028571Y-113595238D01*
X163933333Y-113690476D01*
X163838095Y-113738095D01*
X164885714Y-114452381D02*
X165076190Y-114452381D01*
X165171429Y-114404762D01*
X165219048Y-114357143D01*
X165314286Y-114214286D01*
X165361905Y-114023810D01*
X165361905Y-113642857D01*
X165314286Y-113547619D01*
X165266667Y-113500000D01*
X165171429Y-113452381D01*
X164980952Y-113452381D01*
X164885714Y-113500000D01*
X164838095Y-113547619D01*
X164790476Y-113642857D01*
X164790476Y-113880952D01*
X164838095Y-113976190D01*
X164885714Y-114023810D01*
X164980952Y-114071429D01*
X165171429Y-114071429D01*
X165266667Y-114023810D01*
X165314286Y-113976190D01*
X165361905Y-113880952D01*
X166457143Y-102252381D02*
X166123809Y-101776190D01*
X165885714Y-102252381D02*
X165885714Y-101252381D01*
X166266667Y-101252381D01*
X166361905Y-101300000D01*
X166409524Y-101347619D01*
X166457143Y-101442857D01*
X166457143Y-101585714D01*
X166409524Y-101680952D01*
X166361905Y-101728571D01*
X166266667Y-101776190D01*
X165885714Y-101776190D01*
X166838095Y-101347619D02*
X166885714Y-101300000D01*
X166980952Y-101252381D01*
X167219048Y-101252381D01*
X167314286Y-101300000D01*
X167361905Y-101347619D01*
X167409524Y-101442857D01*
X167409524Y-101538095D01*
X167361905Y-101680952D01*
X166790476Y-102252381D01*
X167409524Y-102252381D01*
X168028571Y-101252381D02*
X168123810Y-101252381D01*
X168219048Y-101300000D01*
X168266667Y-101347619D01*
X168314286Y-101442857D01*
X168361905Y-101633333D01*
X168361905Y-101871429D01*
X168314286Y-102061905D01*
X168266667Y-102157143D01*
X168219048Y-102204762D01*
X168123810Y-102252381D01*
X168028571Y-102252381D01*
X167933333Y-102204762D01*
X167885714Y-102157143D01*
X167838095Y-102061905D01*
X167790476Y-101871429D01*
X167790476Y-101633333D01*
X167838095Y-101442857D01*
X167885714Y-101347619D01*
X167933333Y-101300000D01*
X168028571Y-101252381D01*
X166357143Y-125952381D02*
X166023809Y-125476190D01*
X165785714Y-125952381D02*
X165785714Y-124952381D01*
X166166667Y-124952381D01*
X166261905Y-125000000D01*
X166309524Y-125047619D01*
X166357143Y-125142857D01*
X166357143Y-125285714D01*
X166309524Y-125380952D01*
X166261905Y-125428571D01*
X166166667Y-125476190D01*
X165785714Y-125476190D01*
X166738095Y-125047619D02*
X166785714Y-125000000D01*
X166880952Y-124952381D01*
X167119048Y-124952381D01*
X167214286Y-125000000D01*
X167261905Y-125047619D01*
X167309524Y-125142857D01*
X167309524Y-125238095D01*
X167261905Y-125380952D01*
X166690476Y-125952381D01*
X167309524Y-125952381D01*
X168261905Y-125952381D02*
X167690476Y-125952381D01*
X167976190Y-125952381D02*
X167976190Y-124952381D01*
X167880952Y-125095238D01*
X167785714Y-125190476D01*
X167690476Y-125238095D01*
X138452381Y-143142857D02*
X137976190Y-143476191D01*
X138452381Y-143714286D02*
X137452381Y-143714286D01*
X137452381Y-143333333D01*
X137500000Y-143238095D01*
X137547619Y-143190476D01*
X137642857Y-143142857D01*
X137785714Y-143142857D01*
X137880952Y-143190476D01*
X137928571Y-143238095D01*
X137976190Y-143333333D01*
X137976190Y-143714286D01*
X137547619Y-142761905D02*
X137500000Y-142714286D01*
X137452381Y-142619048D01*
X137452381Y-142380952D01*
X137500000Y-142285714D01*
X137547619Y-142238095D01*
X137642857Y-142190476D01*
X137738095Y-142190476D01*
X137880952Y-142238095D01*
X138452381Y-142809524D01*
X138452381Y-142190476D01*
X137547619Y-141809524D02*
X137500000Y-141761905D01*
X137452381Y-141666667D01*
X137452381Y-141428571D01*
X137500000Y-141333333D01*
X137547619Y-141285714D01*
X137642857Y-141238095D01*
X137738095Y-141238095D01*
X137880952Y-141285714D01*
X138452381Y-141857143D01*
X138452381Y-141238095D01*
X126452381Y-140642857D02*
X125976190Y-140976191D01*
X126452381Y-141214286D02*
X125452381Y-141214286D01*
X125452381Y-140833333D01*
X125500000Y-140738095D01*
X125547619Y-140690476D01*
X125642857Y-140642857D01*
X125785714Y-140642857D01*
X125880952Y-140690476D01*
X125928571Y-140738095D01*
X125976190Y-140833333D01*
X125976190Y-141214286D01*
X125547619Y-140261905D02*
X125500000Y-140214286D01*
X125452381Y-140119048D01*
X125452381Y-139880952D01*
X125500000Y-139785714D01*
X125547619Y-139738095D01*
X125642857Y-139690476D01*
X125738095Y-139690476D01*
X125880952Y-139738095D01*
X126452381Y-140309524D01*
X126452381Y-139690476D01*
X125452381Y-139357143D02*
X125452381Y-138738095D01*
X125833333Y-139071429D01*
X125833333Y-138928571D01*
X125880952Y-138833333D01*
X125928571Y-138785714D01*
X126023810Y-138738095D01*
X126261905Y-138738095D01*
X126357143Y-138785714D01*
X126404762Y-138833333D01*
X126452381Y-138928571D01*
X126452381Y-139214286D01*
X126404762Y-139309524D01*
X126357143Y-139357143D01*
X150952381Y-140642857D02*
X150476190Y-140976191D01*
X150952381Y-141214286D02*
X149952381Y-141214286D01*
X149952381Y-140833333D01*
X150000000Y-140738095D01*
X150047619Y-140690476D01*
X150142857Y-140642857D01*
X150285714Y-140642857D01*
X150380952Y-140690476D01*
X150428571Y-140738095D01*
X150476190Y-140833333D01*
X150476190Y-141214286D01*
X150047619Y-140261905D02*
X150000000Y-140214286D01*
X149952381Y-140119048D01*
X149952381Y-139880952D01*
X150000000Y-139785714D01*
X150047619Y-139738095D01*
X150142857Y-139690476D01*
X150238095Y-139690476D01*
X150380952Y-139738095D01*
X150952381Y-140309524D01*
X150952381Y-139690476D01*
X150285714Y-138833333D02*
X150952381Y-138833333D01*
X149904762Y-139071429D02*
X150619048Y-139309524D01*
X150619048Y-138690476D01*
X205452381Y-143142857D02*
X204976190Y-143476191D01*
X205452381Y-143714286D02*
X204452381Y-143714286D01*
X204452381Y-143333333D01*
X204500000Y-143238095D01*
X204547619Y-143190476D01*
X204642857Y-143142857D01*
X204785714Y-143142857D01*
X204880952Y-143190476D01*
X204928571Y-143238095D01*
X204976190Y-143333333D01*
X204976190Y-143714286D01*
X204547619Y-142761905D02*
X204500000Y-142714286D01*
X204452381Y-142619048D01*
X204452381Y-142380952D01*
X204500000Y-142285714D01*
X204547619Y-142238095D01*
X204642857Y-142190476D01*
X204738095Y-142190476D01*
X204880952Y-142238095D01*
X205452381Y-142809524D01*
X205452381Y-142190476D01*
X204452381Y-141285714D02*
X204452381Y-141761905D01*
X204928571Y-141809524D01*
X204880952Y-141761905D01*
X204833333Y-141666667D01*
X204833333Y-141428571D01*
X204880952Y-141333333D01*
X204928571Y-141285714D01*
X205023810Y-141238095D01*
X205261905Y-141238095D01*
X205357143Y-141285714D01*
X205404762Y-141333333D01*
X205452381Y-141428571D01*
X205452381Y-141666667D01*
X205404762Y-141761905D01*
X205357143Y-141809524D01*
X181452381Y-140642857D02*
X180976190Y-140976191D01*
X181452381Y-141214286D02*
X180452381Y-141214286D01*
X180452381Y-140833333D01*
X180500000Y-140738095D01*
X180547619Y-140690476D01*
X180642857Y-140642857D01*
X180785714Y-140642857D01*
X180880952Y-140690476D01*
X180928571Y-140738095D01*
X180976190Y-140833333D01*
X180976190Y-141214286D01*
X180547619Y-140261905D02*
X180500000Y-140214286D01*
X180452381Y-140119048D01*
X180452381Y-139880952D01*
X180500000Y-139785714D01*
X180547619Y-139738095D01*
X180642857Y-139690476D01*
X180738095Y-139690476D01*
X180880952Y-139738095D01*
X181452381Y-140309524D01*
X181452381Y-139690476D01*
X180452381Y-138833333D02*
X180452381Y-139023810D01*
X180500000Y-139119048D01*
X180547619Y-139166667D01*
X180690476Y-139261905D01*
X180880952Y-139309524D01*
X181261905Y-139309524D01*
X181357143Y-139261905D01*
X181404762Y-139214286D01*
X181452381Y-139119048D01*
X181452381Y-138928571D01*
X181404762Y-138833333D01*
X181357143Y-138785714D01*
X181261905Y-138738095D01*
X181023810Y-138738095D01*
X180928571Y-138785714D01*
X180880952Y-138833333D01*
X180833333Y-138928571D01*
X180833333Y-139119048D01*
X180880952Y-139214286D01*
X180928571Y-139261905D01*
X181023810Y-139309524D01*
X193452381Y-140642857D02*
X192976190Y-140976191D01*
X193452381Y-141214286D02*
X192452381Y-141214286D01*
X192452381Y-140833333D01*
X192500000Y-140738095D01*
X192547619Y-140690476D01*
X192642857Y-140642857D01*
X192785714Y-140642857D01*
X192880952Y-140690476D01*
X192928571Y-140738095D01*
X192976190Y-140833333D01*
X192976190Y-141214286D01*
X192547619Y-140261905D02*
X192500000Y-140214286D01*
X192452381Y-140119048D01*
X192452381Y-139880952D01*
X192500000Y-139785714D01*
X192547619Y-139738095D01*
X192642857Y-139690476D01*
X192738095Y-139690476D01*
X192880952Y-139738095D01*
X193452381Y-140309524D01*
X193452381Y-139690476D01*
X192452381Y-139357143D02*
X192452381Y-138690476D01*
X193452381Y-139119048D01*
X163857143Y-169552381D02*
X163523809Y-169076190D01*
X163285714Y-169552381D02*
X163285714Y-168552381D01*
X163666667Y-168552381D01*
X163761905Y-168600000D01*
X163809524Y-168647619D01*
X163857143Y-168742857D01*
X163857143Y-168885714D01*
X163809524Y-168980952D01*
X163761905Y-169028571D01*
X163666667Y-169076190D01*
X163285714Y-169076190D01*
X164238095Y-168647619D02*
X164285714Y-168600000D01*
X164380952Y-168552381D01*
X164619048Y-168552381D01*
X164714286Y-168600000D01*
X164761905Y-168647619D01*
X164809524Y-168742857D01*
X164809524Y-168838095D01*
X164761905Y-168980952D01*
X164190476Y-169552381D01*
X164809524Y-169552381D01*
X165380952Y-168980952D02*
X165285714Y-168933333D01*
X165238095Y-168885714D01*
X165190476Y-168790476D01*
X165190476Y-168742857D01*
X165238095Y-168647619D01*
X165285714Y-168600000D01*
X165380952Y-168552381D01*
X165571429Y-168552381D01*
X165666667Y-168600000D01*
X165714286Y-168647619D01*
X165761905Y-168742857D01*
X165761905Y-168790476D01*
X165714286Y-168885714D01*
X165666667Y-168933333D01*
X165571429Y-168980952D01*
X165380952Y-168980952D01*
X165285714Y-169028571D01*
X165238095Y-169076190D01*
X165190476Y-169171429D01*
X165190476Y-169361905D01*
X165238095Y-169457143D01*
X165285714Y-169504762D01*
X165380952Y-169552381D01*
X165571429Y-169552381D01*
X165666667Y-169504762D01*
X165714286Y-169457143D01*
X165761905Y-169361905D01*
X165761905Y-169171429D01*
X165714286Y-169076190D01*
X165666667Y-169028571D01*
X165571429Y-168980952D01*
X166457143Y-157152381D02*
X166123809Y-156676190D01*
X165885714Y-157152381D02*
X165885714Y-156152381D01*
X166266667Y-156152381D01*
X166361905Y-156200000D01*
X166409524Y-156247619D01*
X166457143Y-156342857D01*
X166457143Y-156485714D01*
X166409524Y-156580952D01*
X166361905Y-156628571D01*
X166266667Y-156676190D01*
X165885714Y-156676190D01*
X166838095Y-156247619D02*
X166885714Y-156200000D01*
X166980952Y-156152381D01*
X167219048Y-156152381D01*
X167314286Y-156200000D01*
X167361905Y-156247619D01*
X167409524Y-156342857D01*
X167409524Y-156438095D01*
X167361905Y-156580952D01*
X166790476Y-157152381D01*
X167409524Y-157152381D01*
X167885714Y-157152381D02*
X168076190Y-157152381D01*
X168171429Y-157104762D01*
X168219048Y-157057143D01*
X168314286Y-156914286D01*
X168361905Y-156723810D01*
X168361905Y-156342857D01*
X168314286Y-156247619D01*
X168266667Y-156200000D01*
X168171429Y-156152381D01*
X167980952Y-156152381D01*
X167885714Y-156200000D01*
X167838095Y-156247619D01*
X167790476Y-156342857D01*
X167790476Y-156580952D01*
X167838095Y-156676190D01*
X167885714Y-156723810D01*
X167980952Y-156771429D01*
X168171429Y-156771429D01*
X168266667Y-156723810D01*
X168314286Y-156676190D01*
X168361905Y-156580952D01*
X166357143Y-180952381D02*
X166023809Y-180476190D01*
X165785714Y-180952381D02*
X165785714Y-179952381D01*
X166166667Y-179952381D01*
X166261905Y-180000000D01*
X166309524Y-180047619D01*
X166357143Y-180142857D01*
X166357143Y-180285714D01*
X166309524Y-180380952D01*
X166261905Y-180428571D01*
X166166667Y-180476190D01*
X165785714Y-180476190D01*
X166690476Y-179952381D02*
X167309524Y-179952381D01*
X166976190Y-180333333D01*
X167119048Y-180333333D01*
X167214286Y-180380952D01*
X167261905Y-180428571D01*
X167309524Y-180523810D01*
X167309524Y-180761905D01*
X167261905Y-180857143D01*
X167214286Y-180904762D01*
X167119048Y-180952381D01*
X166833333Y-180952381D01*
X166738095Y-180904762D01*
X166690476Y-180857143D01*
X167928571Y-179952381D02*
X168023810Y-179952381D01*
X168119048Y-180000000D01*
X168166667Y-180047619D01*
X168214286Y-180142857D01*
X168261905Y-180333333D01*
X168261905Y-180571429D01*
X168214286Y-180761905D01*
X168166667Y-180857143D01*
X168119048Y-180904762D01*
X168023810Y-180952381D01*
X167928571Y-180952381D01*
X167833333Y-180904762D01*
X167785714Y-180857143D01*
X167738095Y-180761905D01*
X167690476Y-180571429D01*
X167690476Y-180333333D01*
X167738095Y-180142857D01*
X167785714Y-180047619D01*
X167833333Y-180000000D01*
X167928571Y-179952381D01*
X191161905Y-109052381D02*
X191161905Y-109861905D01*
X191209524Y-109957143D01*
X191257143Y-110004762D01*
X191352381Y-110052381D01*
X191542858Y-110052381D01*
X191638096Y-110004762D01*
X191685715Y-109957143D01*
X191733334Y-109861905D01*
X191733334Y-109052381D01*
X192161905Y-109147619D02*
X192209524Y-109100000D01*
X192304762Y-109052381D01*
X192542858Y-109052381D01*
X192638096Y-109100000D01*
X192685715Y-109147619D01*
X192733334Y-109242857D01*
X192733334Y-109338095D01*
X192685715Y-109480952D01*
X192114286Y-110052381D01*
X192733334Y-110052381D01*
X193590477Y-109052381D02*
X193400000Y-109052381D01*
X193304762Y-109100000D01*
X193257143Y-109147619D01*
X193161905Y-109290476D01*
X193114286Y-109480952D01*
X193114286Y-109861905D01*
X193161905Y-109957143D01*
X193209524Y-110004762D01*
X193304762Y-110052381D01*
X193495239Y-110052381D01*
X193590477Y-110004762D01*
X193638096Y-109957143D01*
X193685715Y-109861905D01*
X193685715Y-109623810D01*
X193638096Y-109528571D01*
X193590477Y-109480952D01*
X193495239Y-109433333D01*
X193304762Y-109433333D01*
X193209524Y-109480952D01*
X193161905Y-109528571D01*
X193114286Y-109623810D01*
X236257143Y-94742857D02*
X236304762Y-94790476D01*
X236352381Y-94933333D01*
X236352381Y-95028571D01*
X236304762Y-95171429D01*
X236209524Y-95266667D01*
X236114286Y-95314286D01*
X235923810Y-95361905D01*
X235780952Y-95361905D01*
X235590476Y-95314286D01*
X235495238Y-95266667D01*
X235400000Y-95171429D01*
X235352381Y-95028571D01*
X235352381Y-94933333D01*
X235400000Y-94790476D01*
X235447619Y-94742857D01*
X236352381Y-93790476D02*
X236352381Y-94361905D01*
X236352381Y-94076191D02*
X235352381Y-94076191D01*
X235495238Y-94171429D01*
X235590476Y-94266667D01*
X235638095Y-94361905D01*
X235352381Y-93457143D02*
X235352381Y-92790476D01*
X236352381Y-93219048D01*
X222852381Y-86814286D02*
X221852381Y-86814286D01*
X221852381Y-86576191D01*
X221900000Y-86433333D01*
X221995238Y-86338095D01*
X222090476Y-86290476D01*
X222280952Y-86242857D01*
X222423810Y-86242857D01*
X222614286Y-86290476D01*
X222709524Y-86338095D01*
X222804762Y-86433333D01*
X222852381Y-86576191D01*
X222852381Y-86814286D01*
X222852381Y-85290476D02*
X222852381Y-85861905D01*
X222852381Y-85576191D02*
X221852381Y-85576191D01*
X221995238Y-85671429D01*
X222090476Y-85766667D01*
X222138095Y-85861905D01*
X222280952Y-84719048D02*
X222233333Y-84814286D01*
X222185714Y-84861905D01*
X222090476Y-84909524D01*
X222042857Y-84909524D01*
X221947619Y-84861905D01*
X221900000Y-84814286D01*
X221852381Y-84719048D01*
X221852381Y-84528571D01*
X221900000Y-84433333D01*
X221947619Y-84385714D01*
X222042857Y-84338095D01*
X222090476Y-84338095D01*
X222185714Y-84385714D01*
X222233333Y-84433333D01*
X222280952Y-84528571D01*
X222280952Y-84719048D01*
X222328571Y-84814286D01*
X222376190Y-84861905D01*
X222471429Y-84909524D01*
X222661905Y-84909524D01*
X222757143Y-84861905D01*
X222804762Y-84814286D01*
X222852381Y-84719048D01*
X222852381Y-84528571D01*
X222804762Y-84433333D01*
X222757143Y-84385714D01*
X222661905Y-84338095D01*
X222471429Y-84338095D01*
X222376190Y-84385714D01*
X222328571Y-84433333D01*
X222280952Y-84528571D01*
X176661905Y-81552381D02*
X176661905Y-80552381D01*
X177042858Y-80552381D01*
X177138096Y-80600000D01*
X177185715Y-80647619D01*
X177233334Y-80742857D01*
X177233334Y-80885714D01*
X177185715Y-80980952D01*
X177138096Y-81028571D01*
X177042858Y-81076190D01*
X176661905Y-81076190D01*
X177804762Y-80980952D02*
X177709524Y-80933333D01*
X177661905Y-80885714D01*
X177614286Y-80790476D01*
X177614286Y-80742857D01*
X177661905Y-80647619D01*
X177709524Y-80600000D01*
X177804762Y-80552381D01*
X177995239Y-80552381D01*
X178090477Y-80600000D01*
X178138096Y-80647619D01*
X178185715Y-80742857D01*
X178185715Y-80790476D01*
X178138096Y-80885714D01*
X178090477Y-80933333D01*
X177995239Y-80980952D01*
X177804762Y-80980952D01*
X177709524Y-81028571D01*
X177661905Y-81076190D01*
X177614286Y-81171429D01*
X177614286Y-81361905D01*
X177661905Y-81457143D01*
X177709524Y-81504762D01*
X177804762Y-81552381D01*
X177995239Y-81552381D01*
X178090477Y-81504762D01*
X178138096Y-81457143D01*
X178185715Y-81361905D01*
X178185715Y-81171429D01*
X178138096Y-81076190D01*
X178090477Y-81028571D01*
X177995239Y-80980952D01*
X183661905Y-81052381D02*
X183661905Y-80052381D01*
X184042858Y-80052381D01*
X184138096Y-80100000D01*
X184185715Y-80147619D01*
X184233334Y-80242857D01*
X184233334Y-80385714D01*
X184185715Y-80480952D01*
X184138096Y-80528571D01*
X184042858Y-80576190D01*
X183661905Y-80576190D01*
X184709524Y-81052381D02*
X184900000Y-81052381D01*
X184995239Y-81004762D01*
X185042858Y-80957143D01*
X185138096Y-80814286D01*
X185185715Y-80623810D01*
X185185715Y-80242857D01*
X185138096Y-80147619D01*
X185090477Y-80100000D01*
X184995239Y-80052381D01*
X184804762Y-80052381D01*
X184709524Y-80100000D01*
X184661905Y-80147619D01*
X184614286Y-80242857D01*
X184614286Y-80480952D01*
X184661905Y-80576190D01*
X184709524Y-80623810D01*
X184804762Y-80671429D01*
X184995239Y-80671429D01*
X185090477Y-80623810D01*
X185138096Y-80576190D01*
X185185715Y-80480952D01*
X190185714Y-81052381D02*
X190185714Y-80052381D01*
X190566667Y-80052381D01*
X190661905Y-80100000D01*
X190709524Y-80147619D01*
X190757143Y-80242857D01*
X190757143Y-80385714D01*
X190709524Y-80480952D01*
X190661905Y-80528571D01*
X190566667Y-80576190D01*
X190185714Y-80576190D01*
X191709524Y-81052381D02*
X191138095Y-81052381D01*
X191423809Y-81052381D02*
X191423809Y-80052381D01*
X191328571Y-80195238D01*
X191233333Y-80290476D01*
X191138095Y-80338095D01*
X192328571Y-80052381D02*
X192423810Y-80052381D01*
X192519048Y-80100000D01*
X192566667Y-80147619D01*
X192614286Y-80242857D01*
X192661905Y-80433333D01*
X192661905Y-80671429D01*
X192614286Y-80861905D01*
X192566667Y-80957143D01*
X192519048Y-81004762D01*
X192423810Y-81052381D01*
X192328571Y-81052381D01*
X192233333Y-81004762D01*
X192185714Y-80957143D01*
X192138095Y-80861905D01*
X192090476Y-80671429D01*
X192090476Y-80433333D01*
X192138095Y-80242857D01*
X192185714Y-80147619D01*
X192233333Y-80100000D01*
X192328571Y-80052381D01*
D15*
X233352381Y-80814286D02*
X232352381Y-80814286D01*
X232352381Y-80433333D01*
X232400000Y-80338095D01*
X232447619Y-80290476D01*
X232542857Y-80242857D01*
X232685714Y-80242857D01*
X232780952Y-80290476D01*
X232828571Y-80338095D01*
X232876190Y-80433333D01*
X232876190Y-80814286D01*
X233352381Y-79290476D02*
X233352381Y-79861905D01*
X233352381Y-79576191D02*
X232352381Y-79576191D01*
X232495238Y-79671429D01*
X232590476Y-79766667D01*
X232638095Y-79861905D01*
X233352381Y-78338095D02*
X233352381Y-78909524D01*
X233352381Y-78623810D02*
X232352381Y-78623810D01*
X232495238Y-78719048D01*
X232590476Y-78814286D01*
X232638095Y-78909524D01*
X226757143Y-86123809D02*
X226804762Y-86171428D01*
X226852381Y-86314285D01*
X226852381Y-86409523D01*
X226804762Y-86552381D01*
X226709524Y-86647619D01*
X226614286Y-86695238D01*
X226423810Y-86742857D01*
X226280952Y-86742857D01*
X226090476Y-86695238D01*
X225995238Y-86647619D01*
X225900000Y-86552381D01*
X225852381Y-86409523D01*
X225852381Y-86314285D01*
X225900000Y-86171428D01*
X225947619Y-86123809D01*
X225852381Y-85504762D02*
X225852381Y-85314285D01*
X225900000Y-85219047D01*
X225995238Y-85123809D01*
X226185714Y-85076190D01*
X226519048Y-85076190D01*
X226709524Y-85123809D01*
X226804762Y-85219047D01*
X226852381Y-85314285D01*
X226852381Y-85504762D01*
X226804762Y-85600000D01*
X226709524Y-85695238D01*
X226519048Y-85742857D01*
X226185714Y-85742857D01*
X225995238Y-85695238D01*
X225900000Y-85600000D01*
X225852381Y-85504762D01*
X226852381Y-84647619D02*
X225852381Y-84647619D01*
X226852381Y-84076190D01*
X225852381Y-84076190D01*
X226852381Y-83600000D02*
X225852381Y-83600000D01*
X226852381Y-83028571D01*
X225852381Y-83028571D01*
X226947619Y-82790476D02*
X226947619Y-82028571D01*
X225852381Y-81600000D02*
X225852381Y-81504761D01*
X225900000Y-81409523D01*
X225947619Y-81361904D01*
X226042857Y-81314285D01*
X226233333Y-81266666D01*
X226471429Y-81266666D01*
X226661905Y-81314285D01*
X226757143Y-81361904D01*
X226804762Y-81409523D01*
X226852381Y-81504761D01*
X226852381Y-81600000D01*
X226804762Y-81695238D01*
X226757143Y-81742857D01*
X226661905Y-81790476D01*
X226471429Y-81838095D01*
X226233333Y-81838095D01*
X226042857Y-81790476D01*
X225947619Y-81742857D01*
X225900000Y-81695238D01*
X225852381Y-81600000D01*
X226852381Y-80314285D02*
X226852381Y-80885714D01*
X226852381Y-80600000D02*
X225852381Y-80600000D01*
X225995238Y-80695238D01*
X226090476Y-80790476D01*
X226138095Y-80885714D01*
X225852381Y-79980952D02*
X226852381Y-79314285D01*
X225852381Y-79314285D02*
X226852381Y-79980952D01*
X225852381Y-78742857D02*
X225852381Y-78647618D01*
X225900000Y-78552380D01*
X225947619Y-78504761D01*
X226042857Y-78457142D01*
X226233333Y-78409523D01*
X226471429Y-78409523D01*
X226661905Y-78457142D01*
X226757143Y-78504761D01*
X226804762Y-78552380D01*
X226852381Y-78647618D01*
X226852381Y-78742857D01*
X226804762Y-78838095D01*
X226757143Y-78885714D01*
X226661905Y-78933333D01*
X226471429Y-78980952D01*
X226233333Y-78980952D01*
X226042857Y-78933333D01*
X225947619Y-78885714D01*
X225900000Y-78838095D01*
X225852381Y-78742857D01*
X225947619Y-78028571D02*
X225900000Y-77980952D01*
X225852381Y-77885714D01*
X225852381Y-77647618D01*
X225900000Y-77552380D01*
X225947619Y-77504761D01*
X226042857Y-77457142D01*
X226138095Y-77457142D01*
X226280952Y-77504761D01*
X226852381Y-78076190D01*
X226852381Y-77457142D01*
X208352381Y-112314286D02*
X207352381Y-112314286D01*
X207352381Y-111933333D01*
X207400000Y-111838095D01*
X207447619Y-111790476D01*
X207542857Y-111742857D01*
X207685714Y-111742857D01*
X207780952Y-111790476D01*
X207828571Y-111838095D01*
X207876190Y-111933333D01*
X207876190Y-112314286D01*
X208352381Y-110790476D02*
X208352381Y-111361905D01*
X208352381Y-111076191D02*
X207352381Y-111076191D01*
X207495238Y-111171429D01*
X207590476Y-111266667D01*
X207638095Y-111361905D01*
X207447619Y-110409524D02*
X207400000Y-110361905D01*
X207352381Y-110266667D01*
X207352381Y-110028571D01*
X207400000Y-109933333D01*
X207447619Y-109885714D01*
X207542857Y-109838095D01*
X207638095Y-109838095D01*
X207780952Y-109885714D01*
X208352381Y-110457143D01*
X208352381Y-109838095D01*
X215257143Y-112623809D02*
X215304762Y-112671428D01*
X215352381Y-112814285D01*
X215352381Y-112909523D01*
X215304762Y-113052381D01*
X215209524Y-113147619D01*
X215114286Y-113195238D01*
X214923810Y-113242857D01*
X214780952Y-113242857D01*
X214590476Y-113195238D01*
X214495238Y-113147619D01*
X214400000Y-113052381D01*
X214352381Y-112909523D01*
X214352381Y-112814285D01*
X214400000Y-112671428D01*
X214447619Y-112623809D01*
X214352381Y-112004762D02*
X214352381Y-111814285D01*
X214400000Y-111719047D01*
X214495238Y-111623809D01*
X214685714Y-111576190D01*
X215019048Y-111576190D01*
X215209524Y-111623809D01*
X215304762Y-111719047D01*
X215352381Y-111814285D01*
X215352381Y-112004762D01*
X215304762Y-112100000D01*
X215209524Y-112195238D01*
X215019048Y-112242857D01*
X214685714Y-112242857D01*
X214495238Y-112195238D01*
X214400000Y-112100000D01*
X214352381Y-112004762D01*
X215352381Y-111147619D02*
X214352381Y-111147619D01*
X215352381Y-110576190D01*
X214352381Y-110576190D01*
X215352381Y-110100000D02*
X214352381Y-110100000D01*
X215352381Y-109528571D01*
X214352381Y-109528571D01*
X215447619Y-109290476D02*
X215447619Y-108528571D01*
X214352381Y-108100000D02*
X214352381Y-108004761D01*
X214400000Y-107909523D01*
X214447619Y-107861904D01*
X214542857Y-107814285D01*
X214733333Y-107766666D01*
X214971429Y-107766666D01*
X215161905Y-107814285D01*
X215257143Y-107861904D01*
X215304762Y-107909523D01*
X215352381Y-108004761D01*
X215352381Y-108100000D01*
X215304762Y-108195238D01*
X215257143Y-108242857D01*
X215161905Y-108290476D01*
X214971429Y-108338095D01*
X214733333Y-108338095D01*
X214542857Y-108290476D01*
X214447619Y-108242857D01*
X214400000Y-108195238D01*
X214352381Y-108100000D01*
X215352381Y-106814285D02*
X215352381Y-107385714D01*
X215352381Y-107100000D02*
X214352381Y-107100000D01*
X214495238Y-107195238D01*
X214590476Y-107290476D01*
X214638095Y-107385714D01*
X214352381Y-106480952D02*
X215352381Y-105814285D01*
X214352381Y-105814285D02*
X215352381Y-106480952D01*
X214352381Y-105242857D02*
X214352381Y-105147618D01*
X214400000Y-105052380D01*
X214447619Y-105004761D01*
X214542857Y-104957142D01*
X214733333Y-104909523D01*
X214971429Y-104909523D01*
X215161905Y-104957142D01*
X215257143Y-105004761D01*
X215304762Y-105052380D01*
X215352381Y-105147618D01*
X215352381Y-105242857D01*
X215304762Y-105338095D01*
X215257143Y-105385714D01*
X215161905Y-105433333D01*
X214971429Y-105480952D01*
X214733333Y-105480952D01*
X214542857Y-105433333D01*
X214447619Y-105385714D01*
X214400000Y-105338095D01*
X214352381Y-105242857D01*
X214447619Y-104528571D02*
X214400000Y-104480952D01*
X214352381Y-104385714D01*
X214352381Y-104147618D01*
X214400000Y-104052380D01*
X214447619Y-104004761D01*
X214542857Y-103957142D01*
X214638095Y-103957142D01*
X214780952Y-104004761D01*
X215352381Y-104576190D01*
X215352381Y-103957142D01*
X218852381Y-112314286D02*
X217852381Y-112314286D01*
X217852381Y-111933333D01*
X217900000Y-111838095D01*
X217947619Y-111790476D01*
X218042857Y-111742857D01*
X218185714Y-111742857D01*
X218280952Y-111790476D01*
X218328571Y-111838095D01*
X218376190Y-111933333D01*
X218376190Y-112314286D01*
X218852381Y-110790476D02*
X218852381Y-111361905D01*
X218852381Y-111076191D02*
X217852381Y-111076191D01*
X217995238Y-111171429D01*
X218090476Y-111266667D01*
X218138095Y-111361905D01*
X217852381Y-110457143D02*
X217852381Y-109838095D01*
X218233333Y-110171429D01*
X218233333Y-110028571D01*
X218280952Y-109933333D01*
X218328571Y-109885714D01*
X218423810Y-109838095D01*
X218661905Y-109838095D01*
X218757143Y-109885714D01*
X218804762Y-109933333D01*
X218852381Y-110028571D01*
X218852381Y-110314286D01*
X218804762Y-110409524D01*
X218757143Y-110457143D01*
X225757143Y-112623809D02*
X225804762Y-112671428D01*
X225852381Y-112814285D01*
X225852381Y-112909523D01*
X225804762Y-113052381D01*
X225709524Y-113147619D01*
X225614286Y-113195238D01*
X225423810Y-113242857D01*
X225280952Y-113242857D01*
X225090476Y-113195238D01*
X224995238Y-113147619D01*
X224900000Y-113052381D01*
X224852381Y-112909523D01*
X224852381Y-112814285D01*
X224900000Y-112671428D01*
X224947619Y-112623809D01*
X224852381Y-112004762D02*
X224852381Y-111814285D01*
X224900000Y-111719047D01*
X224995238Y-111623809D01*
X225185714Y-111576190D01*
X225519048Y-111576190D01*
X225709524Y-111623809D01*
X225804762Y-111719047D01*
X225852381Y-111814285D01*
X225852381Y-112004762D01*
X225804762Y-112100000D01*
X225709524Y-112195238D01*
X225519048Y-112242857D01*
X225185714Y-112242857D01*
X224995238Y-112195238D01*
X224900000Y-112100000D01*
X224852381Y-112004762D01*
X225852381Y-111147619D02*
X224852381Y-111147619D01*
X225852381Y-110576190D01*
X224852381Y-110576190D01*
X225852381Y-110100000D02*
X224852381Y-110100000D01*
X225852381Y-109528571D01*
X224852381Y-109528571D01*
X225947619Y-109290476D02*
X225947619Y-108528571D01*
X224852381Y-108100000D02*
X224852381Y-108004761D01*
X224900000Y-107909523D01*
X224947619Y-107861904D01*
X225042857Y-107814285D01*
X225233333Y-107766666D01*
X225471429Y-107766666D01*
X225661905Y-107814285D01*
X225757143Y-107861904D01*
X225804762Y-107909523D01*
X225852381Y-108004761D01*
X225852381Y-108100000D01*
X225804762Y-108195238D01*
X225757143Y-108242857D01*
X225661905Y-108290476D01*
X225471429Y-108338095D01*
X225233333Y-108338095D01*
X225042857Y-108290476D01*
X224947619Y-108242857D01*
X224900000Y-108195238D01*
X224852381Y-108100000D01*
X225852381Y-106814285D02*
X225852381Y-107385714D01*
X225852381Y-107100000D02*
X224852381Y-107100000D01*
X224995238Y-107195238D01*
X225090476Y-107290476D01*
X225138095Y-107385714D01*
X224852381Y-106480952D02*
X225852381Y-105814285D01*
X224852381Y-105814285D02*
X225852381Y-106480952D01*
X224852381Y-105242857D02*
X224852381Y-105147618D01*
X224900000Y-105052380D01*
X224947619Y-105004761D01*
X225042857Y-104957142D01*
X225233333Y-104909523D01*
X225471429Y-104909523D01*
X225661905Y-104957142D01*
X225757143Y-105004761D01*
X225804762Y-105052380D01*
X225852381Y-105147618D01*
X225852381Y-105242857D01*
X225804762Y-105338095D01*
X225757143Y-105385714D01*
X225661905Y-105433333D01*
X225471429Y-105480952D01*
X225233333Y-105480952D01*
X225042857Y-105433333D01*
X224947619Y-105385714D01*
X224900000Y-105338095D01*
X224852381Y-105242857D01*
X224947619Y-104528571D02*
X224900000Y-104480952D01*
X224852381Y-104385714D01*
X224852381Y-104147618D01*
X224900000Y-104052380D01*
X224947619Y-104004761D01*
X225042857Y-103957142D01*
X225138095Y-103957142D01*
X225280952Y-104004761D01*
X225852381Y-104576190D01*
X225852381Y-103957142D01*
D12*
X217947619Y-99171428D02*
X217900000Y-99266666D01*
X217804762Y-99361904D01*
X217661905Y-99504761D01*
X217614286Y-99600000D01*
X217614286Y-99695238D01*
X217852381Y-99647619D02*
X217804762Y-99742857D01*
X217709524Y-99838095D01*
X217519048Y-99885714D01*
X217185714Y-99885714D01*
X216995238Y-99838095D01*
X216900000Y-99742857D01*
X216852381Y-99647619D01*
X216852381Y-99457142D01*
X216900000Y-99361904D01*
X216995238Y-99266666D01*
X217185714Y-99219047D01*
X217519048Y-99219047D01*
X217709524Y-99266666D01*
X217804762Y-99361904D01*
X217852381Y-99457142D01*
X217852381Y-99647619D01*
X217852381Y-98266666D02*
X217852381Y-98838095D01*
X217852381Y-98552381D02*
X216852381Y-98552381D01*
X216995238Y-98647619D01*
X217090476Y-98742857D01*
X217138095Y-98838095D01*
X216852381Y-97933333D02*
X216852381Y-97266666D01*
X217852381Y-97695238D01*
X200257143Y-85552381D02*
X199923809Y-85076190D01*
X199685714Y-85552381D02*
X199685714Y-84552381D01*
X200066667Y-84552381D01*
X200161905Y-84600000D01*
X200209524Y-84647619D01*
X200257143Y-84742857D01*
X200257143Y-84885714D01*
X200209524Y-84980952D01*
X200161905Y-85028571D01*
X200066667Y-85076190D01*
X199685714Y-85076190D01*
X200590476Y-84552381D02*
X201209524Y-84552381D01*
X200876190Y-84933333D01*
X201019048Y-84933333D01*
X201114286Y-84980952D01*
X201161905Y-85028571D01*
X201209524Y-85123810D01*
X201209524Y-85361905D01*
X201161905Y-85457143D01*
X201114286Y-85504762D01*
X201019048Y-85552381D01*
X200733333Y-85552381D01*
X200638095Y-85504762D01*
X200590476Y-85457143D01*
X202161905Y-85552381D02*
X201590476Y-85552381D01*
X201876190Y-85552381D02*
X201876190Y-84552381D01*
X201780952Y-84695238D01*
X201685714Y-84790476D01*
X201590476Y-84838095D01*
X210757143Y-89052381D02*
X210423809Y-88576190D01*
X210185714Y-89052381D02*
X210185714Y-88052381D01*
X210566667Y-88052381D01*
X210661905Y-88100000D01*
X210709524Y-88147619D01*
X210757143Y-88242857D01*
X210757143Y-88385714D01*
X210709524Y-88480952D01*
X210661905Y-88528571D01*
X210566667Y-88576190D01*
X210185714Y-88576190D01*
X211090476Y-88052381D02*
X211709524Y-88052381D01*
X211376190Y-88433333D01*
X211519048Y-88433333D01*
X211614286Y-88480952D01*
X211661905Y-88528571D01*
X211709524Y-88623810D01*
X211709524Y-88861905D01*
X211661905Y-88957143D01*
X211614286Y-89004762D01*
X211519048Y-89052381D01*
X211233333Y-89052381D01*
X211138095Y-89004762D01*
X211090476Y-88957143D01*
X212090476Y-88147619D02*
X212138095Y-88100000D01*
X212233333Y-88052381D01*
X212471429Y-88052381D01*
X212566667Y-88100000D01*
X212614286Y-88147619D01*
X212661905Y-88242857D01*
X212661905Y-88338095D01*
X212614286Y-88480952D01*
X212042857Y-89052381D01*
X212661905Y-89052381D01*
X211257143Y-95052381D02*
X210923809Y-94576190D01*
X210685714Y-95052381D02*
X210685714Y-94052381D01*
X211066667Y-94052381D01*
X211161905Y-94100000D01*
X211209524Y-94147619D01*
X211257143Y-94242857D01*
X211257143Y-94385714D01*
X211209524Y-94480952D01*
X211161905Y-94528571D01*
X211066667Y-94576190D01*
X210685714Y-94576190D01*
X211590476Y-94052381D02*
X212209524Y-94052381D01*
X211876190Y-94433333D01*
X212019048Y-94433333D01*
X212114286Y-94480952D01*
X212161905Y-94528571D01*
X212209524Y-94623810D01*
X212209524Y-94861905D01*
X212161905Y-94957143D01*
X212114286Y-95004762D01*
X212019048Y-95052381D01*
X211733333Y-95052381D01*
X211638095Y-95004762D01*
X211590476Y-94957143D01*
X212542857Y-94052381D02*
X213161905Y-94052381D01*
X212828571Y-94433333D01*
X212971429Y-94433333D01*
X213066667Y-94480952D01*
X213114286Y-94528571D01*
X213161905Y-94623810D01*
X213161905Y-94861905D01*
X213114286Y-94957143D01*
X213066667Y-95004762D01*
X212971429Y-95052381D01*
X212685714Y-95052381D01*
X212590476Y-95004762D01*
X212542857Y-94957143D01*
X200161905Y-88552381D02*
X200161905Y-89361905D01*
X200209524Y-89457143D01*
X200257143Y-89504762D01*
X200352381Y-89552381D01*
X200542858Y-89552381D01*
X200638096Y-89504762D01*
X200685715Y-89457143D01*
X200733334Y-89361905D01*
X200733334Y-88552381D01*
X201161905Y-88647619D02*
X201209524Y-88600000D01*
X201304762Y-88552381D01*
X201542858Y-88552381D01*
X201638096Y-88600000D01*
X201685715Y-88647619D01*
X201733334Y-88742857D01*
X201733334Y-88838095D01*
X201685715Y-88980952D01*
X201114286Y-89552381D01*
X201733334Y-89552381D01*
X202638096Y-88552381D02*
X202161905Y-88552381D01*
X202114286Y-89028571D01*
X202161905Y-88980952D01*
X202257143Y-88933333D01*
X202495239Y-88933333D01*
X202590477Y-88980952D01*
X202638096Y-89028571D01*
X202685715Y-89123810D01*
X202685715Y-89361905D01*
X202638096Y-89457143D01*
X202590477Y-89504762D01*
X202495239Y-89552381D01*
X202257143Y-89552381D01*
X202161905Y-89504762D01*
X202114286Y-89457143D01*
X108285714Y-100852381D02*
X108285714Y-99852381D01*
X108666667Y-99852381D01*
X108761905Y-99900000D01*
X108809524Y-99947619D01*
X108857143Y-100042857D01*
X108857143Y-100185714D01*
X108809524Y-100280952D01*
X108761905Y-100328571D01*
X108666667Y-100376190D01*
X108285714Y-100376190D01*
X109809524Y-100852381D02*
X109238095Y-100852381D01*
X109523809Y-100852381D02*
X109523809Y-99852381D01*
X109428571Y-99995238D01*
X109333333Y-100090476D01*
X109238095Y-100138095D01*
X110666667Y-100185714D02*
X110666667Y-100852381D01*
X110428571Y-99804762D02*
X110190476Y-100519048D01*
X110809524Y-100519048D01*
X116752381Y-123638095D02*
X117561905Y-123638095D01*
X117657143Y-123590476D01*
X117704762Y-123542857D01*
X117752381Y-123447619D01*
X117752381Y-123257142D01*
X117704762Y-123161904D01*
X117657143Y-123114285D01*
X117561905Y-123066666D01*
X116752381Y-123066666D01*
X116847619Y-122638095D02*
X116800000Y-122590476D01*
X116752381Y-122495238D01*
X116752381Y-122257142D01*
X116800000Y-122161904D01*
X116847619Y-122114285D01*
X116942857Y-122066666D01*
X117038095Y-122066666D01*
X117180952Y-122114285D01*
X117752381Y-122685714D01*
X117752381Y-122066666D01*
X116752381Y-121733333D02*
X116752381Y-121066666D01*
X117752381Y-121495238D01*
X132261905Y-105952381D02*
X132261905Y-106761905D01*
X132309524Y-106857143D01*
X132357143Y-106904762D01*
X132452381Y-106952381D01*
X132642858Y-106952381D01*
X132738096Y-106904762D01*
X132785715Y-106857143D01*
X132833334Y-106761905D01*
X132833334Y-105952381D01*
X133261905Y-106047619D02*
X133309524Y-106000000D01*
X133404762Y-105952381D01*
X133642858Y-105952381D01*
X133738096Y-106000000D01*
X133785715Y-106047619D01*
X133833334Y-106142857D01*
X133833334Y-106238095D01*
X133785715Y-106380952D01*
X133214286Y-106952381D01*
X133833334Y-106952381D01*
X134404762Y-106380952D02*
X134309524Y-106333333D01*
X134261905Y-106285714D01*
X134214286Y-106190476D01*
X134214286Y-106142857D01*
X134261905Y-106047619D01*
X134309524Y-106000000D01*
X134404762Y-105952381D01*
X134595239Y-105952381D01*
X134690477Y-106000000D01*
X134738096Y-106047619D01*
X134785715Y-106142857D01*
X134785715Y-106190476D01*
X134738096Y-106285714D01*
X134690477Y-106333333D01*
X134595239Y-106380952D01*
X134404762Y-106380952D01*
X134309524Y-106428571D01*
X134261905Y-106476190D01*
X134214286Y-106571429D01*
X134214286Y-106761905D01*
X134261905Y-106857143D01*
X134309524Y-106904762D01*
X134404762Y-106952381D01*
X134595239Y-106952381D01*
X134690477Y-106904762D01*
X134738096Y-106857143D01*
X134785715Y-106761905D01*
X134785715Y-106571429D01*
X134738096Y-106476190D01*
X134690477Y-106428571D01*
X134595239Y-106380952D01*
%LPC*%
D16*
X165000000Y-195000000D03*
X219000000Y-141000000D03*
X165000000Y-88000000D03*
D17*
X168000000Y-96000000D03*
D18*
X170540000Y-96000000D03*
D17*
X168000000Y-108000000D03*
D18*
X170540000Y-108000000D03*
D17*
X168000000Y-120000000D03*
D18*
X170540000Y-120000000D03*
D17*
X168000000Y-132000000D03*
D18*
X170540000Y-132000000D03*
D17*
X120000000Y-139000000D03*
D18*
X120000000Y-136460000D03*
D17*
X132000000Y-139000000D03*
D18*
X132000000Y-136460000D03*
D17*
X144000000Y-139000000D03*
D18*
X144000000Y-136460000D03*
D17*
X156000000Y-139000000D03*
D18*
X156000000Y-136460000D03*
D17*
X175000000Y-139000000D03*
D18*
X175000000Y-136460000D03*
D17*
X187000000Y-139000000D03*
D18*
X187000000Y-136460000D03*
D17*
X199000000Y-139000000D03*
D18*
X199000000Y-136460000D03*
D17*
X211000000Y-139000000D03*
D18*
X211000000Y-136460000D03*
D17*
X168000000Y-151000000D03*
D18*
X170540000Y-151000000D03*
D17*
X168000000Y-163000000D03*
D18*
X170540000Y-163000000D03*
D17*
X168000000Y-175000000D03*
D18*
X170540000Y-175000000D03*
D17*
X168000000Y-187000000D03*
D18*
X170540000Y-187000000D03*
D19*
X167000000Y-139000000D03*
D20*
X164460000Y-139000000D03*
X167000000Y-141540000D03*
X164460000Y-141540000D03*
X167000000Y-144080000D03*
X164460000Y-144080000D03*
D21*
X160460000Y-96000000D03*
X163000000Y-96000000D03*
X160460000Y-108000000D03*
X163000000Y-108000000D03*
X160460000Y-120000000D03*
X163000000Y-120000000D03*
X160460000Y-132000000D03*
X163000000Y-132000000D03*
X120000000Y-146540000D03*
X120000000Y-144000000D03*
X132000000Y-146540000D03*
X132000000Y-144000000D03*
X144000000Y-146540000D03*
X144000000Y-144000000D03*
X156000000Y-146540000D03*
X156000000Y-144000000D03*
X175000000Y-146540000D03*
X175000000Y-144000000D03*
X187000000Y-146540000D03*
X187000000Y-144000000D03*
X199000000Y-146540000D03*
X199000000Y-144000000D03*
X211000000Y-146540000D03*
X211000000Y-144000000D03*
X160460000Y-151000000D03*
X163000000Y-151000000D03*
X160460000Y-163000000D03*
X163000000Y-163000000D03*
X160460000Y-175000000D03*
X163000000Y-175000000D03*
X160460000Y-187000000D03*
X163000000Y-187000000D03*
D22*
X160600000Y-114000000D03*
X170760000Y-114000000D03*
X163100000Y-101800000D03*
X170720000Y-101800000D03*
X163000000Y-125500000D03*
X170620000Y-125500000D03*
X138000000Y-146500000D03*
X138000000Y-138880000D03*
X126000000Y-144000000D03*
X126000000Y-136380000D03*
X150500000Y-144000000D03*
X150500000Y-136380000D03*
X205000000Y-146500000D03*
X205000000Y-138880000D03*
X181000000Y-144000000D03*
X181000000Y-136380000D03*
X193000000Y-144000000D03*
X193000000Y-136380000D03*
X160500000Y-169100000D03*
X168120000Y-169100000D03*
X163100000Y-156700000D03*
X170720000Y-156700000D03*
X163000000Y-180500000D03*
X170620000Y-180500000D03*
D23*
X177400000Y-79100000D03*
X178400000Y-129600000D03*
X238400000Y-83600000D03*
X178400000Y-123600000D03*
X202400000Y-123600000D03*
X202400000Y-99600000D03*
D24*
X192670000Y-93520000D03*
X187590000Y-93520000D03*
X192670000Y-130110000D03*
X187590000Y-130110000D03*
D25*
X232400000Y-92100000D03*
D26*
X232400000Y-99600000D03*
D22*
X222402540Y-90260000D03*
D27*
X222402540Y-80100000D03*
D19*
X177400000Y-84100000D03*
D20*
X179940000Y-84100000D03*
X177400000Y-86640000D03*
X179940000Y-86640000D03*
X177400000Y-89180000D03*
X179940000Y-89180000D03*
X177400000Y-91720000D03*
X179940000Y-91720000D03*
D19*
X184400000Y-83600000D03*
D20*
X186940000Y-83600000D03*
X184400000Y-86140000D03*
X186940000Y-86140000D03*
X184400000Y-88680000D03*
X186940000Y-88680000D03*
D28*
X191400000Y-83600000D03*
D29*
X191400000Y-86140000D03*
X191400000Y-88680000D03*
D30*
X229900000Y-80120000D03*
D31*
X229900000Y-84080000D03*
D30*
X210900000Y-110580000D03*
D31*
X210900000Y-106620000D03*
D30*
X221400000Y-110580000D03*
D31*
X221400000Y-106620000D03*
D32*
X218900000Y-93140000D03*
X218900000Y-88060000D03*
X218900000Y-90600000D03*
D22*
X197400000Y-85100000D03*
X205020000Y-85100000D03*
X207900000Y-88600000D03*
X215520000Y-88600000D03*
X207900000Y-94600000D03*
X215520000Y-94600000D03*
D21*
X197360000Y-88600000D03*
X197360000Y-91140000D03*
X204980000Y-88600000D03*
X204980000Y-91140000D03*
D23*
X178400000Y-99600000D03*
X150500000Y-95000000D03*
D16*
X121000000Y-123500000D03*
D19*
X109500000Y-105500000D03*
D20*
X112040000Y-105500000D03*
X109500000Y-108040000D03*
X112040000Y-108040000D03*
X109500000Y-110580000D03*
X112040000Y-110580000D03*
X109500000Y-113120000D03*
X112040000Y-113120000D03*
X109500000Y-115660000D03*
X112040000Y-115660000D03*
D33*
X112200000Y-122400000D03*
D34*
X109660000Y-122400000D03*
D28*
X118000000Y-100500000D03*
D29*
X118000000Y-103040000D03*
X118000000Y-105580000D03*
X118000000Y-108120000D03*
X118000000Y-110660000D03*
X118000000Y-113200000D03*
X118000000Y-115740000D03*
D16*
X147000000Y-123500000D03*
D23*
X110500000Y-95000000D03*
D16*
X112000000Y-141000000D03*
M02*
