G04 #@! TF.FileFunction,Profile,NP*
%FSLAX46Y46*%
G04 Gerber Fmt 4.6, Leading zero omitted, Abs format (unit mm)*
G04 Created by KiCad (PCBNEW 4.0.1-stable) date 2016/11/10 0:02:59*
%MOMM*%
G01*
G04 APERTURE LIST*
%ADD10C,0.150000*%
%ADD11C,0.100000*%
%ADD12C,0.010000*%
G04 APERTURE END LIST*
D10*
D11*
X209000000Y-177500000D02*
G75*
G03X209000000Y-177500000I-1500000J0D01*
G01*
X73000000Y-177500000D02*
G75*
G03X73000000Y-177500000I-1500000J0D01*
G01*
X209000000Y-25500000D02*
G75*
G03X209000000Y-25500000I-1500000J0D01*
G01*
X73000000Y-25500000D02*
G75*
G03X73000000Y-25500000I-1500000J0D01*
G01*
X41000000Y-85000000D02*
G75*
G03X41000000Y-85000000I-1500000J0D01*
G01*
X241000000Y-85000000D02*
G75*
G03X241000000Y-85000000I-1500000J0D01*
G01*
X241000000Y-118000000D02*
G75*
G03X241000000Y-118000000I-1500000J0D01*
G01*
X141000000Y-201500000D02*
G75*
G03X141000000Y-201500000I-1500000J0D01*
G01*
X41000000Y-118000000D02*
G75*
G03X41000000Y-118000000I-1500000J0D01*
G01*
X122000000Y-110500000D02*
G75*
G03X122000000Y-110500000I-1500000J0D01*
G01*
X162000000Y-110500000D02*
G75*
G03X162000000Y-110500000I-1500000J0D01*
G01*
X156000000Y-109500000D02*
X126000000Y-109500000D01*
X156000000Y-121500000D02*
X156000000Y-109500000D01*
X126000000Y-121500000D02*
X156000000Y-121500000D01*
X126000000Y-109500000D02*
X126000000Y-121500000D01*
D12*
X167429263Y-202796564D02*
X160677276Y-204414084D01*
X98646049Y-198295734D02*
X92471811Y-195443706D01*
X105028484Y-200751900D02*
X98646049Y-198295734D01*
X111603478Y-202796564D02*
X105028484Y-200751900D01*
X118355390Y-204414084D02*
X111603478Y-202796564D01*
X125268585Y-205588821D02*
X118355390Y-204414084D01*
X240379744Y-72265978D02*
X241457097Y-76281188D01*
X239149344Y-68315799D02*
X240379744Y-72265978D01*
X237769291Y-64434044D02*
X239149344Y-68315799D01*
X236242977Y-60624104D02*
X237769291Y-64434044D01*
X234573795Y-56889373D02*
X236242977Y-60624104D01*
X232765137Y-53233244D02*
X234573795Y-56889373D01*
X230820396Y-49659109D02*
X232765137Y-53233244D01*
X228742965Y-46170360D02*
X230820396Y-49659109D01*
X226536236Y-42770392D02*
X228742965Y-46170360D01*
X224203601Y-39462595D02*
X226536236Y-42770392D01*
X221748454Y-36250363D02*
X224203601Y-39462595D01*
X219174187Y-33137089D02*
X221748454Y-36250363D01*
X216484193Y-30126166D02*
X219174187Y-33137089D01*
X213681863Y-27220985D02*
X216484193Y-30126166D01*
X210770592Y-24424940D02*
X213681863Y-27220985D01*
X207753771Y-21741423D02*
X210770592Y-24424940D01*
X226584418Y-160253319D02*
X222638613Y-165709181D01*
X230181276Y-154542360D02*
X226584418Y-160253319D01*
X233413547Y-148591946D02*
X230181276Y-154542360D01*
X236265591Y-142417717D02*
X233413547Y-148591946D01*
X238721769Y-136035314D02*
X236265591Y-142417717D01*
X240766440Y-129460376D02*
X238721769Y-136035314D01*
X242383965Y-122708546D02*
X240766440Y-129460376D01*
X243558704Y-115795463D02*
X242383965Y-122708546D01*
X244275016Y-108736768D02*
X243558704Y-115795463D01*
X244517262Y-101548103D02*
X244275016Y-108736768D01*
X244429431Y-97213955D02*
X244517262Y-101548103D01*
X244168197Y-92924481D02*
X244429431Y-97213955D01*
X243736954Y-88683075D02*
X244168197Y-92924481D01*
X243139095Y-84493130D02*
X243736954Y-88683075D01*
X242378012Y-80358036D02*
X243139095Y-84493130D01*
X241457097Y-76281188D02*
X242378012Y-80358036D01*
X77960616Y-16605752D02*
X77974230Y-16603993D01*
X77945805Y-16607666D02*
X77960616Y-16605752D01*
X77930035Y-16609703D02*
X77945805Y-16607666D01*
X77913546Y-16611834D02*
X77930035Y-16609703D01*
X77896579Y-16614026D02*
X77913546Y-16611834D01*
X77879372Y-16616250D02*
X77896579Y-16614026D01*
X77862165Y-16618473D02*
X77879372Y-16616250D01*
X77845197Y-16620666D02*
X77862165Y-16618473D01*
X77828709Y-16622796D02*
X77845197Y-16620666D01*
X77812939Y-16624834D02*
X77828709Y-16622796D01*
X77798127Y-16626748D02*
X77812939Y-16624834D01*
X77784513Y-16628507D02*
X77798127Y-16626748D01*
X77772336Y-16630080D02*
X77784513Y-16628507D01*
X77761836Y-16631437D02*
X77772336Y-16630080D01*
X77753253Y-16632546D02*
X77761836Y-16631437D01*
X77746825Y-16633377D02*
X77753253Y-16632546D01*
X116935339Y-16598421D02*
X124284736Y-16598421D01*
X109906255Y-16598421D02*
X116935339Y-16598421D01*
X103304255Y-16598421D02*
X109906255Y-16598421D01*
X97236109Y-16598421D02*
X103304255Y-16598421D01*
X91808588Y-16598421D02*
X97236109Y-16598421D01*
X87128464Y-16598421D02*
X91808588Y-16598421D01*
X83302507Y-16598421D02*
X87128464Y-16598421D01*
X80437488Y-16598421D02*
X83302507Y-16598421D01*
X78640178Y-16598421D02*
X80437488Y-16598421D01*
X78017348Y-16598421D02*
X78640178Y-16598421D01*
X78015950Y-16598602D02*
X78017348Y-16598421D01*
X78011918Y-16599123D02*
X78015950Y-16598602D01*
X78005490Y-16599953D02*
X78011918Y-16599123D01*
X77996907Y-16601063D02*
X78005490Y-16599953D01*
X77986407Y-16602419D02*
X77996907Y-16601063D01*
X77974230Y-16603993D02*
X77986407Y-16602419D01*
X41285960Y-64378790D02*
X42816853Y-60563887D01*
X39901743Y-68265788D02*
X41285960Y-64378790D01*
X38667609Y-72221471D02*
X39901743Y-68265788D01*
X37586967Y-76242431D02*
X38667609Y-72221471D01*
X36663226Y-80325258D02*
X37586967Y-76242431D01*
X35899794Y-84466545D02*
X36663226Y-80325258D01*
X35300080Y-88662881D02*
X35899794Y-84466545D01*
X34867493Y-92910859D02*
X35300080Y-88662881D01*
X34605441Y-97207069D02*
X34867493Y-92910859D01*
X34517333Y-101548103D02*
X34605441Y-97207069D01*
X34759570Y-108736768D02*
X34517333Y-101548103D01*
X35475854Y-115795463D02*
X34759570Y-108736768D01*
X36650548Y-122708546D02*
X35475854Y-115795463D01*
X38268014Y-129460376D02*
X36650548Y-122708546D01*
X40312612Y-136035314D02*
X38268014Y-129460376D01*
X42768705Y-142417717D02*
X40312612Y-136035314D01*
X77742793Y-16633898D02*
X77746825Y-16633377D01*
X77741396Y-16634078D02*
X77742793Y-16633898D01*
X74514958Y-19081735D02*
X77741396Y-16634078D01*
X71387475Y-21649209D02*
X74514958Y-19081735D01*
X68362355Y-24333093D02*
X71387475Y-21649209D01*
X65443006Y-27129977D02*
X68362355Y-24333093D01*
X62632838Y-30036452D02*
X65443006Y-27129977D01*
X59935258Y-33049110D02*
X62632838Y-30036452D01*
X57353676Y-36164542D02*
X59935258Y-33049110D01*
X54891500Y-39379339D02*
X57353676Y-36164542D01*
X52552139Y-42690091D02*
X54891500Y-39379339D01*
X50339000Y-46093391D02*
X52552139Y-42690091D01*
X48255494Y-49585829D02*
X50339000Y-46093391D01*
X46305028Y-53163997D02*
X48255494Y-49585829D01*
X44491012Y-56824486D02*
X46305028Y-53163997D01*
X42816853Y-60563887D02*
X44491012Y-56824486D01*
X201415027Y-16724902D02*
X201417051Y-16725545D01*
X201409188Y-16723044D02*
X201415027Y-16724902D01*
X201399879Y-16720083D02*
X201409188Y-16723044D01*
X201387448Y-16716129D02*
X201399879Y-16720083D01*
X201372243Y-16711292D02*
X201387448Y-16716129D01*
X201354608Y-16705682D02*
X201372243Y-16711292D01*
X201019443Y-16599065D02*
X201025283Y-16600923D01*
X201017420Y-16598421D02*
X201019443Y-16599065D01*
X200394589Y-16598421D02*
X201017420Y-16598421D01*
X198597279Y-16598421D02*
X200394589Y-16598421D01*
X195732260Y-16598421D02*
X198597279Y-16598421D01*
X191906303Y-16598421D02*
X195732260Y-16598421D01*
X187226179Y-16598421D02*
X191906303Y-16598421D01*
X181798658Y-16598421D02*
X187226179Y-16598421D01*
X175730512Y-16598421D02*
X181798658Y-16598421D01*
X169128512Y-16598421D02*
X175730512Y-16598421D01*
X162099428Y-16598421D02*
X169128512Y-16598421D01*
X154750031Y-16598421D02*
X162099428Y-16598421D01*
X147187093Y-16598421D02*
X154750031Y-16598421D01*
X139517384Y-16598421D02*
X147187093Y-16598421D01*
X131847674Y-16598421D02*
X139517384Y-16598421D01*
X124284736Y-16598421D02*
X131847674Y-16598421D01*
X201334893Y-16699411D02*
X201354608Y-16705682D01*
X201313443Y-16692587D02*
X201334893Y-16699411D01*
X201290605Y-16685323D02*
X201313443Y-16692587D01*
X201266726Y-16677727D02*
X201290605Y-16685323D01*
X201242154Y-16669910D02*
X201266726Y-16677727D01*
X201217235Y-16661983D02*
X201242154Y-16669910D01*
X201192316Y-16654057D02*
X201217235Y-16661983D01*
X201167744Y-16646240D02*
X201192316Y-16654057D01*
X201143865Y-16638644D02*
X201167744Y-16646240D01*
X201121028Y-16631379D02*
X201143865Y-16638644D01*
X201099578Y-16624556D02*
X201121028Y-16631379D01*
X201079862Y-16618284D02*
X201099578Y-16624556D01*
X201062228Y-16612675D02*
X201079862Y-16618284D01*
X201047022Y-16607838D02*
X201062228Y-16612675D01*
X201034591Y-16603884D02*
X201047022Y-16607838D01*
X201025283Y-16600923D02*
X201034591Y-16603884D01*
X204634793Y-19173827D02*
X207753771Y-21741423D01*
X201417051Y-16725545D02*
X204634793Y-19173827D01*
X132327422Y-206305132D02*
X125268585Y-205588821D01*
X139516264Y-206547378D02*
X132327422Y-206305132D01*
X146705136Y-206305132D02*
X139516264Y-206547378D01*
X153764020Y-205588821D02*
X146705136Y-206305132D01*
X160677276Y-204414084D02*
X153764020Y-205588821D01*
X174004343Y-200751900D02*
X167429263Y-202796564D01*
X180386874Y-198295734D02*
X174004343Y-200751900D01*
X186561218Y-195443706D02*
X180386874Y-198295734D01*
X192511734Y-192211456D02*
X186561218Y-195443706D01*
X198222782Y-188614625D02*
X192511734Y-192211456D01*
X203678723Y-184668854D02*
X198222782Y-188614625D01*
X208863917Y-180389783D02*
X203678723Y-184668854D01*
X213762723Y-175793054D02*
X208863917Y-180389783D01*
X218359501Y-170894306D02*
X213762723Y-175793054D01*
X222638613Y-165709181D02*
X218359501Y-170894306D01*
X45620654Y-148591946D02*
X42768705Y-142417717D01*
X48852822Y-154542360D02*
X45620654Y-148591946D01*
X52449569Y-160253319D02*
X48852822Y-154542360D01*
X56395257Y-165709181D02*
X52449569Y-160253319D01*
X60674248Y-170894306D02*
X56395257Y-165709181D01*
X65270904Y-175793054D02*
X60674248Y-170894306D01*
X70169586Y-180389783D02*
X65270904Y-175793054D01*
X75354656Y-184668854D02*
X70169586Y-180389783D01*
X80810475Y-188614625D02*
X75354656Y-184668854D01*
X86521406Y-192211456D02*
X80810475Y-188614625D01*
X92471811Y-195443706D02*
X86521406Y-192211456D01*
M02*
