G04 #@! TF.FileFunction,Legend,Bot*
%FSLAX46Y46*%
G04 Gerber Fmt 4.6, Leading zero omitted, Abs format (unit mm)*
G04 Created by KiCad (PCBNEW 4.0.1-stable) date 2016/11/10 0:02:59*
%MOMM*%
G01*
G04 APERTURE LIST*
%ADD10C,0.150000*%
%ADD11C,3.200000*%
%ADD12R,2.032000X1.727200*%
%ADD13O,2.032000X1.727200*%
%ADD14C,1.300000*%
%ADD15R,1.300000X1.300000*%
%ADD16R,2.000000X2.000000*%
%ADD17C,2.000000*%
%ADD18R,2.950000X2.950000*%
%ADD19C,2.950000*%
%ADD20R,1.727200X1.727200*%
%ADD21O,1.727200X1.727200*%
%ADD22C,1.998980*%
%ADD23C,1.510000*%
%ADD24R,1.510000X1.510000*%
%ADD25C,1.524000*%
%ADD26R,1.727200X2.032000*%
%ADD27O,1.727200X2.032000*%
%ADD28C,4.000000*%
G04 APERTURE END LIST*
D10*
X142750000Y-73500000D02*
X142750000Y-66500000D01*
X142750000Y-66500000D02*
X140250000Y-66500000D01*
X140250000Y-66500000D02*
X140250000Y-73500000D01*
X140250000Y-73500000D02*
X142750000Y-73500000D01*
X161750000Y-79500000D02*
X161750000Y-72500000D01*
X161750000Y-72500000D02*
X159250000Y-72500000D01*
X159250000Y-72500000D02*
X159250000Y-79500000D01*
X159250000Y-79500000D02*
X161750000Y-79500000D01*
X171125000Y-90340000D02*
X171125000Y-83340000D01*
X171125000Y-83340000D02*
X168625000Y-83340000D01*
X168625000Y-83340000D02*
X168625000Y-90340000D01*
X168625000Y-90340000D02*
X171125000Y-90340000D01*
X167500000Y-107750000D02*
X174500000Y-107750000D01*
X174500000Y-107750000D02*
X174500000Y-105250000D01*
X174500000Y-105250000D02*
X167500000Y-105250000D01*
X167500000Y-105250000D02*
X167500000Y-107750000D01*
X161500000Y-120750000D02*
X168500000Y-120750000D01*
X168500000Y-120750000D02*
X168500000Y-118250000D01*
X168500000Y-118250000D02*
X161500000Y-118250000D01*
X161500000Y-118250000D02*
X161500000Y-120750000D01*
X149500000Y-131750000D02*
X156500000Y-131750000D01*
X156500000Y-131750000D02*
X156500000Y-129250000D01*
X156500000Y-129250000D02*
X149500000Y-129250000D01*
X149500000Y-129250000D02*
X149500000Y-131750000D01*
X137250000Y-128500000D02*
X137250000Y-135500000D01*
X137250000Y-135500000D02*
X139750000Y-135500000D01*
X139750000Y-135500000D02*
X139750000Y-128500000D01*
X139750000Y-128500000D02*
X137250000Y-128500000D01*
X127500000Y-124250000D02*
X120500000Y-124250000D01*
X120500000Y-124250000D02*
X120500000Y-126750000D01*
X120500000Y-126750000D02*
X127500000Y-126750000D01*
X127500000Y-126750000D02*
X127500000Y-124250000D01*
X118500000Y-112250000D02*
X111500000Y-112250000D01*
X111500000Y-112250000D02*
X111500000Y-114750000D01*
X111500000Y-114750000D02*
X118500000Y-114750000D01*
X118500000Y-114750000D02*
X118500000Y-112250000D01*
X113500000Y-103250000D02*
X106500000Y-103250000D01*
X106500000Y-103250000D02*
X106500000Y-105750000D01*
X106500000Y-105750000D02*
X113500000Y-105750000D01*
X113500000Y-105750000D02*
X113500000Y-103250000D01*
X117500000Y-81250000D02*
X110500000Y-81250000D01*
X110500000Y-81250000D02*
X110500000Y-83750000D01*
X110500000Y-83750000D02*
X117500000Y-83750000D01*
X117500000Y-83750000D02*
X117500000Y-81250000D01*
X133500000Y-63250000D02*
X126500000Y-63250000D01*
X126500000Y-63250000D02*
X126500000Y-65750000D01*
X126500000Y-65750000D02*
X133500000Y-65750000D01*
X133500000Y-65750000D02*
X133500000Y-63250000D01*
X137500000Y-69400940D02*
X137500000Y-70401700D01*
X139999360Y-67000640D02*
G75*
G03X139999360Y-67000640I-2499360J0D01*
G01*
X156500000Y-75400940D02*
X156500000Y-76401700D01*
X158999360Y-73000640D02*
G75*
G03X158999360Y-73000640I-2499360J0D01*
G01*
X165500000Y-84400940D02*
X165500000Y-85401700D01*
X167999360Y-82000640D02*
G75*
G03X167999360Y-82000640I-2499360J0D01*
G01*
X170599060Y-102500000D02*
X169598300Y-102500000D01*
X175498720Y-102500000D02*
G75*
G03X175498720Y-102500000I-2499360J0D01*
G01*
X166599060Y-115500000D02*
X165598300Y-115500000D01*
X171498720Y-115500000D02*
G75*
G03X171498720Y-115500000I-2499360J0D01*
G01*
X157599060Y-127500000D02*
X156598300Y-127500000D01*
X162498720Y-127500000D02*
G75*
G03X162498720Y-127500000I-2499360J0D01*
G01*
X142500000Y-130599060D02*
X142500000Y-129598300D01*
X144999360Y-132999360D02*
G75*
G03X144999360Y-132999360I-2499360J0D01*
G01*
X126400940Y-129500000D02*
X127401700Y-129500000D01*
X126500000Y-129500000D02*
G75*
G03X126500000Y-129500000I-2499360J0D01*
G01*
X115400940Y-117500000D02*
X116401700Y-117500000D01*
X115500000Y-117500000D02*
G75*
G03X115500000Y-117500000I-2499360J0D01*
G01*
X110400940Y-108500000D02*
X111401700Y-108500000D01*
X110500000Y-108500000D02*
G75*
G03X110500000Y-108500000I-2499360J0D01*
G01*
X113400940Y-86500000D02*
X114401700Y-86500000D01*
X113500000Y-86500000D02*
G75*
G03X113500000Y-86500000I-2499360J0D01*
G01*
X130400940Y-68500000D02*
X131401700Y-68500000D01*
X130500000Y-68500000D02*
G75*
G03X130500000Y-68500000I-2499360J0D01*
G01*
X141500000Y-62500000D02*
X137500000Y-62500000D01*
X141500000Y-60500000D02*
X137500000Y-60500000D01*
X139500000Y-59000000D02*
G75*
G02X141000000Y-60500000I0J-1500000D01*
G01*
X138000000Y-60500000D02*
G75*
G02X139500000Y-59000000I1500000J0D01*
G01*
X161732051Y-69366025D02*
X158267949Y-67366025D01*
X162732051Y-67633975D02*
X159267949Y-65633975D01*
X161750000Y-65334937D02*
G75*
G02X162299038Y-67383975I-750000J-1299038D01*
G01*
X159700961Y-65883975D02*
G75*
G02X161750000Y-65334936I1299039J-750000D01*
G01*
X173633975Y-83732051D02*
X171633975Y-80267949D01*
X175366025Y-82732051D02*
X173366025Y-79267949D01*
X175665063Y-80250000D02*
G75*
G02X175116025Y-82299038I-1299038J-750000D01*
G01*
X173616025Y-79700961D02*
G75*
G02X175665064Y-80250000I750000J-1299039D01*
G01*
X177500000Y-102500000D02*
X177500000Y-98500000D01*
X179500000Y-102500000D02*
X179500000Y-98500000D01*
X181000000Y-100500000D02*
G75*
G02X179500000Y-102000000I-1500000J0D01*
G01*
X179500000Y-99000000D02*
G75*
G02X181000000Y-100500000I0J-1500000D01*
G01*
X171633975Y-120732051D02*
X173633975Y-117267949D01*
X173366025Y-121732051D02*
X175366025Y-118267949D01*
X175665063Y-120750000D02*
G75*
G02X173616025Y-121299038I-1299038J750000D01*
G01*
X175116025Y-118700961D02*
G75*
G02X175665064Y-120750000I-750000J-1299039D01*
G01*
X158267949Y-133633975D02*
X161732051Y-131633975D01*
X159267949Y-135366025D02*
X162732051Y-133366025D01*
X161750000Y-135665063D02*
G75*
G02X159700962Y-135116025I-750000J1299038D01*
G01*
X162299039Y-133616025D02*
G75*
G02X161750000Y-135665064I-1299039J-750000D01*
G01*
X137500000Y-138500000D02*
X141500000Y-138500000D01*
X137500000Y-140500000D02*
X141500000Y-140500000D01*
X139500000Y-142000000D02*
G75*
G02X138000000Y-140500000I0J1500000D01*
G01*
X141000000Y-140500000D02*
G75*
G02X139500000Y-142000000I-1500000J0D01*
G01*
X117267949Y-131633975D02*
X120732051Y-133633975D01*
X116267949Y-133366025D02*
X119732051Y-135366025D01*
X117250000Y-135665063D02*
G75*
G02X116700962Y-133616025I750000J1299038D01*
G01*
X119299039Y-135116025D02*
G75*
G02X117250000Y-135665064I-1299039J750000D01*
G01*
X105366025Y-117267949D02*
X107366025Y-120732051D01*
X103633975Y-118267949D02*
X105633975Y-121732051D01*
X103334937Y-120750000D02*
G75*
G02X103883975Y-118700962I1299038J750000D01*
G01*
X105383975Y-121299039D02*
G75*
G02X103334936Y-120750000I-750000J1299039D01*
G01*
X101500000Y-98500000D02*
X101500000Y-102500000D01*
X99500000Y-98500000D02*
X99500000Y-102500000D01*
X98000000Y-100500000D02*
G75*
G02X99500000Y-99000000I1500000J0D01*
G01*
X99500000Y-102000000D02*
G75*
G02X98000000Y-100500000I0J1500000D01*
G01*
X107366025Y-80267949D02*
X105366025Y-83732051D01*
X105633975Y-79267949D02*
X103633975Y-82732051D01*
X103334937Y-80250000D02*
G75*
G02X105383975Y-79700962I1299038J-750000D01*
G01*
X103883975Y-82299039D02*
G75*
G02X103334936Y-80250000I750000J1299039D01*
G01*
X120732051Y-67366025D02*
X117267949Y-69366025D01*
X119732051Y-65633975D02*
X116267949Y-67633975D01*
X117250000Y-65334937D02*
G75*
G02X119299038Y-65883975I750000J-1299038D01*
G01*
X116700961Y-67383975D02*
G75*
G02X117250000Y-65334936I1299039J750000D01*
G01*
X143857143Y-68333334D02*
X143904762Y-68285715D01*
X143952381Y-68142858D01*
X143952381Y-68047620D01*
X143904762Y-67904762D01*
X143809524Y-67809524D01*
X143714286Y-67761905D01*
X143523810Y-67714286D01*
X143380952Y-67714286D01*
X143190476Y-67761905D01*
X143095238Y-67809524D01*
X143000000Y-67904762D01*
X142952381Y-68047620D01*
X142952381Y-68142858D01*
X143000000Y-68285715D01*
X143047619Y-68333334D01*
X143952381Y-69285715D02*
X143952381Y-68714286D01*
X143952381Y-69000000D02*
X142952381Y-69000000D01*
X143095238Y-68904762D01*
X143190476Y-68809524D01*
X143238095Y-68714286D01*
X162857143Y-74333334D02*
X162904762Y-74285715D01*
X162952381Y-74142858D01*
X162952381Y-74047620D01*
X162904762Y-73904762D01*
X162809524Y-73809524D01*
X162714286Y-73761905D01*
X162523810Y-73714286D01*
X162380952Y-73714286D01*
X162190476Y-73761905D01*
X162095238Y-73809524D01*
X162000000Y-73904762D01*
X161952381Y-74047620D01*
X161952381Y-74142858D01*
X162000000Y-74285715D01*
X162047619Y-74333334D01*
X162047619Y-74714286D02*
X162000000Y-74761905D01*
X161952381Y-74857143D01*
X161952381Y-75095239D01*
X162000000Y-75190477D01*
X162047619Y-75238096D01*
X162142857Y-75285715D01*
X162238095Y-75285715D01*
X162380952Y-75238096D01*
X162952381Y-74666667D01*
X162952381Y-75285715D01*
X168232143Y-85173334D02*
X168279762Y-85125715D01*
X168327381Y-84982858D01*
X168327381Y-84887620D01*
X168279762Y-84744762D01*
X168184524Y-84649524D01*
X168089286Y-84601905D01*
X167898810Y-84554286D01*
X167755952Y-84554286D01*
X167565476Y-84601905D01*
X167470238Y-84649524D01*
X167375000Y-84744762D01*
X167327381Y-84887620D01*
X167327381Y-84982858D01*
X167375000Y-85125715D01*
X167422619Y-85173334D01*
X167327381Y-85506667D02*
X167327381Y-86125715D01*
X167708333Y-85792381D01*
X167708333Y-85935239D01*
X167755952Y-86030477D01*
X167803571Y-86078096D01*
X167898810Y-86125715D01*
X168136905Y-86125715D01*
X168232143Y-86078096D01*
X168279762Y-86030477D01*
X168327381Y-85935239D01*
X168327381Y-85649524D01*
X168279762Y-85554286D01*
X168232143Y-85506667D01*
X168666666Y-108857143D02*
X168714285Y-108904762D01*
X168857142Y-108952381D01*
X168952380Y-108952381D01*
X169095238Y-108904762D01*
X169190476Y-108809524D01*
X169238095Y-108714286D01*
X169285714Y-108523810D01*
X169285714Y-108380952D01*
X169238095Y-108190476D01*
X169190476Y-108095238D01*
X169095238Y-108000000D01*
X168952380Y-107952381D01*
X168857142Y-107952381D01*
X168714285Y-108000000D01*
X168666666Y-108047619D01*
X167809523Y-108285714D02*
X167809523Y-108952381D01*
X168047619Y-107904762D02*
X168285714Y-108619048D01*
X167666666Y-108619048D01*
X162666666Y-121857143D02*
X162714285Y-121904762D01*
X162857142Y-121952381D01*
X162952380Y-121952381D01*
X163095238Y-121904762D01*
X163190476Y-121809524D01*
X163238095Y-121714286D01*
X163285714Y-121523810D01*
X163285714Y-121380952D01*
X163238095Y-121190476D01*
X163190476Y-121095238D01*
X163095238Y-121000000D01*
X162952380Y-120952381D01*
X162857142Y-120952381D01*
X162714285Y-121000000D01*
X162666666Y-121047619D01*
X161761904Y-120952381D02*
X162238095Y-120952381D01*
X162285714Y-121428571D01*
X162238095Y-121380952D01*
X162142857Y-121333333D01*
X161904761Y-121333333D01*
X161809523Y-121380952D01*
X161761904Y-121428571D01*
X161714285Y-121523810D01*
X161714285Y-121761905D01*
X161761904Y-121857143D01*
X161809523Y-121904762D01*
X161904761Y-121952381D01*
X162142857Y-121952381D01*
X162238095Y-121904762D01*
X162285714Y-121857143D01*
X150666666Y-132857143D02*
X150714285Y-132904762D01*
X150857142Y-132952381D01*
X150952380Y-132952381D01*
X151095238Y-132904762D01*
X151190476Y-132809524D01*
X151238095Y-132714286D01*
X151285714Y-132523810D01*
X151285714Y-132380952D01*
X151238095Y-132190476D01*
X151190476Y-132095238D01*
X151095238Y-132000000D01*
X150952380Y-131952381D01*
X150857142Y-131952381D01*
X150714285Y-132000000D01*
X150666666Y-132047619D01*
X149809523Y-131952381D02*
X150000000Y-131952381D01*
X150095238Y-132000000D01*
X150142857Y-132047619D01*
X150238095Y-132190476D01*
X150285714Y-132380952D01*
X150285714Y-132761905D01*
X150238095Y-132857143D01*
X150190476Y-132904762D01*
X150095238Y-132952381D01*
X149904761Y-132952381D01*
X149809523Y-132904762D01*
X149761904Y-132857143D01*
X149714285Y-132761905D01*
X149714285Y-132523810D01*
X149761904Y-132428571D01*
X149809523Y-132380952D01*
X149904761Y-132333333D01*
X150095238Y-132333333D01*
X150190476Y-132380952D01*
X150238095Y-132428571D01*
X150285714Y-132523810D01*
X136857143Y-129333334D02*
X136904762Y-129285715D01*
X136952381Y-129142858D01*
X136952381Y-129047620D01*
X136904762Y-128904762D01*
X136809524Y-128809524D01*
X136714286Y-128761905D01*
X136523810Y-128714286D01*
X136380952Y-128714286D01*
X136190476Y-128761905D01*
X136095238Y-128809524D01*
X136000000Y-128904762D01*
X135952381Y-129047620D01*
X135952381Y-129142858D01*
X136000000Y-129285715D01*
X136047619Y-129333334D01*
X136952381Y-129809524D02*
X136952381Y-130000000D01*
X136904762Y-130095239D01*
X136857143Y-130142858D01*
X136714286Y-130238096D01*
X136523810Y-130285715D01*
X136142857Y-130285715D01*
X136047619Y-130238096D01*
X136000000Y-130190477D01*
X135952381Y-130095239D01*
X135952381Y-129904762D01*
X136000000Y-129809524D01*
X136047619Y-129761905D01*
X136142857Y-129714286D01*
X136380952Y-129714286D01*
X136476190Y-129761905D01*
X136523810Y-129809524D01*
X136571429Y-129904762D01*
X136571429Y-130095239D01*
X136523810Y-130190477D01*
X136476190Y-130238096D01*
X136380952Y-130285715D01*
X123142857Y-123857143D02*
X123190476Y-123904762D01*
X123333333Y-123952381D01*
X123428571Y-123952381D01*
X123571429Y-123904762D01*
X123666667Y-123809524D01*
X123714286Y-123714286D01*
X123761905Y-123523810D01*
X123761905Y-123380952D01*
X123714286Y-123190476D01*
X123666667Y-123095238D01*
X123571429Y-123000000D01*
X123428571Y-122952381D01*
X123333333Y-122952381D01*
X123190476Y-123000000D01*
X123142857Y-123047619D01*
X122190476Y-123952381D02*
X122761905Y-123952381D01*
X122476191Y-123952381D02*
X122476191Y-122952381D01*
X122571429Y-123095238D01*
X122666667Y-123190476D01*
X122761905Y-123238095D01*
X121571429Y-122952381D02*
X121476190Y-122952381D01*
X121380952Y-123000000D01*
X121333333Y-123047619D01*
X121285714Y-123142857D01*
X121238095Y-123333333D01*
X121238095Y-123571429D01*
X121285714Y-123761905D01*
X121333333Y-123857143D01*
X121380952Y-123904762D01*
X121476190Y-123952381D01*
X121571429Y-123952381D01*
X121666667Y-123904762D01*
X121714286Y-123857143D01*
X121761905Y-123761905D01*
X121809524Y-123571429D01*
X121809524Y-123333333D01*
X121761905Y-123142857D01*
X121714286Y-123047619D01*
X121666667Y-123000000D01*
X121571429Y-122952381D01*
X113142857Y-111857143D02*
X113190476Y-111904762D01*
X113333333Y-111952381D01*
X113428571Y-111952381D01*
X113571429Y-111904762D01*
X113666667Y-111809524D01*
X113714286Y-111714286D01*
X113761905Y-111523810D01*
X113761905Y-111380952D01*
X113714286Y-111190476D01*
X113666667Y-111095238D01*
X113571429Y-111000000D01*
X113428571Y-110952381D01*
X113333333Y-110952381D01*
X113190476Y-111000000D01*
X113142857Y-111047619D01*
X112190476Y-111952381D02*
X112761905Y-111952381D01*
X112476191Y-111952381D02*
X112476191Y-110952381D01*
X112571429Y-111095238D01*
X112666667Y-111190476D01*
X112761905Y-111238095D01*
X111238095Y-111952381D02*
X111809524Y-111952381D01*
X111523810Y-111952381D02*
X111523810Y-110952381D01*
X111619048Y-111095238D01*
X111714286Y-111190476D01*
X111809524Y-111238095D01*
X108142857Y-102857143D02*
X108190476Y-102904762D01*
X108333333Y-102952381D01*
X108428571Y-102952381D01*
X108571429Y-102904762D01*
X108666667Y-102809524D01*
X108714286Y-102714286D01*
X108761905Y-102523810D01*
X108761905Y-102380952D01*
X108714286Y-102190476D01*
X108666667Y-102095238D01*
X108571429Y-102000000D01*
X108428571Y-101952381D01*
X108333333Y-101952381D01*
X108190476Y-102000000D01*
X108142857Y-102047619D01*
X107190476Y-102952381D02*
X107761905Y-102952381D01*
X107476191Y-102952381D02*
X107476191Y-101952381D01*
X107571429Y-102095238D01*
X107666667Y-102190476D01*
X107761905Y-102238095D01*
X106857143Y-101952381D02*
X106238095Y-101952381D01*
X106571429Y-102333333D01*
X106428571Y-102333333D01*
X106333333Y-102380952D01*
X106285714Y-102428571D01*
X106238095Y-102523810D01*
X106238095Y-102761905D01*
X106285714Y-102857143D01*
X106333333Y-102904762D01*
X106428571Y-102952381D01*
X106714286Y-102952381D01*
X106809524Y-102904762D01*
X106857143Y-102857143D01*
X114642857Y-80357143D02*
X114690476Y-80404762D01*
X114833333Y-80452381D01*
X114928571Y-80452381D01*
X115071429Y-80404762D01*
X115166667Y-80309524D01*
X115214286Y-80214286D01*
X115261905Y-80023810D01*
X115261905Y-79880952D01*
X115214286Y-79690476D01*
X115166667Y-79595238D01*
X115071429Y-79500000D01*
X114928571Y-79452381D01*
X114833333Y-79452381D01*
X114690476Y-79500000D01*
X114642857Y-79547619D01*
X113690476Y-80452381D02*
X114261905Y-80452381D01*
X113976191Y-80452381D02*
X113976191Y-79452381D01*
X114071429Y-79595238D01*
X114166667Y-79690476D01*
X114261905Y-79738095D01*
X112785714Y-79452381D02*
X113261905Y-79452381D01*
X113309524Y-79928571D01*
X113261905Y-79880952D01*
X113166667Y-79833333D01*
X112928571Y-79833333D01*
X112833333Y-79880952D01*
X112785714Y-79928571D01*
X112738095Y-80023810D01*
X112738095Y-80261905D01*
X112785714Y-80357143D01*
X112833333Y-80404762D01*
X112928571Y-80452381D01*
X113166667Y-80452381D01*
X113261905Y-80404762D01*
X113309524Y-80357143D01*
X130642857Y-62357143D02*
X130690476Y-62404762D01*
X130833333Y-62452381D01*
X130928571Y-62452381D01*
X131071429Y-62404762D01*
X131166667Y-62309524D01*
X131214286Y-62214286D01*
X131261905Y-62023810D01*
X131261905Y-61880952D01*
X131214286Y-61690476D01*
X131166667Y-61595238D01*
X131071429Y-61500000D01*
X130928571Y-61452381D01*
X130833333Y-61452381D01*
X130690476Y-61500000D01*
X130642857Y-61547619D01*
X129690476Y-62452381D02*
X130261905Y-62452381D01*
X129976191Y-62452381D02*
X129976191Y-61452381D01*
X130071429Y-61595238D01*
X130166667Y-61690476D01*
X130261905Y-61738095D01*
X128833333Y-61452381D02*
X129023810Y-61452381D01*
X129119048Y-61500000D01*
X129166667Y-61547619D01*
X129261905Y-61690476D01*
X129309524Y-61880952D01*
X129309524Y-62261905D01*
X129261905Y-62357143D01*
X129214286Y-62404762D01*
X129119048Y-62452381D01*
X128928571Y-62452381D01*
X128833333Y-62404762D01*
X128785714Y-62357143D01*
X128738095Y-62261905D01*
X128738095Y-62023810D01*
X128785714Y-61928571D01*
X128833333Y-61880952D01*
X128928571Y-61833333D01*
X129119048Y-61833333D01*
X129214286Y-61880952D01*
X129261905Y-61928571D01*
X129309524Y-62023810D01*
X136952381Y-74333334D02*
X136476190Y-74000000D01*
X136952381Y-73761905D02*
X135952381Y-73761905D01*
X135952381Y-74142858D01*
X136000000Y-74238096D01*
X136047619Y-74285715D01*
X136142857Y-74333334D01*
X136285714Y-74333334D01*
X136380952Y-74285715D01*
X136428571Y-74238096D01*
X136476190Y-74142858D01*
X136476190Y-73761905D01*
X136952381Y-75285715D02*
X136952381Y-74714286D01*
X136952381Y-75000000D02*
X135952381Y-75000000D01*
X136095238Y-74904762D01*
X136190476Y-74809524D01*
X136238095Y-74714286D01*
X157952381Y-81333334D02*
X157476190Y-81000000D01*
X157952381Y-80761905D02*
X156952381Y-80761905D01*
X156952381Y-81142858D01*
X157000000Y-81238096D01*
X157047619Y-81285715D01*
X157142857Y-81333334D01*
X157285714Y-81333334D01*
X157380952Y-81285715D01*
X157428571Y-81238096D01*
X157476190Y-81142858D01*
X157476190Y-80761905D01*
X157047619Y-81714286D02*
X157000000Y-81761905D01*
X156952381Y-81857143D01*
X156952381Y-82095239D01*
X157000000Y-82190477D01*
X157047619Y-82238096D01*
X157142857Y-82285715D01*
X157238095Y-82285715D01*
X157380952Y-82238096D01*
X157952381Y-81666667D01*
X157952381Y-82285715D01*
X162952381Y-86333334D02*
X162476190Y-86000000D01*
X162952381Y-85761905D02*
X161952381Y-85761905D01*
X161952381Y-86142858D01*
X162000000Y-86238096D01*
X162047619Y-86285715D01*
X162142857Y-86333334D01*
X162285714Y-86333334D01*
X162380952Y-86285715D01*
X162428571Y-86238096D01*
X162476190Y-86142858D01*
X162476190Y-85761905D01*
X161952381Y-86666667D02*
X161952381Y-87285715D01*
X162333333Y-86952381D01*
X162333333Y-87095239D01*
X162380952Y-87190477D01*
X162428571Y-87238096D01*
X162523810Y-87285715D01*
X162761905Y-87285715D01*
X162857143Y-87238096D01*
X162904762Y-87190477D01*
X162952381Y-87095239D01*
X162952381Y-86809524D01*
X162904762Y-86714286D01*
X162857143Y-86666667D01*
X168666666Y-99952381D02*
X169000000Y-99476190D01*
X169238095Y-99952381D02*
X169238095Y-98952381D01*
X168857142Y-98952381D01*
X168761904Y-99000000D01*
X168714285Y-99047619D01*
X168666666Y-99142857D01*
X168666666Y-99285714D01*
X168714285Y-99380952D01*
X168761904Y-99428571D01*
X168857142Y-99476190D01*
X169238095Y-99476190D01*
X167809523Y-99285714D02*
X167809523Y-99952381D01*
X168047619Y-98904762D02*
X168285714Y-99619048D01*
X167666666Y-99619048D01*
X164666666Y-112952381D02*
X165000000Y-112476190D01*
X165238095Y-112952381D02*
X165238095Y-111952381D01*
X164857142Y-111952381D01*
X164761904Y-112000000D01*
X164714285Y-112047619D01*
X164666666Y-112142857D01*
X164666666Y-112285714D01*
X164714285Y-112380952D01*
X164761904Y-112428571D01*
X164857142Y-112476190D01*
X165238095Y-112476190D01*
X163761904Y-111952381D02*
X164238095Y-111952381D01*
X164285714Y-112428571D01*
X164238095Y-112380952D01*
X164142857Y-112333333D01*
X163904761Y-112333333D01*
X163809523Y-112380952D01*
X163761904Y-112428571D01*
X163714285Y-112523810D01*
X163714285Y-112761905D01*
X163761904Y-112857143D01*
X163809523Y-112904762D01*
X163904761Y-112952381D01*
X164142857Y-112952381D01*
X164238095Y-112904762D01*
X164285714Y-112857143D01*
X155666666Y-124952381D02*
X156000000Y-124476190D01*
X156238095Y-124952381D02*
X156238095Y-123952381D01*
X155857142Y-123952381D01*
X155761904Y-124000000D01*
X155714285Y-124047619D01*
X155666666Y-124142857D01*
X155666666Y-124285714D01*
X155714285Y-124380952D01*
X155761904Y-124428571D01*
X155857142Y-124476190D01*
X156238095Y-124476190D01*
X154809523Y-123952381D02*
X155000000Y-123952381D01*
X155095238Y-124000000D01*
X155142857Y-124047619D01*
X155238095Y-124190476D01*
X155285714Y-124380952D01*
X155285714Y-124761905D01*
X155238095Y-124857143D01*
X155190476Y-124904762D01*
X155095238Y-124952381D01*
X154904761Y-124952381D01*
X154809523Y-124904762D01*
X154761904Y-124857143D01*
X154714285Y-124761905D01*
X154714285Y-124523810D01*
X154761904Y-124428571D01*
X154809523Y-124380952D01*
X154904761Y-124333333D01*
X155095238Y-124333333D01*
X155190476Y-124380952D01*
X155238095Y-124428571D01*
X155285714Y-124523810D01*
X145952381Y-127333334D02*
X145476190Y-127000000D01*
X145952381Y-126761905D02*
X144952381Y-126761905D01*
X144952381Y-127142858D01*
X145000000Y-127238096D01*
X145047619Y-127285715D01*
X145142857Y-127333334D01*
X145285714Y-127333334D01*
X145380952Y-127285715D01*
X145428571Y-127238096D01*
X145476190Y-127142858D01*
X145476190Y-126761905D01*
X144952381Y-127666667D02*
X144952381Y-128333334D01*
X145952381Y-127904762D01*
X127666666Y-132952381D02*
X128000000Y-132476190D01*
X128238095Y-132952381D02*
X128238095Y-131952381D01*
X127857142Y-131952381D01*
X127761904Y-132000000D01*
X127714285Y-132047619D01*
X127666666Y-132142857D01*
X127666666Y-132285714D01*
X127714285Y-132380952D01*
X127761904Y-132428571D01*
X127857142Y-132476190D01*
X128238095Y-132476190D01*
X127095238Y-132380952D02*
X127190476Y-132333333D01*
X127238095Y-132285714D01*
X127285714Y-132190476D01*
X127285714Y-132142857D01*
X127238095Y-132047619D01*
X127190476Y-132000000D01*
X127095238Y-131952381D01*
X126904761Y-131952381D01*
X126809523Y-132000000D01*
X126761904Y-132047619D01*
X126714285Y-132142857D01*
X126714285Y-132190476D01*
X126761904Y-132285714D01*
X126809523Y-132333333D01*
X126904761Y-132380952D01*
X127095238Y-132380952D01*
X127190476Y-132428571D01*
X127238095Y-132476190D01*
X127285714Y-132571429D01*
X127285714Y-132761905D01*
X127238095Y-132857143D01*
X127190476Y-132904762D01*
X127095238Y-132952381D01*
X126904761Y-132952381D01*
X126809523Y-132904762D01*
X126761904Y-132857143D01*
X126714285Y-132761905D01*
X126714285Y-132571429D01*
X126761904Y-132476190D01*
X126809523Y-132428571D01*
X126904761Y-132380952D01*
X116666666Y-120952381D02*
X117000000Y-120476190D01*
X117238095Y-120952381D02*
X117238095Y-119952381D01*
X116857142Y-119952381D01*
X116761904Y-120000000D01*
X116714285Y-120047619D01*
X116666666Y-120142857D01*
X116666666Y-120285714D01*
X116714285Y-120380952D01*
X116761904Y-120428571D01*
X116857142Y-120476190D01*
X117238095Y-120476190D01*
X116190476Y-120952381D02*
X116000000Y-120952381D01*
X115904761Y-120904762D01*
X115857142Y-120857143D01*
X115761904Y-120714286D01*
X115714285Y-120523810D01*
X115714285Y-120142857D01*
X115761904Y-120047619D01*
X115809523Y-120000000D01*
X115904761Y-119952381D01*
X116095238Y-119952381D01*
X116190476Y-120000000D01*
X116238095Y-120047619D01*
X116285714Y-120142857D01*
X116285714Y-120380952D01*
X116238095Y-120476190D01*
X116190476Y-120523810D01*
X116095238Y-120571429D01*
X115904761Y-120571429D01*
X115809523Y-120523810D01*
X115761904Y-120476190D01*
X115714285Y-120380952D01*
X103207857Y-108842381D02*
X103541191Y-108366190D01*
X103779286Y-108842381D02*
X103779286Y-107842381D01*
X103398333Y-107842381D01*
X103303095Y-107890000D01*
X103255476Y-107937619D01*
X103207857Y-108032857D01*
X103207857Y-108175714D01*
X103255476Y-108270952D01*
X103303095Y-108318571D01*
X103398333Y-108366190D01*
X103779286Y-108366190D01*
X102255476Y-108842381D02*
X102826905Y-108842381D01*
X102541191Y-108842381D02*
X102541191Y-107842381D01*
X102636429Y-107985238D01*
X102731667Y-108080476D01*
X102826905Y-108128095D01*
X101303095Y-108842381D02*
X101874524Y-108842381D01*
X101588810Y-108842381D02*
X101588810Y-107842381D01*
X101684048Y-107985238D01*
X101779286Y-108080476D01*
X101874524Y-108128095D01*
X116842877Y-90251841D02*
X117176211Y-89775650D01*
X117414306Y-90251841D02*
X117414306Y-89251841D01*
X117033353Y-89251841D01*
X116938115Y-89299460D01*
X116890496Y-89347079D01*
X116842877Y-89442317D01*
X116842877Y-89585174D01*
X116890496Y-89680412D01*
X116938115Y-89728031D01*
X117033353Y-89775650D01*
X117414306Y-89775650D01*
X115890496Y-90251841D02*
X116461925Y-90251841D01*
X116176211Y-90251841D02*
X116176211Y-89251841D01*
X116271449Y-89394698D01*
X116366687Y-89489936D01*
X116461925Y-89537555D01*
X115557163Y-89251841D02*
X114938115Y-89251841D01*
X115271449Y-89632793D01*
X115128591Y-89632793D01*
X115033353Y-89680412D01*
X114985734Y-89728031D01*
X114938115Y-89823270D01*
X114938115Y-90061365D01*
X114985734Y-90156603D01*
X115033353Y-90204222D01*
X115128591Y-90251841D01*
X115414306Y-90251841D01*
X115509544Y-90204222D01*
X115557163Y-90156603D01*
X133842877Y-72251841D02*
X134176211Y-71775650D01*
X134414306Y-72251841D02*
X134414306Y-71251841D01*
X134033353Y-71251841D01*
X133938115Y-71299460D01*
X133890496Y-71347079D01*
X133842877Y-71442317D01*
X133842877Y-71585174D01*
X133890496Y-71680412D01*
X133938115Y-71728031D01*
X134033353Y-71775650D01*
X134414306Y-71775650D01*
X132890496Y-72251841D02*
X133461925Y-72251841D01*
X133176211Y-72251841D02*
X133176211Y-71251841D01*
X133271449Y-71394698D01*
X133366687Y-71489936D01*
X133461925Y-71537555D01*
X132033353Y-71585174D02*
X132033353Y-72251841D01*
X132271449Y-71204222D02*
X132509544Y-71918508D01*
X131890496Y-71918508D01*
X140261905Y-53952381D02*
X140261905Y-54761905D01*
X140214286Y-54857143D01*
X140166667Y-54904762D01*
X140071429Y-54952381D01*
X139880952Y-54952381D01*
X139785714Y-54904762D01*
X139738095Y-54857143D01*
X139690476Y-54761905D01*
X139690476Y-53952381D01*
X138690476Y-54952381D02*
X139261905Y-54952381D01*
X138976191Y-54952381D02*
X138976191Y-53952381D01*
X139071429Y-54095238D01*
X139166667Y-54190476D01*
X139261905Y-54238095D01*
X164933639Y-61344523D02*
X164528877Y-62045591D01*
X164440018Y-62104260D01*
X164374970Y-62121690D01*
X164268682Y-62115310D01*
X164103724Y-62020071D01*
X164045055Y-61931213D01*
X164027625Y-61866164D01*
X164034005Y-61759876D01*
X164438767Y-61058808D01*
X164019994Y-60927001D02*
X164002564Y-60861952D01*
X163943895Y-60773094D01*
X163737698Y-60654046D01*
X163631410Y-60647666D01*
X163566361Y-60665096D01*
X163477503Y-60723765D01*
X163429884Y-60806244D01*
X163399695Y-60953771D01*
X163608852Y-61734357D01*
X163072741Y-61424833D01*
X180417382Y-78386020D02*
X179716314Y-78790782D01*
X179610026Y-78797161D01*
X179544977Y-78779732D01*
X179456119Y-78721063D01*
X179360881Y-78556105D01*
X179354501Y-78449817D01*
X179371931Y-78384768D01*
X179430600Y-78295910D01*
X180131668Y-77891148D01*
X179941192Y-77561233D02*
X179631668Y-77025122D01*
X179468421Y-77504274D01*
X179396992Y-77380555D01*
X179308134Y-77321886D01*
X179243085Y-77304456D01*
X179136796Y-77310837D01*
X178930600Y-77429884D01*
X178871931Y-77518742D01*
X178854501Y-77583791D01*
X178860881Y-77690079D01*
X179003738Y-77937516D01*
X179092596Y-77996185D01*
X179157645Y-78013614D01*
X184952381Y-99738095D02*
X185761905Y-99738095D01*
X185857143Y-99785714D01*
X185904762Y-99833333D01*
X185952381Y-99928571D01*
X185952381Y-100119048D01*
X185904762Y-100214286D01*
X185857143Y-100261905D01*
X185761905Y-100309524D01*
X184952381Y-100309524D01*
X185285714Y-101214286D02*
X185952381Y-101214286D01*
X184904762Y-100976190D02*
X185619048Y-100738095D01*
X185619048Y-101357143D01*
X179468879Y-122066361D02*
X180169947Y-122471123D01*
X180228616Y-122559982D01*
X180246046Y-122625030D01*
X180239666Y-122731318D01*
X180144427Y-122896276D01*
X180055569Y-122954945D01*
X179990520Y-122972375D01*
X179884232Y-122965995D01*
X179183164Y-122561233D01*
X178706974Y-123386020D02*
X178945069Y-122973626D01*
X179381271Y-123170482D01*
X179316222Y-123187912D01*
X179227364Y-123246581D01*
X179108316Y-123452778D01*
X179101936Y-123559066D01*
X179119366Y-123624115D01*
X179178036Y-123712973D01*
X179384232Y-123832021D01*
X179490520Y-123838401D01*
X179555569Y-123820971D01*
X179644427Y-123762302D01*
X179763475Y-123556105D01*
X179769855Y-123449817D01*
X179752425Y-123384768D01*
X164386020Y-138706974D02*
X164790782Y-139408042D01*
X164797161Y-139514330D01*
X164779732Y-139579379D01*
X164721063Y-139668237D01*
X164556105Y-139763475D01*
X164449817Y-139769855D01*
X164384768Y-139752425D01*
X164295910Y-139693756D01*
X163891148Y-138992688D01*
X163107601Y-139445069D02*
X163272559Y-139349831D01*
X163378847Y-139343451D01*
X163443895Y-139360881D01*
X163597802Y-139436979D01*
X163734280Y-139578127D01*
X163924756Y-139908042D01*
X163931136Y-140014330D01*
X163913706Y-140079379D01*
X163855037Y-140168237D01*
X163690079Y-140263475D01*
X163583791Y-140269855D01*
X163518742Y-140252425D01*
X163429884Y-140193756D01*
X163310837Y-139987560D01*
X163304456Y-139881271D01*
X163321886Y-139816222D01*
X163380555Y-139727364D01*
X163545513Y-139632126D01*
X163651801Y-139625746D01*
X163716850Y-139643176D01*
X163805709Y-139701846D01*
X140261905Y-145952381D02*
X140261905Y-146761905D01*
X140214286Y-146857143D01*
X140166667Y-146904762D01*
X140071429Y-146952381D01*
X139880952Y-146952381D01*
X139785714Y-146904762D01*
X139738095Y-146857143D01*
X139690476Y-146761905D01*
X139690476Y-145952381D01*
X139309524Y-145952381D02*
X138642857Y-145952381D01*
X139071429Y-146952381D01*
X115933639Y-139468879D02*
X115528877Y-140169947D01*
X115440018Y-140228616D01*
X115374970Y-140246046D01*
X115268682Y-140239666D01*
X115103724Y-140144427D01*
X115045055Y-140055569D01*
X115027625Y-139990520D01*
X115034005Y-139884232D01*
X115438767Y-139183164D01*
X114485135Y-139787285D02*
X114320178Y-139692047D01*
X114261508Y-139603188D01*
X114244078Y-139538139D01*
X114233028Y-139366803D01*
X114287027Y-139178036D01*
X114477503Y-138848121D01*
X114566361Y-138789452D01*
X114631410Y-138772022D01*
X114737698Y-138778402D01*
X114902656Y-138873641D01*
X114961325Y-138962499D01*
X114978755Y-139027548D01*
X114972375Y-139133836D01*
X114853328Y-139340032D01*
X114764469Y-139398701D01*
X114699420Y-139416132D01*
X114593132Y-139409752D01*
X114428174Y-139314513D01*
X114369505Y-139225655D01*
X114352076Y-139160605D01*
X114358456Y-139054317D01*
X100531121Y-123798412D02*
X99830053Y-124203174D01*
X99723765Y-124209554D01*
X99658716Y-124192124D01*
X99569858Y-124133455D01*
X99474620Y-123968497D01*
X99468240Y-123862209D01*
X99485670Y-123797160D01*
X99544339Y-123708302D01*
X100245407Y-123303540D01*
X98879382Y-122937515D02*
X99165096Y-123432387D01*
X99022239Y-123184951D02*
X99888264Y-122684951D01*
X99812166Y-122838858D01*
X99777306Y-122968956D01*
X99783686Y-123075244D01*
X99028161Y-121861874D02*
X98450810Y-122195207D01*
X99477123Y-121877595D02*
X98977580Y-122440934D01*
X98668056Y-121904823D01*
X92952381Y-99261905D02*
X93761905Y-99261905D01*
X93857143Y-99309524D01*
X93904762Y-99357143D01*
X93952381Y-99452381D01*
X93952381Y-99642858D01*
X93904762Y-99738096D01*
X93857143Y-99785715D01*
X93761905Y-99833334D01*
X92952381Y-99833334D01*
X93952381Y-100833334D02*
X93952381Y-100261905D01*
X93952381Y-100547619D02*
X92952381Y-100547619D01*
X93095238Y-100452381D01*
X93190476Y-100357143D01*
X93238095Y-100261905D01*
X92952381Y-101738096D02*
X92952381Y-101261905D01*
X93428571Y-101214286D01*
X93380952Y-101261905D01*
X93333333Y-101357143D01*
X93333333Y-101595239D01*
X93380952Y-101690477D01*
X93428571Y-101738096D01*
X93523810Y-101785715D01*
X93761905Y-101785715D01*
X93857143Y-101738096D01*
X93904762Y-101690477D01*
X93952381Y-101595239D01*
X93952381Y-101357143D01*
X93904762Y-101261905D01*
X93857143Y-101214286D01*
X99582618Y-76653969D02*
X100283686Y-77058731D01*
X100342355Y-77147589D01*
X100359785Y-77212638D01*
X100353405Y-77318926D01*
X100258166Y-77483884D01*
X100169308Y-77542553D01*
X100104259Y-77559983D01*
X99997971Y-77553603D01*
X99296903Y-77148841D01*
X99662928Y-78514866D02*
X99948643Y-78019994D01*
X99805786Y-78267430D02*
X98939761Y-77767430D01*
X99111097Y-77756380D01*
X99241195Y-77721520D01*
X99330053Y-77662851D01*
X99186738Y-79339652D02*
X99472452Y-78844780D01*
X99329595Y-79092216D02*
X98463570Y-78592216D01*
X98634907Y-78581166D01*
X98765004Y-78546306D01*
X98853863Y-78487637D01*
X115798412Y-60344523D02*
X116203174Y-61045591D01*
X116209554Y-61151879D01*
X116192124Y-61216928D01*
X116133455Y-61305786D01*
X115968497Y-61401024D01*
X115862209Y-61407404D01*
X115797160Y-61389974D01*
X115708302Y-61331305D01*
X115303540Y-60630237D01*
X114937515Y-61996262D02*
X115432387Y-61710548D01*
X115184951Y-61853405D02*
X114684951Y-60987380D01*
X114838858Y-61063478D01*
X114968956Y-61098338D01*
X115075244Y-61091958D01*
X114148840Y-61296904D02*
X113571489Y-61630237D01*
X114442644Y-62281976D01*
%LPC*%
D11*
X160450000Y-110550000D03*
X120450000Y-110550000D03*
X71450000Y-25550000D03*
X39450000Y-85050000D03*
X39450000Y-118050000D03*
X71450000Y-177550000D03*
X139450000Y-201550000D03*
X207450000Y-177550000D03*
X239450000Y-117980000D03*
X239480000Y-85010000D03*
D12*
X56210000Y-105850000D03*
D13*
X56210000Y-103310000D03*
X56210000Y-100770000D03*
X56210000Y-98230000D03*
D14*
X201500000Y-69000000D03*
D15*
X201500000Y-71500000D03*
X141500000Y-72500000D03*
D14*
X141500000Y-67500000D03*
D15*
X160500000Y-78500000D03*
D14*
X160500000Y-73500000D03*
D15*
X169875000Y-89340000D03*
D14*
X169875000Y-84340000D03*
D15*
X168500000Y-106500000D03*
D14*
X173500000Y-106500000D03*
D15*
X162500000Y-119500000D03*
D14*
X167500000Y-119500000D03*
D15*
X150500000Y-130500000D03*
D14*
X155500000Y-130500000D03*
D15*
X202500000Y-78500000D03*
D14*
X204500000Y-78500000D03*
D15*
X138500000Y-129500000D03*
D14*
X138500000Y-134500000D03*
D15*
X126500000Y-125500000D03*
D14*
X121500000Y-125500000D03*
D15*
X117500000Y-113500000D03*
D14*
X112500000Y-113500000D03*
D15*
X213500000Y-78500000D03*
D14*
X208500000Y-78500000D03*
D15*
X112500000Y-104500000D03*
D14*
X107500000Y-104500000D03*
D15*
X210500000Y-69500000D03*
D14*
X208500000Y-69500000D03*
D15*
X116500000Y-82500000D03*
D14*
X111500000Y-82500000D03*
D15*
X132500000Y-64500000D03*
D14*
X127500000Y-64500000D03*
D16*
X144500000Y-175500000D03*
D17*
X147040000Y-175500000D03*
D18*
X192500000Y-72480000D03*
D19*
X192500000Y-68520000D03*
D20*
X159000000Y-149000000D03*
D21*
X161540000Y-149000000D03*
X159000000Y-151540000D03*
X161540000Y-151540000D03*
X159000000Y-154080000D03*
X161540000Y-154080000D03*
X159000000Y-156620000D03*
X161540000Y-156620000D03*
X159000000Y-159160000D03*
X161540000Y-159160000D03*
D20*
X100025000Y-149030000D03*
D21*
X102565000Y-149030000D03*
X100025000Y-151570000D03*
X102565000Y-151570000D03*
X100025000Y-154110000D03*
X102565000Y-154110000D03*
X100025000Y-156650000D03*
X102565000Y-156650000D03*
D18*
X122520000Y-101500000D03*
D19*
X126480000Y-101500000D03*
D18*
X152520000Y-101500000D03*
D19*
X156480000Y-101500000D03*
D18*
X137520000Y-101500000D03*
D19*
X141480000Y-101500000D03*
D22*
X137500000Y-67000640D03*
X137500000Y-72001900D03*
X156500000Y-73000640D03*
X156500000Y-78001900D03*
X165500000Y-82000640D03*
X165500000Y-87001900D03*
X172999360Y-102500000D03*
X167998100Y-102500000D03*
X168999360Y-115500000D03*
X163998100Y-115500000D03*
X159999360Y-127500000D03*
X154998100Y-127500000D03*
X142500000Y-132999360D03*
X142500000Y-127998100D03*
X124000640Y-129500000D03*
X129001900Y-129500000D03*
X113000640Y-117500000D03*
X118001900Y-117500000D03*
D23*
X205420000Y-102500000D03*
D24*
X210500000Y-102500000D03*
D23*
X207960000Y-99960000D03*
D22*
X108000640Y-108500000D03*
X113001900Y-108500000D03*
X218500000Y-74500000D03*
X208340000Y-74500000D03*
X111000640Y-86500000D03*
X116001900Y-86500000D03*
X128000640Y-68500000D03*
X133001900Y-68500000D03*
X96850000Y-187765000D03*
X96850000Y-177605000D03*
X192735000Y-187765000D03*
X192735000Y-177605000D03*
X174500000Y-196500000D03*
X174500000Y-186340000D03*
X144500000Y-166500000D03*
X154660000Y-166500000D03*
D17*
X153700160Y-175500000D03*
X161299840Y-175500000D03*
X91770000Y-182630000D03*
X91770000Y-187130000D03*
X85270000Y-182630000D03*
X85270000Y-187130000D03*
X203530000Y-176915000D03*
X203530000Y-181415000D03*
X197030000Y-176915000D03*
X197030000Y-181415000D03*
X185500000Y-186000000D03*
X185500000Y-190500000D03*
X179000000Y-186000000D03*
X179000000Y-190500000D03*
D25*
X142040000Y-61500000D03*
X139500000Y-61500000D03*
X136960000Y-61500000D03*
X162699705Y-68770000D03*
X160500000Y-67500000D03*
X158300295Y-66230000D03*
X174770000Y-83699705D03*
X173500000Y-81500000D03*
X172230000Y-79300295D03*
X178500000Y-103040000D03*
X178500000Y-100500000D03*
X178500000Y-97960000D03*
X172230000Y-121699705D03*
X173500000Y-119500000D03*
X174770000Y-117300295D03*
X158300295Y-134770000D03*
X160500000Y-133500000D03*
X162699705Y-132230000D03*
X136960000Y-139500000D03*
X139500000Y-139500000D03*
X142040000Y-139500000D03*
X116300295Y-132230000D03*
X118500000Y-133500000D03*
X120699705Y-134770000D03*
D26*
X135500000Y-39500000D03*
D27*
X138040000Y-39500000D03*
X140580000Y-39500000D03*
X143120000Y-39500000D03*
D12*
X225500000Y-97500000D03*
D13*
X225500000Y-100040000D03*
X225500000Y-102580000D03*
X225500000Y-105120000D03*
D26*
X144500000Y-184500000D03*
D27*
X141960000Y-184500000D03*
X139420000Y-184500000D03*
X136880000Y-184500000D03*
D25*
X104230000Y-117300295D03*
X105500000Y-119500000D03*
X106770000Y-121699705D03*
X100500000Y-97960000D03*
X100500000Y-100500000D03*
X100500000Y-103040000D03*
X106770000Y-79300295D03*
X105500000Y-81500000D03*
X104230000Y-83699705D03*
X120699705Y-66230000D03*
X118500000Y-67500000D03*
X116300295Y-68770000D03*
X186960000Y-163280000D03*
X207280000Y-130260000D03*
X204740000Y-132800000D03*
X204740000Y-130260000D03*
X202200000Y-132800000D03*
X202200000Y-130260000D03*
X199660000Y-132800000D03*
X199660000Y-130260000D03*
X197120000Y-132800000D03*
X197120000Y-130260000D03*
X194580000Y-132800000D03*
X194580000Y-130260000D03*
X192040000Y-132800000D03*
X192040000Y-130260000D03*
X189500000Y-132800000D03*
X189500000Y-130260000D03*
X186960000Y-132800000D03*
X186960000Y-130260000D03*
X184420000Y-132800000D03*
X184420000Y-130260000D03*
X181880000Y-132800000D03*
X181880000Y-130260000D03*
X179340000Y-132800000D03*
X179340000Y-130260000D03*
X176800000Y-132800000D03*
X176800000Y-130260000D03*
X174260000Y-132800000D03*
X174260000Y-130260000D03*
X171720000Y-132800000D03*
X171720000Y-130260000D03*
X169180000Y-132800000D03*
X169180000Y-130260000D03*
X207280000Y-132800000D03*
X212360000Y-132800000D03*
X212360000Y-130260000D03*
X214900000Y-132800000D03*
X214900000Y-130260000D03*
X217440000Y-132800000D03*
X217440000Y-130260000D03*
X219980000Y-130260000D03*
X219980000Y-132800000D03*
X169180000Y-150580000D03*
X171720000Y-150580000D03*
X169180000Y-155660000D03*
X169180000Y-153120000D03*
X171720000Y-155660000D03*
X171720000Y-153120000D03*
X186960000Y-160740000D03*
X184420000Y-163280000D03*
X184420000Y-160740000D03*
X181880000Y-163280000D03*
X181880000Y-160740000D03*
X179340000Y-163280000D03*
X179340000Y-160740000D03*
X176800000Y-163280000D03*
X176800000Y-160740000D03*
X174260000Y-163280000D03*
X174260000Y-160740000D03*
X171720000Y-163280000D03*
X171720000Y-160740000D03*
X169180000Y-163280000D03*
X169180000Y-160740000D03*
X209820000Y-163280000D03*
X209820000Y-160740000D03*
X207280000Y-163280000D03*
X207280000Y-160740000D03*
X204740000Y-163280000D03*
X204740000Y-160740000D03*
X202200000Y-163280000D03*
X202200000Y-160740000D03*
X199660000Y-163280000D03*
X199660000Y-160740000D03*
X197120000Y-163280000D03*
X197120000Y-160740000D03*
X194580000Y-163280000D03*
X194580000Y-160740000D03*
X192040000Y-163280000D03*
X192040000Y-160740000D03*
X214900000Y-163280000D03*
X214900000Y-160740000D03*
X217440000Y-163280000D03*
X217440000Y-160740000D03*
X219980000Y-163280000D03*
X219980000Y-160740000D03*
X169180000Y-158200000D03*
X171720000Y-158200000D03*
X189500000Y-163280000D03*
X189500000Y-160740000D03*
X89200000Y-56120000D03*
X89200000Y-40880000D03*
X86660000Y-56120000D03*
X84120000Y-56120000D03*
X81580000Y-56120000D03*
X79040000Y-56120000D03*
X76500000Y-56120000D03*
X73960000Y-56120000D03*
X71420000Y-56120000D03*
X68880000Y-56120000D03*
X66340000Y-56120000D03*
X63800000Y-56120000D03*
X61260000Y-56120000D03*
X61260000Y-40880000D03*
X66340000Y-40880000D03*
X63800000Y-40880000D03*
X68880000Y-40880000D03*
X71420000Y-40880000D03*
X73960000Y-40880000D03*
X76500000Y-40880000D03*
X79040000Y-40880000D03*
X81580000Y-40880000D03*
X84120000Y-40880000D03*
X86660000Y-40880000D03*
X93200000Y-160120000D03*
X93200000Y-144880000D03*
X90660000Y-160120000D03*
X88120000Y-160120000D03*
X85580000Y-160120000D03*
X83040000Y-160120000D03*
X80500000Y-160120000D03*
X77960000Y-160120000D03*
X75420000Y-160120000D03*
X72880000Y-160120000D03*
X70340000Y-160120000D03*
X67800000Y-160120000D03*
X65260000Y-160120000D03*
X65260000Y-144880000D03*
X70340000Y-144880000D03*
X67800000Y-144880000D03*
X72880000Y-144880000D03*
X75420000Y-144880000D03*
X77960000Y-144880000D03*
X80500000Y-144880000D03*
X83040000Y-144880000D03*
X85580000Y-144880000D03*
X88120000Y-144880000D03*
X90660000Y-144880000D03*
D26*
X66370000Y-76640000D03*
D27*
X68910000Y-76640000D03*
X71450000Y-76640000D03*
X73990000Y-76640000D03*
X76530000Y-76640000D03*
X79070000Y-76640000D03*
X81610000Y-76640000D03*
X84150000Y-76640000D03*
D28*
X108250000Y-45250000D03*
X112750000Y-45250000D03*
X112750000Y-93750000D03*
X108250000Y-93750000D03*
D25*
X123050000Y-84700000D03*
X123050000Y-82160000D03*
X123050000Y-79620000D03*
X123050000Y-77080000D03*
X123050000Y-74540000D03*
X123050000Y-72000000D03*
X123050000Y-69460000D03*
D28*
X166250000Y-45250000D03*
X170750000Y-45250000D03*
X170750000Y-93750000D03*
X166250000Y-93750000D03*
D25*
X181050000Y-84700000D03*
X181050000Y-82160000D03*
X181050000Y-79620000D03*
X181050000Y-77080000D03*
X181050000Y-74540000D03*
X181050000Y-72000000D03*
X181050000Y-69460000D03*
D28*
X137250000Y-45250000D03*
X141750000Y-45250000D03*
X141750000Y-93750000D03*
X137250000Y-93750000D03*
D25*
X152050000Y-84700000D03*
X152050000Y-82160000D03*
X152050000Y-79620000D03*
X152050000Y-77080000D03*
X152050000Y-74540000D03*
X152050000Y-72000000D03*
X152050000Y-69460000D03*
D11*
X207510000Y-25480000D03*
M02*
