M48
;DRILL file {KiCad 4.0.1-stable} date 2016/11/10 0:03:07
;FORMAT={3:3/ absolute / metric / suppress trailing zeros}
FMAT,2
METRIC,LZ
T1C0.300
T2C0.510
T3C0.762
T4C0.800
T5C1.001
T6C1.016
T7C1.100
T8C1.700
T9C2.300
%
G90
G05
M71
T1
X07145Y-06775
X073355Y-14903
X07399Y-06394
X08542Y-14903
X11844Y-06214
X1185Y-0675
X12948Y-14894
X12952Y-14744
X13175Y-15524
X13281Y-1325
X13286Y-1408
X13354Y-08064
X13519Y-08049
X13527Y-02901
X13599Y-15726
X13666Y-08042
X13834Y-16139
X13942Y-1845
X13947Y-17953
X14046Y-15295
X14152Y-17926
X14196Y-1845
X14292Y-15737
X14453Y-14897
X14516Y-14744
X14695Y-07975
X14695Y-10339
X1473Y-14562
X14829Y-07964
X14834Y-10305
X14846Y-14597
X14927Y-14368
X14933Y-10278
X14942Y-07975
X15097Y-14289
X15192Y-14166
X15276Y-13264
X1539Y-14608
X15491Y-13607
X15565Y-16193
X15578Y-16374
X15642Y-13253
X1565Y-12233
X15752Y-12135
X15851Y-12077
X15863Y-17089
X16124Y-16924
X16259Y-16642
X16312Y-12192
X1652Y-1715
X16673Y-13809
X16837Y-12335
X16837Y-13677
X16935Y-17318
X16958Y-17972
X17026Y-16845
X17172Y-1328
X17258Y-13783
X17305Y-16847
X17409Y-05761
X17441Y-17703
X18084Y-09196
X18149Y-09038
X18321Y-10934
X1843Y-0277
X18484Y-10916
X18659Y-05649
X18668Y-05987
X18678Y-10646
X1872Y-09434
X18763Y-08226
X19735Y-10228
X20115Y-11548
X20227Y-11406
X20465Y-08946
X20777Y-09301
X20869Y-08657
X21059Y-13277
X21159Y-11659
X21651Y-05812
X21797Y-12077
X22051Y-1251
X22997Y-08126
X23434Y-08131
T2
X20542Y-1025
X20796Y-09996
X2105Y-1025
T3
X06126Y-04088
X06126Y-05612
X0638Y-04088
X0638Y-05612
X06526Y-14488
X06526Y-16012
X06634Y-04088
X06634Y-05612
X0678Y-14488
X0678Y-16012
X06888Y-04088
X06888Y-05612
X07034Y-14488
X07034Y-16012
X07142Y-04088
X07142Y-05612
X07288Y-14488
X07288Y-16012
X07396Y-04088
X07396Y-05612
X07542Y-14488
X07542Y-16012
X0765Y-04088
X0765Y-05612
X07796Y-14488
X07796Y-16012
X07904Y-04088
X07904Y-05612
X0805Y-14488
X0805Y-16012
X08158Y-04088
X08158Y-05612
X08304Y-14488
X08304Y-16012
X08412Y-04088
X08412Y-05612
X08558Y-14488
X08558Y-16012
X08666Y-04088
X08666Y-05612
X08812Y-14488
X08812Y-16012
X0892Y-04088
X0892Y-05612
X09066Y-14488
X09066Y-16012
X0932Y-14488
X0932Y-16012
X1005Y-09796
X1005Y-1005
X1005Y-10304
X10423Y-0837
X10423Y-1173
X1055Y-0815
X1055Y-1195
X10677Y-0793
X10677Y-1217
X1163Y-06877
X1163Y-13223
X1185Y-0675
X1185Y-1335
X1207Y-06623
X1207Y-13477
X12305Y-06946
X12305Y-072
X12305Y-07454
X12305Y-07708
X12305Y-07962
X12305Y-08216
X12305Y-0847
X13696Y-0615
X13696Y-1395
X1395Y-0615
X1395Y-1395
X14204Y-0615
X14204Y-1395
X15205Y-06946
X15205Y-072
X15205Y-07454
X15205Y-07708
X15205Y-07962
X15205Y-08216
X15205Y-0847
X1583Y-06623
X1583Y-13477
X1605Y-0675
X1605Y-1335
X1627Y-06877
X1627Y-13223
X16918Y-13026
X16918Y-1328
X16918Y-15058
X16918Y-15312
X16918Y-15566
X16918Y-1582
X16918Y-16074
X16918Y-16328
X17172Y-13026
X17172Y-1328
X17172Y-15058
X17172Y-15312
X17172Y-15566
X17172Y-1582
X17172Y-16074
X17172Y-16328
X17223Y-0793
X17223Y-1217
X1735Y-0815
X1735Y-1195
X17426Y-13026
X17426Y-1328
X17426Y-16074
X17426Y-16328
X17477Y-0837
X17477Y-1173
X1768Y-13026
X1768Y-1328
X1768Y-16074
X1768Y-16328
X1785Y-09796
X1785Y-1005
X1785Y-10304
X17934Y-13026
X17934Y-1328
X17934Y-16074
X17934Y-16328
X18105Y-06946
X18105Y-072
X18105Y-07454
X18105Y-07708
X18105Y-07962
X18105Y-08216
X18105Y-0847
X18188Y-13026
X18188Y-1328
X18188Y-16074
X18188Y-16328
X18442Y-13026
X18442Y-1328
X18442Y-16074
X18442Y-16328
X18696Y-13026
X18696Y-1328
X18696Y-16074
X18696Y-16328
X1895Y-13026
X1895Y-1328
X1895Y-16074
X1895Y-16328
X19204Y-13026
X19204Y-1328
X19204Y-16074
X19204Y-16328
X19458Y-13026
X19458Y-1328
X19458Y-16074
X19458Y-16328
X19712Y-13026
X19712Y-1328
X19712Y-16074
X19712Y-16328
X19966Y-13026
X19966Y-1328
X19966Y-16074
X19966Y-16328
X2022Y-13026
X2022Y-1328
X2022Y-16074
X2022Y-16328
X20474Y-13026
X20474Y-1328
X20474Y-16074
X20474Y-16328
X20728Y-13026
X20728Y-1328
X20728Y-16074
X20728Y-16328
X20982Y-16074
X20982Y-16328
X21236Y-13026
X21236Y-1328
X2149Y-13026
X2149Y-1328
X2149Y-16074
X2149Y-16328
X21744Y-13026
X21744Y-1328
X21744Y-16074
X21744Y-16328
X21998Y-13026
X21998Y-1328
X21998Y-16074
X21998Y-16328
T4
X1075Y-1045
X1115Y-0825
X1125Y-1045
X1125Y-1135
X1165Y-0825
X1175Y-1135
X1215Y-1255
X1265Y-1255
X1275Y-0645
X1325Y-0645
X1385Y-1295
X1385Y-1345
X1415Y-0675
X1415Y-0725
X1505Y-1305
X1555Y-1305
X1605Y-0735
X1605Y-0785
X1625Y-1195
X1675Y-1195
X1685Y-1065
X169875Y-08434
X169875Y-08934
X1735Y-1065
X2015Y-069
X2015Y-0715
X2025Y-0785
X2045Y-0785
X2085Y-0695
X2085Y-0785
X2105Y-0695
X2135Y-0785
T5
X09685Y-177605
X09685Y-187765
X108001Y-1085
X111001Y-0865
X113001Y-1175
X113002Y-1085
X116002Y-0865
X118002Y-1175
X124001Y-1295
X128001Y-0685
X129002Y-1295
X133002Y-0685
X1375Y-067001
X1375Y-072002
X1425Y-127998
X1425Y-132999
X1445Y-1665
X1445Y-1755
X14704Y-1755
X1537Y-1755
X15466Y-1665
X154998Y-1275
X1565Y-073001
X1565Y-078002
X159999Y-1275
X1613Y-1755
X163998Y-1155
X1655Y-082001
X1655Y-087002
X167998Y-1025
X168999Y-1155
X172999Y-1025
X1745Y-18634
X1745Y-1965
X192735Y-177605
X192735Y-187765
X20834Y-0745
X2185Y-0745
T6
X05621Y-09823
X05621Y-10077
X05621Y-10331
X05621Y-10585
X06637Y-07664
X06891Y-07664
X07145Y-07664
X07399Y-07664
X07653Y-07664
X07907Y-07664
X08161Y-07664
X08415Y-07664
X100025Y-14903
X100025Y-15157
X100025Y-15411
X100025Y-15665
X102565Y-14903
X102565Y-15157
X102565Y-15411
X102565Y-15665
X1355Y-0395
X13688Y-1845
X13804Y-0395
X13942Y-1845
X14058Y-0395
X14196Y-1845
X14312Y-0395
X1445Y-1845
X159Y-149
X159Y-15154
X159Y-15408
X159Y-15662
X159Y-15916
X16154Y-149
X16154Y-15154
X16154Y-15408
X16154Y-15662
X16154Y-15916
X2255Y-0975
X2255Y-10004
X2255Y-10258
X2255Y-10512
T7
X08527Y-18263
X08527Y-18713
X09177Y-18263
X09177Y-18713
X179Y-186
X179Y-1905
X1855Y-186
X1855Y-1905
X19703Y-176915
X19703Y-181415
X20353Y-176915
X20353Y-181415
T8
X12252Y-1015
X12648Y-1015
X13752Y-1015
X14148Y-1015
X15252Y-1015
X15648Y-1015
X1925Y-06852
X1925Y-07248
T9
X10825Y-04525
X10825Y-09375
X11275Y-04525
X11275Y-09375
X13725Y-04525
X13725Y-09375
X14175Y-04525
X14175Y-09375
X16625Y-04525
X16625Y-09375
X17075Y-04525
X17075Y-09375
T0
M30
